<svg width="44" height="44" viewBox="0 0 44 44" fill="none" xmlns="http://www.w3.org/2000/svg">
<rect width="44" height="44" rx="12" fill="url(#paint0_linear_3334_38241)"/>
<path opacity="0.1" d="M28.3086 33.6245C30.8363 32.1651 32.7828 29.3327 33.8677 26.6231C34.9526 23.9134 35.0955 20.9178 34.2734 18.1172C33.4513 15.3166 31.7119 12.8735 29.3346 11.1801C26.9572 9.48679 24.0798 8.64146 21.1643 8.77986C18.2489 8.91827 15.4644 10.0324 13.2582 11.9433C11.052 13.8543 9.55186 16.4512 8.99878 19.317C8.44569 22.1829 8.87172 25.1515 10.2084 27.7462C11.5451 30.3409 13.715 32.4111 16.3696 33.6245" stroke="url(#paint1_linear_3334_38241)" stroke-width="5" stroke-linecap="round"/>
<g filter="url(#filter0_d_3334_38241)">
<path d="M34.2873 18.1799C33.4652 15.3793 31.8247 12.8734 29.4474 11.1801C27.07 9.48676 24.1926 8.64143 21.2771 8.77983C18.3616 8.91824 15.5772 10.0324 13.371 11.9433C11.1647 13.8542 9.66465 16.4511 9.11157 19.317C8.55849 22.1829 8.98451 25.1515 10.3212 27.7462C11.6579 30.3409 13.8278 32.4111 16.4824 33.6245" stroke="url(#paint2_linear_3334_38241)" stroke-width="5" stroke-linecap="round"/>
</g>
<g filter="url(#filter1_d_3334_38241)">
<circle cx="34.2491" cy="18.1801" r="0.276489" fill="white"/>
</g>
<path d="M27.3118 31.2402C29.3662 30.0541 30.968 28.2186 31.8651 26.0225C32.7622 23.8264 32.9037 21.3944 32.2674 19.109C31.631 16.8237 30.2529 14.8148 28.3499 13.3984C26.4469 11.982 24.1269 11.2385 21.7551 11.2849C19.3833 11.3313 17.0942 12.1649 15.248 13.6546C13.4018 15.1443 12.1033 17.2056 11.5568 19.514C11.0103 21.8225 11.2467 24.2471 12.229 26.4065C13.2113 28.5658 14.8836 30.3373 16.9828 31.4422" stroke="#6BCCFE" stroke-width="0.0789969" stroke-linecap="round" stroke-dasharray="0 0.08 1.11 0 0.08 1.11"/>
<defs>
<filter id="filter0_d_3334_38241" x="5.19005" y="5.47517" width="32.784" height="32.2298" filterUnits="userSpaceOnUse" color-interpolation-filters="sRGB">
<feFlood flood-opacity="0" result="BackgroundImageFix"/>
<feColorMatrix in="SourceAlpha" type="matrix" values="0 0 0 0 0 0 0 0 0 0 0 0 0 0 0 0 0 0 127 0" result="hardAlpha"/>
<feOffset dy="0.394985"/>
<feGaussianBlur stdDeviation="0.592477"/>
<feColorMatrix type="matrix" values="0 0 0 0 0.505882 0 0 0 0 0.831373 0 0 0 0 0.996078 0 0 0 0.2 0"/>
<feBlend mode="normal" in2="BackgroundImageFix" result="effect1_dropShadow_3334_38241"/>
<feBlend mode="normal" in="SourceGraphic" in2="effect1_dropShadow_3334_38241" result="shape"/>
</filter>
<filter id="filter1_d_3334_38241" x="33.8937" y="17.8246" width="0.712681" height="0.710972" filterUnits="userSpaceOnUse" color-interpolation-filters="sRGB">
<feFlood flood-opacity="0" result="BackgroundImageFix"/>
<feColorMatrix in="SourceAlpha" type="matrix" values="0 0 0 0 0 0 0 0 0 0 0 0 0 0 0 0 0 0 127 0" result="hardAlpha"/>
<feOffset/>
<feGaussianBlur stdDeviation="0.0394985"/>
<feColorMatrix type="matrix" values="0 0 0 0 0 0 0 0 0 0 0 0 0 0 0 0 0 0 0.15 0"/>
<feBlend mode="normal" in2="BackgroundImageFix" result="effect1_dropShadow_3334_38241"/>
<feBlend mode="normal" in="SourceGraphic" in2="effect1_dropShadow_3334_38241" result="shape"/>
</filter>
<linearGradient id="paint0_linear_3334_38241" x1="22" y1="0" x2="22" y2="44" gradientUnits="userSpaceOnUse">
<stop stop-color="#D6F1FF"/>
<stop offset="1" stop-color="#B4E6FF"/>
</linearGradient>
<linearGradient id="paint1_linear_3334_38241" x1="33.181" y1="15.4906" x2="10.6318" y2="28.5094" gradientUnits="userSpaceOnUse">
<stop stop-color="#1378AB"/>
<stop offset="1" stop-color="#183949"/>
</linearGradient>
<linearGradient id="paint2_linear_3334_38241" x1="31.7316" y1="12.946" x2="9.25223" y2="25.9245" gradientUnits="userSpaceOnUse">
<stop stop-color="#7AD3FF"/>
<stop offset="1" stop-color="#4FBAF0"/>
</linearGradient>
</defs>
</svg>
