<svg width="44" height="44" viewBox="0 0 44 44" fill="none" xmlns="http://www.w3.org/2000/svg">
<rect width="44" height="44" rx="12" fill="url(#paint0_linear_3334_38189)"/>
<path fill-rule="evenodd" clip-rule="evenodd" d="M16.8999 11.1625C17.1633 11.4262 17.3112 11.7836 17.3112 12.1562C17.3112 12.5289 17.1633 12.8863 16.8999 13.15L13.1499 16.9C12.8862 17.1633 12.5288 17.3112 12.1562 17.3112C11.7835 17.3112 11.4261 17.1633 11.1624 16.9L9.28742 15.025C9.03902 14.7584 8.90379 14.4058 8.91022 14.0415C8.91665 13.6772 9.06423 13.3296 9.32188 13.0719C9.57953 12.8143 9.92713 12.6667 10.2914 12.6603C10.6558 12.6539 11.0083 12.7891 11.2749 13.0375L12.1562 13.9187L14.9124 11.1625C15.1761 10.8991 15.5335 10.7512 15.9062 10.7512C16.2788 10.7512 16.6362 10.8991 16.8999 11.1625ZM19.1874 14.0312C19.1874 14.8075 19.8174 15.4375 20.5937 15.4375H33.7187C34.0916 15.4375 34.4493 15.2893 34.713 15.0256C34.9768 14.7619 35.1249 14.4042 35.1249 14.0312C35.1249 13.6583 34.9768 13.3006 34.713 13.0369C34.4493 12.7731 34.0916 12.625 33.7187 12.625H20.5937C20.2207 12.625 19.863 12.7731 19.5993 13.0369C19.3356 13.3006 19.1874 13.6583 19.1874 14.0312ZM20.5937 20.5937C20.2207 20.5937 19.863 20.7419 19.5993 21.0056C19.3356 21.2693 19.1874 21.627 19.1874 22C19.1874 22.3729 19.3356 22.7306 19.5993 22.9944C19.863 23.2581 20.2207 23.4062 20.5937 23.4062H33.7187C34.0916 23.4062 34.4493 23.2581 34.713 22.9944C34.9768 22.7306 35.1249 22.3729 35.1249 22C35.1249 21.627 34.9768 21.2693 34.713 21.0056C34.4493 20.7419 34.0916 20.5937 33.7187 20.5937H20.5937ZM16.8999 20.65C17.1483 20.3834 17.2836 20.0308 17.2771 19.6665C17.2707 19.3022 17.1231 18.9546 16.8655 18.6969C16.6078 18.4393 16.2602 18.2917 15.8959 18.2853C15.5316 18.2789 15.179 18.4141 14.9124 18.6625L12.1562 21.4187L11.2749 20.5375C11.0083 20.2891 10.6558 20.1539 10.2914 20.1603C9.92713 20.1667 9.57953 20.3143 9.32188 20.5719C9.06423 20.8296 8.91665 21.1772 8.91022 21.5415C8.90379 21.9058 9.03902 22.2584 9.28742 22.525L11.1624 24.4C11.4261 24.6633 11.7835 24.8112 12.1562 24.8112C12.5288 24.8112 12.8862 24.6633 13.1499 24.4L16.8999 20.65ZM16.8999 26.6312C17.1633 26.8949 17.3112 27.2523 17.3112 27.625C17.3112 27.9976 17.1633 28.3551 16.8999 28.6187L13.1499 32.3687C12.8862 32.6321 12.5288 32.78 12.1562 32.78C11.7835 32.78 11.4261 32.6321 11.1624 32.3687L9.28742 30.4937C9.14926 30.365 9.03844 30.2097 8.96158 30.0372C8.88472 29.8647 8.84339 29.6785 8.84006 29.4897C8.83673 29.3009 8.87146 29.1133 8.94219 28.9382C9.01292 28.7631 9.11819 28.6041 9.25172 28.4705C9.38526 28.337 9.54432 28.2317 9.71943 28.161C9.89453 28.0903 10.0821 28.0555 10.2709 28.0589C10.4597 28.0622 10.6459 28.1035 10.8184 28.1804C10.9909 28.2573 11.1462 28.3681 11.2749 28.5062L12.1562 29.3875L14.9124 26.6312C15.1761 26.3679 15.5335 26.22 15.9062 26.22C16.2788 26.22 16.6362 26.3679 16.8999 26.6312ZM20.5937 28.5625C20.2207 28.5625 19.863 28.7106 19.5993 28.9744C19.3356 29.2381 19.1874 29.5958 19.1874 29.9687C19.1874 30.3417 19.3356 30.6994 19.5993 30.9631C19.863 31.2268 20.2207 31.375 20.5937 31.375H33.7187C34.0916 31.375 34.4493 31.2268 34.713 30.9631C34.9768 30.6994 35.1249 30.3417 35.1249 29.9687C35.1249 29.5958 34.9768 29.2381 34.713 28.9744C34.4493 28.7106 34.0916 28.5625 33.7187 28.5625H20.5937Z" fill="url(#paint1_linear_3334_38189)"/>
<defs>
<linearGradient id="paint0_linear_3334_38189" x1="22" y1="44" x2="22" y2="0" gradientUnits="userSpaceOnUse">
<stop offset="0.64" stop-color="#EEF3A0"/>
<stop offset="1" stop-color="#FCFFCD"/>
</linearGradient>
<linearGradient id="paint1_linear_3334_38189" x1="21.9824" y1="10.7512" x2="21.9824" y2="32.78" gradientUnits="userSpaceOnUse">
<stop stop-color="#F0BF33"/>
<stop offset="1" stop-color="#C49A24"/>
</linearGradient>
</defs>
</svg>
