<svg width="18" height="24" viewBox="0 0 18 24" fill="none" xmlns="http://www.w3.org/2000/svg">
<path d="M15.4396 0.163588C13.1467 0.54575 11.2134 1.49741 9.60979 3.01107C8.92789 3.6555 7.7814 5.24409 6.74732 6.99005C6.07291 8.12155 4.65667 10.9241 4.20706 12.0106C4.01224 12.4827 3.57013 13.4643 3.22543 14.1837C2.14639 16.4467 1.08982 19.0469 0.325496 21.3324C-0.0866395 22.5613 -0.0941314 22.7336 0.228084 23.2956C0.325497 23.4605 0.535312 23.6853 0.692672 23.7977C0.95494 23.9775 1.05985 24 1.59188 24C2.52106 24 2.581 23.9326 3.20295 22.1416C3.9448 19.9836 5.37603 16.4317 5.50342 16.4317C5.53339 16.4317 5.7507 16.8813 5.99798 17.4208C6.97212 19.6014 8.65063 23.1158 8.84546 23.3706C9.08525 23.6853 9.42994 23.8501 9.83459 23.8501C10.6963 23.8426 11.5431 22.8835 11.3932 22.0742C11.3707 21.9393 11.0635 21.2275 10.7038 20.5006C9.67723 18.3575 7.98372 14.6183 8.02119 14.5584C8.03618 14.5284 8.13359 14.5209 8.22351 14.5359C8.4633 14.5808 13.5438 13.6217 13.7461 13.5018C14.1957 13.2245 14.3531 12.5876 14.1658 11.8158C13.881 10.6768 13.1766 9.49283 12.1276 8.42878C11.8653 8.15901 11.5731 7.79933 11.4906 7.62699C11.4082 7.46213 11.071 7.06498 10.7338 6.74277L10.1343 6.16578L10.4116 5.75364C10.7862 5.18414 11.6705 4.32241 12.2999 3.91027C13.0343 3.4232 13.6112 3.14595 14.428 2.88368C15.0425 2.68885 15.4546 2.60643 16.9533 2.37413C17.2905 2.32168 17.6352 2.01445 17.7251 1.67725C17.875 1.10026 17.7251 0.661894 17.416 0.311581C17.1537 0.0143337 16.7135 -0.0238266 16.3201 0.0103817C15.9267 0.04459 16.0578 0.0605545 15.4396 0.163588ZM10.8387 10.5644C11.1085 10.8791 11.5206 11.5011 11.4756 11.5385C11.4457 11.576 9.49739 11.9357 9.35501 11.9357C9.27258 11.9357 9.28008 11.8907 9.38498 11.7034C9.58731 11.3512 10.449 10.2871 10.524 10.2871C10.5614 10.2871 10.7038 10.4145 10.8387 10.5644Z" fill="white"/>
<path d="M12.6292 4.10788C12.0672 4.3102 11.7524 4.58745 11.4902 5.1045C10.9806 6.12359 11.3328 7.29256 12.3145 7.83208C12.6591 8.02691 12.794 8.05688 13.2811 8.05688C13.7307 8.05688 13.918 8.01942 14.2028 7.86955C15.3867 7.27008 15.694 5.69647 14.8247 4.66988C14.3526 4.10788 13.3485 3.8531 12.6292 4.10788Z" fill="white"/>
</svg>
