<svg width="24" height="24" viewBox="0 0 24 24" fill="none" xmlns="http://www.w3.org/2000/svg">
<path d="M5.34266 21.2422C5.45893 21.3197 5.60846 21.3273 5.78253 21.2912C6.12699 21.2198 6.64875 20.9582 7.43153 20.5026L7.43222 20.5019C8.72368 19.7412 9.54551 19.121 10.6888 18.0367L10.6895 18.036C11.5166 17.2501 12.1107 16.5826 12.5822 15.8588C13.0539 15.1345 13.4007 14.3573 13.7368 13.3549V13.3535C13.8125 13.1207 13.8877 12.9145 13.9467 12.7707C13.9504 12.7617 13.9542 12.7529 13.9578 12.7445C13.9628 12.7624 13.9707 12.7808 13.9757 12.8011C14.0079 12.9307 14.0384 13.0992 14.0641 13.2831C14.1158 13.6519 14.146 14.0713 14.129 14.3493L14.1283 14.35C14.0306 16.0443 13.0594 17.7521 11.121 19.5504C9.76216 20.8159 8.53304 21.4624 7.33899 21.5481C7.19698 21.5583 7.08388 21.568 6.99442 21.5805C6.90593 21.5929 6.8328 21.61 6.77276 21.6378C6.63745 21.7007 6.59458 21.8102 6.55317 21.9403L6.55248 21.9424C6.51083 22.0803 6.50168 22.2098 6.53383 22.3242C6.56668 22.4408 6.63973 22.533 6.74445 22.5984C6.947 22.7248 7.26626 22.7512 7.66424 22.6978H7.66562C8.92062 22.5185 10.1929 21.898 11.4642 20.8396C12.8883 19.6637 14.3261 17.7902 14.8734 16.3863C15.5324 14.6941 15.5191 12.9786 14.8099 11.6562L14.5454 11.1638L17.8137 7.89553L18.3723 7.88379C19.3787 7.8655 20.2206 7.27276 20.5171 6.36186H20.5185C20.5945 6.14035 20.6222 5.83439 20.6124 5.53874C20.6051 5.31691 20.5767 5.09245 20.5268 4.90483L20.4702 4.73082C20.3772 4.50314 20.1693 4.24633 19.9336 4.02716C19.6973 3.8074 19.4196 3.6138 19.1747 3.51962C18.6524 3.31696 18.1945 3.31734 17.6355 3.49959L17.6349 3.50028C16.6742 3.8089 16.0015 4.86268 16.106 5.86467L16.1419 6.23204L14.4985 7.85341L12.8646 9.45269L12.3019 9.17302C10.5697 8.31593 8.65638 8.4771 6.59943 9.63292L6.59874 9.63361C4.91857 10.5803 3.15075 12.2757 2.24354 13.7996C1.90471 14.3703 1.6313 15.0149 1.46324 15.5964C1.37921 15.8872 1.32137 16.1646 1.29475 16.4098C1.26836 16.6533 1.27212 16.8722 1.31754 17.0444C1.37533 17.2714 1.52828 17.4301 1.71805 17.485C1.90868 17.54 2.122 17.4857 2.28912 17.3186C2.30685 17.3008 2.31817 17.2794 2.32503 17.2647C2.33278 17.248 2.33942 17.229 2.34574 17.2095C2.35848 17.17 2.37133 17.1205 2.38303 17.0658C2.40654 16.9559 2.42872 16.8163 2.44656 16.6736L2.44725 16.6701L2.44656 16.6695C2.49216 16.1223 2.75716 15.2903 3.05147 14.7304L3.05216 14.7297C3.76408 13.3699 5.43972 11.6698 6.98682 10.7509L7.26925 10.5955C7.57432 10.4406 7.93977 10.2895 8.30436 10.1639C8.7911 9.99635 9.26664 9.87793 9.58806 9.85527C9.84647 9.83842 10.313 9.88078 10.7185 9.94435C10.9202 9.97597 11.1027 10.012 11.2329 10.0472C11.25 10.0519 11.2652 10.0594 11.2799 10.0638C11.2377 10.0795 11.188 10.0957 11.1342 10.1101L11.1335 10.1108C10.1212 10.3757 8.77357 11.006 7.79337 11.6596L7.39769 11.9407C5.75122 13.1844 3.79929 15.7271 2.79045 17.9041L2.73175 18.0581C2.68504 18.2095 2.67438 18.3545 2.70413 18.4807C2.73995 18.6322 2.83314 18.7515 2.97551 18.8156L3.03973 18.8398H3.04111C3.22337 18.8941 3.38315 18.8954 3.53001 18.7928C3.66585 18.6978 3.77587 18.5228 3.89323 18.2763C4.2717 17.5023 5.09514 16.1769 5.69621 15.3657C6.13735 14.7854 6.51998 14.3668 7.35004 13.5835C7.93658 13.0321 8.3147 12.6981 8.70073 12.433C9.08575 12.1687 9.48227 11.9704 10.108 11.6955C10.4023 11.5686 10.893 11.3988 11.342 11.2598C11.5662 11.1905 11.7793 11.1287 11.9504 11.0851C11.9775 11.0782 12.0036 11.0724 12.0284 11.0665C11.9971 11.0996 11.9635 11.1379 11.9248 11.1783C11.7217 11.3903 11.4208 11.6974 11.0444 12.0767C10.2916 12.8354 9.23849 13.8823 8.0682 15.035L3.81451 19.2306L3.77515 19.2686L3.78689 19.3232L3.83937 19.5635C3.87502 19.733 3.98423 19.8724 4.11834 19.9543C4.23566 20.0259 4.38064 20.058 4.51816 20.0185L4.57686 19.9971L4.58031 19.9951C4.59337 19.9885 4.60553 19.9786 4.61 19.975C4.61736 19.9692 4.62644 19.9615 4.63624 19.9529C4.65595 19.9358 4.68252 19.9123 4.71497 19.8825C4.78022 19.8227 4.87237 19.7369 4.98704 19.6284C5.21646 19.4113 5.53967 19.1019 5.93238 18.7231C6.32521 18.3442 6.7876 17.8956 7.29618 17.4007L8.9362 15.7994L10.5672 14.2001C11.0702 13.7093 11.525 13.2679 11.9083 12.8978C12.2916 12.5276 12.6036 12.229 12.8205 12.0242C12.8716 11.9759 12.9177 11.9326 12.9579 11.8951C12.9559 11.9034 12.9551 11.9121 12.953 11.9207C12.9112 12.092 12.8464 12.3223 12.7707 12.5711C12.6192 13.0697 12.4268 13.6342 12.2943 13.9398C11.3318 16.1546 9.31003 18.1588 6.46616 19.6947H6.46478C5.83629 20.038 5.48866 20.2333 5.30952 20.3845C5.21741 20.4623 5.15761 20.5379 5.13205 20.6269C5.10704 20.714 5.11906 20.7995 5.1355 20.8817L5.13619 20.8824C5.16767 21.0335 5.22662 21.1646 5.34266 21.2422Z" fill="white" stroke="white" stroke-width="0.2"/>
</svg>
