<svg width="16" height="15" viewBox="0 0 16 15" fill="none" xmlns="http://www.w3.org/2000/svg">
<g clip-path="url(#clip0_3334_37578)">
<path d="M8.277 0.539062C7.34366 0.539062 6.41033 1.00573 5.94366 1.86128C5.47793 1.74205 4.98935 1.74473 4.52496 1.86908C4.06057 1.99343 3.63601 2.23526 3.29219 2.57127C2.94836 2.90728 2.69684 3.32617 2.56185 3.78758C2.42686 4.24899 2.41294 4.73738 2.52144 5.20573C1.74366 5.6724 1.19922 6.60573 1.19922 7.53906C1.19922 8.4724 1.74366 9.40573 2.52144 9.8724C2.28811 10.8057 2.52144 11.8168 3.29922 12.5168C3.92144 13.1391 4.93255 13.4502 5.86589 13.2946C6.33255 14.0724 7.26589 14.5391 8.19922 14.5391C9.13255 14.5391 10.0659 14.0724 10.5326 13.2168C11.4659 13.4502 12.477 13.2168 13.177 12.4391C13.7992 11.8168 14.1103 10.8835 13.9548 9.8724C14.7326 9.40573 15.1992 8.4724 15.1992 7.53906C15.1992 6.60573 14.7326 5.6724 13.877 5.20573C14.1103 4.2724 13.877 3.26128 13.0992 2.56128C12.7667 2.233 12.3592 1.99064 11.912 1.85512C11.4648 1.71961 10.9914 1.69503 10.5326 1.78351C10.0659 1.00573 9.13255 0.539062 8.19922 0.539062H8.277Z" fill="#A385E9"/>
<path d="M5.94141 7.53871L7.49696 9.09427L10.6081 5.98315" stroke="white" stroke-width="1.90458" stroke-linecap="round" stroke-linejoin="round"/>
</g>
<defs>
<clipPath id="clip0_3334_37578">
<rect width="14.7778" height="14" fill="white" transform="translate(0.5 0.538574)"/>
</clipPath>
</defs>
</svg>
