<svg width="16" height="24" viewBox="0 0 16 24" fill="none" xmlns="http://www.w3.org/2000/svg">
<path d="M7.51579 0.0739422C7.40018 0.143308 6.5042 1.49594 5.7354 2.75609C4.31918 5.08563 3.40586 6.97585 3.09371 8.20131C2.86249 9.10885 2.96654 10.2476 3.37118 11.132C3.92032 12.3401 4.98394 13.2939 6.2672 13.7217C6.79323 13.9009 6.85681 13.9067 7.74123 13.9067C8.63721 13.9124 8.68345 13.9067 9.21526 13.7217C10.7124 13.2014 11.7876 12.1263 12.2847 10.6465C12.5333 9.90078 12.5853 8.99324 12.4061 8.30536C11.9957 6.67526 10.6604 4.10294 8.59674 0.952577C7.97245 0.00457573 7.83372 -0.111033 7.51579 0.0739422Z" fill="white"/>
<path d="M0.657732 14.1553C0.478536 14.2247 0.253097 14.4906 0.218414 14.6698C0.160609 14.9877 0.316683 15.2132 0.831146 15.5542C1.72134 16.1381 3.24739 16.7739 4.44395 17.0514C6.6521 17.5658 9.03944 17.5485 11.236 17.0051C12.7679 16.6236 14.7101 15.7681 15.2419 15.2421C15.5598 14.9184 15.4731 14.3923 15.0685 14.2016C14.8084 14.0744 14.6234 14.1149 14.2072 14.3808C14.028 14.4964 13.5598 14.745 13.1783 14.9299C10.4788 16.219 7.16657 16.4791 4.23586 15.6409C3.25895 15.3635 2.13754 14.8548 1.44966 14.3923C1.12595 14.1727 0.836927 14.086 0.657732 14.1553Z" fill="white"/>
<path d="M0.445098 17.5021C0.173415 17.635 0 17.9472 0 18.2882C0 19.0223 0.924879 19.4096 1.44512 18.8894C1.80929 18.5252 1.80929 18.0108 1.44512 17.6524C1.27749 17.479 1.19656 17.4443 0.93644 17.4269C0.728342 17.4154 0.572269 17.4385 0.445098 17.5021Z" fill="white"/>
<path d="M14.4445 17.4674C14.2537 17.5425 14.0052 17.8489 13.9589 18.0512C13.8317 18.6408 14.2884 19.1842 14.8722 19.1264C15.5196 19.057 15.8665 18.3576 15.5254 17.8027C15.3173 17.4732 14.8086 17.3113 14.4445 17.4674Z" fill="white"/>
<path d="M3.89599 18.9762C3.22545 19.2537 3.12718 20.1207 3.71679 20.5138C4.12721 20.7913 4.72838 20.6294 4.94804 20.1843C5.15035 19.7913 5.02896 19.3577 4.64167 19.0745C4.46247 18.9415 4.09252 18.8895 3.89599 18.9762Z" fill="white"/>
<path d="M11.1218 18.9531C10.8328 19.0571 10.6016 19.4328 10.6016 19.797C10.6016 20.3057 11.1102 20.7161 11.6189 20.6236C11.9137 20.5658 12.2548 20.2248 12.3126 19.93C12.3646 19.6236 12.197 19.219 11.9369 19.0456C11.7461 18.9184 11.3472 18.8721 11.1218 18.9531Z" fill="white"/>
<path d="M7.57304 19.4329C7.04702 19.5948 6.79268 20.2711 7.09326 20.7047C7.30136 21.0168 7.48634 21.1208 7.82739 21.1208C8.15109 21.1208 8.33029 21.0284 8.54417 20.7393C8.7118 20.5197 8.7118 20.0226 8.54417 19.8029C8.29561 19.4676 7.92565 19.3231 7.57304 19.4329Z" fill="white"/>
<path d="M1.3688 21.1669C1.13758 21.3056 1.05665 21.4559 1.05087 21.7565C1.03931 22.5484 2.1665 22.6929 2.39772 21.9241C2.57114 21.3403 1.9006 20.8432 1.3688 21.1669Z" fill="white"/>
<path d="M13.5446 21.1844C13.1573 21.4445 13.14 21.9879 13.5042 22.2942C13.666 22.4272 13.7296 22.4503 13.9666 22.4272C14.2961 22.3925 14.5042 22.2249 14.5851 21.9301C14.7065 21.5139 14.3597 21.0514 13.9261 21.0514C13.8221 21.0514 13.6545 21.1092 13.5446 21.1844Z" fill="white"/>
<path d="M10.7403 22.3462C10.4628 22.4676 10.3125 22.7046 10.3125 22.9994C10.3125 23.2191 10.3414 23.2884 10.509 23.4561C10.6825 23.6295 10.7403 23.6526 10.9946 23.6526C11.2316 23.6526 11.3125 23.6237 11.457 23.4907C12.0177 22.9705 11.4339 22.0341 10.7403 22.3462Z" fill="white"/>
<path d="M4.29065 22.4157C3.82243 22.6642 3.86289 23.3984 4.34846 23.6296C5.1057 23.988 5.73577 22.8781 5.02477 22.4388C4.80511 22.3058 4.51031 22.2943 4.29065 22.4157Z" fill="white"/>
<path d="M7.5025 22.722C7.14411 22.9417 7.03428 23.2943 7.21348 23.6469C7.53719 24.2654 8.51987 24.0169 8.51987 23.3232C8.51987 23.092 8.40426 22.8954 8.17882 22.7452C7.94182 22.5833 7.7395 22.5775 7.5025 22.722Z" fill="white"/>
</svg>
