<svg width="25" height="20" viewBox="0 0 25 20" fill="none" xmlns="http://www.w3.org/2000/svg">
<path d="M10.3239 1.13418C9.48909 1.969 9.25192 2.5382 9.23295 3.79044L9.21398 4.78653L8.51197 4.83397C7.66766 4.90037 7.07949 5.20394 6.70002 5.76366C6.20672 6.5131 6.15928 7.30998 6.54823 8.07839L6.72848 8.43889H7.58228H8.43607V7.77482V7.11076H9.14757H9.85907V7.77482V8.43889L12.8758 8.45786L15.8831 8.48632L15.9115 9.42549C15.9495 10.6208 15.8072 11.2564 15.3993 11.8636C15.219 12.1387 15.0862 12.3664 15.0957 12.3758C15.1147 12.3948 15.6364 12.4328 16.2625 12.4707L17.4009 12.5371L18.397 11.5979C18.9473 11.0857 19.6872 10.4026 20.0477 10.0706L20.7023 9.48241H19.7821C19.2793 9.48241 18.8714 9.45395 18.8714 9.41601C18.8714 9.37806 19.0801 9.04603 19.3362 8.67605C19.9244 7.82225 20.0762 7.28152 19.9244 6.58899C19.7726 5.89647 19.3742 5.38419 18.767 5.08062C18.3401 4.87191 18.1409 4.83397 17.4104 4.83397C16.9361 4.83397 16.272 4.76756 15.94 4.69167C14.3842 4.32169 12.8284 3.07894 11.5382 1.16264C11.32 0.840096 11.0828 0.564982 11.0164 0.564982C10.9405 0.564982 10.637 0.821122 10.3239 1.13418ZM12.9897 5.49803V6.26645L12.3066 6.23799L11.6141 6.20953L11.5856 5.60238C11.5667 5.27035 11.5761 4.93832 11.6046 4.87191C11.6426 4.77705 11.8513 4.7391 12.3256 4.7391H12.9897V5.49803ZM17.8278 7.25306V7.96455H17.1163H16.4048V7.25306V6.54156H17.1163H17.8278V7.25306Z" fill="white"/>
<path d="M23.2819 9.23571C22.9403 9.39698 21.6502 10.5069 19.5062 12.5086L17.9124 13.9885L17.4666 13.9601C13.7763 13.7324 9.05192 13.3624 9.00449 13.3055C8.96654 13.2675 8.95705 12.945 8.98551 12.594L9.02346 11.9584L11.1769 11.9299C13.283 11.9015 13.3399 11.892 13.6719 11.6738C14.1557 11.3417 14.4308 10.8769 14.4878 10.3362L14.5352 9.86183H9.61163C3.36943 9.86183 3.59711 9.82388 1.63337 11.2659L0.65625 11.9868V15.5064V19.0354L2.33538 18.1531C3.65403 17.4606 4.15682 17.2424 4.67858 17.157C5.25727 17.0527 6.04466 17.0812 11.0441 17.3942C14.2221 17.6029 16.9163 17.7357 17.1156 17.6978C17.4286 17.6314 17.9219 17.195 20.7964 14.387C22.6273 12.6035 24.24 10.9718 24.3918 10.7725C24.7428 10.2887 24.7428 9.86183 24.4013 9.48236C24.0882 9.14084 23.6708 9.05546 23.2819 9.23571Z" fill="white"/>
</svg>
