<svg width="25" height="25" viewBox="0 0 25 25" fill="none" xmlns="http://www.w3.org/2000/svg">
<g clip-path="url(#clip0_3442_25038)">
<path d="M17.2736 1.47401C14.4826 3.92007 11.7935 9.23554 10.7978 14.2923C10.5783 15.4134 10.2882 16.2836 9.84132 17.1774C8.63397 19.5607 8.92405 21.4501 10.6253 22.3204C13.675 23.8727 16.0192 20.4153 14.1454 17.1225L13.5418 16.0563L13.5574 14.0963C13.5888 10.0901 15.1881 5.74677 17.9321 2.17961C18.528 1.40346 18.6299 1.18394 18.4731 0.995779C18.2065 0.674343 18.1752 0.690023 17.2736 1.47401Z" fill="white"/>
<path d="M9.54297 2.15623C9.54297 2.54038 10.0996 3.02646 10.3975 2.90886C10.7268 2.78342 10.7033 2.43847 10.3505 2.12487C9.96632 1.77991 9.54297 1.79559 9.54297 2.15623Z" fill="white"/>
<path d="M11.5102 2.17155C11.2123 2.50082 11.275 2.96338 11.6278 2.96338C11.9335 2.96338 12.5764 2.23427 12.451 2.03043C12.2863 1.76387 11.8081 1.83443 11.5102 2.17155Z" fill="white"/>
<path d="M9.8039 3.88072C9.45894 4.26488 9.47462 4.68823 9.83526 4.68823C10.2194 4.68823 10.7055 4.1316 10.5879 3.83368C10.4625 3.5044 10.1175 3.52792 9.8039 3.88072Z" fill="white"/>
<path d="M11.3226 3.83368C11.205 4.1316 11.6911 4.68823 12.0674 4.68823C12.5221 4.68823 12.577 4.37464 12.2007 3.9748C11.7851 3.53576 11.4559 3.48088 11.3226 3.83368Z" fill="white"/>
<path d="M21.0623 3.97489C20.9212 4.508 21.0859 4.88432 21.423 4.81376C21.8071 4.7432 21.815 3.69265 21.4308 3.62209C21.2505 3.59073 21.1251 3.70049 21.0623 3.97489Z" fill="white"/>
<path d="M19.7344 5.31563C19.7344 5.73114 20.4556 5.9193 20.7849 5.59002C21.122 5.24507 20.9104 5.00203 20.2753 5.00203C19.8441 5.00203 19.7344 5.06475 19.7344 5.31563Z" fill="white"/>
<path d="M21.9297 5.31563C21.9297 5.73114 22.651 5.9193 22.9802 5.59002C23.3174 5.24507 23.1057 5.00203 22.4706 5.00203C22.0394 5.00203 21.9297 5.06475 21.9297 5.31563Z" fill="white"/>
<path d="M21.1541 6.00549C20.8562 6.37396 21.013 6.95412 21.4285 7.01684C21.7656 7.06388 21.7892 7.01684 21.7421 6.47588C21.6872 5.83301 21.4599 5.64485 21.1541 6.00549Z" fill="white"/>
<path d="M6.00033 7.58115C5.82785 8.02019 6.00817 8.52979 6.3296 8.52979C6.58048 8.52979 6.65104 8.41219 6.69024 7.94179C6.74512 7.33028 6.20417 7.0402 6.00033 7.58115Z" fill="white"/>
<path d="M4.57909 9.00029C4.43797 9.36093 4.72021 9.58044 5.25332 9.52557C5.57476 9.48637 5.7002 9.38445 5.7002 9.15709C5.7002 8.74157 4.73589 8.60829 4.57909 9.00029Z" fill="white"/>
<path d="M6.93399 9.00812C6.79287 9.36092 7.08294 9.58044 7.60822 9.52556C7.92966 9.48636 8.07078 9.3766 8.10213 9.11788C8.16485 8.67885 7.09862 8.57693 6.93399 9.00812Z" fill="white"/>
<path d="M6.00156 9.91753C5.82908 10.3722 6.00156 10.8818 6.33084 10.8818C6.76204 10.8818 6.79339 9.81561 6.37004 9.73721C6.22108 9.70585 6.05644 9.79209 6.00156 9.91753Z" fill="white"/>
<path d="M16.4414 12.3479C16.4414 12.732 16.998 13.2181 17.296 13.1005C17.6252 12.9751 17.6017 12.6301 17.2489 12.3165C16.8648 11.9716 16.4414 11.9872 16.4414 12.3479Z" fill="white"/>
<path d="M18.355 12.301C18.1198 12.5676 18.159 13.0223 18.4178 13.1085C18.7157 13.2105 19.3272 12.5989 19.2174 12.3167C19.092 11.9953 18.6294 11.9874 18.355 12.301Z" fill="white"/>
<path d="M16.5299 14.1278C16.3182 14.4414 16.3104 14.5041 16.5221 14.7158C16.7965 14.9902 17.6745 14.2846 17.4707 13.9553C17.2982 13.6653 16.7886 13.7593 16.5299 14.1278Z" fill="white"/>
<path d="M18.1223 14.002C18.0047 14.2999 18.7182 14.9428 19.0239 14.8252C19.3532 14.6997 19.3297 14.3626 18.9769 14.0412C18.6319 13.7276 18.2321 13.704 18.1223 14.002Z" fill="white"/>
<path d="M-1.21268 16.0641C-2.87474 16.3464 -3.35298 16.5345 -3.28242 16.8795C-3.21186 17.2166 -2.96882 17.2088 -0.891242 16.8403C0.621863 16.5659 0.731623 16.5659 2.47993 16.856C3.52264 17.0284 5.00438 17.146 5.97653 17.146C6.90164 17.1382 7.66212 17.1696 7.66212 17.2244C7.66212 17.2715 7.55236 17.6556 7.42692 18.079C6.43125 21.3561 8.64211 24.4764 11.9741 24.4999C15.5177 24.5234 17.7207 20.9092 16.3488 17.3342C16.2704 17.1147 16.3801 17.0755 17.1014 17.0755C17.5718 17.0755 18.7556 16.9657 19.7434 16.8324C20.9743 16.66 22.409 16.5972 24.2828 16.6364C26.9405 16.6835 27.0267 16.6756 27.0267 16.3699C27.0267 15.8054 22.6677 15.6251 19.6572 16.0563C18.7948 16.1817 17.4777 16.2836 16.7251 16.2915C15.1336 16.2915 15.0787 16.3385 15.5334 17.3342C16.6153 19.7097 15.5412 22.7751 13.3696 23.5199C9.74753 24.7508 6.83108 21.113 8.50883 17.4596C9.0733 16.2131 8.94786 16.0955 7.27012 16.315C5.92165 16.4875 4.54967 16.4169 2.56616 16.0563C1.05306 15.7897 0.449385 15.7897 -1.21268 16.0641Z" fill="white"/>
</g>
<defs>
<clipPath id="clip0_3442_25038">
<rect width="24" height="24" fill="white" transform="translate(0.5 0.5)"/>
</clipPath>
</defs>
</svg>
