<svg width="14" height="14" viewBox="0 0 14 14" fill="none" xmlns="http://www.w3.org/2000/svg">
<path d="M1.40625 6.53837C1.40625 3.68874 1.40625 2.26328 2.29143 1.3781C3.17661 0.49292 4.60143 0.49292 7.4517 0.49292C10.3013 0.49292 11.7268 0.49292 12.612 1.3781C13.4972 2.26328 13.4972 3.6881 13.4972 6.53837C13.4972 9.38801 13.4972 10.8135 12.612 11.6986C11.7268 12.5838 10.302 12.5838 7.4517 12.5838C4.60207 12.5838 3.17661 12.5838 2.29143 11.6986C1.40625 10.8135 1.40625 9.38865 1.40625 6.53837Z" stroke="#969AB7" stroke-width="0.954545" stroke-linecap="round" stroke-linejoin="round"/>
<path d="M6.81499 3.67463H10.6332M6.81499 6.53826H10.6332M6.81499 9.4019H10.6332M4.90589 3.67463C4.90589 3.75901 4.87237 3.83994 4.8127 3.89962C4.75303 3.95929 4.6721 3.99281 4.58771 3.99281C4.50333 3.99281 4.4224 3.95929 4.36272 3.89962C4.30305 3.83994 4.26953 3.75901 4.26953 3.67463C4.26953 3.59024 4.30305 3.50931 4.36272 3.44964C4.4224 3.38997 4.50333 3.35645 4.58771 3.35645C4.6721 3.35645 4.75303 3.38997 4.8127 3.44964C4.87237 3.50931 4.90589 3.59024 4.90589 3.67463ZM4.90589 6.53826C4.90589 6.62265 4.87237 6.70358 4.8127 6.76325C4.75303 6.82292 4.6721 6.85645 4.58771 6.85645C4.50333 6.85645 4.4224 6.82292 4.36272 6.76325C4.30305 6.70358 4.26953 6.62265 4.26953 6.53826C4.26953 6.45388 4.30305 6.37295 4.36272 6.31327C4.4224 6.2536 4.50333 6.22008 4.58771 6.22008C4.6721 6.22008 4.75303 6.2536 4.8127 6.31327C4.87237 6.37295 4.90589 6.45388 4.90589 6.53826ZM4.90589 9.4019C4.90589 9.48629 4.87237 9.56722 4.8127 9.62689C4.75303 9.68656 4.6721 9.72008 4.58771 9.72008C4.50333 9.72008 4.4224 9.68656 4.36272 9.62689C4.30305 9.56722 4.26953 9.48629 4.26953 9.4019C4.26953 9.31751 4.30305 9.23658 4.36272 9.17691C4.4224 9.11724 4.50333 9.08372 4.58771 9.08372C4.6721 9.08372 4.75303 9.11724 4.8127 9.17691C4.87237 9.23658 4.90589 9.31751 4.90589 9.4019Z" stroke="#969AB7" stroke-width="0.954545" stroke-linecap="round" stroke-linejoin="round"/>
</svg>
