<svg width="32" height="32" viewBox="0 0 32 32" fill="none" xmlns="http://www.w3.org/2000/svg">
<g clip-path="url(#clip0_199_823)">
<path d="M27.3333 8.00002C23.8533 8.93335 19.7733 9.33335 16 9.33335C12.2267 9.33335 8.14667 8.93335 4.66667 8.00002L4 10.6667C6.48 11.3334 9.33333 11.7734 12 12V29.3334H14.6667V21.3334H17.3333V29.3334H20V12C22.6667 11.7734 25.52 11.3334 28 10.6667L27.3333 8.00002ZM16 8.00002C17.4667 8.00002 18.6667 6.80002 18.6667 5.33335C18.6667 3.86669 17.4667 2.66669 16 2.66669C14.5333 2.66669 13.3333 3.86669 13.3333 5.33335C13.3333 6.80002 14.5333 8.00002 16 8.00002Z" fill="#B7B7B7"/>
</g>
<defs>
<clipPath id="clip0_199_823">
<rect width="32" height="32" fill="white"/>
</clipPath>
</defs>
</svg>
