<svg width="13" height="13" viewBox="0 0 13 13" fill="none" xmlns="http://www.w3.org/2000/svg">
<g clip-path="url(#clip0_3334_20447)">
<path d="M7.17438 4.92487C6.77323 4.92487 6.44824 5.24985 6.44824 5.651C6.44824 6.05215 6.77323 6.37713 7.17438 6.37713C7.57553 6.37713 7.90051 6.05215 7.90051 5.651C7.90051 5.24985 7.57553 4.92487 7.17438 4.92487Z" fill="white"/>
<path d="M7.17474 2.09656C5.27054 2.09656 3.72179 3.58945 3.63039 5.46826L2.65544 6.76819C2.52849 6.93576 2.65036 7.17442 2.85856 7.17442H3.62023V8.69777C3.62023 9.25634 4.07724 9.71335 4.63581 9.71335H5.14359V11.2367H8.69809V8.86027C9.89647 8.29155 10.7292 7.06778 10.7292 5.65106C10.7292 3.68593 9.13987 2.09656 7.17474 2.09656ZM8.69809 5.65106C8.69809 5.71707 8.69301 5.78308 8.68794 5.8491L9.1094 6.18423C9.15002 6.2147 9.16018 6.26548 9.13479 6.31118L8.72856 7.017C8.70317 7.0627 8.64731 7.07794 8.60669 7.0627L8.10398 6.85959C7.99735 6.94084 7.88564 7.00685 7.76377 7.05763L7.68252 7.59588C7.67744 7.64666 7.63174 7.6822 7.58096 7.6822H6.76851C6.71773 7.6822 6.6771 7.64666 6.66695 7.59588L6.59078 7.05763C6.46384 7.00685 6.35212 6.94084 6.24549 6.85959L5.74278 7.0627C5.69708 7.07794 5.64122 7.0627 5.61583 7.017L5.2096 6.31118C5.18421 6.27056 5.19437 6.2147 5.23499 6.18423L5.66153 5.8491C5.65646 5.78308 5.65138 5.71707 5.65138 5.65106C5.65138 5.58505 5.66153 5.51396 5.67169 5.45302L5.24007 5.11788C5.19945 5.08742 5.18929 5.03664 5.21468 4.98586L5.62091 4.28512C5.6463 4.23941 5.69708 4.22418 5.74278 4.23941L6.25057 4.44253C6.35212 4.36636 6.46891 4.29527 6.59078 4.24449L6.66695 3.70624C6.6771 3.65546 6.71773 3.61992 6.76851 3.61992H7.58096C7.63174 3.61992 7.67237 3.65546 7.68252 3.70624L7.75869 4.24449C7.88056 4.29527 7.99227 4.36128 8.09891 4.44253L8.60669 4.23941C8.65239 4.22418 8.70825 4.23941 8.72856 4.28512L9.13479 4.98586C9.16018 5.03156 9.15002 5.08742 9.1094 5.11788L8.67778 5.45302C8.69302 5.51396 8.69809 5.57997 8.69809 5.65106Z" fill="white"/>
</g>
<defs>
<clipPath id="clip0_3334_20447">
<rect width="11.375" height="11.375" fill="white" transform="translate(0.979248 0.979187)"/>
</clipPath>
</defs>
</svg>
