<svg width="47" height="11" viewBox="0 0 47 11" fill="none" xmlns="http://www.w3.org/2000/svg">
<path d="M5.02447 2.0021C5.17415 1.54144 5.82585 1.54144 5.97553 2.0021L6.51031 3.648C6.57725 3.85401 6.76923 3.99349 6.98584 3.99349H8.71644C9.2008 3.99349 9.40219 4.6133 9.01033 4.898L7.61025 5.91522C7.43501 6.04254 7.36168 6.26822 7.42861 6.47424L7.9634 8.12013C8.11307 8.58079 7.58583 8.96385 7.19398 8.67915L5.79389 7.66193C5.61865 7.53461 5.38135 7.53461 5.20611 7.66193L3.80602 8.67915C3.41417 8.96385 2.88693 8.58079 3.0366 8.12013L3.57139 6.47424C3.63832 6.26822 3.56499 6.04254 3.38975 5.91522L1.98967 4.898C1.59781 4.6133 1.7992 3.99349 2.28356 3.99349H4.01416C4.23077 3.99349 4.42275 3.85401 4.48969 3.648L5.02447 2.0021Z" fill="#FABB05"/>
<path d="M14.0245 2.0021C14.1741 1.54144 14.8259 1.54144 14.9755 2.0021L15.5103 3.648C15.5773 3.85401 15.7692 3.99349 15.9858 3.99349H17.7164C18.2008 3.99349 18.4022 4.6133 18.0103 4.898L16.6102 5.91522C16.435 6.04254 16.3617 6.26822 16.4286 6.47424L16.9634 8.12013C17.1131 8.58079 16.5858 8.96385 16.194 8.67915L14.7939 7.66193C14.6186 7.53461 14.3814 7.53461 14.2061 7.66193L12.806 8.67915C12.4142 8.96385 11.8869 8.58079 12.0366 8.12013L12.5714 6.47424C12.6383 6.26822 12.565 6.04254 12.3898 5.91522L10.9897 4.898C10.5978 4.6133 10.7992 3.99349 11.2836 3.99349H13.0142C13.2308 3.99349 13.4227 3.85401 13.4897 3.648L14.0245 2.0021Z" fill="#FABB05"/>
<path d="M23.0245 2.0021C23.1741 1.54144 23.8259 1.54144 23.9755 2.0021L24.5103 3.648C24.5773 3.85401 24.7692 3.99349 24.9858 3.99349H26.7164C27.2008 3.99349 27.4022 4.6133 27.0103 4.898L25.6102 5.91522C25.435 6.04254 25.3617 6.26822 25.4286 6.47424L25.9634 8.12013C26.1131 8.58079 25.5858 8.96385 25.194 8.67915L23.7939 7.66193C23.6186 7.53461 23.3814 7.53461 23.2061 7.66193L21.806 8.67915C21.4142 8.96385 20.8869 8.58079 21.0366 8.12013L21.5714 6.47424C21.6383 6.26822 21.565 6.04254 21.3898 5.91522L19.9897 4.898C19.5978 4.6133 19.7992 3.99349 20.2836 3.99349H22.0142C22.2308 3.99349 22.4227 3.85401 22.4897 3.648L23.0245 2.0021Z" fill="#FABB05"/>
<path d="M32.0245 2.0021C32.1741 1.54144 32.8259 1.54144 32.9755 2.0021L33.5103 3.648C33.5773 3.85401 33.7692 3.99349 33.9858 3.99349H35.7164C36.2008 3.99349 36.4022 4.6133 36.0103 4.898L34.6102 5.91522C34.435 6.04254 34.3617 6.26822 34.4286 6.47424L34.9634 8.12013C35.1131 8.58079 34.5858 8.96385 34.194 8.67915L32.7939 7.66193C32.6186 7.53461 32.3814 7.53461 32.2061 7.66193L30.806 8.67915C30.4142 8.96385 29.8869 8.58079 30.0366 8.12013L30.5714 6.47424C30.6383 6.26822 30.565 6.04254 30.3898 5.91522L28.9897 4.898C28.5978 4.6133 28.7992 3.99349 29.2836 3.99349H31.0142C31.2308 3.99349 31.4227 3.85401 31.4897 3.648L32.0245 2.0021Z" fill="#FABB05"/>
<path d="M41.0245 2.0021C41.1741 1.54144 41.8259 1.54144 41.9755 2.0021L42.5103 3.648C42.5773 3.85401 42.7692 3.99349 42.9858 3.99349H44.7164C45.2008 3.99349 45.4022 4.6133 45.0103 4.898L43.6102 5.91522C43.435 6.04254 43.3617 6.26822 43.4286 6.47424L43.9634 8.12013C44.1131 8.58079 43.5858 8.96385 43.194 8.67915L41.7939 7.66193C41.6186 7.53461 41.3814 7.53461 41.2061 7.66193L39.806 8.67915C39.4142 8.96385 38.8869 8.58079 39.0366 8.12013L39.5714 6.47424C39.6383 6.26822 39.565 6.04254 39.3898 5.91522L37.9897 4.898C37.5978 4.6133 37.7992 3.99349 38.2836 3.99349H40.0142C40.2308 3.99349 40.4227 3.85401 40.4897 3.648L41.0245 2.0021Z" fill="#FABB05"/>
</svg>
