<svg width="24" height="23" viewBox="0 0 24 23" fill="none" xmlns="http://www.w3.org/2000/svg">
<path d="M23.8334 0.204314C23.714 0.0733459 23.5449 0 23.3678 0H14.3407C14.1635 0 13.9944 0.0733459 13.875 0.204314C13.7551 0.334652 13.6957 0.509308 13.7106 0.686287L13.7846 1.55642H23.9239L23.9977 0.686287C24.0126 0.509308 23.9535 0.334701 23.8334 0.204314Z" fill="black"/>
<path d="M15.1523 17.6211H22.557L23.8216 2.7541H13.8868L15.1523 17.6211Z" fill="black"/>
<path d="M15.2226 20.9311C15.2226 21.795 15.9228 22.4954 16.7866 22.4954H20.9225C21.7864 22.4954 22.4866 21.795 22.4866 20.9311V18.9333H15.2226V20.9311Z" fill="black"/>
<path d="M12.7702 16.8164H4.79937L1.5947 18.2697C1.58759 18.2728 1.57985 18.2745 1.57278 18.2777V19.7303C1.57278 21.2578 2.81105 22.4954 4.33782 22.4954H10.5244C12.0512 22.4954 13.2894 21.2578 13.2894 19.7303V17.3357C13.2895 17.0488 13.0571 16.8164 12.7702 16.8164Z" fill="black"/>
<path d="M10.4114 14.272L7.19263 15.7317H11.3549C11.4873 15.7317 11.6098 15.6621 11.6793 15.5499C11.7479 15.4361 11.7533 15.2958 11.6934 15.1774C11.4858 14.7733 11.1201 14.4739 10.6834 14.3492L10.4114 14.272Z" fill="black"/>
<path d="M10.9314 12.1159C10.9798 11.9865 10.9751 11.8438 10.9182 11.7183L10.7794 11.4142C10.5751 10.9635 10.1307 10.6968 9.66598 10.6968C9.49752 10.6968 9.32596 10.7326 9.16228 10.806L0.717401 14.6353C0.103009 14.9137 -0.169135 15.6382 0.109153 16.2526L0.247233 16.5574C0.304226 16.6822 0.408584 16.7806 0.537423 16.8288C0.595723 16.8506 0.658134 16.8616 0.719772 16.8616C0.793892 16.8616 0.867286 16.8461 0.935068 16.8156L10.6594 12.4061C10.7849 12.3491 10.8823 12.2453 10.9314 12.1159Z" fill="black"/>
</svg>
