<svg width="24" height="24" viewBox="0 0 24 24" fill="none" xmlns="http://www.w3.org/2000/svg">
<g clip-path="url(#clip0_186_3750)">
<path d="M20.8399 20.84L3.15989 3.16L1.88989 4.43L3.77989 6.32C2.65989 7.93 1.99989 9.89 1.99989 12C1.99989 17.52 6.47989 22 11.9999 22C14.1099 22 16.0699 21.34 17.6799 20.23L19.5699 22.12L20.8399 20.84ZM11.9999 20C7.58989 20 3.99989 16.41 3.99989 12C3.99989 10.45 4.44989 9 5.21989 7.77L6.67989 9.23C6.24989 10.06 5.99989 11 5.99989 12C5.99989 15.31 8.68989 18 11.9999 18C12.9999 18 13.9399 17.75 14.7699 17.32L16.2299 18.78C14.9999 19.55 13.5499 20 11.9999 20ZM6.31989 3.77C7.92989 2.66 9.88989 2 11.9999 2C17.5199 2 21.9999 6.48 21.9999 12C21.9999 14.11 21.3399 16.07 20.2299 17.68L18.7799 16.23C19.5499 15 19.9999 13.55 19.9999 12C19.9999 7.59 16.4099 4 11.9999 4C10.4499 4 8.99989 4.45 7.76989 5.22L6.31989 3.77ZM17.9999 12C17.9999 13 17.7499 13.94 17.3199 14.77L9.22989 6.68C10.0599 6.25 10.9999 6 11.9999 6C15.3099 6 17.9999 8.69 17.9999 12Z" fill="#323232"/>
</g>
<defs>
<clipPath id="clip0_186_3750">
<rect width="24" height="24" fill="white"/>
</clipPath>
</defs>
</svg>
