<svg width="24" height="24" viewBox="0 0 24 24" fill="none" xmlns="http://www.w3.org/2000/svg">
<g clip-path="url(#clip0_186_1771)">
<path d="M11.99 5V1L6.98999 6L11.99 11V7C15.3 7 17.99 9.69 17.99 13C17.99 16.31 15.3 19 11.99 19C8.67999 19 5.98999 16.31 5.98999 13H3.98999C3.98999 17.42 7.56999 21 11.99 21C16.41 21 19.99 17.42 19.99 13C19.99 8.58 16.41 5 11.99 5Z" fill="#323232"/>
<path d="M10.89 16.0001H10.04V12.7401L9.03003 13.0501V12.3601L10.8 11.7301H10.89V16.0001Z" fill="#323232"/>
<path d="M15.17 14.2401C15.17 14.5601 15.14 14.8401 15.07 15.0601C15 15.2801 14.9 15.4801 14.78 15.6301C14.66 15.7801 14.5 15.8901 14.33 15.9601C14.16 16.0301 13.96 16.0601 13.74 16.0601C13.52 16.0601 13.33 16.0301 13.15 15.9601C12.97 15.8901 12.82 15.7801 12.69 15.6301C12.56 15.4801 12.46 15.2901 12.39 15.0601C12.32 14.8301 12.28 14.5601 12.28 14.2401V13.5001C12.28 13.1801 12.31 12.9001 12.38 12.6801C12.45 12.4601 12.55 12.2601 12.67 12.1101C12.79 11.9601 12.95 11.8501 13.12 11.7801C13.29 11.7101 13.49 11.6801 13.71 11.6801C13.93 11.6801 14.12 11.7101 14.3 11.7801C14.48 11.8501 14.63 11.9601 14.76 12.1101C14.89 12.2601 14.99 12.4501 15.06 12.6801C15.13 12.9101 15.17 13.1801 15.17 13.5001V14.2401ZM14.32 13.3801C14.32 13.1901 14.31 13.0301 14.28 12.9001C14.25 12.7701 14.21 12.6701 14.16 12.5901C14.11 12.5101 14.05 12.4501 13.97 12.4201C13.89 12.3901 13.81 12.3701 13.72 12.3701C13.63 12.3701 13.54 12.3901 13.47 12.4201C13.4 12.4501 13.33 12.5101 13.28 12.5901C13.23 12.6701 13.19 12.7701 13.16 12.9001C13.13 13.0301 13.12 13.1901 13.12 13.3801V14.3501C13.12 14.5401 13.13 14.7001 13.16 14.8301C13.19 14.9601 13.23 15.0701 13.28 15.1501C13.33 15.2301 13.39 15.2901 13.47 15.3201C13.55 15.3501 13.63 15.3701 13.72 15.3701C13.81 15.3701 13.9 15.3501 13.97 15.3201C14.04 15.2901 14.11 15.2301 14.16 15.1501C14.21 15.0701 14.25 14.9601 14.27 14.8301C14.29 14.7001 14.31 14.5401 14.31 14.3501V13.3801H14.32Z" fill="#323232"/>
</g>
<defs>
<clipPath id="clip0_186_1771">
<rect width="24" height="24" fill="white"/>
</clipPath>
</defs>
</svg>
