<svg width="24" height="24" viewBox="0 0 24 24" fill="none" xmlns="http://www.w3.org/2000/svg">
<g clip-path="url(#clip0_186_5811)">
<path d="M23 8.00002C22.9978 6.41242 22.456 4.87271 21.4636 3.63357C20.4711 2.39444 19.0869 1.52948 17.5381 1.18065C15.9893 0.831821 14.3679 1.01984 12.94 1.71385C11.5121 2.40786 10.3626 3.56664 9.68 5.00002H7V7.00002H4.5C4.18761 6.99954 3.88286 7.09661 3.6283 7.27767C3.37373 7.45874 3.18205 7.71477 3.08 8.01002L1 14V22C1 22.2652 1.10536 22.5196 1.29289 22.7071C1.48043 22.8947 1.73478 23 2 23H3C3.26522 23 3.51957 22.8947 3.70711 22.7071C3.89464 22.5196 4 22.2652 4 22V21H16V22C16 22.2652 16.1054 22.5196 16.2929 22.7071C16.4804 22.8947 16.7348 23 17 23H18C18.2652 23 18.5196 22.8947 18.7071 22.7071C18.8946 22.5196 19 22.2652 19 22V14.32C20.1954 13.7517 21.2055 12.8565 21.9133 11.7381C22.6212 10.6196 22.9979 9.32364 23 8.00002ZM4.5 8.50002H9.03C9.14474 10.2052 9.88551 11.8078 11.11 13H3L4.5 8.50002ZM4.5 18C4.10218 18 3.72064 17.842 3.43934 17.5607C3.15804 17.2794 3 16.8978 3 16.5C3 16.1022 3.15804 15.7207 3.43934 15.4394C3.72064 15.1581 4.10218 15 4.5 15C4.89782 15 5.27936 15.1581 5.56066 15.4394C5.84196 15.7207 6 16.1022 6 16.5C6 16.8978 5.84196 17.2794 5.56066 17.5607C5.27936 17.842 4.89782 18 4.5 18ZM15.5 18C15.1022 18 14.7206 17.842 14.4393 17.5607C14.158 17.2794 14 16.8978 14 16.5C14 16.1022 14.158 15.7207 14.4393 15.4394C14.7206 15.1581 15.1022 15 15.5 15C15.8978 15 16.2794 15.1581 16.5607 15.4394C16.842 15.7207 17 16.1022 17 16.5C17 16.8978 16.842 17.2794 16.5607 17.5607C16.2794 17.842 15.8978 18 15.5 18ZM18.43 12.37L18.22 12.48L18.04 12.57C17.9025 12.6297 17.7623 12.683 17.62 12.73L17.4 12.8L17.17 12.86L16.97 12.91C16.2866 13.0444 15.5826 13.0345 14.9032 12.881C14.2239 12.7275 13.5841 12.4337 13.0248 12.0185C12.4656 11.6033 11.9993 11.0759 11.6558 10.47C11.3122 9.86408 11.0991 9.19309 11.03 8.50002C11.0097 8.33413 10.9997 8.16714 11 8.00002L11.02 7.53002L11.04 7.36002L11.08 7.08002L11.12 6.87002L11.17 6.66002L11.24 6.42002L11.29 6.29002C11.6857 5.18047 12.4612 4.24669 13.4792 3.65394C14.4972 3.06119 15.692 2.8477 16.8523 3.05126C18.0126 3.25482 19.0635 3.86229 19.8189 4.76617C20.5743 5.67005 20.9856 6.81204 20.98 7.99002C20.988 8.88192 20.7554 9.75949 20.3067 10.5303C19.8579 11.3011 19.2096 11.9367 18.43 12.37ZM15 4.00002H17V9.00002H15V4.00002ZM15 10H17V12H15V10Z" fill="#323232"/>
</g>
<defs>
<clipPath id="clip0_186_5811">
<rect width="24" height="24" fill="white"/>
</clipPath>
</defs>
</svg>
