<svg width="16" height="24" viewBox="0 0 16 24" fill="none" xmlns="http://www.w3.org/2000/svg">
<path d="M13.9306 2.71872H10.5941C9.9912 2.72064 10.0138 3.6192 10.5941 3.61392H13.9306V4.07328H10.5941C9.99456 4.068 10.0166 4.96608 10.5941 4.96848H13.9306V5.43792H10.5941C9.99456 5.43792 10.0166 6.33552 10.5941 6.33312H13.9306V6.78048H10.5941C10.007 6.7848 10.0166 7.68336 10.5941 7.68624H13.9306V8.13456H10.5941C10.007 8.13264 10.0046 9.02976 10.5941 9.02976H13.9306V9.47712H10.5941C10.007 9.47904 10.0046 10.3771 10.5941 10.3728H13.9306V10.8312H10.5941C10.007 10.8259 10.0046 11.723 10.5941 11.7264H13.9306V12.1728H10.5941C10.007 12.1723 10.0166 13.0714 10.5941 13.0685H13.9306V21.7848C13.9325 23.113 15.9499 23.089 15.9557 21.7848V1.3872C15.9499 0.78048 15.4517 0.01344 14.6318 0.01104H10.5941C9.9912 0.01152 10.0138 0.91008 10.5941 0.90624L13.9306 0.91728V1.36368H10.5941C9.99216 1.3608 10.0147 2.25888 10.5941 2.25936H13.9306V2.71872ZM10.3646 18.1718C10.3627 16.6214 8.75568 14.9539 6.83568 16.0339V10.104L5.59392 0.324C5.568 0.06528 5.34864 0.00432 5.20128 0C5.04912 0.00432 4.74432 0.06528 4.7112 0.324L3.47568 10.104V16.0339C1.55568 14.9539 0.00048 16.632 0 18.1598C0.00048 19.5192 1.04688 20.6357 2.46288 20.6323C3.88944 20.6357 4.91568 19.3843 4.91568 18.1598V12H5.39568V18.1598C5.39568 19.5307 6.45744 20.5454 7.63728 20.6098C7.6176 21.3614 7.86288 22.4338 8.32464 22.859C8.86608 23.3582 9.51072 22.7198 9.24624 22.2C8.99088 21.7162 8.74032 21.4296 8.94384 20.3731C9.7944 19.9795 10.3627 19.151 10.3646 18.1718ZM2.5176 19.3915C1.84752 19.3872 1.30608 18.8438 1.30512 18.1718C1.30608 17.5003 1.84752 16.9546 2.5176 16.9507C3.18288 16.9546 3.7248 17.5003 3.7296 18.1718C3.7248 18.8443 3.18288 19.3877 2.5176 19.3915ZM6.63168 18.1718C6.636 17.5003 7.17696 16.9546 7.84416 16.9507C8.51232 16.9546 9.05424 17.5003 9.05616 18.1718C9.05424 18.8438 8.5128 19.3872 7.84416 19.3915C7.17696 19.3877 6.63552 18.8443 6.63168 18.1718Z" fill="black"/>
</svg>
