<?xml version="1.0" encoding="iso-8859-1"?>
<!-- Uploaded to: SVG Repo, www.svgrepo.com, Generator: SVG Repo Mixer Tools -->
<svg version="1.1" id="Layer_1" xmlns="http://www.w3.org/2000/svg" xmlns:xlink="http://www.w3.org/1999/xlink" 
	 viewBox="0 0 558.896 558.896" xml:space="preserve">
<g>
	<circle style="fill:#25B6D2;" cx="280.896" cy="279.448" r="256"/>
	<circle style="fill:#25B6D2;" cx="280.896" cy="279.448" r="256"/>
</g>
<g>
	<g>
		<path style="fill:#FFFFFF;" d="M270.064,548.408c-159.344-267.312-1.6-537.232,0.016-539.936l13.728,8.224
			c-1.568,2.608-154.368,264.56,0,523.52L270.064,548.408z"/>
		<path style="fill:#FFFFFF;" d="M231.968,550.424c-1.536-0.848-154.032-87.744-154.032-270.304
			c0-182.512,151.936-269.424,153.472-270.288l7.808,13.968c-1.456,0.816-145.28,83.392-145.28,256.32
			c0,173.248,144.336,255.52,145.808,256.336L231.968,550.424z"/>
		<path style="fill:#FFFFFF;" d="M291.728,548.408l-13.744-8.192c154.368-258.96,1.568-520.912,0-523.52l13.728-8.224
			C293.328,11.176,451.072,281.096,291.728,548.408z"/>
		<path style="fill:#FFFFFF;" d="M329.824,550.424l-7.776-13.968c1.456-0.816,145.808-83.392,145.808-256.336
			c0-172.928-143.824-255.504-145.28-256.32l7.808-13.968c1.536,0.864,153.472,87.76,153.472,270.288
			C483.856,462.664,331.344,549.576,329.824,550.424z"/>
		<rect x="0.944" y="166.744" style="fill:#FFFFFF;" width="553.616" height="16"/>
		<rect y="376.088" style="fill:#FFFFFF;" width="558.896" height="16"/>
	</g>
</g>
<g>
	<g>
		<rect x="0.016" y="179.592" style="fill:#25B6D2;" width="552" height="198.192"/>
	</g>
</g>
<g>
	<path style="fill:#FFFFFF;" d="M107.584,324.408l-28.48-90.032h23.136l16.88,59.008l15.52-59.008h22.976l15.008,59.008
			l17.216-59.008h23.488L184.4,324.408h-22.896l-15.52-57.904l-15.264,57.904H107.584z"/>
	<path style="fill:#FFFFFF;" d="M242.624,324.408l-28.48-90.032h23.136l16.88,59.008l15.52-59.008h22.976l15.008,59.008
			l17.216-59.008h23.488l-28.912,90.032H296.56l-15.52-57.904l-15.264,57.904L242.624,324.408L242.624,324.408z"/>
	<path style="fill:#FFFFFF;" d="M377.68,324.408l-28.48-90.032h23.136l16.88,59.008l15.52-59.008h22.976l15.008,59.008
			l17.216-59.008h23.488l-28.928,90.032H431.6l-15.52-57.904l-15.264,57.904H377.68z"/>
</g>
</svg>
