<svg width="24" height="24" viewBox="0 0 24 24" fill="none" xmlns="http://www.w3.org/2000/svg">
<g clip-path="url(#clip0_3442_25092)">
<path d="M3.19238 0.126343C3.06159 0.265852 3.04415 0.518713 3.04415 1.86149V3.43097L2.37276 3.47457C1.56186 3.52689 0.934069 3.80591 0.52426 4.30291C-0.0337784 4.9743 -0.00762032 4.53833 -0.00762032 14.0511V22.692L0.184205 23.0757C0.323715 23.346 0.515541 23.5465 0.811998 23.7296L1.23925 23.9912L11.3101 24.0174C22.2703 24.0435 21.7907 24.0609 21.7907 23.5727C21.7907 23.1629 21.8169 23.1629 17.6055 23.1629H13.6294L13.6643 22.6484C13.7254 21.8288 13.551 21.6282 12.2343 20.9656C11.188 20.4337 10.97 20.2332 11.2491 20.0588C11.3014 20.0326 11.8333 20.2419 12.4349 20.5383C13.6294 21.1225 13.8997 21.1661 14.4142 20.8697C14.8676 20.6081 15.0943 20.1808 15.0507 19.6664C14.9984 19.0124 14.763 18.7857 13.5946 18.2277C12.618 17.7569 12.3913 17.5912 12.5134 17.3994C12.6006 17.2599 12.7924 17.3122 13.7777 17.8005C14.8937 18.3498 15.3297 18.4108 15.8354 18.0969C16.2104 17.8615 16.3848 17.5214 16.3848 16.9983C16.3848 16.292 16.1929 16.0915 14.9461 15.4724C14.1875 15.0887 13.8561 14.8795 13.8561 14.7748C13.8561 14.6964 13.891 14.6092 13.9346 14.583C13.9782 14.5569 14.5188 14.7661 15.1292 15.0626C16.097 15.516 16.3063 15.5857 16.6202 15.5509C17.3613 15.4724 17.8583 14.8272 17.7537 14.086C17.6752 13.5105 17.4224 13.2664 16.315 12.7258C15.3036 12.2288 15.1379 12.1242 15.1902 11.9585C15.26 11.7667 15.5477 11.8451 16.4807 12.3073C17.5793 12.8653 17.9891 12.9351 18.4861 12.6473C18.8785 12.4293 19.2185 11.7579 19.1401 11.3656C19.0267 10.7552 18.8 10.5547 17.6491 9.9792C16.8905 9.59555 16.5591 9.38629 16.5591 9.28166C16.5591 9.20318 16.594 9.11599 16.6376 9.08111C16.6899 9.05495 17.2218 9.27293 17.8234 9.56067C18.4338 9.84841 19.0442 10.0838 19.1837 10.0838C19.6109 10.0838 20.0207 9.85713 20.2736 9.4822C20.4654 9.18574 20.5003 9.05495 20.4654 8.69746C20.3957 7.95631 20.2387 7.83424 18.1809 6.8228C17.1521 6.3258 16.2016 5.88983 16.0534 5.85495C15.9052 5.8288 15.6262 5.84623 15.4343 5.89855C14.7019 6.09038 14.606 6.2386 12.4785 10.546L10.4992 14.5569L10.4556 9.85713C10.412 5.21844 10.412 5.14869 10.2202 4.79991C9.76677 3.95413 9.1041 3.54433 8.05778 3.46585L7.36023 3.41354L7.33407 1.80918C7.32535 0.80645 7.27303 0.161219 7.22072 0.0827446C7.14224 -0.00444794 6.68884 -0.0306053 5.22399 -0.0306053C3.50628 -0.0306053 3.32317 -0.0131664 3.19238 0.126343ZM8.49374 4.42498C9.16513 4.61681 9.58366 5.27076 9.58366 6.13397V6.5089H5.22399H0.864314V6.02934C0.864314 5.20972 1.19565 4.704 1.88448 4.45986C2.31173 4.30291 7.95314 4.27675 8.49374 4.42498ZM17.7798 7.62498C18.7128 8.09582 19.515 8.54051 19.5673 8.61898C19.6283 8.72362 19.6283 8.81953 19.5586 8.92416C19.3406 9.27294 19.236 9.26422 18.0501 8.68874C16.7074 8.05223 16.4545 8.03479 15.9749 8.55795C15.7308 8.81081 15.6872 8.92416 15.6872 9.29037C15.6872 9.89201 15.8877 10.0926 17.091 10.6942C17.6578 10.9819 18.1635 11.2871 18.2071 11.3743C18.3204 11.5836 18.1025 11.9149 17.8583 11.9149C17.7624 11.9149 17.2567 11.6969 16.7335 11.4353C15.6872 10.9122 15.26 10.8337 14.8066 11.104C14.5188 11.2784 14.2921 11.6969 14.2921 12.0718C14.2921 12.5514 14.6147 12.8566 15.7221 13.4321C16.8207 13.9901 17.0213 14.1645 16.8556 14.4173C16.6289 14.7748 16.5243 14.7574 15.382 14.1994C14.7717 13.9029 14.1788 13.6588 14.0567 13.6588C13.3591 13.6588 12.8011 14.3738 12.9842 15.0364C13.0976 15.4898 13.2632 15.6206 14.4491 16.231C15.26 16.6408 15.4779 16.7977 15.4954 16.9547C15.5303 17.1988 15.3733 17.4081 15.1553 17.4081C15.0681 17.4081 14.5624 17.1901 14.0218 16.9285C12.9929 16.4228 12.5395 16.3356 12.1297 16.571C11.8333 16.7367 11.5891 17.1465 11.5891 17.504C11.5891 18.0533 11.8768 18.3323 13.0191 18.9253C14.1177 19.4833 14.3183 19.6577 14.1526 19.9105C13.9259 20.268 13.8213 20.2506 12.679 19.6926C12.06 19.3874 11.4583 19.152 11.3101 19.152C10.6387 19.152 10.0632 19.9367 10.2725 20.5732C10.412 20.9917 10.5864 21.1225 11.7461 21.7242C12.557 22.134 12.7749 22.2909 12.7924 22.4479C12.8273 22.692 12.6703 22.9013 12.461 22.9013C12.2692 22.9013 9.00818 21.3056 8.78148 21.1051C8.69429 21.0179 8.62453 20.8348 8.62453 20.6691C8.62453 20.4075 10.6387 16.2223 14.4055 8.68874C15.321 6.84896 15.4954 6.62225 15.9052 6.73561C16.0011 6.76176 16.8469 7.16285 17.7798 7.62498ZM9.58366 9.12471V10.8686H5.22399H0.864314V9.12471V7.38084H5.22399H9.58366V9.12471ZM9.58366 14.086V16.353L8.62453 18.2887C7.57821 20.4075 7.50846 20.6778 7.83107 21.3144C8.04906 21.7416 8.30192 21.9596 8.95587 22.2822C9.44415 22.5263 9.48775 22.5787 9.40927 22.7269C9.35696 22.8228 9.24361 22.9362 9.14769 22.9885C9.04306 23.0408 7.60437 23.0757 5.18039 23.0757H1.37004L1.11718 22.8228L0.864314 22.5699V17.1988V11.8277H5.22399H9.58366V14.086ZM10.5864 23.0757C10.6125 23.1193 10.5602 23.1629 10.4643 23.1629C10.3597 23.1629 10.2812 23.1193 10.2812 23.0757C10.2812 23.0233 10.3335 22.9885 10.4033 22.9885C10.473 22.9885 10.5602 23.0233 10.5864 23.0757Z" fill="white"/>
<path d="M8 24.0002C9.10457 24.0002 10 23.1048 10 22.0002V6.00024C10 4.89567 9.10457 4.00024 8 4.00024H2C0.895431 4.00024 2.57706e-07 4.89568 0 6.00024V22.0002C1.61066e-08 23.1048 0.895431 24.0002 2 24.0002H8ZM5.22363 19.5442C4.56993 19.5442 4.43052 19.5179 4.07324 19.3088C3.55009 18.9949 3.1919 18.5592 3.00879 18.0012C2.82568 17.4345 2.83461 17.19 3.03516 16.6145C3.34038 15.7164 4.13397 14.2513 4.76172 13.4143C4.90982 13.214 5.04068 13.136 5.22363 13.136C5.44156 13.136 5.53749 13.2229 5.9209 13.7893C6.5661 14.7397 7.28149 16.1525 7.43848 16.7542C7.64772 17.5911 7.44713 18.3148 6.83691 18.9338C6.32247 19.4396 6.05197 19.5442 5.22363 19.5442ZM4.37793 18.4026C4.78771 18.7164 5.28515 18.7768 5.76465 18.5588C6.63626 18.1751 6.81975 17.3379 6.27051 16.2307C6.10483 15.8907 5.80801 15.3589 5.61621 15.0276C5.43313 14.705 5.24972 14.4436 5.21484 14.4436C5.17947 14.4446 4.97065 14.7498 4.76172 15.1155C3.66325 16.9986 3.56707 17.7835 4.37793 18.4026Z" fill="white"/>
<path d="M13.9598 1.4255C12.8176 1.98353 12.8089 3.55302 13.9424 4.13721C14.823 4.59062 15.9391 4.05002 16.096 3.08217C16.1745 2.60261 16.0525 2.17536 15.7473 1.82659C15.2764 1.28599 14.5614 1.12904 13.9598 1.4255ZM15.0497 2.34103C15.4683 2.7334 15.1631 3.4571 14.5789 3.4571C14.2999 3.4571 13.9424 3.09089 13.9424 2.80315C13.9424 2.50669 14.3086 2.1492 14.605 2.1492C14.7358 2.1492 14.9364 2.23639 15.0497 2.34103Z" fill="white"/>
<path d="M20.8815 16.9372C20.681 17.129 20.6897 18.2102 20.8815 18.4108C21.239 18.7683 21.614 18.3672 21.614 17.626C21.614 16.9285 21.239 16.5797 20.8815 16.9372Z" fill="white"/>
<path d="M19.1573 18.6376C18.9655 18.751 18.9568 19.091 19.1399 19.2829C19.3578 19.5008 20.4652 19.4311 20.6222 19.1957C20.7181 19.0562 20.7181 18.9777 20.6309 18.8033C20.535 18.6028 20.4652 18.5853 19.9159 18.5679C19.5758 18.5504 19.2358 18.5853 19.1573 18.6376Z" fill="white"/>
<path d="M21.7567 18.6811C21.6782 18.7509 21.6172 18.8904 21.6172 18.9776C21.6172 19.2915 21.8526 19.4136 22.4891 19.4136C23.0384 19.4136 23.1082 19.3961 23.239 19.1956C23.3698 18.995 23.3698 18.9602 23.239 18.7596C23.1082 18.5591 23.0384 18.5416 22.4891 18.5416C22.0619 18.5416 21.8526 18.5765 21.7567 18.6811Z" fill="white"/>
<path d="M20.8817 19.5531C20.7771 19.649 20.7422 19.8583 20.7422 20.2855C20.7422 20.922 20.8643 21.1575 21.1782 21.1575C21.4485 21.1575 21.6141 20.8174 21.6141 20.2855C21.6141 19.5444 21.2479 19.1782 20.8817 19.5531Z" fill="white"/>
</g>
<defs>
<clipPath id="clip0_3442_25092">
<rect width="23.346" height="24" fill="white"/>
</clipPath>
</defs>
</svg>
