<svg width="24" height="23" viewBox="0 0 24 23" fill="none" xmlns="http://www.w3.org/2000/svg">
<path d="M11.2518 0.861698C10.9946 0.909912 10.6893 1.22331 8.61602 3.53763C7.61154 4.66265 6.6392 5.74748 6.45438 5.94838C6.26956 6.14928 5.81955 6.65553 5.44186 7.0734C5.06418 7.49126 4.74275 7.85287 4.71864 7.87698C4.69453 7.90109 4.40524 8.22252 4.07577 8.60021C3.7463 8.97789 3.3204 9.44397 3.14362 9.64486C1.83378 11.0752 0.990013 12.0797 0.781081 12.4735C0.178394 13.5905 -0.126968 15.1976 0.0498203 16.3387C0.106071 16.7003 0.226609 17.1744 0.323039 17.3994C0.668579 18.2432 1.44002 19.1352 2.10699 19.4647C2.50879 19.6655 3.93113 20.1316 5.96419 20.7263C6.40616 20.8549 7.40261 21.1441 8.17405 21.3772C11.5491 22.3817 13.3732 22.896 13.7268 22.9522C14.3697 23.0567 14.0241 23.4102 18.2269 18.3637C19.6653 16.636 21.0153 15.0128 21.2323 14.7396C21.4573 14.4664 22.1243 13.6467 22.735 12.9154C23.3698 12.144 23.852 11.4851 23.8841 11.3404C23.9082 11.2119 23.9002 10.9627 23.852 10.794C23.7395 10.3922 23.7395 9.37968 23.852 9.002C23.9725 8.60824 23.8921 8.31895 23.6028 8.02966C23.418 7.84484 23.3055 7.79662 23.0082 7.79662C22.2528 7.79662 21.9153 8.47967 21.9153 10.0145V10.9547L21.0073 12.0878C20.1876 13.1003 14.3456 20.1638 13.7991 20.7906L13.5741 21.0397L12.6661 20.7745C12.1598 20.6218 11.2518 20.3566 10.6491 20.1798C10.0384 19.995 9.05799 19.7057 8.47941 19.537C2.88647 17.8816 2.95076 17.9057 2.50075 17.4235C2.15521 17.0619 2.0186 16.7646 1.9061 16.1539C1.74538 15.286 1.93824 14.378 2.332 14.1208C2.77397 13.8315 3.36058 13.8958 5.12043 14.4262C5.32133 14.4824 5.69901 14.5949 5.96419 14.6673C6.22938 14.7476 6.67938 14.8762 6.96867 14.9565C11.0027 16.1217 13.2206 16.7164 13.4054 16.6762C13.6947 16.6119 14.0884 16.2021 16.2501 13.703C16.4831 13.4378 17.0617 12.7708 17.5438 12.2163C18.026 11.6619 18.8778 10.6895 19.4242 10.0467C19.9706 9.40379 20.4448 8.86539 20.4689 8.84128C20.493 8.81717 20.8546 8.39931 21.2644 7.91716C21.6823 7.42697 22.1082 6.92072 22.2287 6.79214C22.8716 6.05285 23.7555 5.00015 23.868 4.82336C24.0529 4.55015 24.0448 4.0921 23.8359 3.82692C23.6189 3.5537 23.4341 3.45727 22.8475 3.33673C22.5743 3.27245 21.7064 3.07959 20.9108 2.9028C17.5117 2.12332 11.4687 0.797411 11.4446 0.813482C11.4366 0.821518 11.3482 0.845627 11.2518 0.861698ZM11.6696 4.62247C11.8464 4.64658 12.2804 4.73497 12.6339 4.82336C14.0723 5.16087 16.0572 5.64302 16.8126 5.83588C17.2545 5.94838 17.8331 6.09303 18.0903 6.15731C18.934 6.36624 18.9662 6.49482 18.3313 7.25019C17.801 7.88502 17.5679 7.99752 16.9652 7.92519C16.2661 7.84484 10.0625 6.34214 9.76514 6.18142C9.51603 6.04481 9.60443 5.76356 10.0544 5.22515C10.4964 4.70283 10.858 4.48586 11.1875 4.54211C11.2759 4.55818 11.4928 4.59836 11.6696 4.62247Z" fill="white"/>
</svg>
