<svg width="24" height="25" viewBox="0 0 24 25" fill="none" xmlns="http://www.w3.org/2000/svg">
<path d="M18.8326 3.23691L16.4336 5.63083L18.3436 7.54088L20.2537 9.45093L21.5882 8.12663C23.6765 6.05359 23.7121 5.91097 22.8004 3.09429C21.8276 0.0840588 21.9956 0.0789661 18.8326 3.23691Z" fill="white"/>
<path d="M12.8345 7.74466C11.8107 8.73789 10.9754 9.59868 10.9805 9.65471C10.9805 9.71074 12.152 10.9281 13.5782 12.3542L16.1758 14.9519L18.0859 13.0419L19.9959 11.1318L17.3982 8.53415C15.9721 7.10798 14.7751 5.93649 14.7497 5.93649C14.7191 5.93649 13.8583 6.75144 12.8345 7.74466Z" fill="white"/>
<path d="M8.63542 10.2711L8.28906 10.6276L11.773 14.1115L15.2569 17.5955L15.6135 17.2491C16.1177 16.7601 16.3164 17.025 12.5879 13.2966C8.85444 9.56308 9.12439 9.76681 8.63542 10.2711Z" fill="white"/>
<path d="M4.28929 14.6208C-0.0197791 18.9503 -0.00959218 18.8535 3.56602 22.4087C6.072 24.9045 6.65774 25.1898 8.00242 24.5785C8.45064 24.3799 14.14 18.8586 14.14 18.6294C14.14 18.5683 12.5916 16.9689 10.7019 15.0792L7.25877 11.6361L4.28929 14.6208Z" fill="white"/>
</svg>
