<svg width="24" height="19" viewBox="0 0 24 19" fill="none" xmlns="http://www.w3.org/2000/svg">
<path d="M5.18839 0.63558C3.04885 1.01892 1.47094 2.15109 0.615119 3.92513C0.142636 4.88792 0 5.60111 0 6.96507C0 8.68561 0.249613 9.72864 1.23915 12.1356C1.75621 13.3926 2.0504 14.5159 2.13063 15.5678C2.18412 16.2899 2.15737 16.7891 1.94342 18.5275L1.88102 19H5.81243H9.74384L9.78841 18.7058C9.81516 18.5543 9.85973 18.0729 9.88648 17.645C9.92214 17.2081 9.99345 16.8337 10.0559 16.7802C10.1272 16.7178 10.2966 16.7267 10.5907 16.8159C10.8225 16.8872 11.3485 16.9853 11.7675 17.0477C12.7392 17.1725 13.3008 17.0566 13.6396 16.6554C13.8625 16.388 13.8714 16.3345 13.8179 15.7194C13.7644 15.0775 13.7733 15.0508 14.0318 14.7477C14.4776 14.2395 14.4063 14.0523 13.5237 13.5174C12.7125 13.0271 12.6946 12.8845 13.4256 12.8042C14.2012 12.724 14.6559 12.5992 14.7094 12.4476C14.7361 12.3763 14.6559 12.1891 14.54 12.0287C14.0229 11.36 14.0675 11.0748 14.7183 10.8965C15.164 10.7717 15.3691 10.5577 15.3691 10.21C15.3691 9.96934 15.1997 9.72864 14.3528 8.74802C13.069 7.25925 13.078 7.27708 13.2295 6.66196C13.3722 6.05576 13.3097 5.55653 12.9888 4.81661C12.5609 3.81815 12.1419 3.19412 11.402 2.45419C10.8136 1.86582 10.5283 1.66078 9.8419 1.32202C9.37833 1.09023 8.7543 0.84062 8.46011 0.760387C7.845 0.599922 5.82134 0.519688 5.18839 0.63558Z" fill="white"/>
<path d="M16.9369 9.3364C16.5981 9.66624 16.928 10.0852 17.5163 10.0852C17.971 10.0852 18.1136 10.1566 18.2652 10.4507C18.4613 10.8252 18.4256 11.048 18.1404 11.3422C17.8818 11.6007 17.8729 11.6007 16.8032 11.6007C15.6799 11.6007 15.457 11.6721 15.457 12.0376C15.457 12.3585 15.6353 12.4031 16.8656 12.4031C17.9443 12.4031 18.0958 12.3852 18.4167 12.207C19.3439 11.681 19.4776 10.2903 18.6753 9.61275C18.1939 9.21159 17.2132 9.05112 16.9369 9.3364Z" fill="white"/>
<path d="M21.7268 10.6291C21.5841 10.7717 21.5752 11.0837 21.7178 11.2263C21.7802 11.2888 21.9764 11.3333 22.1636 11.3333C23.0818 11.3333 23.4919 12.1446 22.8589 12.7151C22.6806 12.8756 22.5113 12.8934 21.0849 12.9202C20.1845 12.938 19.4713 12.9915 19.4089 13.045C19.2306 13.1876 19.2752 13.5442 19.4713 13.6512C19.5961 13.7136 20.2202 13.7403 21.2899 13.7225C22.9035 13.6957 22.9213 13.6957 23.2958 13.4461C24.214 12.8399 24.2407 11.5116 23.3492 10.8341C23.0729 10.6291 22.9035 10.5756 22.4221 10.5488C22.0209 10.531 21.7981 10.5488 21.7268 10.6291Z" fill="white"/>
<path d="M16.3489 13.0717C16.1795 13.2678 16.3132 13.6422 16.5718 13.7046C16.9908 13.8116 17.2849 13.5174 17.1423 13.1341C17.0888 12.9825 16.9997 12.9379 16.7679 12.9379C16.5985 12.9379 16.4113 13.0003 16.3489 13.0717Z" fill="white"/>
<path d="M17.7945 13.0449C17.7321 13.1073 17.6875 13.2321 17.6875 13.3391C17.6875 13.6065 17.8569 13.7402 18.1956 13.7402C18.5701 13.7402 18.8286 13.4104 18.6681 13.1251C18.5968 12.9825 18.4809 12.9379 18.2402 12.9379C18.053 12.9379 17.8569 12.9825 17.7945 13.0449Z" fill="white"/>
<path d="M15.0645 14.3286C14.8684 14.5247 14.8862 14.7743 15.118 14.9348C15.2874 15.0596 15.6975 15.0774 17.8192 15.0774H20.3332L20.5382 15.3003C20.8145 15.5945 20.8235 16.0759 20.5649 16.3433C20.4312 16.4681 20.2262 16.5394 19.8963 16.5751C19.3525 16.6197 19.201 16.7088 19.201 16.9852C19.201 17.2883 19.3793 17.3953 19.8874 17.3953C20.9215 17.3953 21.608 16.7445 21.608 15.7817C21.608 15.3984 21.3762 14.8546 21.0998 14.6139C20.663 14.2216 20.4045 14.1859 17.739 14.1859C15.5548 14.1859 15.1804 14.2038 15.0645 14.3286Z" fill="white"/>
</svg>
