<svg width="44" height="44" viewBox="0 0 44 44" fill="none" xmlns="http://www.w3.org/2000/svg">
<rect width="44" height="44" rx="12" fill="url(#paint0_linear_3334_38214)"/>
<path d="M9.8125 14.0312C9.8125 12.9124 10.257 11.8393 11.0481 11.0481C11.8393 10.257 12.9124 9.8125 14.0312 9.8125H29.9688C31.0876 9.8125 32.1607 10.257 32.9519 11.0481C33.743 11.8393 34.1875 12.9124 34.1875 14.0312V15.4375H9.8125V14.0312ZM9.8125 17.3125V29.9688C9.8125 31.0876 10.257 32.1607 11.0481 32.9519C11.8393 33.743 12.9124 34.1875 14.0312 34.1875H29.9688C31.0876 34.1875 32.1607 33.743 32.9519 32.9519C33.743 32.1607 34.1875 31.0876 34.1875 29.9688V17.3125H9.8125ZM16.8438 23.875C16.4708 23.875 16.1131 23.7268 15.8494 23.4631C15.5857 23.1994 15.4375 22.8417 15.4375 22.4688C15.4375 22.0958 15.5857 21.7381 15.8494 21.4744C16.1131 21.2107 16.4708 21.0625 16.8438 21.0625C17.2167 21.0625 17.5744 21.2107 17.8381 21.4744C18.1018 21.7381 18.25 22.0958 18.25 22.4688C18.25 22.8417 18.1018 23.1994 17.8381 23.4631C17.5744 23.7268 17.2167 23.875 16.8438 23.875ZM18.25 27.1562C18.25 27.5292 18.1018 27.8869 17.8381 28.1506C17.5744 28.4143 17.2167 28.5625 16.8438 28.5625C16.4708 28.5625 16.1131 28.4143 15.8494 28.1506C15.5857 27.8869 15.4375 27.5292 15.4375 27.1562C15.4375 26.7833 15.5857 26.4256 15.8494 26.1619C16.1131 25.8982 16.4708 25.75 16.8438 25.75C17.2167 25.75 17.5744 25.8982 17.8381 26.1619C18.1018 26.4256 18.25 26.7833 18.25 27.1562ZM22 28.5625C21.627 28.5625 21.2694 28.4143 21.0056 28.1506C20.7419 27.8869 20.5938 27.5292 20.5938 27.1562C20.5938 26.7833 20.7419 26.4256 21.0056 26.1619C21.2694 25.8982 21.627 25.75 22 25.75C22.373 25.75 22.7306 25.8982 22.9944 26.1619C23.2581 26.4256 23.4062 26.7833 23.4062 27.1562C23.4062 27.5292 23.2581 27.8869 22.9944 28.1506C22.7306 28.4143 22.373 28.5625 22 28.5625ZM23.4062 22.4688C23.4062 22.8417 23.2581 23.1994 22.9944 23.4631C22.7306 23.7268 22.373 23.875 22 23.875C21.627 23.875 21.2694 23.7268 21.0056 23.4631C20.7419 23.1994 20.5938 22.8417 20.5938 22.4688C20.5938 22.0958 20.7419 21.7381 21.0056 21.4744C21.2694 21.2107 21.627 21.0625 22 21.0625C22.373 21.0625 22.7306 21.2107 22.9944 21.4744C23.2581 21.7381 23.4062 22.0958 23.4062 22.4688ZM27.1562 23.875C26.7833 23.875 26.4256 23.7268 26.1619 23.4631C25.8982 23.1994 25.75 22.8417 25.75 22.4688C25.75 22.0958 25.8982 21.7381 26.1619 21.4744C26.4256 21.2107 26.7833 21.0625 27.1562 21.0625C27.5292 21.0625 27.8869 21.2107 28.1506 21.4744C28.4143 21.7381 28.5625 22.0958 28.5625 22.4688C28.5625 22.8417 28.4143 23.1994 28.1506 23.4631C27.8869 23.7268 27.5292 23.875 27.1562 23.875Z" fill="#34A326"/>
<defs>
<linearGradient id="paint0_linear_3334_38214" x1="22" y1="44" x2="22" y2="0" gradientUnits="userSpaceOnUse">
<stop stop-color="#A0F3A0"/>
<stop offset="0.46" stop-color="#B6F9B6"/>
<stop offset="1" stop-color="#CFFFCF"/>
</linearGradient>
</defs>
</svg>
