<svg width="25" height="22" viewBox="0 0 25 22" fill="none" xmlns="http://www.w3.org/2000/svg">
<path d="M13.8213 1.08414C11.8073 4.27621 10.3632 9.25433 9.94522 14.3655C9.75522 16.7785 9.75522 16.8735 10.1922 17.7285C10.5532 18.4506 10.8002 18.6786 11.5413 18.9826C12.4343 19.3626 12.4343 19.3626 13.3273 18.9826C14.9423 18.3176 15.4174 16.7025 14.4673 15.0875C12.7573 12.1424 12.8713 5.85325 14.6763 1.59715C15.3033 0.11511 14.6763 -0.245897 13.8213 1.08414Z" fill="white"/>
<path d="M2.38462 15.8475C2.23262 15.9425 2.17562 16.1515 2.23262 16.3225C2.32762 16.5885 2.76463 16.6265 5.17769 16.6265H8.00876L8.31277 17.7095C8.78778 19.3246 9.88981 20.4076 11.5238 20.8066C12.9679 21.1866 14.1839 20.7876 15.3999 19.5716C16.046 18.9445 16.426 18.3745 16.521 17.9375C16.806 16.5315 16.578 16.6265 19.276 16.6265C21.7461 16.6265 22.2021 16.5125 21.7461 15.9615C21.5561 15.7335 20.9671 15.6765 18.991 15.6765C17.585 15.6765 16.331 15.7335 16.16 15.7905C15.97 15.8665 15.856 16.1325 15.856 16.5505C15.856 17.2915 15.4189 18.4315 14.9439 18.9635C14.7729 19.1725 14.2979 19.4956 13.9179 19.6856C11.7329 20.8066 9.01579 19.1155 9.01579 16.6645C9.01579 16.1515 8.92078 15.8665 8.71178 15.7905C8.23677 15.6195 2.68863 15.6575 2.38462 15.8475Z" fill="white"/>
<path d="M2.93542 17.1775C2.70741 17.6145 2.84041 18.0705 3.23942 18.2225C3.88544 18.4695 4.41745 17.8235 4.07544 17.1775C3.80944 16.7024 3.20142 16.7024 2.93542 17.1775Z" fill="white"/>
<path d="M6.60149 17.3295C6.24048 17.4625 6.29748 18.2986 6.67749 18.5076C7.3805 18.8876 8.02652 17.9946 7.45651 17.4245C7.2095 17.1775 7.0005 17.1585 6.60149 17.3295Z" fill="white"/>
<path d="M20.319 17.5765C20.167 18.0895 20.547 18.5645 21.06 18.4885C21.364 18.4505 21.459 18.2985 21.459 17.8615C21.459 17.3865 21.383 17.2725 20.946 17.2345C20.585 17.1965 20.414 17.2725 20.319 17.5765Z" fill="white"/>
<path d="M1.01456 17.6906C0.691548 18.0896 1.01456 18.6216 1.60357 18.6216C2.19258 18.6216 2.51559 18.0896 2.19258 17.6906C1.86958 17.3106 1.33756 17.3106 1.01456 17.6906Z" fill="white"/>
<path d="M4.77857 17.7856C4.32256 18.0516 4.36056 18.8496 4.83557 19.0017C5.31058 19.1537 5.7856 18.8116 5.7856 18.3176C5.7856 17.8616 5.21558 17.5576 4.77857 17.7856Z" fill="white"/>
<path d="M16.8789 17.8425C16.6699 18.3745 16.8979 18.8115 17.3539 18.8115C17.8859 18.8115 18.2469 18.3365 18.0759 17.8805C17.9239 17.5005 17.0119 17.4815 16.8789 17.8425Z" fill="white"/>
<path d="M22.3546 17.8045C22.0126 18.1465 22.0886 18.6785 22.5256 18.9065C23.0196 19.1725 23.4566 18.8495 23.4566 18.2415C23.4566 17.6335 22.7916 17.3675 22.3546 17.8045Z" fill="white"/>
<path d="M18.953 18.0896C18.592 18.2226 18.649 19.0586 19.029 19.2676C19.7321 19.6476 20.3781 18.7546 19.8081 18.1846C19.5611 17.9375 19.3521 17.9185 18.953 18.0896Z" fill="white"/>
<path d="M2.42003 18.8497C2.07802 18.9637 2.11602 19.7617 2.43903 20.0277C2.80003 20.3317 3.50305 19.9897 3.50305 19.5147C3.50305 18.9067 3.00904 18.6026 2.42003 18.8497Z" fill="white"/>
<path d="M5.82274 19.3246C5.23372 19.9137 5.95574 20.8637 6.63975 20.3697C7.07677 20.0277 6.94376 19.2106 6.44975 19.1346C6.24075 19.1156 5.95574 19.1916 5.82274 19.3246Z" fill="white"/>
<path d="M21.0597 19.3625C20.8317 19.9515 21.0597 20.3315 21.6487 20.3315C22.1617 20.3315 22.2187 20.2745 22.2187 19.7615C22.2187 19.2865 22.1427 19.1915 21.6867 19.1345C21.3637 19.0965 21.1357 19.1725 21.0597 19.3625Z" fill="white"/>
<path d="M0.293171 19.6287C-0.0868386 20.3507 0.882185 20.9777 1.4142 20.3317C1.5282 20.1797 1.5852 19.8947 1.5092 19.6667C1.3572 19.1917 0.540177 19.1537 0.293171 19.6287Z" fill="white"/>
<path d="M4.01862 19.6857C3.3156 20.0847 3.86661 21.1487 4.64563 20.9017C4.89264 20.8257 5.02564 20.6167 5.02564 20.3317C5.02564 19.7807 4.49363 19.4387 4.01862 19.6857Z" fill="white"/>
<path d="M17.5835 19.7427C17.4125 19.9517 17.3935 20.1227 17.5645 20.4077C17.9635 21.1677 19.0655 20.6927 18.7995 19.8567C18.6665 19.4007 17.9255 19.3437 17.5835 19.7427Z" fill="white"/>
<path d="M23.0758 19.7616C22.5818 20.3506 23.3228 21.3196 23.9118 20.8256C24.2728 20.5216 24.3108 20.0276 23.9878 19.7046C23.6838 19.4006 23.3608 19.4196 23.0758 19.7616Z" fill="white"/>
<path d="M19.4439 20.2557C19.2729 20.5977 19.2919 20.7307 19.5959 21.0347C20.0139 21.4527 20.5269 21.3387 20.6979 20.7877C20.9639 19.9707 19.8619 19.5147 19.4439 20.2557Z" fill="white"/>
</svg>
