<svg width="22" height="24" viewBox="0 0 22 24" fill="none" xmlns="http://www.w3.org/2000/svg">
<path d="M12.0019 0C17.1618 0 21.3357 4.17316 21.3359 9.33301C21.3359 13.053 19.1486 16.2664 16.0019 17.7598V24H6.66891V20H5.33591C3.86924 20 2.66891 18.7997 2.66891 17.333V13.333H0.668914C0.122303 13.3329 -0.197604 12.7066 0.135711 12.2666L2.69528 8.85352C2.93527 3.92032 7.00211 0.000217609 12.0019 0ZM12.1191 4C8.97581 4.00013 6.42184 6.47697 6.42184 9.52539C6.42203 12.4502 8.52698 15.4791 11.7841 17V15.0498H12.1191C15.2622 15.0495 17.8162 12.5736 17.8164 9.52539C17.8164 6.47705 15.2623 4.00026 12.1191 4ZM12.124 5.625C14.3434 5.62548 16.1406 7.37289 16.1406 9.52539C16.1404 11.6777 14.3433 13.4243 12.124 13.4248C9.90028 13.4248 8.09784 11.678 8.09762 9.52539C8.09762 7.37259 9.90014 5.625 12.124 5.625ZM12.1191 6.40527C10.3418 6.4055 8.90231 7.80173 8.90231 9.52539C8.90253 11.2489 10.342 12.6443 12.1191 12.6445C13.8962 12.6443 15.3367 11.2489 15.3369 9.52539C15.3369 7.80175 13.8964 6.40553 12.1191 6.40527ZM10.7324 10.3047C11.0098 10.7686 11.5242 11.0848 12.1191 11.085C12.7141 11.0848 13.2254 10.7687 13.5068 10.3047H14.1787C13.857 11.104 13.0559 11.6697 12.1191 11.6699C11.1824 11.6697 10.3822 11.104 10.0605 10.3047H10.7324ZM10.7119 7.96484C11.0447 7.9651 11.3153 8.22697 11.3154 8.5498C11.3154 8.87273 11.0448 9.13451 10.7119 9.13477C10.3788 9.13468 10.1084 8.87284 10.1084 8.5498C10.1085 8.22686 10.3789 7.96493 10.7119 7.96484ZM13.5273 7.96484C13.86 7.96524 14.1297 8.22705 14.1299 8.5498C14.1299 8.87265 13.8601 9.13437 13.5273 9.13477C13.1942 9.13477 12.9238 8.87289 12.9238 8.5498C12.9239 8.22681 13.1942 7.96484 13.5273 7.96484Z" fill="white"/>
</svg>
