<svg width="10" height="11" viewBox="0 0 10 11" fill="none" xmlns="http://www.w3.org/2000/svg">
<g clip-path="url(#clip0_3334_20435)">
<path d="M2.81675 2.68337L2.06675 1.93754L1.47925 2.52504L2.22508 3.27087L2.81675 2.68337ZM1.66675 5.04171H0.416748V5.87504H1.66675V5.04171ZM5.41675 0.895874H4.58341V2.12504H5.41675V0.895874ZM8.52091 2.52504L7.93341 1.93754L7.18758 2.68337L7.77508 3.27087L8.52091 2.52504ZM7.18341 8.23337L7.92925 8.98337L8.51675 8.39587L7.76675 7.65004L7.18341 8.23337ZM8.33341 5.04171V5.87504H9.58341V5.04171H8.33341ZM5.00008 2.95837C3.62091 2.95837 2.50008 4.07921 2.50008 5.45837C2.50008 6.83754 3.62091 7.95837 5.00008 7.95837C6.37925 7.95837 7.50008 6.83754 7.50008 5.45837C7.50008 4.07921 6.37925 2.95837 5.00008 2.95837ZM4.58341 10.0209H5.41675V8.79171H4.58341V10.0209ZM1.47925 8.39171L2.06675 8.97921L2.81258 8.22921L2.22508 7.64171L1.47925 8.39171Z" fill="white"/>
</g>
<defs>
<clipPath id="clip0_3334_20435">
<rect width="10" height="10" fill="white" transform="translate(0 0.666687)"/>
</clipPath>
</defs>
</svg>
