<svg width="22" height="24" viewBox="0 0 22 24" fill="none" xmlns="http://www.w3.org/2000/svg">
<g clip-path="url(#clip0_3442_25082)">
<path d="M15.5749 0.737993C14.3024 1.79664 12.8695 3.75353 11.6718 6.06331C11.0837 7.19681 11.0409 7.25027 11.0089 6.89739C10.9554 6.18093 10.7629 5.13298 10.6453 5.00466C10.4956 4.81218 10.0571 4.83356 9.99298 5.02605C9.95021 5.11159 9.99298 5.50725 10.0785 5.90291C10.3672 7.25027 10.2282 9.26063 9.74703 10.7898C9.42623 11.827 9.00919 13.538 8.83809 14.5432C8.75255 15.0885 8.56007 15.5911 8.14302 16.3611C6.96675 18.5853 7.00952 20.1037 8.28204 21.2159C9.84327 22.5953 12.3134 21.9537 12.9871 19.9861C13.1155 19.6225 13.1368 19.259 13.0941 18.5639C13.0406 17.6977 12.9978 17.5694 12.4204 16.468L11.8002 15.2917L11.7574 14.1368C11.7146 13.121 11.736 12.9178 11.9606 12.3724C12.2814 11.5704 12.5273 11.1427 13.1048 10.4048C13.5004 9.89154 13.5539 9.77392 13.4469 9.58144C13.2652 9.22855 12.9551 9.3141 12.5273 9.83808C12.3134 10.1054 12.121 10.3086 12.0996 10.2872C12.0247 10.2123 12.7091 7.91327 13.1048 6.90808C13.3186 6.36272 13.6715 5.72112 13.8747 5.47517C14.3345 4.92981 15.2541 4.33097 16.0989 4.03156C16.7405 3.7963 16.9116 3.61452 16.8047 3.3151C16.6977 3.05846 16.131 3.12262 15.4038 3.4755C15.0296 3.6466 14.7302 3.74284 14.7302 3.68937C14.7302 3.56105 16.131 1.50792 16.5587 1.00533C16.8368 0.673832 16.8688 0.577591 16.7726 0.385111C16.5801 0.0429211 16.3342 0.107082 15.5749 0.737993Z" fill="white"/>
<path d="M-1.73583 15.1952C-2.48437 15.2915 -3.93867 15.5695 -4.48403 15.7299C-4.97593 15.8689 -5.05078 15.9224 -5.05078 16.1576C-5.05078 16.2967 -4.97593 16.4464 -4.87969 16.4891C-4.79414 16.5212 -4.206 16.4357 -3.57509 16.3073C-1.82137 15.9438 -0.54886 15.9117 0.99099 16.2111C2.02825 16.4143 2.62708 16.4677 4.12416 16.4677C5.12934 16.4677 5.96342 16.4677 5.96342 16.4784C5.96342 16.4784 5.86718 16.7672 5.73886 17.12C5.42875 18.0076 5.3539 19.387 5.57846 20.2639C6.327 23.1725 9.62056 24.6803 12.3474 23.3543C13.4595 22.8196 14.2294 21.9428 14.732 20.6382C15.0742 19.772 15.0849 18.0718 14.7641 17.0987L14.5502 16.4464L15.7372 16.3822C16.3895 16.3501 17.4588 16.2325 18.1004 16.1363C19.3088 15.9438 21.918 15.8796 24.1422 15.9865L25.265 16.04V15.7299C25.265 15.2808 25.0191 15.238 22.2174 15.1632C20.1322 15.1097 19.5975 15.1311 18.2074 15.3342C17.2022 15.4733 16.0473 15.5588 15.1384 15.5588C13.2991 15.5588 13.2884 15.5588 13.7803 16.703C14.1225 17.4943 14.1439 17.6012 14.1439 18.8203C14.1439 20.0607 14.1332 20.1356 13.8017 20.8093C13.3846 21.654 12.711 22.3063 11.8662 22.702C11.3315 22.9586 11.1283 22.9907 10.1873 22.9907C9.2356 22.9907 9.05381 22.9586 8.50845 22.6913C6.86167 21.8786 5.95273 20.1142 6.26284 18.307C6.33769 17.89 6.56225 17.1628 6.76543 16.703C7.26802 15.5374 7.19316 15.4198 6.12382 15.5802C4.89408 15.762 2.68055 15.7085 1.35457 15.4626C0.0178905 15.2273 -1.137 15.1204 -1.73583 15.1952Z" fill="white"/>
</g>
<defs>
<clipPath id="clip0_3442_25082">
<rect width="21.4737" height="24" fill="white"/>
</clipPath>
</defs>
</svg>
