<svg width="24" height="25" viewBox="0 0 24 25" fill="none" xmlns="http://www.w3.org/2000/svg">
<path d="M10.5289 0.756241C8.17912 2.01505 9.21414 5.65161 11.9276 5.65161C13.2423 5.65161 14.0815 5.06417 14.4732 3.8613C15.2285 1.5395 12.7388 -0.446621 10.5289 0.756241Z" fill="white"/>
<path d="M0.0955838 3.83325C-0.156178 4.53258 0.179504 5.03611 1.55021 5.90329C3.06078 6.85439 5.18677 7.72157 6.72531 8.0013L7.76033 8.19712V11.9735C7.76033 16.3654 7.53655 17.0927 5.66232 18.7431C4.99095 19.3306 3.50836 20.2537 2.36144 20.8412C0.0396368 21.9601 -0.40794 22.5755 0.319372 23.6945C0.962763 24.6735 1.88589 24.5896 4.37554 23.3588C6.83721 22.1279 9.32685 19.8341 10.25 17.876C10.8654 16.5892 10.9493 16.5332 11.7885 16.729C12.7956 16.9249 14.3621 17.7081 15.2013 18.4354C16.2083 19.2746 16.7958 20.4775 17.0196 22.072C17.2713 23.8903 17.635 24.3938 18.698 24.3938C20.4323 24.3938 20.768 22.072 19.4812 19.0788C18.8099 17.5683 16.9636 15.6101 15.537 14.8548L14.474 14.3233V11.3022V8.28104L16.6559 7.77752C19.6211 7.10615 22.894 5.87531 23.2577 5.28787C23.4815 4.92421 23.4535 4.70043 23.0898 4.36474C22.6702 3.91717 22.4185 3.97311 19.4533 4.98016C16.4042 6.01518 16.1244 6.04316 11.9004 6.15505C6.89315 6.26694 5.5784 6.01518 2.89294 4.39272C1.1306 3.32972 0.347346 3.18985 0.0955838 3.83325Z" fill="white"/>
</svg>
