<?xml version="1.0" encoding="UTF-8"?>
<svg version="1.1" xmlns="http://www.w3.org/2000/svg" width="512" height="512">
<path d="M0 0 C1.18581691 -0.00445784 2.37163381 -0.00891569 3.59338456 -0.01350862 C4.8872339 -0.01332426 6.18108324 -0.01313989 7.51414013 -0.01294994 C8.90963584 -0.01625179 10.30513061 -0.01997804 11.70062417 -0.02409142 C15.5307842 -0.03408338 19.36092855 -0.0378237 23.19109976 -0.04048073 C27.32428914 -0.04439223 31.45746621 -0.05397009 35.5906477 -0.0626936 C45.57125843 -0.08243607 55.55187015 -0.09252225 65.53249553 -0.10142139 C70.23782576 -0.10580867 74.94315488 -0.11117441 79.64848423 -0.11641026 C95.29990721 -0.13342173 110.95132951 -0.14791391 126.60276031 -0.155159 C130.66242823 -0.15706876 134.72209614 -0.15898911 138.78176403 -0.16094494 C140.29519913 -0.16167055 140.29519913 -0.16167055 141.83920868 -0.16241082 C158.16829013 -0.17070366 174.49729815 -0.19602833 190.82634757 -0.22852562 C207.60843523 -0.26165089 224.39048565 -0.27961277 241.17260617 -0.28280324 C250.58800383 -0.28496348 260.00329447 -0.29364049 269.41866016 -0.31926441 C277.44066842 -0.34104638 285.46254364 -0.34898522 293.48457811 -0.33929763 C297.5717927 -0.33477429 301.65873326 -0.33652331 305.74590969 -0.35605907 C337.32861416 -0.49853267 337.32861416 -0.49853267 350.99929333 4.13422108 C351.99034209 4.47006704 351.99034209 4.47006704 353.00141203 4.81269777 C367.39859907 9.75606492 379.08752305 17.53792716 389.99929333 28.13422108 C390.75726208 28.81871326 391.51523083 29.50320545 392.29616833 30.20843983 C407.70127655 44.57768732 419.18933026 67.86167282 420.12809449 89.03994066 C420.13077735 90.57195927 420.13077735 90.57195927 420.1335144 92.13492775 C420.13797225 93.32074466 420.14243009 94.50656156 420.14702302 95.72831231 C420.14674648 97.66908632 420.14674648 97.66908632 420.14646435 99.64906788 C420.1497662 101.04456359 420.15349244 102.44005836 420.15760583 103.83555192 C420.16759779 107.66571195 420.17133811 111.4958563 420.17399514 115.32602751 C420.17790664 119.45921689 420.1874845 123.59239395 420.196208 127.72557545 C420.21595047 137.70618618 420.22603665 147.6867979 420.23493579 157.66742328 C420.23932308 162.37275351 420.24468881 167.07808263 420.24992466 171.78341198 C420.26693613 187.43483496 420.28142831 203.08625726 420.2886734 218.73768806 C420.29058316 222.79735598 420.29250351 226.85702389 420.29445934 230.91669178 C420.29494308 231.92564852 420.29542682 232.93460525 420.29592522 233.97413643 C420.30421806 250.30321788 420.32954273 266.6322259 420.36204002 282.96127532 C420.39516529 299.74336298 420.41312717 316.5254134 420.41631764 333.30753392 C420.41847788 342.72293158 420.4271549 352.13822222 420.45277882 361.55358791 C420.47456078 369.57559617 420.48249963 377.59747139 420.47281203 385.61950586 C420.46828869 389.70672045 420.47003771 393.79366101 420.48957348 397.88083744 C420.63137366 429.29129822 420.63137366 429.29129822 415.99929333 443.13422108 C415.62139817 444.30406701 415.24350302 445.47391294 414.85415649 446.67920876 C409.9963872 461.03312086 401.52526424 472.48219063 390.99929333 483.13422108 C390.34444958 483.86125233 389.68960583 484.58828358 389.01491833 485.33734608 C375.17849066 500.3563744 351.53438979 511.35694687 331.09357375 512.26302224 C330.07222801 512.26481081 329.05088227 512.26659938 327.99858665 512.26844215 C326.81276975 512.2729 325.62695284 512.27735784 324.40520209 512.28195077 C323.11135275 512.28176641 321.81750342 512.28158205 320.48444653 512.2813921 C319.08895081 512.28469395 317.69345605 512.28842019 316.29796249 512.29253358 C312.46780246 512.30252554 308.6376581 512.30626586 304.80748689 512.30892289 C300.67429752 512.31283438 296.54112045 512.32241225 292.40793896 512.33113575 C282.42732822 512.35087822 272.4467165 512.3609644 262.46609113 512.36986354 C257.76076089 512.37425083 253.05543178 512.37961656 248.35010242 512.38485241 C232.69867944 512.40186388 217.04725715 512.41635606 201.39582634 512.42360115 C197.33615843 512.42551091 193.27649052 512.42743126 189.21682262 512.42938709 C188.20786589 512.42987083 187.19890915 512.43035457 186.15937797 512.43085297 C169.83029652 512.43914581 153.5012885 512.46447048 137.17223909 512.49696777 C120.39015142 512.53009304 103.608101 512.54805492 86.82598048 512.55124539 C77.41058282 512.55340563 67.99529219 512.56208265 58.57992649 512.58770657 C50.55791824 512.60948853 42.53604302 512.61742738 34.51400854 512.60773978 C30.42679395 512.60321644 26.33985339 512.60496546 22.25267696 512.62450123 C-9.15778381 512.76630141 -9.15778381 512.76630141 -23.00070667 508.13422108 C-24.17055261 507.75632592 -25.34039854 507.37843077 -26.54569435 506.98908424 C-40.89960646 502.13131495 -52.34867623 493.66019199 -63.00070667 483.13422108 C-63.72773792 482.47937733 -64.45476917 481.82453358 -65.20383167 481.14984608 C-80.03753858 467.48414759 -91.23853873 443.32852432 -92.12950784 423.2285015 C-92.13129641 422.20715576 -92.13308498 421.18581002 -92.13492775 420.1335144 C-92.14161452 418.35478905 -92.14161452 418.35478905 -92.14843637 416.54012984 C-92.148252 415.2462805 -92.14806764 413.95243117 -92.14787769 412.61937428 C-92.15117954 411.22387856 -92.15490579 409.8283838 -92.15901917 408.43289024 C-92.16901113 404.60273021 -92.17275145 400.77258585 -92.17540848 396.94241464 C-92.17931998 392.80922527 -92.18889784 388.6760482 -92.19762135 384.54286671 C-92.21736382 374.56225597 -92.22745 364.58164425 -92.23634914 354.60101888 C-92.24073642 349.89568864 -92.24610216 345.19035953 -92.25133801 340.48503017 C-92.26834948 324.83360719 -92.28284166 309.1821849 -92.29008675 293.53075409 C-92.29199651 289.47108617 -92.29391686 285.41141827 -92.29587269 281.35175037 C-92.29635643 280.34279364 -92.29684017 279.3338369 -92.29733857 278.29430572 C-92.30563141 261.96522427 -92.33095608 245.63621625 -92.36345337 229.30716684 C-92.39657864 212.52507917 -92.41454052 195.74302875 -92.41773099 178.96090823 C-92.41989122 169.54551057 -92.42856824 160.13021994 -92.45419216 150.71485424 C-92.47597413 142.69284599 -92.48391297 134.67097077 -92.47422538 126.64893629 C-92.46970204 122.5617217 -92.47145106 118.47478114 -92.49098682 114.38760471 C-92.632787 82.97714394 -92.632787 82.97714394 -88.00070667 69.13422108 C-87.62281152 67.96437514 -87.24491636 66.79452921 -86.85556984 65.5892334 C-81.99780054 51.23532129 -73.52667758 39.78625152 -63.00070667 29.13422108 C-62.34586292 28.40718983 -61.69101917 27.68015858 -61.01633167 26.93109608 C-46.44594503 11.11537724 -21.51008838 0.03766825 0 0 Z M46.52663708 137.63812733 C23.66719413 160.21491874 8.47842587 189.07712318 0.99929333 220.13422108 C0.8214027 220.82499744 0.64351208 221.51577381 0.46023083 222.2274828 C-4.88420255 243.56810218 -4.47522368 270.87583846 0.99929333 292.13422108 C1.28933239 293.33860828 1.28933239 293.33860828 1.58523083 294.56732655 C9.80158736 328.25058448 28.7345631 361.18943821 55.99929333 383.13422108 C56.9660902 383.91539295 57.93288708 384.69656483 58.92898083 385.50140858 C94.51836981 413.79584191 138.34496176 426.5332444 183.51882458 421.98187733 C224.33554184 417.11145594 264.93328405 396.32685646 290.99929333 364.13422108 C291.74694958 363.22414295 292.49460583 362.31406483 293.26491833 361.37640858 C309.7222059 340.72717039 320.82299463 317.7813014 326.99929333 292.13422108 C327.17718395 291.44344471 327.35507458 290.75266834 327.53835583 290.04095936 C333.31223325 266.98554604 331.86798339 238.9822752 325.99929333 216.13422108 C325.82269176 215.39832752 325.6460902 214.66243397 325.46413708 213.90424061 C315.1422141 171.38365234 285.69436065 135.01784029 248.74929333 112.44672108 C183.22900059 73.80029226 100.98658617 85.50480482 46.52663708 137.63812733 Z " fill="#000000" transform="translate(92.00070667266846,-0.13422107696533203)"/>
<path d="M0 0 C3.50818198 0.00535823 7.01623597 0.00003085 10.52441406 -0.00634766 C36.83807957 -0.01709518 36.83807957 -0.01709518 42.51660156 1.13037109 C44.25220753 4.60158304 42.44251429 8.38949889 41.51660156 12.00537109 C41.17483887 13.34208862 41.17483887 13.34208862 40.82617188 14.70581055 C35.61646259 34.5065314 28.75151384 59.48283335 11.05175781 71.85302734 C6.85747216 73.96632689 3.09357416 73.97018258 -1.48339844 73.13037109 C-14.8397522 66.81123598 -22.16634327 49.7534637 -26.88574219 36.64990234 C-35.39492856 12.06704776 -35.39492856 12.06704776 -36.48339844 2.13037109 C-30.89556596 -3.45746138 -7.44520707 -0.01353674 0 0 Z " fill="#000000" transform="translate(252.4833984375,325.86962890625)"/>
<path d="M0 0 C13.35635377 6.31913512 20.68294483 23.37690739 25.40234375 36.48046875 C33.91153012 61.06332333 33.91153012 61.06332333 35 71 C30.29028562 75.70971438 11.78507886 73.12834092 5.44482422 73.13787842 C3.13541544 73.13709921 0.82600665 73.13457001 -1.48339844 73.13037109 C-4.99158042 73.12501286 -8.49963441 73.13034024 -12.0078125 73.13671875 C-38.32147801 73.14746627 -38.32147801 73.14746627 -44 72 C-45.73560597 68.52878806 -43.92591272 64.7408722 -43 61.125 C-42.7721582 60.23385498 -42.54431641 59.34270996 -42.30957031 58.42456055 C-37.09986102 38.62383969 -30.23491228 13.64753774 -12.53515625 1.27734375 C-8.3408706 -0.8359558 -4.57697259 -0.83981149 0 0 Z " fill="#000000" transform="translate(261,113)"/>
<path d="M0 0 C24.42 0 48.84 0 74 0 C74.99 14.85 74.99 14.85 76 30 C76.495 34.95 76.495 34.95 77 40 C76.20875732 40.17885742 75.41751465 40.35771484 74.60229492 40.54199219 C66.80472696 42.32067755 59.04328643 44.2000545 51.3125 46.25 C50.19343262 46.54648437 49.07436523 46.84296875 47.92138672 47.1484375 C40.19799925 49.25431316 32.77329361 51.76126278 25.4309082 54.95410156 C22.84342042 56.05537345 20.56495888 56.97857053 17.734375 57.0859375 C14.91373883 55.3198635 13.91189843 52.57108353 12.625 49.625 C12.32754883 48.96161621 12.03009766 48.29823242 11.72363281 47.61474609 C5.29223828 32.8143371 0 16.25859547 0 0 Z " fill="#000000" transform="translate(113,268)"/>
<path d="M0 0 C24.42 0 48.84 0 74 0 C72.35124261 19.78508866 67.62596466 39.93405676 57 57 C53.18572097 56.41778128 49.80300368 55.19795672 46.22583008 53.77807617 C33.78927129 48.87006049 20.9681898 45.78503585 7.97900391 42.70849609 C4.31128177 41.83620224 0.65501956 40.9238952 -3 40 C-2.94465088 39.42781738 -2.88930176 38.85563477 -2.83227539 38.26611328 C-2.57198965 35.55274958 -2.31726572 32.83888737 -2.0625 30.125 C-1.97548828 29.22652344 -1.88847656 28.32804687 -1.79882812 27.40234375 C-0.94798864 18.26369745 -0.51048408 9.18871337 0 0 Z " fill="#000000" transform="translate(325,268)"/>
<path d="M0 0 C3.81427903 0.58221872 7.19699632 1.80204328 10.77416992 3.22192383 C23.21072871 8.12993951 36.0318102 11.21496415 49.02099609 14.29150391 C52.68871823 15.16379776 56.34498044 16.0761048 60 17 C59.94465088 17.57218262 59.88930176 18.14436523 59.83227539 18.73388672 C59.57198965 21.44725042 59.31726572 24.16111263 59.0625 26.875 C58.97548828 27.77347656 58.88847656 28.67195313 58.79882812 29.59765625 C57.94798864 38.73630255 57.51048408 47.81128663 57 57 C32.58 57 8.16 57 -17 57 C-15.35124261 37.21491134 -10.62596466 17.06594324 0 0 Z " fill="#000000" transform="translate(130,187)"/>
<path d="M0 0 C3.22442786 1.48541059 4.10606117 4.23423283 5.4609375 7.3359375 C5.90711426 8.33101318 5.90711426 8.33101318 6.36230469 9.34619141 C12.79369922 24.1466004 18.0859375 40.70234203 18.0859375 56.9609375 C-6.3340625 56.9609375 -30.7540625 56.9609375 -55.9140625 56.9609375 C-56.5740625 47.0609375 -57.2340625 37.1609375 -57.9140625 26.9609375 C-58.2440625 23.6609375 -58.5740625 20.3609375 -58.9140625 16.9609375 C-57.92301514 16.7249585 -56.93196777 16.48897949 -55.91088867 16.24584961 C-39.82511625 12.3991318 -15.57173646 -0.31779054 0 0 Z " fill="#000000" transform="translate(380.9140625,187.0390625)"/>
<path d="M0 0 C30.36 0 60.72 0 92 0 C92 20.69444444 92 20.69444444 91 28.625 C90.82089716 30.11889203 90.64256495 31.61287657 90.46484375 33.10693359 C90.23474609 35.03400146 90.23474609 35.03400146 90 37 C89.00226563 36.9292627 88.00453125 36.85852539 86.9765625 36.78564453 C74.45345809 35.96180508 61.96123376 35.8461931 49.4140625 35.86962891 C46.00516312 35.87499188 42.59639543 35.86964844 39.1875 35.86328125 C26.75660351 35.85990182 14.4010565 36.12079073 2 37 C1.75242203 34.92653448 1.5049569 32.85305536 1.25830078 30.77947998 C1.07184682 29.22427243 0.87954962 27.66976156 0.68359375 26.11572266 C-0.30279856 17.29103429 0 9.08605791 0 0 Z " fill="#000000" transform="translate(210,268)"/>
<path d="M0 0 C0.91394531 0.0707373 1.82789063 0.14147461 2.76953125 0.21435547 C15.31743066 1.10622862 27.84479855 1.15278972 40.41992188 1.13037109 C43.99353273 1.1250097 47.56701794 1.13034781 51.140625 1.13671875 C63.46334999 1.13992312 75.71138254 0.95111126 88 0 C88.24757797 2.07346552 88.4950431 4.14694464 88.74169922 6.22052002 C88.92815318 7.77572757 89.12045038 9.33023844 89.31640625 10.88427734 C90.30279856 19.70896571 90 27.91394209 90 37 C59.64 37 29.28 37 -2 37 C-2 16.30555556 -2 16.30555556 -1 8.375 C-0.82089716 6.88110797 -0.64256495 5.38712343 -0.46484375 3.89306641 C-0.31144531 2.60835449 -0.15804687 1.32364258 0 0 Z " fill="#000000" transform="translate(212,207)"/>
<path d="M0 0 C19.85394007 3.1908118 37.8913655 15.33302022 53 28 C53.86882812 28.72574219 54.73765625 29.45148438 55.6328125 30.19921875 C61.9070376 35.61206718 68.15909353 41.05369641 71 49 C61.12151969 52.91752305 51.28727148 56.41254873 40.9375 58.875 C40.09485596 59.07762451 39.25221191 59.28024902 38.3840332 59.48901367 C32.61608922 60.80375309 26.89534317 61.53801933 21 62 C20.8548999 61.37770508 20.7097998 60.75541016 20.56030273 60.11425781 C16.02226531 40.84483515 10.82174329 22.52838454 1.50390625 4.9921875 C0 2 0 2 0 0 Z " fill="#000000" transform="translate(297,119)"/>
<path d="M0 0 C6.79681792 0.53262353 13.31016027 1.5313716 19.9375 3.125 C20.82977295 3.33729248 21.7220459 3.54958496 22.64135742 3.76831055 C32.03871019 6.10254777 41.00999145 9.43481947 50 13 C46.89965393 22.17049731 38.35090678 29.04323071 31 35 C30.06671875 35.77085937 29.1334375 36.54171875 28.171875 37.3359375 C14.13833178 48.68643508 -3.0473778 58.90472031 -21 62 C-19.85241896 59.01980231 -18.6043454 56.10497556 -17.265625 53.20703125 C-9.30582553 35.92679976 -4.11125279 18.55858141 0 0 Z " fill="#000000" transform="translate(318,331)"/>
<path d="M0 0 C-1.14758104 2.98019769 -2.3956546 5.89502444 -3.734375 8.79296875 C-11.69417447 26.07320024 -16.88874721 43.44141859 -21 62 C-29.28067151 61.5570948 -36.9005449 59.97437919 -44.875 57.75 C-46.01308105 57.43861084 -47.15116211 57.12722168 -48.32373047 56.80639648 C-56.08090357 54.64360556 -63.61748231 52.24292781 -71 49 C-67.89965393 39.82950269 -59.35090678 32.95676929 -52 27 C-51.06671875 26.22914063 -50.1334375 25.45828125 -49.171875 24.6640625 C-36.76903276 14.63128959 -16.53281572 0 0 0 Z " fill="#000000" transform="translate(215,119)"/>
<path d="M0 0 C0.1451001 0.62229492 0.2902002 1.24458984 0.43969727 1.88574219 C4.97773469 21.15516485 10.17825671 39.47161546 19.49609375 57.0078125 C21 60 21 60 21 62 C1.14605993 58.8091882 -16.8913655 46.66697978 -32 34 C-32.86882812 33.27425781 -33.73765625 32.54851562 -34.6328125 31.80078125 C-40.9070376 26.38793282 -47.15909353 20.94630359 -50 13 C-39.22446201 8.61188935 -28.47443638 5.16642815 -17.125 2.5625 C-16.0023877 2.30388184 -14.87977539 2.04526367 -13.72314453 1.77880859 C-9.05419561 0.74433684 -4.80117129 -0.14843938 0 0 Z " fill="#000000" transform="translate(194,331)"/>
</svg>