<svg width="44" height="44" viewBox="0 0 44 44" fill="none" xmlns="http://www.w3.org/2000/svg">
<rect width="44" height="44" rx="12" fill="url(#paint0_linear_3334_38209)"/>
<g clip-path="url(#clip0_3334_38209)">
<path d="M17.4986 15.6L19.9986 17L18.5986 14.5L19.9986 12L17.4986 13.4L14.9986 12L16.3986 14.5L14.9986 17L17.4986 15.6ZM29.4986 25.4L26.9986 24L28.3986 26.5L26.9986 29L29.4986 27.6L31.9986 29L30.5986 26.5L31.9986 24L29.4986 25.4ZM31.9986 12L29.4986 13.4L26.9986 12L28.3986 14.5L26.9986 17L29.4986 15.6L31.9986 17L30.5986 14.5L31.9986 12ZM24.3686 17.29C23.9786 16.9 23.3486 16.9 22.9586 17.29L11.2886 28.96C10.8986 29.35 10.8986 29.98 11.2886 30.37L13.6286 32.71C14.0186 33.1 14.6486 33.1 15.0386 32.71L26.6986 21.05C27.0886 20.66 27.0886 20.03 26.6986 19.64L24.3686 17.29ZM23.3386 22.78L21.2186 20.66L23.6586 18.22L25.7786 20.34L23.3386 22.78Z" fill="white"/>
</g>
<defs>
<linearGradient id="paint0_linear_3334_38209" x1="22" y1="44" x2="22" y2="0" gradientUnits="userSpaceOnUse">
<stop stop-color="#FF8082"/>
<stop offset="1" stop-color="#FFA7A9"/>
</linearGradient>
<clipPath id="clip0_3334_38209">
<rect width="24" height="24" fill="white" transform="translate(10 10)"/>
</clipPath>
</defs>
</svg>
