<svg width="24" height="22" viewBox="0 0 24 22" fill="none" xmlns="http://www.w3.org/2000/svg">
<path d="M4.64427 0.422103C2.67344 0.900996 1.03415 2.5587 0.527629 4.60321C0.361858 5.26629 0.389487 6.76744 0.573676 7.66076C0.840752 8.91325 1.44858 10.2855 2.31427 11.6024L2.70107 12.201L3.96277 12.2287L5.22447 12.2563L5.45471 11.4919C5.58364 11.0683 5.94281 9.89867 6.23751 8.88562C6.73482 7.22792 6.82692 7.0161 7.11241 6.74902C7.49 6.39906 7.7755 6.30697 8.24518 6.39906C8.9451 6.52799 9.07404 6.75823 10.1608 10.0276L11.1554 13.0115L11.3304 12.7628C11.6251 12.3668 11.9658 12.2471 12.7762 12.2471C13.5038 12.2471 13.5038 12.2471 13.5591 11.9892C13.5867 11.8511 13.909 9.99997 14.2682 7.87258C14.7287 5.11894 14.9773 3.92171 15.097 3.7191C15.5667 2.95471 16.8192 2.95471 17.2889 3.7191C17.4178 3.92171 17.6481 5.07289 18.1178 7.87258C18.4769 9.99997 18.7993 11.8511 18.8269 11.9892L18.8821 12.2471H20.2544H21.6266L21.9397 11.805C23.5053 9.66843 24.3065 6.75823 23.8921 4.7874C23.4408 2.6508 21.8384 0.956253 19.7386 0.412893C18.5966 0.11819 16.9666 0.265541 15.8614 0.772063C14.9497 1.18649 13.7064 2.57712 13.0157 3.95855C12.7026 4.594 12.4447 4.8795 12.1868 4.8795C11.929 4.8795 11.8 4.72293 11.3119 3.82961C10.4831 2.31005 9.53451 1.26938 8.48463 0.744434C7.57289 0.29317 5.80467 0.136608 4.64427 0.422103Z" fill="white"/>
<path d="M15.9623 4.43734C15.9347 4.55707 15.6031 6.50027 15.2256 8.7658C14.8388 11.0313 14.5072 12.9469 14.4796 13.0114C14.3875 13.2508 13.9823 13.3521 13.1074 13.3521H12.2417L11.9562 14.2731C11.7352 14.9822 11.6154 15.2309 11.4313 15.3506C11.2286 15.4887 11.1734 15.4887 10.9616 15.369C10.759 15.2585 10.5656 14.752 9.442 11.3905C8.2724 7.86327 8.03295 7.29228 7.83955 7.48568C7.81192 7.51331 7.41591 8.79343 6.94623 10.3314C6.20947 12.7996 6.08054 13.1311 5.87793 13.2324C5.71216 13.3153 4.91093 13.3521 2.81117 13.3521C0.158836 13.3521 -0.0253534 13.3613 0.00227509 13.5179C0.0299036 13.6652 0.26935 13.6745 3.21639 13.7021L6.40287 13.7205L6.73441 12.643C6.90939 12.0444 7.16726 11.1971 7.3054 10.7458C7.59089 9.79726 7.81192 9.56703 8.23556 9.77884C8.46579 9.88936 8.59473 10.2117 9.74591 13.6837C10.4366 15.765 11.0352 17.5148 11.0721 17.5793C11.2747 17.9108 11.4405 17.5793 11.9562 15.8571C12.2509 14.8717 12.5548 14.006 12.6377 13.9231C12.7574 13.8034 13.0245 13.7573 13.8257 13.7205L14.848 13.6745L15.2716 11.2708C15.5018 9.94462 15.7413 8.79343 15.815 8.71054C15.9715 8.51715 16.4136 8.51715 16.5701 8.71054C16.6438 8.79343 16.8833 9.94462 17.1135 11.2708L17.5371 13.6745H20.6131C23.2931 13.6745 23.6983 13.656 23.6983 13.5363C23.6983 13.4166 23.3115 13.389 20.9815 13.3521C19.4896 13.3245 18.191 13.2692 18.1081 13.2324C18.0252 13.1864 17.9331 13.0943 17.9055 13.0206C17.8779 12.9561 17.5464 11.0405 17.1596 8.77501C16.3307 3.82952 16.4136 4.23473 16.1926 4.23473C16.082 4.23473 15.9899 4.31762 15.9623 4.43734Z" fill="white"/>
<path d="M7.77514 13.0023C7.27782 14.6692 7.11205 14.8258 5.79509 14.8258C5.33462 14.8258 4.95703 14.8626 4.95703 14.9087C4.95703 14.9916 8.10668 18.1044 10.6301 20.5081L12.1957 22L13.8534 20.4252C16.036 18.3438 19.4159 14.9824 19.4159 14.8995C19.4159 14.8534 18.9462 14.8258 18.3845 14.8258C17.5004 14.8258 17.2977 14.7982 17.0399 14.6416C16.6715 14.4114 16.4136 13.8772 16.3308 13.1405C16.2939 12.855 16.2387 12.6155 16.2018 12.6155C16.165 12.6155 16.0821 12.9379 16.0268 13.3247C15.8334 14.5219 15.5664 14.7613 14.2678 14.8258L13.3929 14.8719L12.9232 16.4559C12.6562 17.3216 12.3799 18.1412 12.297 18.2609C12.0023 18.7214 11.1919 18.9148 10.6853 18.657C10.1788 18.3991 10.0499 18.1044 9.05525 15.1205C8.5211 13.4904 8.06063 12.1551 8.05142 12.1551C8.033 12.1551 7.91328 12.5419 7.77514 13.0023Z" fill="white"/>
</svg>
