<svg width="26" height="26" viewBox="0 0 26 26" fill="none" xmlns="http://www.w3.org/2000/svg">
<path d="M4.05176 25.0996L6.80273 25.0908H6.84082L6.86914 25.0654L8.05078 24.0059C8.37821 23.7116 8.67808 23.4246 8.89844 23.1982C9.00847 23.0852 9.09959 22.9864 9.16504 22.9092C9.19765 22.8707 9.2248 22.8357 9.24512 22.8066C9.25516 22.7923 9.26498 22.7783 9.27246 22.7646L9.29199 22.7129L9.29785 22.6572C9.29837 22.6 9.28398 22.5401 9.26367 22.4863C9.23586 22.4128 9.19181 22.3381 9.13574 22.2764L9.13379 22.2744C9.09038 22.2285 9.09417 22.2222 9.09473 22.2168C9.09569 22.2084 9.10083 22.1896 9.12012 22.1562C9.1395 22.1229 9.17047 22.0797 9.21777 22.0225C9.41074 21.7891 9.83275 21.3729 10.6719 20.5527H10.6729C11.5269 19.7128 12.0263 19.2015 12.3281 18.8047C12.6347 18.4016 12.7399 18.1126 12.8086 17.7207L12.8311 17.5566C12.8424 17.3987 12.8198 17.2614 12.7559 17.1572C12.6647 17.009 12.5061 16.953 12.3223 16.9795V16.9785C12.2659 16.9842 12.2112 16.9975 12.1602 17.0273C12.1088 17.0575 12.0674 17.1004 12.0322 17.1543C11.9652 17.2569 11.9099 17.4157 11.8398 17.6445L11.8389 17.6465C11.7657 17.907 11.7097 18.0573 11.5078 18.3086C11.2995 18.5678 10.9402 18.9288 10.2578 19.6064C9.38683 20.4727 8.90852 20.9391 8.62695 21.1719C8.48445 21.2896 8.40362 21.3375 8.35547 21.3525C8.33492 21.3589 8.32525 21.3574 8.32129 21.3564C8.3166 21.3553 8.30861 21.3521 8.29395 21.3398L8.29297 21.3408C8.27452 21.3252 8.24441 21.2881 8.20215 21.2266C8.16103 21.1667 8.11327 21.0894 8.06152 20.999C7.95797 20.8181 7.83969 20.5876 7.72461 20.3457C7.49302 19.8589 7.28049 19.3369 7.22168 19.0703L7.2207 19.0693L7.11035 18.5869L7.58887 18.1436C8.25876 17.5208 8.63947 17.1615 8.8584 16.9307C9.07698 16.7001 9.14794 16.5839 9.17773 16.4473H9.17676C9.18361 16.4217 9.18838 16.3914 9.19043 16.3613C9.19281 16.3262 9.19359 16.2838 9.19336 16.2363C9.19289 16.1413 9.18762 16.0203 9.17871 15.8818C9.16084 15.6043 9.12765 15.2521 9.08496 14.8916C8.86276 13.0573 8.73281 11.95 8.66797 11.2627C8.60258 10.5694 8.60559 10.3181 8.63867 10.1816V10.1807C8.64585 10.1504 8.67429 10.0762 8.72656 9.9541C8.7776 9.83488 8.84877 9.67698 8.9375 9.48633C9.11486 9.10526 9.36172 8.59303 9.65918 7.98926C10.2544 6.78117 11.0505 5.2076 11.8916 3.58691L12.5156 2.39062V4.60938L12.2568 4.71484C12.0906 4.78328 11.9468 4.85917 11.8115 4.97656C11.677 5.09346 11.5546 5.24773 11.4238 5.46875C11.2289 5.79821 11.0084 6.28703 10.6953 7.04199L10.3486 7.88965C10.1714 8.33155 10.0367 8.67693 9.94043 8.94629C9.84476 9.21394 9.78497 9.41294 9.7627 9.56152C9.74084 9.70763 9.75101 9.83103 9.82812 9.91992C9.90166 10.0047 10.0155 10.0323 10.124 10.0488H10.125C10.2053 10.0603 10.2888 10.0566 10.374 10C10.452 9.94823 10.5209 9.8587 10.5947 9.72852C10.7431 9.46699 10.9423 8.98677 11.2812 8.13477C11.6737 7.15137 11.9489 6.51288 12.1553 6.12109C12.2587 5.92467 12.3421 5.79524 12.4111 5.7168C12.4335 5.69147 12.4531 5.67348 12.4697 5.66016C12.4772 5.72066 12.4859 5.80489 12.4922 5.9082C12.5062 6.13723 12.5156 6.45387 12.5156 6.80176V8.01172L12.3232 8.08984V8.09082C12.0311 8.20017 11.8226 8.34079 11.6562 8.60254C11.4941 8.85776 11.3745 9.22209 11.2422 9.76562V9.7666C11.1737 10.0383 11.1232 10.2589 11.0928 10.4365C11.0625 10.6131 11.0513 10.7547 11.0635 10.8652C11.0759 10.9778 11.1155 11.0712 11.1992 11.1318C11.2782 11.1888 11.3787 11.2031 11.4814 11.2031C11.5539 11.2031 11.6265 11.1917 11.6943 11.1484C11.7609 11.1059 11.8123 11.0394 11.8574 10.9531C11.9454 10.7847 12.0283 10.5005 12.1455 10.041L12.2891 9.5166C12.331 9.37782 12.3677 9.27265 12.4023 9.19434C12.4223 9.14933 12.441 9.11625 12.457 9.0918C12.4589 9.11315 12.463 9.1368 12.4648 9.16309C12.4749 9.30731 12.4835 9.5176 12.4912 9.77832C12.5065 10.2994 12.5156 11.0191 12.5156 11.8125C12.5156 13.1861 12.5181 13.9111 12.542 14.3037C12.5538 14.4981 12.5714 14.6225 12.6016 14.7061C12.6174 14.7499 12.6379 14.7857 12.665 14.8154C12.692 14.8449 12.7217 14.8638 12.7471 14.8779L12.749 14.8789C12.8071 14.9091 12.8585 14.9353 12.9023 14.9521C12.9467 14.9692 12.9947 14.9811 13.0459 14.9746C13.0983 14.9679 13.1406 14.9435 13.1777 14.9141C13.2135 14.8856 13.2521 14.8469 13.2939 14.8027H13.293C13.3452 14.7522 13.3767 14.6819 13.3984 14.582C13.4207 14.4798 13.4356 14.3332 13.4463 14.1201C13.4677 13.6928 13.4727 12.9737 13.4727 11.7461C13.4727 10.9473 13.4762 10.3363 13.4883 9.89355C13.4975 9.55402 13.5106 9.32041 13.5303 9.17773C13.5905 9.33041 13.6697 9.58642 13.7676 9.93945L13.9521 10.5527C14.0066 10.7155 14.0556 10.8395 14.1055 10.9316C14.1563 11.0256 14.2128 11.0966 14.2842 11.1426C14.3573 11.1897 14.4361 11.2031 14.5166 11.2031C14.6206 11.2031 14.7206 11.1817 14.7959 11.1113C14.8711 11.0409 14.9032 10.9384 14.9111 10.8203C14.9266 10.5891 14.8526 10.2278 14.707 9.69727V9.69629C14.5563 9.15928 14.4415 8.8173 14.2998 8.58398C14.1526 8.34176 13.9775 8.21891 13.7236 8.10938L13.7207 8.1084L13.4727 8.01074V6.79297C13.4727 6.32663 13.4859 5.99755 13.5215 5.80664C13.5303 5.75974 13.5401 5.72381 13.5498 5.69824C13.5521 5.69229 13.5546 5.68708 13.5566 5.68262C13.5906 5.71225 13.6399 5.77471 13.7041 5.88477C13.7685 5.99518 13.8443 6.14381 13.9316 6.33301C14.1063 6.71152 14.3261 7.24593 14.6025 7.94531C14.792 8.42357 14.982 8.87578 15.1338 9.21973C15.2096 9.3916 15.2763 9.53728 15.3291 9.64551C15.3554 9.6995 15.379 9.74497 15.3984 9.78027C15.4161 9.81241 15.4351 9.84498 15.4531 9.86523C15.5626 9.9907 15.7045 10.0621 15.8457 10.0605C15.9885 10.0589 16.116 9.98187 16.1895 9.84082H16.1904C16.2298 9.77501 16.2317 9.69134 16.2188 9.59961C16.2053 9.50481 16.1728 9.38048 16.1191 9.21777C16.0654 9.05465 15.989 8.84777 15.8867 8.58496L15.4971 7.61523C15.0817 6.58143 14.8003 5.94029 14.5498 5.52246C14.296 5.09915 14.0698 4.8977 13.7666 4.74609L13.7656 4.74707L13.4727 4.5957V2.39746L15.2871 5.94922C16.124 7.59937 16.6242 8.59783 16.9199 9.23633C17.2169 9.87756 17.3012 10.1439 17.3184 10.3369C17.3268 10.4665 17.3044 10.8794 17.2559 11.4531C17.2317 11.739 17.2015 12.0624 17.166 12.4062L17.0449 13.4834C16.9503 14.2921 16.8794 14.9883 16.8379 15.5039C16.8172 15.7615 16.8031 15.9753 16.7979 16.1357C16.7952 16.2159 16.7952 16.2847 16.7969 16.3389C16.7985 16.39 16.8021 16.4377 16.8115 16.4717C16.8412 16.5784 16.9315 16.7177 17.0527 16.8662C17.1771 17.0185 17.3434 17.1927 17.54 17.3701C17.8822 17.6837 18.3331 18.0876 18.54 18.2852L18.543 18.2881L18.5439 18.2871L18.8828 18.5869L18.6836 19.2715C18.5634 19.6829 18.3261 20.2149 18.0908 20.6445C17.9732 20.8592 17.8577 21.0456 17.7598 21.1768C17.7106 21.2426 17.6681 21.2917 17.6338 21.3232C17.6203 21.3356 17.6087 21.3433 17.6006 21.3486C17.5974 21.3467 17.5939 21.3443 17.5898 21.3418C17.5641 21.3254 17.5281 21.3002 17.4834 21.2656C17.3942 21.1967 17.2749 21.0958 17.1338 20.9727C16.8519 20.7266 16.4884 20.3924 16.1191 20.042C15.7499 19.6917 15.3758 19.3256 15.0723 19.0156C14.7663 18.7031 14.5388 18.4551 14.457 18.3359L14.4561 18.335C14.3106 18.1259 14.1373 17.7594 14.084 17.5283V17.5254C14.0375 17.3443 13.9955 17.2117 13.9316 17.124C13.8972 17.0768 13.8557 17.0417 13.8047 17.0176C13.756 16.9946 13.7031 16.9848 13.6484 16.9795C13.545 16.9667 13.4497 16.9709 13.3672 17.001C13.2817 17.0322 13.2153 17.089 13.1729 17.1699C13.0928 17.3224 13.1041 17.5444 13.1709 17.8115H13.1719C13.3786 18.6186 13.7221 19.0538 15.4014 20.667C16.1933 21.4304 16.5922 21.8171 16.7744 22.0361C16.8681 22.1488 16.8874 22.1985 16.8896 22.2188C16.8902 22.2243 16.8936 22.2314 16.8525 22.2773V22.2764C16.7955 22.3392 16.7512 22.4171 16.7236 22.4941C16.6966 22.5698 16.6826 22.6551 16.6963 22.7305C16.7001 22.7512 16.708 22.77 16.7148 22.7832C16.7224 22.7977 16.732 22.813 16.7422 22.8281C16.7626 22.8583 16.7906 22.8935 16.8232 22.9326C16.8888 23.0112 16.9799 23.1107 17.0898 23.2236C17.3105 23.4502 17.6108 23.7357 17.9385 24.0254L19.1201 25.0654L19.1484 25.0908H19.1855L21.9463 25.0996C23.1364 25.0996 23.8344 25.0956 24.25 25.0742C24.4572 25.0635 24.5999 25.0477 24.7002 25.0254C24.7974 25.0038 24.866 24.9728 24.916 24.9219H24.917C24.9678 24.8747 25.0009 24.8122 25.0244 24.7256C25.0474 24.6407 25.0635 24.5255 25.0742 24.3672C25.0957 24.0499 25.0996 23.5334 25.0996 22.6748V20.5879L25.0547 20.5586L23.4287 19.4902C21.0305 17.9229 19.8908 17.1909 19.6592 17.0654H19.6582C19.5731 17.0204 19.4844 16.986 19.3838 17.0176C19.2963 17.0451 19.2169 17.1186 19.126 17.2139L18.957 17.375L18.3369 16.7969V16.7959L17.6846 16.1982L18 13.5547V13.5537C18.0899 12.7826 18.1651 12.0442 18.2148 11.458C18.2642 10.8766 18.2895 10.434 18.2744 10.2627C18.2542 9.98701 18.1965 9.74527 17.9336 9.15527C17.8024 8.8609 17.6188 8.47755 17.3613 7.95703L16.3447 5.93457C15.2153 3.69941 14.6173 2.51841 14.2764 1.87793C13.9391 1.24431 13.8457 1.12276 13.7256 1.03125L13.7246 1.03027C13.6854 1.00173 13.6344 0.981109 13.583 0.96582C13.5304 0.950185 13.4698 0.938079 13.4053 0.928711C13.2759 0.909934 13.1236 0.901502 12.9727 0.90332C12.8217 0.905147 12.6686 0.91727 12.5381 0.939453C12.4158 0.960277 12.297 0.993589 12.2217 1.04688V1.0459L12.2197 1.04785C12.2187 1.04861 12.2169 1.04904 12.2158 1.0498V1.05078C12.2033 1.05991 12.1939 1.07002 12.1885 1.07617C12.1807 1.08506 12.1719 1.09478 12.1641 1.10547C12.1484 1.12689 12.1303 1.15518 12.1094 1.18848C12.0672 1.25555 12.0123 1.34937 11.9463 1.46582C11.814 1.69929 11.635 2.02859 11.4229 2.42871C10.9982 3.2295 10.4376 4.31792 9.8418 5.5C9.20482 6.75743 8.73766 7.64879 8.40527 8.33691C8.07271 9.02543 7.87067 9.51956 7.76465 9.98242C7.65817 10.4474 7.65033 10.8763 7.69824 11.4346C7.74585 11.9892 7.84972 12.682 7.96973 13.668L8.28418 16.2168L7.62402 16.8145L7.62305 16.8154C7.44122 16.9831 7.29902 17.1124 7.1875 17.208C7.07716 17.3026 7.00076 17.3604 6.94922 17.3916V17.3896C6.9491 17.3187 6.91208 17.2519 6.87207 17.2021C6.82961 17.1494 6.77163 17.1001 6.70801 17.0654L6.70508 17.0645C6.63359 17.0287 6.55429 17.0266 6.45605 17.0537C6.36134 17.0799 6.23891 17.1354 6.07129 17.2275C5.73403 17.4129 5.18621 17.7609 4.26074 18.3652V18.3662C3.07914 19.1319 1.85918 19.9344 1.54688 20.1426L1.5459 20.1436L0.979492 20.5312L0.936523 20.5605L0.935547 20.6123L0.907227 22.6826C0.897797 23.6161 0.894902 24.1432 0.914062 24.4492C0.923611 24.6014 0.939446 24.7086 0.96582 24.7861C0.987242 24.849 1.0161 24.8933 1.05273 24.9277L1.09277 24.96C1.12287 24.9816 1.16064 24.9955 1.19824 25.0059C1.23989 25.0173 1.29146 25.0269 1.35254 25.0352C1.47478 25.0517 1.64535 25.0647 1.87305 25.0742C2.32911 25.0932 3.02568 25.0996 4.05078 25.0996H4.05176Z" fill="white" stroke="white" stroke-width="0.2"/>
<path d="M6.07227 9.07227C6.21763 9.06812 6.32449 9.06003 6.40234 9.04395C6.48038 9.0278 6.54684 8.9994 6.59082 8.94043C6.63085 8.88671 6.63995 8.82134 6.64648 8.77344C6.66134 8.66696 6.66393 8.56501 6.63184 8.47656C6.59759 8.38222 6.52907 8.31564 6.43164 8.27051C6.3382 8.22733 6.21489 8.20216 6.0625 8.1875C5.90877 8.17272 5.71653 8.16797 5.47949 8.16797C5.15276 8.16797 4.91998 8.17697 4.75684 8.19922C4.60015 8.22059 4.48098 8.25648 4.41211 8.33301L4.40625 8.33984V8.34082C4.36653 8.39417 4.33904 8.46789 4.32324 8.54004C4.30711 8.61399 4.30076 8.69808 4.3125 8.77441C4.31901 8.82214 4.32763 8.88713 4.36719 8.94043C4.41117 8.99946 4.47857 9.02779 4.55664 9.04395C4.63451 9.06002 4.74137 9.06813 4.88672 9.07227C5.03374 9.07645 5.22691 9.07617 5.47949 9.07617C5.73203 9.07617 5.92526 9.07645 6.07227 9.07227Z" fill="white" stroke="white" stroke-width="0.2"/>
<path d="M20.6924 9.12231C20.9363 9.11571 21.182 9.09369 21.3789 9.05591C21.4771 9.03706 21.5668 9.01403 21.6387 8.9856C21.7053 8.95923 21.7772 8.92035 21.8154 8.85962H21.8145C21.8586 8.79285 21.8867 8.72273 21.8867 8.64478C21.8867 8.5667 21.8589 8.49379 21.8154 8.4231L21.8145 8.42114C21.777 8.36295 21.7067 8.32658 21.6436 8.302C21.5749 8.27532 21.4895 8.25363 21.3955 8.2356C21.2063 8.19931 20.9688 8.17698 20.7314 8.16919C20.494 8.1614 20.2521 8.168 20.0537 8.19165C19.9549 8.20345 19.8641 8.21972 19.7891 8.24146C19.7178 8.26212 19.6457 8.29204 19.5986 8.33911L19.5967 8.34009C19.5513 8.38782 19.5121 8.43222 19.4834 8.47485C19.4542 8.51825 19.4319 8.56627 19.4277 8.62134C19.4236 8.67683 19.439 8.72806 19.4629 8.77563C19.4857 8.82084 19.5191 8.86881 19.5586 8.92017C19.5996 8.97937 19.6737 9.01369 19.7412 9.03638C19.8141 9.06087 19.9042 9.07951 20.0029 9.09302C20.2012 9.12011 20.4483 9.12891 20.6924 9.12231Z" fill="white" stroke="white" stroke-width="0.2"/>
<path d="M4.68652 10.636C5.17387 10.636 5.63303 10.6291 5.98145 10.6184C6.15547 10.6131 6.30286 10.6066 6.41211 10.5999C6.46666 10.5965 6.51327 10.5938 6.54883 10.5901C6.58008 10.5868 6.61391 10.5821 6.63672 10.5745L6.63965 10.5735C6.78586 10.5196 6.84362 10.3602 6.85156 10.2278C6.85976 10.0901 6.82 9.92864 6.71387 9.82251C6.68712 9.79579 6.6507 9.78111 6.62207 9.77173C6.5904 9.76137 6.55187 9.75284 6.50781 9.74536C6.41884 9.7303 6.29631 9.71778 6.13965 9.70825C5.82572 9.68916 5.36212 9.67993 4.72363 9.67993C4.08522 9.67993 3.62151 9.68916 3.30762 9.70825C3.15116 9.71778 3.02932 9.73031 2.94043 9.74536C2.89608 9.75287 2.85702 9.7613 2.8252 9.77173C2.79668 9.78109 2.76102 9.79601 2.73438 9.82251C2.69038 9.8665 2.65484 9.92332 2.63086 9.97974C2.60705 10.0358 2.5918 10.0992 2.5918 10.1584C2.59181 10.2499 2.60351 10.3482 2.6748 10.428C2.74341 10.5045 2.85124 10.5465 2.99316 10.5735C3.27781 10.6276 3.78865 10.636 4.68652 10.636Z" fill="white" stroke="white" stroke-width="0.2"/>
<path d="M21.4453 10.6174H21.4463C22.2809 10.6033 22.7587 10.5914 23.0391 10.5637C23.1786 10.5499 23.2784 10.5319 23.3516 10.5032C23.4308 10.4721 23.4794 10.4287 23.5146 10.3723H23.5137C23.5578 10.3055 23.5858 10.2354 23.5859 10.1575C23.5859 10.0794 23.5582 10.0065 23.5146 9.93579L23.5127 9.93286C23.4767 9.87887 23.4283 9.83787 23.3506 9.80884C23.2784 9.78191 23.1797 9.76439 23.042 9.75122C22.7653 9.72477 22.2951 9.71361 21.4746 9.69946H21.4736C20.681 9.69003 20.2112 9.68903 19.9229 9.70825C19.6392 9.72716 19.5022 9.76567 19.4072 9.8606C19.3618 9.90599 19.322 9.94897 19.293 9.99048C19.2635 10.0328 19.2406 10.08 19.2363 10.135C19.2321 10.1905 19.2475 10.242 19.2715 10.2893C19.2949 10.3355 19.3302 10.3838 19.3711 10.4368C19.4083 10.4892 19.4563 10.5306 19.5342 10.5588C19.6083 10.5857 19.709 10.601 19.8486 10.6106C20.129 10.6298 20.6066 10.6269 21.4453 10.6174Z" fill="white" stroke="white" stroke-width="0.2"/>
<path d="M5.47754 12.1486C5.7482 12.1485 5.97663 12.1397 6.14844 12.1202C6.23403 12.1105 6.30875 12.0981 6.36816 12.0822C6.42281 12.0675 6.48253 12.0449 6.52148 12.006C6.62759 11.8998 6.66744 11.7384 6.65918 11.6007C6.65117 11.4684 6.59337 11.3098 6.44727 11.256C6.41126 11.2427 6.35522 11.2347 6.29688 11.2286C6.23448 11.2222 6.15671 11.2161 6.06934 11.212C5.89398 11.2038 5.67579 11.2007 5.45898 11.2013C5.24224 11.2019 5.02496 11.2062 4.85059 11.2159C4.76357 11.2208 4.68602 11.227 4.62402 11.2345C4.56947 11.2411 4.51473 11.2515 4.47754 11.2667V11.2648C4.4055 11.2918 4.36097 11.3523 4.33496 11.4113C4.3086 11.4711 4.29632 11.5408 4.29492 11.6095C4.29225 11.743 4.33084 11.9041 4.43262 12.006C4.47157 12.0449 4.53129 12.0675 4.58594 12.0822C4.64536 12.0981 4.72006 12.1105 4.80566 12.1202C4.97758 12.1397 5.20666 12.1486 5.47754 12.1486Z" fill="white" stroke="white" stroke-width="0.2"/>
<path d="M20.8369 12.1296L20.8359 12.1287C21.1516 12.1192 21.3636 12.1041 21.5088 12.071C21.6579 12.037 21.7518 11.9817 21.8135 11.8865L21.8672 11.783C21.88 11.7468 21.8867 11.7092 21.8867 11.6697C21.8867 11.5916 21.8589 11.5187 21.8154 11.448L21.8145 11.446L21.8135 11.447C21.7484 11.3458 21.6465 11.2972 21.4805 11.2683C21.3165 11.2397 21.0654 11.2258 20.6748 11.2117H20.6738C20.2433 11.2023 19.9914 11.1996 19.8379 11.2224C19.7591 11.2341 19.6942 11.2533 19.6416 11.2908C19.5887 11.3285 19.5592 11.3778 19.5352 11.4255L19.5342 11.4246C19.4574 11.5672 19.4405 11.717 19.4932 11.8464C19.5462 11.9767 19.6623 12.0687 19.8145 12.1082L19.8213 12.1101V12.1091C19.8821 12.1202 20.0296 12.1298 20.209 12.1345C20.3917 12.1393 20.6168 12.1392 20.8369 12.1296Z" fill="white" stroke="white" stroke-width="0.2"/>
</svg>
