<svg width="24" height="24" viewBox="0 0 24 24" fill="none" xmlns="http://www.w3.org/2000/svg">
<g clip-path="url(#clip0_5474_39413)">
<path d="M10.9401 8.1201L7.48005 4.6601L9.00005 3.0001H15.0001L16.8301 5.0001H20.0001C21.1001 5.0001 22.0001 5.9001 22.0001 7.0001V19.0001C22.0001 19.0501 21.9901 19.1001 21.9801 19.1601L16.8801 14.0601C16.9601 13.7101 17.0001 13.3601 17.0001 13.0001C17.0001 10.2401 14.7601 8.0001 12.0001 8.0001C11.6401 8.0001 11.2901 8.0401 10.9401 8.1201ZM20.4901 23.3101L18.1701 21.0001H4.00005C2.90005 21.0001 2.00005 20.1001 2.00005 19.0001V7.0001C2.00005 6.4101 2.27005 5.8801 2.68005 5.5101L0.680054 3.5101L2.10005 2.1001L21.9001 21.9001L20.4901 23.3101ZM14.4901 17.3201L12.9901 15.8201C12.6701 15.9201 12.3501 16.0001 12.0001 16.0001C10.3401 16.0001 9.00005 14.6601 9.00005 13.0001C9.00005 12.6501 9.08005 12.3301 9.19005 12.0201L7.69005 10.5201C7.25005 11.2401 7.00005 12.0901 7.00005 13.0001C7.00005 15.7601 9.24005 18.0001 12.0001 18.0001C12.9101 18.0001 13.7601 17.7501 14.4901 17.3201Z" fill="#323232"/>
</g>
<defs>
<clipPath id="clip0_5474_39413">
<rect width="24" height="24" fill="white"/>
</clipPath>
</defs>
</svg>
