<svg width="24" height="24" viewBox="0 0 24 24" fill="none" xmlns="http://www.w3.org/2000/svg">
<g clip-path="url(#clip0_5474_39514)">
<path d="M3.81 6.27979C2.67 7.89979 2 9.86978 2 11.9998C2 14.1298 2.67 16.0998 3.81 17.7198C6.23 16.9498 8 14.6798 8 11.9998C8 9.31978 6.23 7.04979 3.81 6.27979Z" fill="#323232"/>
<path d="M20.19 6.27979C17.77 7.04979 16 9.31978 16 11.9998C16 14.6798 17.77 16.9498 20.19 17.7198C21.33 16.0998 22 14.1298 22 11.9998C22 9.86978 21.33 7.89979 20.19 6.27979Z" fill="#323232"/>
<path d="M14 12C14 8.72 15.97 5.91 18.79 4.67C17.01 3.02 14.63 2 12 2C9.36996 2 6.98996 3.02 5.20996 4.67C8.02996 5.91 9.99996 8.72 9.99996 12C9.99996 15.28 8.02996 18.09 5.20996 19.33C6.98996 20.98 9.36996 22 12 22C14.63 22 17.01 20.98 18.79 19.33C15.97 18.09 14 15.28 14 12Z" fill="#323232"/>
</g>
<defs>
<clipPath id="clip0_5474_39514">
<rect width="24" height="24" fill="white"/>
</clipPath>
</defs>
</svg>
