<svg width="24" height="24" viewBox="0 0 24 24" fill="none" xmlns="http://www.w3.org/2000/svg">
<g clip-path="url(#clip0_5474_39527)">
<path d="M19.52 2.4902C17.18 0.150202 12.9 0.620202 9.96997 3.5502C8.36997 5.1502 7.44997 7.4202 7.42997 9.0102C7.40997 10.5902 7.68997 12.9002 6.07997 14.5102L1.83997 18.7502L3.25997 20.1702L7.49997 15.9302C9.10997 14.3202 11.42 14.6002 13 14.5802C14.58 14.5602 16.86 13.6402 18.46 12.0402C21.38 9.1102 21.86 4.8302 19.52 2.4902ZM10.32 11.6802C8.78997 10.1502 9.26997 7.0702 11.38 4.9602C13.49 2.8502 16.56 2.3702 18.1 3.9002C19.63 5.4302 19.15 8.5102 17.04 10.6202C14.93 12.7302 11.86 13.2102 10.32 11.6802Z" fill="#323232"/>
<path d="M18 17C18.53 17 19.04 17.21 19.41 17.59C20.19 18.37 20.19 19.64 19.41 20.42C19.04 20.79 18.53 21 18 21C17.47 21 16.96 20.79 16.59 20.41C15.81 19.63 15.81 18.36 16.59 17.58C16.96 17.21 17.47 17 18 17ZM18 15C16.98 15 15.95 15.39 15.17 16.17C13.61 17.73 13.61 20.26 15.17 21.83C15.95 22.61 16.98 23 18 23C19.02 23 20.05 22.61 20.83 21.83C22.39 20.27 22.39 17.74 20.83 16.17C20.05 15.39 19.02 15 18 15Z" fill="#323232"/>
</g>
<defs>
<clipPath id="clip0_5474_39527">
<rect width="24" height="24" fill="white"/>
</clipPath>
</defs>
</svg>
