<svg width="24" height="24" viewBox="0 0 24 24" fill="none" xmlns="http://www.w3.org/2000/svg">
<g clip-path="url(#clip0_5474_39528)">
<path d="M6 4.00977C3.58 5.83977 2 8.72977 2 11.9998C2 13.4598 2.32 14.8498 2.89 16.1098L6 14.3098V4.00977Z" fill="#323232"/>
<path d="M11 11.4198V2.0498C9.94 2.1598 8.93 2.4298 8 2.8398V13.1598L11 11.4198Z" fill="#323232"/>
<path d="M12 13.1499L3.89001 17.8299C4.50001 18.6699 5.23001 19.4199 6.07001 20.0299L15 14.8899L12 13.1499Z" fill="#323232"/>
<path d="M13 7.95996V11.42L21.11 16.1C21.53 15.17 21.81 14.17 21.93 13.12L13 7.95996Z" fill="#323232"/>
<path d="M8.06995 21.2C9.27995 21.71 10.5999 22 11.9999 22C15.3399 22 18.2899 20.35 20.1099 17.84L16.9999 16.04L8.06995 21.2Z" fill="#323232"/>
<path d="M21.92 10.8098C21.37 6.1798 17.66 2.5098 13 2.0498V5.6498L21.92 10.8098Z" fill="#323232"/>
</g>
<defs>
<clipPath id="clip0_5474_39528">
<rect width="24" height="24" fill="white"/>
</clipPath>
</defs>
</svg>
