<svg width="24" height="24" viewBox="0 0 24 24" fill="none" xmlns="http://www.w3.org/2000/svg">
<path d="M7.14159 18.2422C5.89907 18.212 5.10015 17.2785 5.10661 16.4161C5.13275 15.6651 5.2396 14.919 5.42531 14.1909C5.67188 13.308 5.84918 11.7543 5.84918 9.59978C5.74375 6.42079 6.57955 4.11564 7.8978 2.85364C8.69233 2.09295 10.483 1.05652 12.4947 1.05652C13.4962 1.04078 14.4901 1.23117 15.4149 1.61587L15.8249 1.78196L16.3134 2.06989C16.7026 2.29923 16.8414 2.49582 17.242 2.88227C18.2479 3.85274 18.9468 5.59881 19.0583 7.1622C19.0904 7.61325 19.1642 8.78686 19.0932 9.59915C19.1291 12.2833 19.6237 13.7857 19.8792 14.5251C20.0801 15.0632 20.185 15.6323 20.1894 16.2067C20.1983 17.2116 18.9498 18.5126 17.5144 17.9974L7.14159 18.2422Z" fill="#323232"/>
<path d="M3.07349 22.9499C3.25398 22.3086 3.46965 21.6776 3.71951 21.06C3.97075 20.5334 4.27833 20.0123 4.72193 19.643C5.18793 19.2436 5.70498 18.908 6.25948 18.6449C6.79344 18.4134 7.45947 18.1604 8.06297 17.9122C9.25722 18.6718 10.9057 19.1922 12.6245 19.1922C14.3517 19.1922 15.9767 18.6801 17.1626 17.9308C17.7536 18.1725 18.3999 18.4191 18.9207 18.6449C19.4752 18.908 19.9923 19.2436 20.4583 19.643C20.9019 20.0123 21.2098 20.5334 21.4607 21.06C21.5834 21.3151 21.9064 22.3251 22.0708 22.9263L3.07349 22.9499Z" fill="#323232"/>
<path d="M16.2729 18.4096C15.1259 18.9254 13.8825 19.1921 12.6248 19.1922C11.0896 19.1928 9.581 18.7912 8.24925 18.0274L8.09331 17.9057C8.55926 17.738 9.44333 17.4122 9.55692 17.354C9.71391 17.2927 9.84913 17.1861 9.94538 17.0478C10.0416 16.9094 10.0946 16.7456 10.0974 16.5771C10.1164 16.2822 10.1251 16.0793 10.1547 15.8122C9.63675 15.5151 9.1798 15.1225 8.80798 14.6553C8.2849 14.0233 7.89673 13.291 7.66738 12.5033C7.54035 12.5301 7.4089 12.5276 7.28298 12.496C7.15706 12.4644 7.03997 12.4046 6.9406 12.3211C6.52032 11.9772 6.3459 11.4976 6.23948 11.184C6.08919 10.7413 6.07977 10.0258 6.30363 9.63747C6.37865 9.50737 6.55298 9.28583 6.96258 9.27139C7.14202 9.26421 7.3187 9.31734 7.46442 9.42231L8.13189 8.86035C8.55037 8.51796 8.98303 8.13833 9.41641 7.74192C10.1851 7.72855 11.0249 7.72325 11.0249 7.72325C12.5205 7.29607 13.7244 6.42151 14.6724 5.18787C14.8584 5.90235 15.121 6.79199 15.3516 7.22465C15.6904 7.85991 16.7684 9.28458 17.637 9.49328C17.7136 9.41829 17.8048 9.35989 17.9049 9.32171C18.005 9.28353 18.1119 9.2664 18.219 9.27139C18.6286 9.28583 18.8029 9.50737 18.8779 9.63747C19.1022 10.0258 19.0924 10.7411 18.9421 11.184C18.8356 11.498 18.6612 11.9772 18.2409 12.3211C18.1484 12.3981 18.0409 12.4551 17.9253 12.4885C17.8096 12.5219 17.6883 12.5309 17.569 12.515L17.5046 12.5041C17.4413 12.7181 17.3641 12.9277 17.2734 13.1316C17.1057 13.587 16.1917 15.1641 15.0273 15.8208C15.0564 16.0838 15.0651 16.2854 15.0839 16.5771C15.0867 16.7456 15.1397 16.9094 15.2359 17.0478C15.3322 17.1861 15.4674 17.2927 15.6244 17.354C15.7443 17.4157 16.723 17.7752 17.1614 17.932C16.8763 18.1111 16.5795 18.2706 16.2729 18.4096Z" fill="white"/>
<path d="M3.28115 23.0072C3.40758 22.5487 3.5593 22.0962 3.71973 21.6486C3.75203 21.5589 3.78496 21.4692 3.81915 21.3795C3.83207 21.3457 3.84508 21.312 3.85854 21.2784C3.86563 21.2605 3.87272 21.2432 3.87998 21.2255C3.89604 21.1863 3.86401 21.2573 3.88976 21.2032C4.00011 20.965 4.12478 20.7336 4.26311 20.5105C4.86769 19.5567 5.93695 18.998 6.95418 18.5876C7.56943 18.3395 8.19015 18.1031 8.79544 17.8312C8.84443 17.8021 8.87999 17.7549 8.89444 17.6997C8.9089 17.6446 8.90109 17.586 8.8727 17.5366C8.84291 17.4883 8.79569 17.4534 8.74083 17.439C8.68597 17.4246 8.62767 17.4319 8.57804 17.4593C8.02999 17.7057 7.46804 17.9198 6.91066 18.1438C6.36333 18.3636 5.82856 18.591 5.3339 18.9164C4.83566 19.2442 4.3637 19.6177 4.01592 20.1068C3.74697 20.4933 3.52965 20.9132 3.36944 21.3559C3.18147 21.8607 3.00901 22.3741 2.86581 22.8927C2.79197 23.1603 3.2074 23.2744 3.28115 23.0072Z" fill="#323232"/>
<path d="M22.279 22.8687C22.0295 21.9625 21.7701 21.0234 21.2489 20.2308C20.9199 19.7301 20.48 19.3561 19.9921 19.0156C19.5086 18.6917 18.9901 18.4234 18.4464 18.2156C17.8311 17.9659 17.2082 17.7324 16.6026 17.4601C16.5529 17.4329 16.4948 17.4258 16.44 17.4402C16.3852 17.4546 16.338 17.4893 16.308 17.5373C16.2796 17.5867 16.2718 17.6453 16.2863 17.7005C16.3007 17.7556 16.3363 17.8028 16.3853 17.832C16.9203 18.0724 17.4677 18.2847 18.0123 18.5024C18.5401 18.7133 19.0587 18.9259 19.5404 19.2315C19.9943 19.5194 20.4529 19.856 20.7711 20.2947C20.9304 20.5185 21.0714 20.7548 21.1928 21.0013C21.2227 21.0606 21.2519 21.1202 21.2802 21.1802C21.2862 21.193 21.2918 21.2061 21.2974 21.219C21.278 21.1742 21.2912 21.2041 21.295 21.2139C21.3276 21.2961 21.3578 21.3789 21.3879 21.4623C21.5655 21.9626 21.7227 22.4717 21.8634 22.9836C21.9369 23.2504 22.3525 23.1372 22.2788 22.8691L22.279 22.8687Z" fill="#323232"/>
<path d="M15.4723 1.40825C14.4528 0.994893 13.357 0.803211 12.2576 0.845939C11.1146 0.904631 10.0011 1.22991 9.00614 1.79578C8.27148 2.19115 7.632 2.74215 7.13239 3.41031C6.60695 4.12946 6.25388 4.97019 6.02104 5.82627C5.68861 7.05085 5.59314 8.33474 5.6336 9.59943C5.64258 9.87587 6.07326 9.87713 6.06429 9.59943C6.00265 7.65901 6.24338 5.55942 7.32162 3.89366C7.73463 3.26305 8.28337 2.73273 8.92772 2.34149C9.81772 1.78009 10.8225 1.4258 11.8678 1.3048C13.0561 1.19037 14.2544 1.36845 15.3581 1.8235C15.4132 1.83833 15.4718 1.83085 15.5214 1.8027C15.571 1.77455 15.6075 1.72799 15.623 1.67312C15.6368 1.61811 15.6289 1.55989 15.6009 1.51056C15.5729 1.46123 15.5269 1.42459 15.4726 1.40825H15.4723Z" fill="#323232"/>
<path d="M19.309 9.59943C19.3484 9.03295 19.3511 8.46452 19.3172 7.89769C19.3032 7.39649 19.2571 6.89671 19.1792 6.40142C18.9743 5.23058 18.5075 4.06271 17.7596 3.13171C17.552 2.8888 17.3319 2.65688 17.1002 2.43687C16.8987 2.22453 16.671 2.03873 16.4225 1.88398C16.184 1.74159 15.9672 2.11377 16.2052 2.2559C16.4133 2.38527 16.6041 2.54067 16.7729 2.71834C16.9672 2.91404 17.1707 3.10219 17.351 3.31116C17.7 3.72898 17.988 4.19421 18.2063 4.69294C18.4433 5.21946 18.6192 5.77141 18.7306 6.33798C18.8141 6.80214 18.8635 7.2718 18.8783 7.74318C18.9199 8.36124 18.9197 8.9814 18.8776 9.59943C18.878 9.6564 18.9009 9.71092 18.9412 9.75121C18.9815 9.7915 19.036 9.81433 19.0929 9.81477C19.1497 9.81365 19.2038 9.7906 19.244 9.75046C19.2841 9.71031 19.3072 9.65619 19.3083 9.59943H19.309Z" fill="#323232"/>
<path d="M7.14162 18.0269C6.54943 18.0083 5.95338 17.751 5.60605 17.2562C5.4612 17.0556 5.36661 16.8232 5.33024 16.5784C5.31144 16.2736 5.32613 15.9676 5.37402 15.666C5.41233 15.3228 5.46671 14.9809 5.53804 14.6431C5.58981 14.3975 5.66213 14.1572 5.71615 13.9123C5.83158 13.3618 5.91229 12.8046 5.95778 12.244C6.03808 11.3647 6.06482 10.4816 6.06545 9.59934C6.06545 9.32217 5.63477 9.32173 5.63477 9.59934C5.63477 10.4214 5.61072 11.2443 5.54289 12.0638C5.50185 12.6392 5.42274 13.2112 5.3061 13.7762C5.25119 14.0285 5.17662 14.2757 5.12324 14.5284C5.04643 14.8927 4.99026 15.2617 4.94773 15.6314C4.8969 15.9485 4.88137 16.2703 4.90143 16.5908C4.93416 16.8853 5.03518 17.1682 5.19645 17.4168C5.62445 18.0762 6.36783 18.4331 7.14216 18.4576C7.41942 18.4666 7.41915 18.0359 7.14216 18.0269L7.14162 18.0269Z" fill="#323232"/>
<path d="M18.8784 9.59942C18.8987 11.0273 19.0435 12.4685 19.437 13.8453C19.5835 14.358 19.7904 14.8546 19.8946 15.3787C19.9624 15.7196 20.0175 16.1452 19.9484 16.4578C19.8846 16.7336 19.7544 16.9897 19.5693 17.2039C19.3464 17.4744 19.0556 17.6807 18.7265 17.8015C18.3519 17.9304 17.9442 17.9263 17.5722 17.79C17.545 17.7825 17.5165 17.7804 17.4884 17.7839C17.4603 17.7874 17.4332 17.7964 17.4086 17.8103C17.384 17.8243 17.3624 17.843 17.345 17.8653C17.3276 17.8876 17.3148 17.9131 17.3073 17.9404C17.2998 17.9677 17.2977 17.9962 17.3012 18.0242C17.3047 18.0523 17.3137 18.0794 17.3277 18.104C17.3416 18.1286 17.3603 18.1502 17.3826 18.1676C17.4049 18.185 17.4305 18.1978 17.4577 18.2053C17.8189 18.3277 18.2057 18.3536 18.58 18.2804C18.9542 18.2073 19.3028 18.0376 19.5912 17.7882C19.8524 17.5719 20.0641 17.302 20.2118 16.9968C20.358 16.6867 20.4227 16.3445 20.3998 16.0025C20.3757 15.5413 20.2908 15.0854 20.147 14.6466C20.0802 14.4386 20.0058 14.2332 19.9406 14.0247C19.7797 13.5079 19.652 12.9813 19.5584 12.4481C19.3988 11.5068 19.3154 10.5542 19.309 9.59942C19.3051 9.32253 18.8744 9.32172 18.8784 9.59942Z" fill="#323232"/>
<path d="M7.68591 9.32845C7.52641 9.18602 7.32792 9.09459 7.11601 9.06594C6.9041 9.03728 6.68847 9.07271 6.49686 9.16766C6.2136 9.30763 6.05155 9.5882 5.9787 9.88618C5.8031 10.6046 5.98587 11.4239 6.39664 12.0333C6.69067 12.4696 7.1192 12.8006 7.66931 12.7229C7.72419 12.7074 7.77076 12.6709 7.79892 12.6213C7.82709 12.5717 7.83458 12.513 7.81978 12.4579C7.80331 12.4037 7.76663 12.3578 7.71732 12.3298C7.66802 12.3018 7.60985 12.2939 7.55482 12.3075C7.23298 12.353 6.9559 12.0847 6.78767 11.8439C6.63429 11.6152 6.51632 11.3646 6.43773 11.1006C6.35055 10.8121 6.32307 10.5087 6.35698 10.2092C6.36836 10.0747 6.40029 9.94279 6.45164 9.81799C6.47059 9.77732 6.49254 9.73812 6.51732 9.70072C6.54218 9.66151 6.50691 9.70835 6.53222 9.67981C6.55016 9.65936 6.56873 9.63944 6.58874 9.62068C6.77905 9.44123 7.16757 9.438 7.38111 9.63298C7.58542 9.81961 7.89085 9.51588 7.68564 9.32845H7.68591Z" fill="#323232"/>
<path d="M17.7995 9.63298C17.9022 9.54632 18.0299 9.49477 18.1641 9.48588C18.2982 9.47699 18.4316 9.51121 18.5449 9.58354C18.5779 9.60744 18.6082 9.63478 18.6354 9.6651C18.6444 9.67408 18.6525 9.68457 18.6604 9.69453C18.6587 9.69238 18.6405 9.66762 18.6536 9.68682C18.6655 9.70476 18.6772 9.72181 18.6879 9.74011C18.7497 9.85434 18.7908 9.97862 18.8092 10.1072C18.909 10.6614 18.7554 11.2557 18.4663 11.7312C18.2958 12.0123 17.9952 12.3593 17.6259 12.3073C17.5709 12.294 17.513 12.3022 17.4638 12.3301C17.4146 12.358 17.3778 12.4036 17.3611 12.4576C17.3463 12.5127 17.3538 12.5714 17.3819 12.621C17.4101 12.6705 17.4566 12.7071 17.5114 12.7226C18.4098 12.8496 18.9342 11.9367 19.1624 11.2013C19.2742 10.819 19.2973 10.4162 19.23 10.0236C19.1796 9.71149 19.0484 9.40965 18.7825 9.22509C18.5863 9.09871 18.354 9.04034 18.1213 9.05899C17.8887 9.07764 17.6686 9.17225 17.495 9.32827C17.29 9.51562 17.5951 9.81952 17.8001 9.6328L17.7995 9.63298Z" fill="#323232"/>
<path d="M17.3919 12.0759C17.3064 12.435 17.1904 12.7862 17.0453 13.1257C17.0718 13.0576 17.0424 13.1317 17.0363 13.1454C17.0272 13.1655 17.0179 13.1855 17.0083 13.2054C16.9826 13.2593 16.9555 13.3123 16.9276 13.365C16.8654 13.4825 16.7989 13.5978 16.7296 13.7113C16.368 14.3258 15.9049 14.8747 15.36 15.3344C15.0655 15.5856 14.7173 15.7659 14.3423 15.8616C14.0722 15.9236 14.1866 16.3389 14.4568 16.2769C15.2186 16.102 15.8517 15.5424 16.3483 14.9646C16.7751 14.4831 17.132 13.9438 17.4083 13.3627C17.4249 13.3259 17.4408 13.2886 17.4562 13.2513C17.4607 13.2401 17.4846 13.1819 17.4721 13.2111C17.4556 13.2498 17.4839 13.1863 17.4842 13.1857C17.4979 13.1545 17.5111 13.1229 17.5243 13.0911C17.5457 13.0396 17.5662 12.9877 17.5856 12.9353C17.6789 12.6932 17.753 12.4442 17.8074 12.1905C17.8212 12.1355 17.8133 12.0773 17.7853 12.028C17.7573 11.9787 17.7114 11.942 17.6571 11.9257C17.602 11.911 17.5434 11.9186 17.4939 11.9467C17.4443 11.9748 17.4078 12.0213 17.3921 12.076L17.3919 12.0759Z" fill="#323232"/>
<path d="M7.35902 12.1722C7.52674 12.9203 7.82972 13.6314 8.25305 14.2705C8.70707 14.9505 9.30285 15.5877 10.0243 15.9863C10.3914 16.1902 10.7922 16.3262 11.2075 16.388C11.2625 16.4013 11.3205 16.3932 11.3697 16.3653C11.4189 16.3373 11.4557 16.2917 11.4724 16.2376C11.4872 16.1826 11.4797 16.1239 11.4515 16.0743C11.4234 16.0248 11.3768 15.9883 11.322 15.9728C9.81159 15.7512 8.68105 14.4396 8.10761 13.0991C7.96528 12.763 7.85374 12.4146 7.77436 12.0583C7.71326 11.788 7.29792 11.9023 7.35902 12.1728V12.1722Z" fill="#323232"/>
<path d="M11.6733 13.7155C11.9731 13.8704 12.307 13.9475 12.6444 13.9398C12.988 13.9377 13.3399 13.8719 13.6157 13.6569C13.6558 13.6164 13.6783 13.5617 13.6783 13.5047C13.6783 13.4476 13.6558 13.3929 13.6157 13.3524C13.5747 13.3133 13.5202 13.2915 13.4635 13.2915C13.4068 13.2915 13.3523 13.3133 13.3112 13.3524C13.374 13.3036 13.316 13.3474 13.3 13.3576C13.2801 13.3703 13.2595 13.3822 13.2386 13.3935C13.2258 13.4002 13.1561 13.4308 13.206 13.4108C13.1781 13.4221 13.1499 13.4323 13.1213 13.4416C12.9568 13.4929 12.7847 13.5159 12.6124 13.5095C12.4481 13.513 12.2843 13.4909 12.1267 13.4441C12.0958 13.4351 12.0655 13.4238 12.0349 13.4133C12.0249 13.4098 12.0153 13.4054 12.0053 13.4017C12.0592 13.4215 12.0137 13.4055 12.0032 13.4006C11.9653 13.3826 11.9278 13.3639 11.8908 13.3444C11.8412 13.3168 11.7828 13.3094 11.7279 13.3238C11.673 13.3382 11.6258 13.3733 11.5961 13.4217C11.5679 13.4711 11.5602 13.5297 11.5746 13.5847C11.5891 13.6398 11.6245 13.6871 11.6733 13.7163V13.7155Z" fill="#323232"/>
<path d="M12.5538 11.4026C12.5996 11.5676 12.6362 11.735 12.6634 11.904L12.6557 11.8468C12.659 11.8697 12.6596 11.8929 12.6576 11.916L12.6653 11.8587C12.6638 11.8693 12.6612 11.8797 12.6577 11.8899L12.6794 11.8384C12.6764 11.8454 12.6727 11.8521 12.6685 11.8585L12.7021 11.8148C12.6973 11.8208 12.6918 11.8262 12.6857 11.831L12.7293 11.7974C12.7166 11.8053 12.7033 11.8123 12.6896 11.8183L12.7411 11.7966C12.7196 11.8058 12.6971 11.8124 12.6741 11.8162L12.7314 11.8085C12.7105 11.8109 12.6894 11.8109 12.6686 11.8085L12.7258 11.8162C12.7021 11.8129 12.6789 11.8072 12.6552 11.8039C12.5991 11.7908 12.5401 11.7986 12.4893 11.8256C12.4649 11.8399 12.4435 11.8588 12.4264 11.8814C12.4093 11.9039 12.3968 11.9296 12.3896 11.9569C12.3824 11.9843 12.3807 12.0128 12.3846 12.0408C12.3884 12.0689 12.3977 12.0959 12.412 12.1203C12.4257 12.1446 12.4442 12.1658 12.4663 12.1828C12.4884 12.1998 12.5137 12.2121 12.5407 12.219C12.5909 12.2257 12.6394 12.2386 12.6907 12.2409C12.7658 12.2414 12.84 12.224 12.907 12.1901C12.9488 12.1716 12.9857 12.1439 13.0153 12.1091C13.0448 12.0743 13.0661 12.0333 13.0775 11.9891C13.0926 11.9161 13.0917 11.8407 13.0751 11.768C13.0482 11.6065 13.0105 11.4463 12.969 11.288C12.9614 11.2607 12.9486 11.2352 12.9312 11.2129C12.9139 11.1905 12.8923 11.1719 12.8677 11.1579C12.8431 11.1439 12.8159 11.1349 12.7879 11.1315C12.7598 11.128 12.7313 11.13 12.704 11.1376C12.6768 11.1451 12.6512 11.1579 12.6289 11.1753C12.6066 11.1926 12.5879 11.2143 12.574 11.2389C12.56 11.2635 12.551 11.2906 12.5475 11.3186C12.544 11.3467 12.5461 11.3752 12.5536 11.4025L12.5538 11.4026Z" fill="#323232"/>
<path d="M9.8788 10.0021C9.79804 10.2658 9.85062 10.8725 10.35 10.9239C11.0102 10.9199 11.0453 10.1867 10.8232 9.84187C10.6415 9.55959 10.1062 9.44223 9.8788 10.0021Z" fill="#323232"/>
<path d="M15.3019 10.0021C15.3831 10.2658 15.3303 10.8725 14.8308 10.9239C14.1706 10.9199 14.1354 10.1867 14.3576 9.84187C14.5396 9.55959 15.0746 9.44223 15.3019 10.0021Z" fill="#323232"/>
<path d="M14.4802 5.30694C14.5926 5.73278 14.7126 6.15727 14.855 6.57414C14.9558 6.89327 15.09 7.20087 15.2553 7.49185C15.6075 8.08371 16.0456 8.61997 16.5554 9.08306C16.8364 9.33474 17.1505 9.56856 17.5143 9.68332C17.7791 9.76704 17.8925 9.35134 17.6287 9.26807C17.3606 9.1676 17.1149 9.01514 16.9058 8.81944C16.6431 8.58644 16.4006 8.33157 16.181 8.05758C15.804 7.61339 15.5075 7.10667 15.3051 6.56032C15.1466 6.11169 15.0169 5.65274 14.8954 5.19281C14.8247 4.92506 14.4092 5.03866 14.4802 5.3073V5.30694Z" fill="#323232"/>
<path d="M10.9149 6.01702C9.96796 6.94685 9.00628 7.86663 7.97928 8.7088C7.93929 8.74939 7.91687 8.80409 7.91687 8.86107C7.91687 8.91805 7.93929 8.97274 7.97928 9.01333C8.02027 9.05255 8.07481 9.07443 8.13154 9.07443C8.18827 9.07443 8.24281 9.05255 8.28381 9.01333C9.3109 8.17152 10.2725 7.25174 11.2195 6.32155C11.4176 6.12712 11.113 5.82259 10.9149 6.01702Z" fill="#323232"/>
<path d="M14.515 5.04188C14.0704 5.62863 13.5401 6.14521 12.9419 6.57431C12.3404 6.99536 11.6731 7.31341 10.9673 7.51545C10.7014 7.59208 10.8147 8.00778 11.0817 7.9307C12.2355 7.59723 13.2859 6.97674 14.1349 6.12721C14.3795 5.88163 14.6082 5.62066 14.8195 5.34588C14.8582 5.30461 14.8798 5.25017 14.8798 5.19361C14.8798 5.13705 14.8582 5.08261 14.8195 5.04135C14.779 5.00131 14.7243 4.97887 14.6673 4.97887C14.6103 4.97887 14.5556 5.00131 14.515 5.04135V5.04188Z" fill="#323232"/>
<path d="M7.91015 18.1989C8.29445 18.0661 8.67578 17.9236 9.05649 17.781C9.46376 17.6285 9.94541 17.5006 10.1705 17.0925C10.358 16.7528 10.3213 16.3381 10.3547 15.9635C10.3543 15.9065 10.3315 15.852 10.2912 15.8117C10.2509 15.7714 10.1964 15.7486 10.1394 15.7482C10.0826 15.7493 10.0285 15.7724 9.98839 15.8125C9.94825 15.8526 9.9252 15.9068 9.92405 15.9635C9.90898 16.1322 9.89911 16.3013 9.88861 16.4704C9.88789 16.5909 9.86631 16.7103 9.82481 16.8234C9.77815 16.9333 9.69936 17.0265 9.59879 17.0908C9.54776 17.1213 9.49483 17.1484 9.44034 17.1721C9.43352 17.1753 9.42652 17.1781 9.41979 17.1811C9.38255 17.199 9.46726 17.1622 9.42257 17.18C9.0547 17.3264 8.68269 17.4627 8.3106 17.5984C8.13931 17.6612 7.96802 17.724 7.79566 17.7833C7.53546 17.8731 7.64725 18.2896 7.91015 18.1986V18.1989Z" fill="#323232"/>
<path d="M17.3851 17.7837C17.0282 17.6602 16.674 17.5281 16.3201 17.3961C16.147 17.3315 15.9735 17.2671 15.802 17.1981C15.7893 17.1931 15.7767 17.1878 15.7639 17.1827C15.7226 17.1662 15.7682 17.1846 15.7693 17.1851C15.7412 17.172 15.7127 17.1602 15.6847 17.147C15.5749 17.0998 15.4804 17.0229 15.4119 16.925C15.3422 16.8139 15.3027 16.6864 15.2974 16.5553C15.2841 16.3579 15.2743 16.1605 15.2566 15.9631C15.2552 15.9065 15.232 15.8525 15.192 15.8125C15.1519 15.7724 15.0979 15.7492 15.0413 15.7478C14.9843 15.7482 14.9298 15.771 14.8895 15.8113C14.8492 15.8516 14.8264 15.9062 14.8259 15.9631C14.8557 16.2951 14.8265 16.6618 14.9558 16.9749C15.0663 17.2368 15.2763 17.4441 15.5396 17.5512C15.9214 17.7182 16.3183 17.8539 16.7095 17.9969C16.8962 18.065 17.0828 18.1336 17.2706 18.1986C17.5331 18.2894 17.6458 17.8735 17.3851 17.7833V17.7837Z" fill="#323232"/>
<path d="M8.14061 18.2133C10.3279 19.5001 13.0782 19.7421 15.4783 18.95C16.1066 18.7459 16.7079 18.4667 17.2692 18.1184C17.5034 17.9713 17.2872 17.5985 17.0518 17.7465C15.0128 19.0265 12.4092 19.2925 10.1196 18.6044C9.50399 18.4216 8.91256 18.1656 8.35801 17.8417C8.11862 17.7009 7.90158 18.073 8.14061 18.2136V18.2133Z" fill="#323232"/>
<path d="M9.43671 20.764C9.03356 20.6577 8.64094 20.5149 8.26372 20.3373C8.4202 19.6967 8.6193 18.6953 8.78027 18.0172C8.81619 17.859 8.87142 17.7058 8.94474 17.561C8.06444 16.7788 7.13981 15.919 6.8605 14.6816C6.79239 14.3798 6.61725 11.8539 6.68194 11.3242C6.69663 11.2163 6.73158 11.1121 6.78495 11.0172C6.82677 10.9567 6.88143 10.9063 6.94503 10.8694C7.00863 10.8326 7.07958 10.8102 7.15282 10.804C7.21115 10.7951 7.27079 10.8008 7.32632 10.8208C7.38185 10.8408 7.43152 10.8743 7.47081 10.9183C7.56206 11.008 7.63609 11.2503 7.66749 11.3748L7.73586 11.646C7.85684 11.6633 7.96846 11.7209 8.05269 11.8095C8.17956 11.94 8.21644 12.1136 8.28418 12.2827C8.47754 12.7658 8.67942 13.544 8.93146 14.0783C8.98309 14.1898 9.05408 14.2914 9.14115 14.3781C9.56803 14.8156 10.0551 15.1899 10.5876 15.4899C10.8316 15.632 11.1282 15.8202 11.218 15.9655C11.4556 16.3499 11.4561 16.779 11.3424 17.2601C11.2391 18.4459 11.1909 19.806 11.0278 21.0301C10.4898 20.9955 9.9567 20.9064 9.43671 20.764Z" fill="white"/>
<path d="M7.93648 20.4091C8.40242 20.6594 8.89752 20.8511 9.4105 20.9799C10.0078 21.142 10.6218 21.2341 11.2404 21.2543C11.5176 21.262 11.5174 20.8313 11.2404 20.8236C10.6605 20.8043 10.0848 20.7173 9.52499 20.5646C9.04789 20.4461 8.58731 20.269 8.1538 20.0372C7.91154 19.9018 7.69413 20.2738 7.93648 20.4091Z" fill="#323232"/>
<path d="M11.0328 20.9818C10.9624 21.4663 10.8956 21.9516 10.8291 22.4368C10.8158 22.4918 10.824 22.5498 10.8519 22.5989C10.8799 22.6481 10.9254 22.6849 10.9794 22.7017C11.0345 22.7164 11.0932 22.7089 11.1427 22.6808C11.1923 22.6527 11.2288 22.6061 11.2443 22.5513C11.3109 22.066 11.3777 21.5809 11.4481 21.0963C11.4614 21.0413 11.4532 20.9833 11.4253 20.9341C11.3974 20.8849 11.3517 20.8482 11.2977 20.8314C11.2427 20.8166 11.184 20.8241 11.1344 20.8523C11.0849 20.8804 11.0484 20.927 11.0328 20.9818Z" fill="#323232"/>
<path d="M8.126 14.6954C7.97093 14.2727 7.84502 13.8398 7.74915 13.3999C7.66122 12.9894 7.59661 12.5744 7.52115 12.1616C7.49693 12.0297 7.54969 11.8336 7.72214 11.8598C7.91155 11.8885 7.98279 12.0832 8.03878 12.2385C8.1836 12.6395 8.31693 13.0436 8.45493 13.4471C8.52671 13.6564 8.60352 13.8637 8.69145 14.0669C8.7801 14.2732 8.9102 14.459 9.07368 14.613C9.37136 14.9049 9.69459 15.1696 10.0395 15.4038C10.2286 15.5301 10.4263 15.6415 10.6199 15.7604C10.7716 15.8534 10.9686 15.9658 11.0513 16.1066C11.1513 16.2831 11.2028 16.4828 11.2007 16.6856C11.2025 16.9215 11.1364 17.1448 11.117 17.378C11.0224 18.5109 10.978 19.6481 10.8443 20.7774C10.8446 20.8344 10.8674 20.889 10.9077 20.9293C10.9481 20.9696 11.0027 20.9924 11.0597 20.9927C11.1164 20.9914 11.1704 20.9683 11.2105 20.9282C11.2506 20.8881 11.2737 20.8341 11.275 20.7774C11.4024 19.7007 11.4494 18.6168 11.5348 17.5363C11.555 17.2818 11.6184 17.0333 11.6295 16.7779C11.6423 16.5365 11.6019 16.2953 11.5112 16.0714C11.423 15.8596 11.2742 15.6785 11.0835 15.5509C10.887 15.4079 10.6719 15.2936 10.4655 15.1657C10.0945 14.9338 9.74847 14.6641 9.43313 14.3608C9.35142 14.2905 9.27634 14.2128 9.20881 14.1288C9.14789 14.0378 9.09733 13.9403 9.05807 13.8381C8.96377 13.6156 8.88669 13.3857 8.81061 13.1562C8.67045 12.7344 8.54825 12.2953 8.36198 11.8904C8.14789 11.4238 7.4727 11.2281 7.17705 11.7308C7.10836 11.8432 7.07388 11.9732 7.07782 12.1048C7.09491 12.2501 7.11971 12.3944 7.15211 12.5371C7.19554 12.7831 7.23699 13.0296 7.28446 13.2749C7.38585 13.7967 7.52805 14.3097 7.70976 14.8092C7.72621 14.8634 7.76289 14.9093 7.8122 14.9373C7.86151 14.9653 7.91969 14.9733 7.97472 14.9596C8.02951 14.944 8.07598 14.9074 8.10411 14.8579C8.13224 14.8084 8.13978 14.7497 8.1251 14.6947L8.126 14.6954Z" fill="#323232"/>
<path d="M7.8754 11.3175C7.78567 10.9697 7.60092 10.553 7.17006 10.5868C7.06657 10.5917 6.96529 10.6185 6.87285 10.6653C6.7804 10.712 6.69887 10.7778 6.63359 10.8583C6.52988 11.0118 6.47037 11.1909 6.46158 11.3759C6.43978 11.8343 6.44832 12.2935 6.48715 12.7508C6.51407 13.2743 6.54808 13.7982 6.5994 14.3201C6.60988 14.4726 6.6305 14.6242 6.66113 14.774C6.7555 15.1611 6.90955 15.5312 7.11775 15.8709C7.57015 16.6183 8.22533 17.2101 8.87279 17.7843C9.07916 17.9677 9.38521 17.6642 9.17741 17.4798C8.65996 17.0209 8.13013 16.5556 7.71873 15.9955C7.51136 15.7209 7.34131 15.42 7.21304 15.1007C7.15079 14.9434 7.10175 14.7811 7.06643 14.6156C7.06257 14.5966 7.0597 14.5774 7.05656 14.5582C7.05494 14.5483 7.04938 14.5064 7.05476 14.5463C7.06041 14.5883 7.05243 14.5265 7.05108 14.5159C6.99985 14.0893 6.97275 13.6591 6.94565 13.2305C6.91443 12.737 6.88661 12.2428 6.88347 11.7485C6.88213 11.5447 6.8684 11.3341 6.95211 11.162C7.0055 11.0524 7.17769 10.966 7.28957 11.0442C7.38827 11.113 7.42802 11.3077 7.46005 11.432C7.52923 11.7002 7.94466 11.5865 7.8754 11.3175Z" fill="#323232"/>
<path d="M8.49794 20.2845C8.60346 19.8382 8.69758 19.3892 8.79449 18.941C8.84231 18.7198 8.89041 18.4986 8.94074 18.278C8.97599 18.0746 9.03642 17.8763 9.12064 17.6879C9.24716 17.4418 8.87569 17.2237 8.74873 17.4705C8.54236 17.872 8.48161 18.3531 8.38704 18.7901C8.28736 19.2504 8.19108 19.7116 8.08269 20.17C8.0189 20.4392 8.43406 20.5546 8.49794 20.2845Z" fill="#323232"/>
</svg>
