<svg width="24" height="24" viewBox="0 0 24 24" fill="none" xmlns="http://www.w3.org/2000/svg">
<path d="M16.0694 10.8265C16.1057 10.5564 16.1241 10.2801 16.1241 10.0052C16.1241 6.63131 13.3791 3.88639 10.0052 3.88639C6.63125 3.88639 3.88639 6.63131 3.88639 10.0052C3.88639 13.3791 6.63125 16.124 10.0052 16.124C10.3144 16.124 10.5651 16.3747 10.5651 16.6839C10.5651 16.9932 10.3144 17.2439 10.0052 17.2439C6.01375 17.2439 2.7665 13.9966 2.7665 10.0052C2.7665 6.01375 6.01375 2.7665 10.0052 2.7665C13.9966 2.7665 17.2439 6.01375 17.2439 10.0052C17.2439 10.3297 17.2222 10.6561 17.1794 10.9754C17.1382 11.282 16.8564 11.497 16.5499 11.4559C16.2434 11.4148 16.0283 11.133 16.0694 10.8265ZM11.5517 22.259H10.5651V19.4504C10.5651 19.1412 10.3144 18.8905 10.0052 18.8905C5.10577 18.8905 1.11989 14.9046 1.11989 10.0052C1.11989 5.10583 5.10577 1.11989 10.0052 1.11989C14.9046 1.11989 18.8905 5.10583 18.8905 10.0052C18.8905 10.9154 18.7536 11.8125 18.4835 12.6716C18.3908 12.9667 18.5548 13.281 18.8499 13.3737C19.1448 13.4664 19.4592 13.3024 19.5519 13.0073C19.8562 12.0394 20.0104 11.0294 20.0104 10.0052C20.0104 4.48834 15.5221 0 10.0052 0C4.48827 0 0 4.48833 0 10.0052C0 15.3342 4.18783 19.7035 9.44522 19.9949V22.2589H7.33298C7.0237 22.2589 6.77304 22.5096 6.77304 22.8189C6.77304 23.1282 7.0237 23.3788 7.33298 23.3788H9.99216C9.99652 23.3789 10.0008 23.379 10.0052 23.379C10.0095 23.379 10.0139 23.3789 10.0182 23.3788H11.5517C11.861 23.3788 12.1117 23.1282 12.1117 22.8189C12.1117 22.5096 11.861 22.259 11.5517 22.259ZM12.4055 12.9653C12.5487 12.9653 12.692 12.9107 12.8014 12.8013C13.0201 12.5827 13.0201 12.2281 12.8014 12.0095L8.00081 7.20886C7.78212 6.99017 7.42761 6.99023 7.20892 7.20886C6.99023 7.42755 6.99023 7.78206 7.20892 8.00075L12.0095 12.8013C12.1189 12.9107 12.2622 12.9653 12.4055 12.9653ZM7.27033 10.4271C7.05164 10.6457 7.05164 11.0002 7.27033 11.2189L9.91128 13.86C10.0207 13.9694 10.1639 14.024 10.3072 14.024C10.4505 14.024 10.5938 13.9693 10.7032 13.86C10.9219 13.6413 10.9219 13.2868 10.7032 13.0681L8.06222 10.4271C7.84353 10.2084 7.48902 10.2085 7.27033 10.4271ZM20.7088 22.6461C19.4787 23.5438 18.0527 24 16.6762 24C15.6822 24 14.7141 23.7622 13.8639 23.2812L13.647 23.4394C13.3974 23.6217 13.047 23.567 12.8647 23.3172C12.6824 23.0674 12.7371 22.7171 12.9869 22.5348L13.2038 22.3766C13.183 22.277 13.1652 22.1769 13.1503 22.0766C11.7967 20.8906 11.1612 18.9741 11.4866 17.0126C11.8705 14.6977 13.5163 12.8814 15.5818 12.4929C15.7116 12.4684 15.846 12.4908 15.9609 12.5558C16.8891 13.0807 17.613 13.9292 18.0404 14.9802C19.7884 14.4541 21.6374 14.6589 23.0796 15.6249C23.1894 15.6984 23.2696 15.8083 23.3062 15.9353C23.9912 18.3157 22.9474 21.0126 20.7088 22.6461ZM14.3681 17.5623L14.7025 15.5462C14.7531 15.2411 15.0414 15.035 15.3465 15.0854C15.6206 15.1309 15.815 15.3683 15.815 15.6373C15.815 15.6677 15.8125 15.6985 15.8073 15.7295L15.7336 16.1738C15.7872 16.1323 15.8413 16.0916 15.8964 16.0515C16.2492 15.794 16.6182 15.5729 16.9973 15.3884C16.6927 14.6469 16.2049 14.0401 15.5864 13.638C14.0764 14.0187 12.8856 15.4215 12.5913 17.1959C12.4029 18.3314 12.6233 19.4718 13.1646 20.3635C13.3236 19.377 13.7366 18.4128 14.3681 17.5623ZM22.2822 16.4447C21.0307 15.6934 19.4275 15.621 17.9441 16.1955C17.9173 16.2087 17.8891 16.22 17.8596 16.229C17.4089 16.4117 16.9702 16.6543 16.5566 16.9561C16.0986 17.2904 15.7001 17.6763 15.3681 18.0969C15.3505 18.1241 15.3306 18.1496 15.3088 18.1731C14.5201 19.2071 14.1267 20.4409 14.2252 21.6312L19.8865 17.4999C20.1363 17.3176 20.4867 17.3724 20.6689 17.6222C20.8512 17.872 20.7964 18.2222 20.5466 18.4045L14.8854 22.5358C16.4696 23.1918 18.4483 22.9095 20.0487 21.7416C21.8449 20.4307 22.724 18.3258 22.2822 16.4447ZM11.5675 9.04996C11.7108 9.04996 11.8541 8.99527 11.9635 8.88596C12.1822 8.66727 12.1822 8.31276 11.9635 8.09407L10.0135 6.14403C9.79481 5.92534 9.4403 5.9254 9.22161 6.14403C9.00292 6.36272 9.00292 6.71723 9.22161 6.93592L11.1716 8.88596C11.281 8.99533 11.4243 9.04996 11.5675 9.04996Z" fill="black"/>
</svg>
