<svg width="24" height="25" viewBox="0 0 24 25" fill="none" xmlns="http://www.w3.org/2000/svg">
<mask id="mask0_3334_23338" style="mask-type:luminance" maskUnits="userSpaceOnUse" x="5" y="3" width="15" height="19">
<path d="M19.5728 4.06738V21.2305H5.23389V4.06738H19.5728Z" fill="white" stroke="white" stroke-width="0.2"/>
</mask>
<g mask="url(#mask0_3334_23338)">
<mask id="path-2-outside-1_3334_23338" maskUnits="userSpaceOnUse" x="4.3335" y="3.1665" width="16" height="19" fill="black">
<rect fill="white" x="4.3335" y="3.1665" width="16" height="19"/>
<path fill-rule="evenodd" clip-rule="evenodd" d="M12.4027 5.41667C11.696 5.41667 7.23768 6.98667 6.72352 7.41583C6.57185 7.56833 6.56602 7.83333 6.59852 9.6075C6.61352 10.4625 6.63435 11.6242 6.63435 13.2325C6.63435 17.5667 11.4027 19.4908 12.4019 19.845C13.4002 19.4892 18.171 17.5542 18.171 13.2325C18.171 11.6225 18.1919 10.46 18.2077 9.605C18.2394 7.8325 18.2335 7.5675 18.0727 7.4075C17.5685 6.98667 13.1094 5.41667 12.4027 5.41667ZM12.403 21.1298C12.3422 21.1298 12.2813 21.1215 12.2222 21.1032C11.943 21.019 5.38467 18.9673 5.38467 13.2323C5.38467 11.6348 5.36384 10.479 5.34884 9.63067C5.31051 7.5115 5.30217 7.06984 5.84967 6.52317C6.50384 5.86734 11.458 4.1665 12.403 4.1665C13.3472 4.1665 18.3013 5.86734 18.9572 6.52317C19.5038 7.06984 19.4955 7.5115 19.4572 9.62817C19.4422 10.4765 19.4213 11.6323 19.4213 13.2323C19.4213 18.9673 12.863 21.019 12.5838 21.1032C12.5247 21.1215 12.4638 21.1298 12.403 21.1298Z"/>
</mask>
<path fill-rule="evenodd" clip-rule="evenodd" d="M12.4027 5.41667C11.696 5.41667 7.23768 6.98667 6.72352 7.41583C6.57185 7.56833 6.56602 7.83333 6.59852 9.6075C6.61352 10.4625 6.63435 11.6242 6.63435 13.2325C6.63435 17.5667 11.4027 19.4908 12.4019 19.845C13.4002 19.4892 18.171 17.5542 18.171 13.2325C18.171 11.6225 18.1919 10.46 18.2077 9.605C18.2394 7.8325 18.2335 7.5675 18.0727 7.4075C17.5685 6.98667 13.1094 5.41667 12.4027 5.41667ZM12.403 21.1298C12.3422 21.1298 12.2813 21.1215 12.2222 21.1032C11.943 21.019 5.38467 18.9673 5.38467 13.2323C5.38467 11.6348 5.36384 10.479 5.34884 9.63067C5.31051 7.5115 5.30217 7.06984 5.84967 6.52317C6.50384 5.86734 11.458 4.1665 12.403 4.1665C13.3472 4.1665 18.3013 5.86734 18.9572 6.52317C19.5038 7.06984 19.4955 7.5115 19.4572 9.62817C19.4422 10.4765 19.4213 11.6323 19.4213 13.2323C19.4213 18.9673 12.863 21.019 12.5838 21.1032C12.5247 21.1215 12.4638 21.1298 12.403 21.1298Z" fill="#907FB1"/>
<path d="M6.72352 7.41583L6.59536 7.26229L6.58824 7.26823L6.58171 7.2748L6.72352 7.41583ZM6.59852 9.6075L6.79849 9.60399L6.79848 9.60384L6.59852 9.6075ZM12.4019 19.845L12.335 20.0335L12.402 20.0573L12.469 20.0334L12.4019 19.845ZM18.2077 9.605L18.4076 9.6087L18.4077 9.60857L18.2077 9.605ZM18.0727 7.4075L18.2137 7.26571L18.2075 7.25955L18.2008 7.25396L18.0727 7.4075ZM12.2222 21.1032L12.2814 20.9121L12.2799 20.9117L12.2222 21.1032ZM5.34884 9.63067L5.54881 9.62713L5.54881 9.62705L5.34884 9.63067ZM5.84967 6.52317L5.99099 6.6647L5.99128 6.66441L5.84967 6.52317ZM19.4572 9.62817L19.2572 9.62455L19.2572 9.62463L19.4572 9.62817ZM12.5838 21.1032L12.5261 20.9117L12.5246 20.9121L12.5838 21.1032ZM12.4027 5.41667V5.21667C12.2892 5.21667 12.1222 5.24638 11.9321 5.29004C11.7362 5.33503 11.498 5.39921 11.2333 5.47675C10.7035 5.63192 10.0604 5.84278 9.42449 6.06666C8.78861 6.29054 8.15749 6.52832 7.65192 6.73762C7.39932 6.8422 7.17615 6.94045 6.99862 7.0269C6.82717 7.11039 6.6806 7.19114 6.59536 7.26229L6.72352 7.41583L6.85168 7.56938C6.89498 7.53323 7.0002 7.47104 7.17375 7.38653C7.34121 7.30498 7.55622 7.21016 7.80493 7.1072C8.30199 6.90142 8.92603 6.66623 9.55733 6.44396C10.1886 6.2217 10.8247 6.01324 11.3457 5.86062C11.6064 5.78426 11.8364 5.72244 12.0216 5.67989C12.2126 5.63602 12.3395 5.61667 12.4027 5.61667V5.41667ZM6.72352 7.41583L6.58171 7.2748C6.44866 7.40858 6.40876 7.58259 6.39224 7.89291C6.37541 8.20895 6.38237 8.7276 6.39855 9.61116L6.59852 9.6075L6.79848 9.60384C6.78217 8.71323 6.77579 8.2123 6.79167 7.91418C6.80785 7.61033 6.8467 7.57559 6.86533 7.55687L6.72352 7.41583ZM6.59852 9.6075L6.39855 9.61101C6.41354 10.4658 6.43435 11.626 6.43435 13.2325H6.63435H6.83435C6.83435 11.6223 6.81349 10.4592 6.79849 9.60399L6.59852 9.6075ZM6.63435 13.2325H6.43435C6.43435 15.482 7.67405 17.0981 9.01751 18.1866C10.3598 19.2743 11.8259 19.853 12.335 20.0335L12.4019 19.845L12.4687 19.6565C11.9787 19.4828 10.561 18.9224 9.26932 17.8759C7.97882 16.8302 6.83435 15.3172 6.83435 13.2325H6.63435ZM12.4019 19.845L12.469 20.0334C12.9777 19.8521 14.4441 19.2702 15.7868 18.1813C17.1305 17.0916 18.371 15.4759 18.371 13.2325H18.171H17.971C17.971 15.3108 16.8261 16.8234 15.5348 17.8706C14.2426 18.9186 12.8243 19.4821 12.3347 19.6566L12.4019 19.845ZM18.171 13.2325H18.371C18.371 11.6244 18.3918 10.4633 18.4076 9.6087L18.2077 9.605L18.0077 9.6013C17.9919 10.4567 17.971 11.6206 17.971 13.2325H18.171ZM18.2077 9.605L18.4077 9.60857C18.4234 8.72607 18.4302 8.20736 18.412 7.89014C18.3941 7.57607 18.3508 7.40202 18.2137 7.26571L18.0727 7.4075L17.9316 7.54929C17.9554 7.57298 17.9955 7.61143 18.0127 7.91298C18.0298 8.21139 18.0236 8.71143 18.0077 9.60143L18.2077 9.605ZM18.0727 7.4075L18.2008 7.25396C18.1166 7.18367 17.9708 7.10376 17.8006 7.02118C17.624 6.93555 17.4016 6.838 17.1497 6.73402C16.6455 6.52592 16.0153 6.28894 15.38 6.06559C14.7446 5.84224 14.1017 5.63164 13.572 5.47661C13.3074 5.39914 13.0691 5.33499 12.8733 5.29002C12.6832 5.24637 12.5162 5.21667 12.4027 5.21667V5.41667V5.61667C12.4658 5.61667 12.5928 5.63602 12.7838 5.67988C12.969 5.72241 13.199 5.78421 13.4597 5.8605C13.9806 6.01299 14.6165 6.2212 15.2473 6.44295C15.8781 6.6647 16.5013 6.89913 16.9971 7.10376C17.2452 7.20615 17.4594 7.3003 17.626 7.38108C17.7989 7.46491 17.9027 7.52612 17.9445 7.56104L18.0727 7.4075ZM12.403 21.1298V20.9298C12.3605 20.9298 12.3198 20.924 12.2814 20.9121L12.2222 21.1032L12.163 21.2942C12.2429 21.319 12.3239 21.3298 12.403 21.3298V21.1298ZM12.2222 21.1032L12.2799 20.9117C12.1499 20.8725 10.4655 20.3466 8.81778 19.1261C7.17137 17.9066 5.58467 16.0126 5.58467 13.2323H5.38467H5.18467C5.18467 16.1871 6.87715 18.1864 8.57969 19.4475C10.2809 20.7076 12.0153 21.2497 12.1644 21.2947L12.2222 21.1032ZM5.38467 13.2323H5.58467C5.58467 11.633 5.56381 10.4757 5.54881 9.62713L5.34884 9.63067L5.14887 9.63421C5.16387 10.4823 5.18467 11.6367 5.18467 13.2323H5.38467ZM5.34884 9.63067L5.54881 9.62705C5.52949 8.55888 5.51883 7.93879 5.57767 7.51472C5.60639 7.30778 5.65068 7.15743 5.71398 7.0307C5.77713 6.90424 5.86418 6.79132 5.99099 6.6647L5.84967 6.52317L5.70836 6.38164C5.56142 6.52836 5.44419 6.67564 5.35613 6.85197C5.2682 7.02802 5.21432 7.22304 5.18147 7.45974C5.11719 7.92297 5.12986 8.5833 5.14887 9.63429L5.34884 9.63067ZM5.84967 6.52317L5.99128 6.66441C6.05123 6.60431 6.17806 6.51743 6.37624 6.40911C6.56935 6.30356 6.81461 6.18587 7.09736 6.06128C7.66251 5.81227 8.36762 5.54004 9.08379 5.28752C9.79978 5.03506 10.5238 4.80339 11.1262 4.63513C11.4275 4.55097 11.6966 4.48318 11.9181 4.43658C12.1436 4.38915 12.3071 4.3665 12.403 4.3665V4.1665V3.9665C12.2627 3.9665 12.0646 3.99701 11.8358 4.04515C11.6029 4.09413 11.3248 4.16434 11.0186 4.24988C10.4058 4.42102 9.67322 4.65555 8.95077 4.91028C8.2285 5.16495 7.51335 5.44089 6.93608 5.69524C6.64762 5.82234 6.39113 5.94512 6.1844 6.05812C5.98275 6.16834 5.81166 6.27807 5.70807 6.38193L5.84967 6.52317ZM12.403 4.1665V4.3665C12.4988 4.3665 12.6622 4.38915 12.8876 4.43658C13.1091 4.48317 13.3781 4.55097 13.6794 4.63513C14.2817 4.80339 15.0057 5.03506 15.7217 5.28752C16.4379 5.54004 17.1432 5.81228 17.7086 6.0613C17.9914 6.18588 18.2368 6.30358 18.4301 6.40914C18.6284 6.51746 18.7555 6.60438 18.8158 6.66459L18.9572 6.52317L19.0986 6.38175C18.9948 6.278 18.8237 6.16831 18.6218 6.05808C18.415 5.9451 18.1584 5.82232 17.8698 5.69523C17.2923 5.44089 16.577 5.16495 15.8547 4.91028C15.1322 4.65555 14.3996 4.42102 13.787 4.24988C13.4808 4.16434 13.2028 4.09414 12.97 4.04515C12.7412 3.99701 12.5432 3.9665 12.403 3.9665V4.1665ZM18.9572 6.52317L18.8158 6.66459C18.9424 6.7912 19.0293 6.90413 19.0923 7.03057C19.1556 7.15729 19.1998 7.30759 19.2284 7.51438C19.2872 7.93815 19.2765 8.55763 19.2572 9.62455L19.4572 9.62817L19.6571 9.63179C19.6762 8.58204 19.6888 7.92236 19.6247 7.45946C19.5919 7.22292 19.5381 7.02801 19.4503 6.85203C19.3624 6.67575 19.2453 6.52847 19.0986 6.38175L18.9572 6.52317ZM19.4572 9.62817L19.2572 9.62463C19.2422 10.4732 19.2213 11.6305 19.2213 13.2323H19.4213H19.6213C19.6213 11.6342 19.6421 10.4798 19.6571 9.63171L19.4572 9.62817ZM19.4213 13.2323H19.2213C19.2213 16.0126 17.6346 17.9066 15.9882 19.1261C14.3405 20.3466 12.6562 20.8725 12.5261 20.9117L12.5838 21.1032L12.6416 21.2947C12.7907 21.2497 14.5251 20.7076 16.2263 19.4475C17.9289 18.1864 19.6213 16.1871 19.6213 13.2323H19.4213ZM12.5838 21.1032L12.5246 20.9121C12.4863 20.924 12.4455 20.9298 12.403 20.9298V21.1298V21.3298C12.4821 21.3298 12.5631 21.319 12.643 21.2942L12.5838 21.1032Z" fill="#907FB1" mask="url(#path-2-outside-1_3334_23338)"/>
</g>
<mask id="path-4-outside-2_3334_23338" maskUnits="userSpaceOnUse" x="8.61279" y="9.09961" width="8" height="6" fill="black">
<rect fill="white" x="8.61279" y="9.09961" width="8" height="6"/>
<path fill-rule="evenodd" clip-rule="evenodd" d="M11.8144 14.5994C11.6485 14.5994 11.4894 14.5336 11.3719 14.4161L9.79519 12.8377C9.55186 12.5936 9.55186 12.1969 9.79602 11.9536C10.0394 11.7094 10.436 11.7094 10.6802 11.9536L11.8144 13.0894L14.621 10.2827C14.8652 10.0386 15.2602 10.0386 15.5044 10.2827C15.7485 10.5269 15.7485 10.9227 15.5044 11.1669L12.256 14.4161C12.1394 14.5336 11.9802 14.5994 11.8144 14.5994Z"/>
</mask>
<path fill-rule="evenodd" clip-rule="evenodd" d="M11.8144 14.5994C11.6485 14.5994 11.4894 14.5336 11.3719 14.4161L9.79519 12.8377C9.55186 12.5936 9.55186 12.1969 9.79602 11.9536C10.0394 11.7094 10.436 11.7094 10.6802 11.9536L11.8144 13.0894L14.621 10.2827C14.8652 10.0386 15.2602 10.0386 15.5044 10.2827C15.7485 10.5269 15.7485 10.9227 15.5044 11.1669L12.256 14.4161C12.1394 14.5336 11.9802 14.5994 11.8144 14.5994Z" fill="#907FB1"/>
<path d="M11.3719 14.4161L11.2304 14.5574L11.2304 14.5575L11.3719 14.4161ZM9.79519 12.8377L9.65353 12.9789L9.65369 12.9791L9.79519 12.8377ZM9.79602 11.9536L9.9372 12.0952L9.93769 12.0947L9.79602 11.9536ZM10.6802 11.9536L10.8217 11.8123L10.8216 11.8121L10.6802 11.9536ZM11.8144 13.0894L11.6728 13.2307L11.8143 13.3723L11.9558 13.2308L11.8144 13.0894ZM14.621 10.2827L14.7624 10.4242L14.621 10.2827ZM15.5044 11.1669L15.3629 11.0255L15.3629 11.0255L15.5044 11.1669ZM12.256 14.4161L12.1146 14.2747L12.1141 14.2752L12.256 14.4161ZM11.8144 14.5994V14.3994C11.7015 14.3994 11.5933 14.3546 11.5133 14.2746L11.3719 14.4161L11.2304 14.5575C11.3855 14.7125 11.5955 14.7994 11.8144 14.7994V14.5994ZM11.3719 14.4161L11.5134 14.2747L9.93668 12.6964L9.79519 12.8377L9.65369 12.9791L11.2304 14.5574L11.3719 14.4161ZM9.79519 12.8377L9.93685 12.6966C9.77121 12.5303 9.77156 12.2603 9.9372 12.0952L9.79602 11.9536L9.65484 11.8119C9.33216 12.1335 9.3325 12.6568 9.65353 12.9789L9.79519 12.8377ZM9.79602 11.9536L9.93769 12.0947C10.1027 11.9291 10.3726 11.9288 10.5388 12.095L10.6802 11.9536L10.8216 11.8121C10.4995 11.49 9.97599 11.4897 9.65436 11.8124L9.79602 11.9536ZM10.6802 11.9536L10.5387 12.0949L11.6728 13.2307L11.8144 13.0894L11.9559 12.9481L10.8217 11.8123L10.6802 11.9536ZM11.8144 13.0894L11.9558 13.2308L14.7624 10.4242L14.621 10.2827L14.4796 10.1413L11.6729 12.948L11.8144 13.0894ZM14.621 10.2827L14.7624 10.4242C14.9285 10.2581 15.1969 10.2581 15.3629 10.4242L15.5044 10.2827L15.6458 10.1413C15.3235 9.81904 14.8019 9.81904 14.4796 10.1413L14.621 10.2827ZM15.5044 10.2827L15.3629 10.4242C15.529 10.5902 15.529 10.8594 15.3629 11.0255L15.5044 11.1669L15.6458 11.3083C15.968 10.9861 15.968 10.4636 15.6458 10.1413L15.5044 10.2827ZM15.5044 11.1669L15.3629 11.0255L12.1146 14.2747L12.256 14.4161L12.3975 14.5575L15.6458 11.3083L15.5044 11.1669ZM12.256 14.4161L12.1141 14.2752C12.0353 14.3546 11.9273 14.3994 11.8144 14.3994V14.5994V14.7994C12.0331 14.7994 12.2435 14.7126 12.3979 14.557L12.256 14.4161Z" fill="#907FB1" mask="url(#path-4-outside-2_3334_23338)"/>
</svg>
