<svg width="24" height="25" viewBox="0 0 24 25" fill="none" xmlns="http://www.w3.org/2000/svg">
<mask id="mask0_3334_23371" style="mask-type:luminance" maskUnits="userSpaceOnUse" x="5" y="4" width="14" height="17">
<path d="M18.1401 4.90918V19.999H5.15088V4.90918H18.1401Z" fill="white" stroke="white" stroke-width="0.2"/>
</mask>
<g mask="url(#mask0_3334_23371)">
<mask id="path-2-outside-1_3334_23371" maskUnits="userSpaceOnUse" x="4.25049" y="4.00879" width="14" height="17" fill="black">
<rect fill="white" x="4.25049" y="4.00879" width="14" height="17"/>
<path fill-rule="evenodd" clip-rule="evenodd" d="M8.68029 6.13379C7.43754 6.13379 6.40554 7.14029 6.37629 8.38154V16.4028C6.34854 17.6875 7.36104 18.7458 8.63304 18.7743H14.681C15.9328 18.7225 16.9243 17.6823 16.9153 16.4073V9.75479L13.439 6.13379H8.68929H8.68029ZM8.68932 19.8993H8.60757C6.71607 19.8565 5.21007 18.283 5.25132 16.3908V8.36804C5.29482 6.50729 6.83157 5.00879 8.67882 5.00879H8.69157H13.6791C13.8321 5.00879 13.9783 5.07104 14.0848 5.18129L17.8836 9.13904C17.9841 9.24329 18.0403 9.38354 18.0403 9.52829V16.4028C18.0538 18.2845 16.5883 19.822 14.7036 19.8985L8.68932 19.8993Z"/>
</mask>
<path fill-rule="evenodd" clip-rule="evenodd" d="M8.68029 6.13379C7.43754 6.13379 6.40554 7.14029 6.37629 8.38154V16.4028C6.34854 17.6875 7.36104 18.7458 8.63304 18.7743H14.681C15.9328 18.7225 16.9243 17.6823 16.9153 16.4073V9.75479L13.439 6.13379H8.68929H8.68029ZM8.68932 19.8993H8.60757C6.71607 19.8565 5.21007 18.283 5.25132 16.3908V8.36804C5.29482 6.50729 6.83157 5.00879 8.67882 5.00879H8.69157H13.6791C13.8321 5.00879 13.9783 5.07104 14.0848 5.18129L17.8836 9.13904C17.9841 9.24329 18.0403 9.38354 18.0403 9.52829V16.4028C18.0538 18.2845 16.5883 19.822 14.7036 19.8985L8.68932 19.8993Z" fill="#907FB1"/>
<path d="M6.37629 8.38154L6.17629 8.37683V8.38154H6.37629ZM6.37629 16.4028L6.57629 16.4071V16.4028H6.37629ZM8.63304 18.7743L8.62856 18.9743H8.63304V18.7743ZM14.681 18.7743V18.9745L14.6893 18.9741L14.681 18.7743ZM16.9153 16.4073H16.7153L16.7153 16.4087L16.9153 16.4073ZM16.9153 9.75479H17.1153V9.67433L17.0596 9.61628L16.9153 9.75479ZM13.439 6.13379L13.5833 5.99528L13.5243 5.93379H13.439V6.13379ZM8.68932 19.8993V20.0993H8.68934L8.68932 19.8993ZM8.60757 19.8993L8.60305 20.0993H8.60757V19.8993ZM5.25132 16.3908L5.45132 16.3951V16.3908H5.25132ZM5.25132 8.36804L5.05132 8.36336V8.36804H5.25132ZM14.0848 5.18129L14.2291 5.0428L14.2287 5.04234L14.0848 5.18129ZM17.8836 9.13904L17.7393 9.27753L17.7396 9.27785L17.8836 9.13904ZM18.0403 16.4028H17.8403L17.8403 16.4042L18.0403 16.4028ZM14.7036 19.8985L14.7036 20.0987L14.7117 20.0984L14.7036 19.8985ZM8.68029 6.13379V5.93379C7.32915 5.93379 6.20816 7.02675 6.17634 8.37683L6.37629 8.38154L6.57623 8.38625C6.60292 7.25382 7.54593 6.33379 8.68029 6.33379V6.13379ZM6.37629 8.38154H6.17629V16.4028H6.37629H6.57629V8.38154H6.37629ZM6.37629 16.4028L6.17634 16.3985C6.14622 17.7929 7.24546 18.9432 8.62856 18.9742L8.63304 18.7743L8.63752 18.5743C7.47662 18.5483 6.55086 17.5822 6.57624 16.4071L6.37629 16.4028ZM8.63304 18.7743V18.9743H14.681V18.7743V18.5743H8.63304V18.7743ZM14.681 18.7743L14.6893 18.9741C16.0499 18.9179 17.125 17.7875 17.1153 16.4059L16.9153 16.4073L16.7153 16.4087C16.7235 17.5771 15.8157 18.5272 14.6728 18.5745L14.681 18.7743ZM16.9153 16.4073H17.1153V9.75479H16.9153H16.7153V16.4073H16.9153ZM16.9153 9.75479L17.0596 9.61628L13.5833 5.99528L13.439 6.13379L13.2948 6.2723L16.771 9.8933L16.9153 9.75479ZM13.439 6.13379V5.93379H8.68929V6.13379V6.33379H13.439V6.13379ZM8.68929 6.13379V5.93379H8.68029V6.13379V6.33379H8.68929V6.13379ZM8.68932 19.8993V19.6993H8.60757V19.8993V20.0993H8.68932V19.8993ZM8.60757 19.8993L8.61208 19.6993C6.83091 19.6591 5.41243 18.177 5.45127 16.3951L5.25132 16.3908L5.05136 16.3864C5.00771 18.3891 6.60122 20.054 8.60305 20.0992L8.60757 19.8993ZM5.25132 16.3908H5.45132V8.36804H5.25132H5.05132V16.3908H5.25132ZM5.25132 8.36804L5.45126 8.37271C5.49223 6.62025 6.94052 5.20879 8.67882 5.20879V5.00879V4.80879C6.72262 4.80879 5.0974 6.39432 5.05137 8.36336L5.25132 8.36804ZM8.67882 5.00879V5.20879H8.69157V5.00879V4.80879H8.67882V5.00879ZM8.69157 5.00879V5.20879H13.6791V5.00879V4.80879H8.69157V5.00879ZM13.6791 5.00879V5.20879C13.7776 5.20879 13.872 5.24885 13.941 5.32024L14.0848 5.18129L14.2287 5.04234C14.0846 4.89323 13.8865 4.80879 13.6791 4.80879V5.00879ZM14.0848 5.18129L13.9405 5.31978L17.7393 9.27753L17.8836 9.13904L18.0279 9.00055L14.2291 5.0428L14.0848 5.18129ZM17.8836 9.13904L17.7396 9.27785C17.8039 9.3446 17.8403 9.435 17.8403 9.52829H18.0403H18.2403C18.2403 9.33208 18.1642 9.14198 18.0276 9.00023L17.8836 9.13904ZM18.0403 9.52829H17.8403V16.4028H18.0403H18.2403V9.52829H18.0403ZM18.0403 16.4028L17.8403 16.4042C17.853 18.178 16.4726 19.6266 14.6955 19.6987L14.7036 19.8985L14.7117 20.0984C16.7041 20.0175 18.2546 18.3911 18.2403 16.4014L18.0403 16.4028ZM14.7036 19.8985L14.7035 19.6985L8.68929 19.6993L8.68932 19.8993L8.68934 20.0993L14.7036 20.0985L14.7036 19.8985Z" fill="#907FB1" mask="url(#path-2-outside-1_3334_23371)"/>
</g>
<mask id="path-4-outside-2_3334_23371" maskUnits="userSpaceOnUse" x="7.729" y="13.4561" width="7" height="3" fill="black">
<rect fill="white" x="7.729" y="13.4561" width="7" height="3"/>
<path fill-rule="evenodd" clip-rule="evenodd" d="M13.3415 15.5811H9.2915C8.981 15.5811 8.729 15.3291 8.729 15.0186C8.729 14.7081 8.981 14.4561 9.2915 14.4561H13.3415C13.652 14.4561 13.904 14.7081 13.904 15.0186C13.904 15.3291 13.652 15.5811 13.3415 15.5811Z"/>
</mask>
<path fill-rule="evenodd" clip-rule="evenodd" d="M13.3415 15.5811H9.2915C8.981 15.5811 8.729 15.3291 8.729 15.0186C8.729 14.7081 8.981 14.4561 9.2915 14.4561H13.3415C13.652 14.4561 13.904 14.7081 13.904 15.0186C13.904 15.3291 13.652 15.5811 13.3415 15.5811Z" fill="#907FB1"/>
<path d="M13.3415 15.5811V15.3811H9.2915V15.5811V15.7811H13.3415V15.5811ZM9.2915 15.5811V15.3811C9.09146 15.3811 8.929 15.2186 8.929 15.0186H8.729H8.529C8.529 15.4395 8.87055 15.7811 9.2915 15.7811V15.5811ZM8.729 15.0186H8.929C8.929 14.8185 9.09146 14.6561 9.2915 14.6561V14.4561V14.2561C8.87055 14.2561 8.529 14.5976 8.529 15.0186H8.729ZM9.2915 14.4561V14.6561H13.3415V14.4561V14.2561H9.2915V14.4561ZM13.3415 14.4561V14.6561C13.5415 14.6561 13.704 14.8185 13.704 15.0186H13.904H14.104C14.104 14.5976 13.7625 14.2561 13.3415 14.2561V14.4561ZM13.904 15.0186H13.704C13.704 15.2186 13.5415 15.3811 13.3415 15.3811V15.5811V15.7811C13.7625 15.7811 14.104 15.4395 14.104 15.0186H13.904Z" fill="#907FB1" mask="url(#path-4-outside-2_3334_23371)"/>
<mask id="path-6-outside-3_3334_23371" maskUnits="userSpaceOnUse" x="7.72852" y="10.6426" width="5" height="3" fill="black">
<rect fill="white" x="7.72852" y="10.6426" width="5" height="3"/>
<path fill-rule="evenodd" clip-rule="evenodd" d="M11.808 12.7676H9.29102C8.98052 12.7676 8.72852 12.5156 8.72852 12.2051C8.72852 11.8946 8.98052 11.6426 9.29102 11.6426H11.808C12.1185 11.6426 12.3705 11.8946 12.3705 12.2051C12.3705 12.5156 12.1185 12.7676 11.808 12.7676Z"/>
</mask>
<path fill-rule="evenodd" clip-rule="evenodd" d="M11.808 12.7676H9.29102C8.98052 12.7676 8.72852 12.5156 8.72852 12.2051C8.72852 11.8946 8.98052 11.6426 9.29102 11.6426H11.808C12.1185 11.6426 12.3705 11.8946 12.3705 12.2051C12.3705 12.5156 12.1185 12.7676 11.808 12.7676Z" fill="#907FB1"/>
<path d="M11.808 12.7676V12.5676H9.29102V12.7676V12.9676H11.808V12.7676ZM9.29102 12.7676V12.5676C9.09097 12.5676 8.92852 12.4051 8.92852 12.2051H8.72852H8.52852C8.52852 12.626 8.87006 12.9676 9.29102 12.9676V12.7676ZM8.72852 12.2051H8.92852C8.92852 12.005 9.09097 11.8426 9.29102 11.8426V11.6426V11.4426C8.87006 11.4426 8.52852 11.7841 8.52852 12.2051H8.72852ZM9.29102 11.6426V11.8426H11.808V11.6426V11.4426H9.29102V11.6426ZM11.808 11.6426V11.8426C12.0081 11.8426 12.1705 12.005 12.1705 12.2051H12.3705H12.5705C12.5705 11.7841 12.229 11.4426 11.808 11.4426V11.6426ZM12.3705 12.2051H12.1705C12.1705 12.4051 12.0081 12.5676 11.808 12.5676V12.7676V12.9676C12.229 12.9676 12.5705 12.626 12.5705 12.2051H12.3705Z" fill="#907FB1" mask="url(#path-6-outside-3_3334_23371)"/>
<mask id="path-8-outside-4_3334_23371" maskUnits="userSpaceOnUse" x="11.9189" y="4.00049" width="7" height="7" fill="black">
<rect fill="white" x="11.9189" y="4.00049" width="7" height="7"/>
<path fill-rule="evenodd" clip-rule="evenodd" d="M17.4737 10.2385H15.4074C14.0349 10.2347 12.9189 9.11574 12.9189 7.74474V5.56299C12.9189 5.25249 13.1709 5.00049 13.4814 5.00049C13.7919 5.00049 14.0439 5.25249 14.0439 5.56299V7.74474C14.0439 8.49774 14.6567 9.11124 15.4089 9.11349H17.4737C17.7842 9.11349 18.0362 9.36549 18.0362 9.67599C18.0362 9.98649 17.7842 10.2385 17.4737 10.2385Z"/>
</mask>
<path fill-rule="evenodd" clip-rule="evenodd" d="M17.4737 10.2385H15.4074C14.0349 10.2347 12.9189 9.11574 12.9189 7.74474V5.56299C12.9189 5.25249 13.1709 5.00049 13.4814 5.00049C13.7919 5.00049 14.0439 5.25249 14.0439 5.56299V7.74474C14.0439 8.49774 14.6567 9.11124 15.4089 9.11349H17.4737C17.7842 9.11349 18.0362 9.36549 18.0362 9.67599C18.0362 9.98649 17.7842 10.2385 17.4737 10.2385Z" fill="#907FB1"/>
<path d="M15.4074 10.2385L15.4069 10.4385H15.4074V10.2385ZM15.4089 9.11349L15.4083 9.31349H15.4089V9.11349ZM17.4737 10.2385V10.0385H15.4074V10.2385V10.4385H17.4737V10.2385ZM15.4074 10.2385L15.408 10.0385C14.1457 10.035 13.1189 9.00541 13.1189 7.74474H12.9189H12.7189C12.7189 9.22607 13.9242 10.4344 15.4069 10.4385L15.4074 10.2385ZM12.9189 7.74474H13.1189V5.56299H12.9189H12.7189V7.74474H12.9189ZM12.9189 5.56299H13.1189C13.1189 5.36295 13.2814 5.20049 13.4814 5.20049V5.00049V4.80049C13.0605 4.80049 12.7189 5.14203 12.7189 5.56299H12.9189ZM13.4814 5.00049V5.20049C13.6815 5.20049 13.8439 5.36295 13.8439 5.56299H14.0439H14.2439C14.2439 5.14203 13.9024 4.80049 13.4814 4.80049V5.00049ZM14.0439 5.56299H13.8439V7.74474H14.0439H14.2439V5.56299H14.0439ZM14.0439 7.74474H13.8439C13.8439 8.6081 14.546 9.31091 15.4083 9.31349L15.4089 9.11349L15.4095 8.91349C14.7674 8.91157 14.2439 8.38738 14.2439 7.74474H14.0439ZM15.4089 9.11349V9.31349H17.4737V9.11349V8.91349H15.4089V9.11349ZM17.4737 9.11349V9.31349C17.6737 9.31349 17.8362 9.47594 17.8362 9.67599H18.0362H18.2362C18.2362 9.25503 17.8947 8.91349 17.4737 8.91349V9.11349ZM18.0362 9.67599H17.8362C17.8362 9.87603 17.6737 10.0385 17.4737 10.0385V10.2385V10.4385C17.8947 10.4385 18.2362 10.0969 18.2362 9.67599H18.0362Z" fill="#907FB1" mask="url(#path-8-outside-4_3334_23371)"/>
</svg>
