<svg width="61" height="60" viewBox="0 0 61 60" fill="none" xmlns="http://www.w3.org/2000/svg">
<g clip-path="url(#clip0_3394_26076)">
<g filter="url(#filter0_d_3394_26076)">
<path d="M49.25 17.5C48.5596 17.5 48 16.9404 48 16.25V12.5H44.25C43.5596 12.5 43 11.9404 43 11.25C43 10.5596 43.5596 10 44.25 10H48V6.25C48 5.55964 48.5596 5 49.25 5C49.9404 5 50.5 5.55964 50.5 6.25V10H54.25C54.9404 10 55.5 10.5596 55.5 11.25C55.5 11.9404 54.9404 12.5 54.25 12.5H50.5V16.25C50.5 16.9404 49.9404 17.5 49.25 17.5ZM28 41.825C30.6117 41.825 32.8192 40.9242 34.6225 39.1225C36.4258 37.3208 37.3275 35.1133 37.3275 32.5C37.3275 29.8867 36.4258 27.6792 34.6225 25.8775C32.8192 24.0758 30.6117 23.1742 28 23.1725C25.3883 23.1708 23.1808 24.0725 21.3775 25.8775C19.5742 27.6825 18.6725 29.89 18.6725 32.5C18.6725 35.11 19.5742 37.3175 21.3775 39.1225C23.1808 40.9275 25.3883 41.8292 28 41.8275M28 39.3275C26.0583 39.3275 24.435 38.675 23.13 37.37C21.825 36.065 21.1725 34.4417 21.1725 32.5C21.1725 30.5583 21.825 28.935 23.13 27.63C24.435 26.325 26.0583 25.6725 28 25.6725C29.9417 25.6725 31.565 26.325 32.87 27.63C34.175 28.935 34.8275 30.5583 34.8275 32.5C34.8275 34.4417 34.175 36.065 32.87 37.37C31.565 38.675 29.9417 39.3275 28 39.3275ZM9.54 50C8.38833 50 7.4275 49.615 6.6575 48.845C5.8875 48.075 5.50167 47.1133 5.5 45.96V19.04C5.5 17.8883 5.88583 16.9275 6.6575 16.1575C7.42917 15.3875 8.39 15.0017 9.54 15H16.4953C16.774 15 17.0401 14.8837 17.2294 14.679L21.2606 10.321C21.4499 10.1163 21.716 10 21.9947 10H36.04C36.5923 10 37.04 10.4477 37.04 11V17.4625C37.04 18.0148 37.4877 18.4625 38.04 18.4625H41.04C41.5923 18.4625 42.04 18.9102 42.04 19.4625V22.4625C42.04 23.0148 42.4877 23.4625 43.04 23.4625H49.5C50.0523 23.4625 50.5 23.9102 50.5 24.4625V45.9625C50.5 47.1125 50.115 48.0733 49.345 48.845C48.575 49.6167 47.6133 50.0017 46.46 50H9.54Z" fill="#FCFBFF"/>
<path fill-rule="evenodd" clip-rule="evenodd" d="M9.54 50C8.38833 50 7.4275 49.615 6.6575 48.845C5.8875 48.075 5.50167 47.1133 5.5 45.96V19.04C5.5 17.8883 5.88583 16.9275 6.6575 16.1575C7.42917 15.3875 8.39 15.0017 9.54 15H16.4953C16.774 15 17.0401 14.8837 17.2294 14.679L21.2606 10.321C21.4499 10.1163 21.716 10 21.9947 10H36.04C36.5923 10 37.04 10.4477 37.04 11V17.4625C37.04 18.0148 37.4877 18.4625 38.04 18.4625H41.04C41.5923 18.4625 42.04 18.9102 42.04 19.4625V22.4625C42.04 23.0148 42.4877 23.4625 43.04 23.4625H49.5C50.0523 23.4625 50.5 23.9102 50.5 24.4625V45.9625C50.5 47.1125 50.115 48.0733 49.345 48.845C48.575 49.6167 47.6133 50.0017 46.46 50H9.54ZM23.13 37.37C24.435 38.675 26.0583 39.3275 28 39.3275C29.9417 39.3275 31.565 38.675 32.87 37.37C34.175 36.065 34.8275 34.4417 34.8275 32.5C34.8275 30.5583 34.175 28.935 32.87 27.63C31.565 26.325 29.9417 25.6725 28 25.6725C26.0583 25.6725 24.435 26.325 23.13 27.63C21.825 28.935 21.1725 30.5583 21.1725 32.5C21.1725 34.4417 21.825 36.065 23.13 37.37Z" fill="#FCFBFF"/>
</g>
<path d="M49.25 17.5C48.5596 17.5 48 16.9404 48 16.25V12.5H44.25C43.5596 12.5 43 11.9404 43 11.25C43 10.5596 43.5596 10 44.25 10H48V6.25C48 5.55964 48.5596 5 49.25 5C49.9404 5 50.5 5.55964 50.5 6.25V10H54.25C54.9404 10 55.5 10.5596 55.5 11.25C55.5 11.9404 54.9404 12.5 54.25 12.5H50.5V16.25C50.5 16.9404 49.9404 17.5 49.25 17.5ZM28 41.825C30.6117 41.825 32.8192 40.9242 34.6225 39.1225C36.4258 37.3208 37.3275 35.1133 37.3275 32.5C37.3275 29.8867 36.4258 27.6792 34.6225 25.8775C32.8192 24.0758 30.6117 23.1742 28 23.1725C25.3883 23.1708 23.1808 24.0725 21.3775 25.8775C19.5742 27.6825 18.6725 29.89 18.6725 32.5C18.6725 35.11 19.5742 37.3175 21.3775 39.1225C23.1808 40.9275 25.3883 41.8292 28 41.8275M28 39.3275C26.0583 39.3275 24.435 38.675 23.13 37.37C21.825 36.065 21.1725 34.4417 21.1725 32.5C21.1725 30.5583 21.825 28.935 23.13 27.63C24.435 26.325 26.0583 25.6725 28 25.6725C29.9417 25.6725 31.565 26.325 32.87 27.63C34.175 28.935 34.8275 30.5583 34.8275 32.5C34.8275 34.4417 34.175 36.065 32.87 37.37C31.565 38.675 29.9417 39.3275 28 39.3275ZM9.54 50C8.38833 50 7.4275 49.615 6.6575 48.845C5.8875 48.075 5.50167 47.1133 5.5 45.96V19.04C5.5 17.8883 5.88583 16.9275 6.6575 16.1575C7.42917 15.3875 8.39 15.0017 9.54 15H16.4953C16.774 15 17.0401 14.8837 17.2294 14.679L21.2606 10.321C21.4499 10.1163 21.716 10 21.9947 10H36.04C36.5923 10 37.04 10.4477 37.04 11V17.4625C37.04 18.0148 37.4877 18.4625 38.04 18.4625H41.04C41.5923 18.4625 42.04 18.9102 42.04 19.4625V22.4625C42.04 23.0148 42.4877 23.4625 43.04 23.4625H49.5C50.0523 23.4625 50.5 23.9102 50.5 24.4625V45.9625C50.5 47.1125 50.115 48.0733 49.345 48.845C48.575 49.6167 47.6133 50.0017 46.46 50H9.54Z" fill="url(#paint0_linear_3394_26076)"/>
</g>
<defs>
<filter id="filter0_d_3394_26076" x="-4.5" y="-3" width="74" height="69" filterUnits="userSpaceOnUse" color-interpolation-filters="sRGB">
<feFlood flood-opacity="0" result="BackgroundImageFix"/>
<feColorMatrix in="SourceAlpha" type="matrix" values="0 0 0 0 0 0 0 0 0 0 0 0 0 0 0 0 0 0 127 0" result="hardAlpha"/>
<feOffset dx="2" dy="4"/>
<feGaussianBlur stdDeviation="6"/>
<feComposite in2="hardAlpha" operator="out"/>
<feColorMatrix type="matrix" values="0 0 0 0 0.345191 0 0 0 0 0.257969 0 0 0 0 0.4875 0 0 0 0.15 0"/>
<feBlend mode="normal" in2="BackgroundImageFix" result="effect1_dropShadow_3394_26076"/>
<feBlend mode="normal" in="SourceGraphic" in2="effect1_dropShadow_3394_26076" result="shape"/>
</filter>
<linearGradient id="paint0_linear_3394_26076" x1="4.48897" y1="-5.69672" x2="66.2528" y2="0.492127" gradientUnits="userSpaceOnUse">
<stop stop-color="#8A6EDA"/>
<stop offset="0.381042" stop-color="#B76EDA"/>
<stop offset="0.745969" stop-color="#DB75E0"/>
<stop offset="1" stop-color="#EBB1EB"/>
</linearGradient>
<clipPath id="clip0_3394_26076">
<rect width="60" height="60" fill="white" transform="translate(0.5)"/>
</clipPath>
</defs>
</svg>
