<svg width="32" height="32" viewBox="0 0 32 32" fill="none" xmlns="http://www.w3.org/2000/svg">
<g clip-path="url(#clip0_199_771)">
<path d="M25.3333 2.66667H19.76C19.2 1.12 17.7333 0 16 0C14.2667 0 12.8 1.12 12.24 2.66667H6.66667C5.2 2.66667 4 3.86667 4 5.33333V26.6667C4 28.1333 5.2 29.3333 6.66667 29.3333H25.3333C26.8 29.3333 28 28.1333 28 26.6667V5.33333C28 3.86667 26.8 2.66667 25.3333 2.66667ZM16 2.66667C16.7333 2.66667 17.3333 3.26667 17.3333 4C17.3333 4.73333 16.7333 5.33333 16 5.33333C15.2667 5.33333 14.6667 4.73333 14.6667 4C14.6667 3.26667 15.2667 2.66667 16 2.66667ZM25.3333 26.6667H6.66667V5.33333H9.33333V9.33333H22.6667V5.33333H25.3333V26.6667Z" fill="#A385E9"/>
</g>
<defs>
<clipPath id="clip0_199_771">
<rect width="32" height="32" fill="white"/>
</clipPath>
</defs>
</svg>
