<svg width="10" height="10" viewBox="0 0 10 10" fill="none" xmlns="http://www.w3.org/2000/svg">
<path d="M1.36714 9.58627C1.41981 9.39523 1.48303 9.20669 1.54988 9.02021C1.56334 8.98283 1.57706 8.94544 1.5913 8.90806C1.59669 8.894 1.60211 8.87994 1.60771 8.86596C1.61067 8.85848 1.61362 8.85127 1.61665 8.8439C1.62334 8.82757 1.61 8.85717 1.62072 8.83463C1.6667 8.73536 1.71865 8.63896 1.77629 8.54597C2.02819 8.14856 2.47372 7.9158 2.89756 7.7448C3.15392 7.64142 3.41255 7.54291 3.66476 7.42963C3.68517 7.41749 3.69999 7.39781 3.70601 7.37484C3.71203 7.35187 3.70878 7.32745 3.69695 7.30686C3.68454 7.28675 3.66486 7.27218 3.642 7.26619C3.61914 7.2602 3.59485 7.26323 3.57417 7.27467C3.34582 7.37733 3.11167 7.46653 2.87943 7.55985C2.65138 7.65144 2.42856 7.74622 2.22245 7.88178C2.01485 8.01835 1.8182 8.17399 1.67329 8.37778C1.56123 8.53881 1.47068 8.71378 1.40392 8.89826C1.3256 9.10856 1.25375 9.32248 1.19408 9.53857C1.16331 9.65005 1.33641 9.69761 1.36714 9.58627Z" fill="#B7B7B7"/>
<path d="M9.28287 9.52859C9.17894 9.15099 9.07085 8.75971 8.85368 8.42944C8.71658 8.22083 8.53328 8.06497 8.33002 7.92313C8.12854 7.78816 7.9125 7.67635 7.68597 7.5898C7.42961 7.48575 7.17005 7.38843 6.91773 7.27497C6.89702 7.26367 6.87278 7.26071 6.84997 7.2667C6.82715 7.27268 6.80749 7.28715 6.79499 7.30716C6.78315 7.32775 6.77989 7.35217 6.78591 7.37514C6.79194 7.39812 6.80676 7.4178 6.82718 7.42993C7.05011 7.53013 7.27816 7.61858 7.5051 7.70928C7.725 7.79714 7.94109 7.88574 8.14182 8.01308C8.33091 8.13305 8.52199 8.27328 8.6546 8.45606C8.72096 8.54934 8.77972 8.64779 8.83031 8.75048C8.84277 8.7752 8.85491 8.80005 8.86673 8.82502C8.86923 8.83037 8.87155 8.83583 8.8739 8.84121C8.86579 8.82252 8.87129 8.835 8.87289 8.83908C8.88647 8.87333 8.89907 8.90783 8.91159 8.94256C8.98558 9.15103 9.05111 9.36315 9.10973 9.57644C9.14035 9.68763 9.31352 9.64045 9.28279 9.52874L9.28287 9.52859Z" fill="#B7B7B7"/>
<path d="M6.44685 0.586711C6.02204 0.414478 5.56545 0.33461 5.1074 0.352413C4.63111 0.376868 4.16716 0.512402 3.75261 0.74818C3.4465 0.912917 3.18005 1.1425 2.97188 1.4209C2.75295 1.72055 2.60583 2.07085 2.50882 2.42755C2.3703 2.93779 2.33053 3.47275 2.34739 3.9997C2.35112 4.11489 2.53058 4.11541 2.52684 3.9997C2.50115 3.19119 2.60146 2.31637 3.05073 1.6223C3.22281 1.35954 3.45146 1.13858 3.71993 0.975561C4.09077 0.741641 4.50941 0.594021 4.94495 0.543605C5.4401 0.495926 5.93938 0.570126 6.39926 0.759732C6.4222 0.765908 6.44665 0.762793 6.46731 0.751064C6.48797 0.739335 6.50317 0.719937 6.50963 0.697073C6.51538 0.67415 6.51208 0.649891 6.50041 0.629339C6.48874 0.608786 6.4696 0.593519 6.44697 0.586711H6.44685Z" fill="#B7B7B7"/>
<path d="M8.04546 3.99979C8.06186 3.76376 8.063 3.52691 8.04886 3.29073C8.04305 3.0819 8.02384 2.87366 7.99136 2.66728C7.90601 2.17944 7.71149 1.69282 7.39988 1.30491C7.31339 1.2037 7.22168 1.10706 7.12513 1.01539C7.04118 0.926915 6.94629 0.849501 6.84276 0.78502C6.74338 0.725689 6.65302 0.880765 6.75221 0.939984C6.83893 0.993888 6.91842 1.05864 6.98875 1.13267C7.06969 1.21421 7.15452 1.29261 7.22963 1.37968C7.37505 1.55377 7.49503 1.74762 7.58599 1.95542C7.68475 2.1748 7.75806 2.40478 7.80447 2.64085C7.83927 2.83425 7.85983 3.02994 7.86601 3.22635C7.88333 3.48388 7.88323 3.74228 7.86571 3.99979C7.86589 4.02353 7.87541 4.04624 7.89219 4.06303C7.90898 4.07982 7.93169 4.08933 7.95543 4.08952C7.97908 4.08905 8.00163 4.07944 8.01836 4.06272C8.03509 4.04599 8.04469 4.02344 8.04516 3.99979H8.04546Z" fill="#B7B7B7"/>
<path d="M2.97565 7.51123C2.7289 7.5035 2.48055 7.39631 2.33583 7.19013C2.27547 7.10654 2.23606 7.00969 2.2209 6.90771C2.21307 6.7807 2.21919 6.65322 2.23915 6.52754C2.25511 6.38454 2.27776 6.2421 2.30749 6.10134C2.32906 5.99901 2.35919 5.89889 2.3817 5.79683C2.4298 5.56747 2.46342 5.3353 2.48238 5.10172C2.51584 4.73534 2.52698 4.36738 2.52724 3.99977C2.52724 3.88428 2.34779 3.8841 2.34779 3.99977C2.34779 4.3423 2.33777 4.68516 2.30951 5.02661C2.29241 5.26636 2.25945 5.50472 2.21084 5.74012C2.18796 5.84525 2.1569 5.94824 2.13465 6.05356C2.10265 6.20535 2.07925 6.35908 2.06153 6.51314C2.04034 6.64527 2.03387 6.77933 2.04223 6.91287C2.05587 7.0356 2.09796 7.15345 2.16516 7.25705C2.34349 7.5318 2.65323 7.68052 2.97587 7.69072C3.09139 7.69446 3.09128 7.51501 2.97587 7.51127L2.97565 7.51123Z" fill="#B7B7B7"/>
<path d="M7.86596 3.99974C7.87445 4.5947 7.93475 5.19519 8.09873 5.76888C8.15978 5.9825 8.24599 6.18939 8.2894 6.40776C8.31766 6.54983 8.34062 6.72715 8.31183 6.8574C8.28523 6.97233 8.231 7.07904 8.15384 7.16827C8.061 7.281 7.9398 7.36696 7.80271 7.41729C7.64659 7.47097 7.47675 7.46927 7.32174 7.41247C7.31038 7.40934 7.29851 7.40847 7.28681 7.40993C7.27511 7.41138 7.26382 7.41513 7.25357 7.42095C7.24332 7.42677 7.23431 7.43455 7.22707 7.44385C7.21983 7.45315 7.21449 7.46378 7.21136 7.47515C7.20823 7.48651 7.20736 7.49838 7.20882 7.51008C7.21027 7.52177 7.21401 7.53307 7.21984 7.54332C7.22566 7.55357 7.23344 7.56257 7.24274 7.56982C7.25204 7.57706 7.26267 7.5824 7.27403 7.58553C7.42451 7.63653 7.5857 7.64732 7.74163 7.61683C7.89755 7.58634 8.04281 7.51564 8.16299 7.41172C8.27183 7.32162 8.36001 7.20916 8.42156 7.08198C8.48248 6.95279 8.50943 6.81019 8.49988 6.66767C8.48987 6.47553 8.45446 6.28557 8.39456 6.10273C8.36671 6.01607 8.33572 5.9305 8.30858 5.84361C8.24152 5.62827 8.18832 5.40885 8.14931 5.1867C8.0828 4.79449 8.04806 4.39755 8.04542 3.99974C8.04377 3.88437 7.86432 3.88403 7.86596 3.99974Z" fill="#B7B7B7"/>
<path d="M2.96538 3.77727C3.05354 3.78926 3.13632 3.82738 3.20268 3.88664C3.28792 3.96471 3.16082 4.09111 3.07573 4.01359C2.98679 3.93239 2.82499 3.93404 2.74565 4.00871C2.7374 4.01644 2.72962 4.0247 2.72222 4.03313C2.71167 4.04501 2.72574 4.02558 2.71538 4.04192C2.70508 4.05747 2.69592 4.07383 2.68804 4.09074C2.66664 4.14274 2.65372 4.19781 2.64897 4.25383C2.63486 4.37852 2.64593 4.50479 2.68218 4.62492C2.71491 4.73488 2.76477 4.8392 2.82866 4.93449C2.89876 5.03484 3.01389 5.14681 3.148 5.12785C3.17086 5.12223 3.1949 5.126 3.21538 5.13762C3.23583 5.14922 3.25144 5.16789 3.25835 5.19035C3.26451 5.21327 3.26126 5.23806 3.24956 5.25871C3.23789 5.27925 3.21854 5.29418 3.19585 5.3007C2.96664 5.33308 2.78809 5.19536 2.66557 5.01359C2.49443 4.75967 2.41761 4.41841 2.49077 4.11906C2.52109 3.9951 2.58889 3.87864 2.70659 3.82024C2.78643 3.78067 2.87708 3.76533 2.96538 3.77727Z" fill="#B7B7B7"/>
<path d="M7.41647 4.01377C7.45928 3.97766 7.51251 3.95619 7.56839 3.95248C7.62427 3.94878 7.67987 3.96303 7.72707 3.99317C7.74082 4.00313 7.75346 4.01452 7.76479 4.02716C7.76853 4.0309 7.7719 4.03527 7.77519 4.03942C7.77448 4.03852 7.76692 4.0282 7.77238 4.03621C7.77732 4.04368 7.78221 4.05079 7.78666 4.05841C7.81242 4.10601 7.82953 4.15779 7.83721 4.21136C7.87878 4.44229 7.81478 4.6899 7.69432 4.88804C7.62329 5.00517 7.49804 5.14974 7.34416 5.12806C7.32125 5.12253 7.29709 5.12593 7.2766 5.13757C7.2561 5.14921 7.2408 5.16821 7.2338 5.19072C7.22765 5.21366 7.23077 5.23811 7.24249 5.25877C7.25422 5.27943 7.27361 5.29464 7.29646 5.30112C7.67077 5.35402 7.88929 4.97365 7.98436 4.66724C8.03095 4.50795 8.04059 4.34013 8.01255 4.17655C7.99154 4.04649 7.93688 3.92072 7.82607 3.84382C7.74431 3.79116 7.64751 3.76684 7.55057 3.77461C7.45364 3.78238 7.36194 3.8218 7.28962 3.88681C7.20419 3.96487 7.33134 4.0915 7.41673 4.0137L7.41647 4.01377Z" fill="#B7B7B7"/>
<path d="M7.24667 5.03157C7.21103 5.1812 7.16271 5.32754 7.10224 5.46898C7.11327 5.44064 7.10101 5.47148 7.09851 5.4772C7.09469 5.48558 7.0908 5.49392 7.08684 5.50222C7.07611 5.52465 7.06482 5.54674 7.05319 5.56873C7.02729 5.61766 6.99958 5.6657 6.97068 5.713C6.82004 5.96905 6.62709 6.19773 6.40003 6.38931C6.27731 6.49394 6.13226 6.56908 5.976 6.60895C5.86346 6.63478 5.91109 6.80784 6.0237 6.78201C6.34111 6.70914 6.6049 6.47597 6.81183 6.2352C6.98967 6.03458 7.13835 5.80988 7.25347 5.56775C7.26039 5.55242 7.26704 5.53687 7.27343 5.52132C7.27534 5.51668 7.28529 5.49242 7.28009 5.50457C7.27321 5.52072 7.28499 5.49425 7.2851 5.49399C7.29082 5.48098 7.29631 5.46782 7.30181 5.45459C7.31076 5.43313 7.31928 5.41148 7.32738 5.38965C7.36622 5.28878 7.39712 5.18503 7.4198 5.07934C7.42553 5.05642 7.42222 5.03217 7.41056 5.01162C7.39889 4.99108 7.37976 4.97581 7.35714 4.96898C7.3342 4.96289 7.30978 4.96603 7.28914 4.97775C7.26849 4.98947 7.25327 5.00882 7.24674 5.03164L7.24667 5.03157Z" fill="#B7B7B7"/>
<path d="M4.86393 5.71474C4.98884 5.77927 5.12795 5.81141 5.26851 5.80821C5.4117 5.80731 5.55833 5.77991 5.67325 5.69033C5.68996 5.67344 5.69933 5.65064 5.69933 5.62689C5.69933 5.60313 5.68996 5.58033 5.67325 5.56344C5.65614 5.54716 5.63343 5.53809 5.60981 5.53809C5.58619 5.53809 5.56348 5.54716 5.54637 5.56344C5.57254 5.54311 5.54835 5.56135 5.54169 5.56561C5.53339 5.57092 5.52483 5.57586 5.51612 5.58057C5.51077 5.58337 5.48173 5.59612 5.50251 5.58778C5.4909 5.59247 5.47915 5.59674 5.46726 5.60061C5.39869 5.62198 5.32698 5.63155 5.2552 5.62891C5.18674 5.63035 5.11847 5.62116 5.05284 5.60165C5.03994 5.59791 5.02734 5.5932 5.01459 5.58883C5.0104 5.58737 5.0064 5.58554 5.00225 5.58401C5.02468 5.59223 5.00573 5.58558 5.00136 5.58352C4.98555 5.57604 4.96994 5.56824 4.95451 5.56012C4.93384 5.54861 4.90953 5.54554 4.88666 5.55154C4.86378 5.55754 4.8441 5.57214 4.83174 5.59231C4.81998 5.61292 4.81677 5.63731 4.82279 5.66026C4.82881 5.68321 4.84357 5.70289 4.86393 5.71508V5.71474Z" fill="#B7B7B7"/>
<path d="M5.23077 4.75113C5.24983 4.81988 5.26508 4.88962 5.27645 4.96005L5.27324 4.93619C5.2746 4.94574 5.27487 4.95541 5.27402 4.96502L5.27724 4.94117C5.2766 4.94558 5.27553 4.94993 5.27406 4.95414L5.28311 4.93272C5.28183 4.93562 5.28031 4.93841 5.27855 4.94105L5.29257 4.92289C5.29055 4.92538 5.28825 4.92763 5.28573 4.92961L5.3039 4.9156C5.29859 4.91891 5.29306 4.92183 5.28733 4.92434L5.30879 4.9153C5.29986 4.91912 5.29049 4.92185 5.2809 4.92345L5.30476 4.92023C5.29606 4.92126 5.28728 4.92126 5.27859 4.92023L5.30244 4.92345C5.29257 4.92206 5.28289 4.91971 5.27302 4.91832C5.24964 4.91288 5.22508 4.9161 5.20389 4.92737C5.19371 4.93332 5.18481 4.94121 5.17768 4.9506C5.17055 4.95999 5.16535 4.97069 5.16236 4.98209C5.15937 4.99349 5.15865 5.00537 5.16026 5.01705C5.16186 5.02873 5.16575 5.03997 5.1717 5.05015C5.1774 5.06027 5.18508 5.06913 5.1943 5.0762C5.20351 5.08326 5.21406 5.08839 5.22531 5.09127C5.24625 5.09408 5.26644 5.09946 5.28782 5.10039C5.31912 5.10061 5.35002 5.09336 5.37796 5.07923C5.39533 5.07152 5.41075 5.05998 5.42305 5.04548C5.43535 5.03098 5.44421 5.01389 5.44899 4.99549C5.45526 4.96506 5.45491 4.93365 5.44798 4.90337C5.43677 4.83608 5.42106 4.76934 5.40375 4.70336C5.40062 4.69199 5.39528 4.68136 5.38804 4.67206C5.3808 4.66276 5.37179 4.65498 5.36154 4.64916C5.35129 4.64334 5.34 4.63959 5.3283 4.63814C5.3166 4.63668 5.30474 4.63755 5.29337 4.64068C5.28201 4.64381 5.27137 4.64915 5.26207 4.65639C5.25277 4.66364 5.24499 4.67264 5.23917 4.68289C5.23335 4.69314 5.22961 4.70443 5.22815 4.71613C5.2267 4.72783 5.22756 4.7397 5.23069 4.75106L5.23077 4.75113Z" fill="#B7B7B7"/>
<path d="M4.11622 4.1675C4.08257 4.27738 4.10448 4.53014 4.31257 4.55157C4.58765 4.54992 4.60227 4.2444 4.5097 4.10073C4.434 3.98311 4.21095 3.93421 4.11622 4.1675Z" fill="#B7B7B7"/>
<path d="M6.37574 4.1675C6.40957 4.27738 6.38755 4.53014 6.17942 4.55157C5.90434 4.54992 5.88968 4.2444 5.98229 4.10073C6.05811 3.98311 6.28104 3.93421 6.37574 4.1675Z" fill="#B7B7B7"/>
<path d="M6.03341 2.21117C6.08026 2.3886 6.13024 2.56548 6.18957 2.73917C6.23158 2.87214 6.2875 3.00031 6.35639 3.12155C6.50312 3.36816 6.68567 3.5916 6.89807 3.78455C7.01517 3.88942 7.14605 3.98685 7.29762 4.03466C7.40798 4.06954 7.45523 3.89634 7.34532 3.86164C7.23358 3.81978 7.13122 3.75625 7.0441 3.67471C6.93464 3.57763 6.83361 3.47143 6.7421 3.35727C6.58499 3.17219 6.46148 2.96106 6.37714 2.73341C6.31108 2.54648 6.25706 2.35526 6.20644 2.16362C6.17698 2.05206 6.00384 2.09939 6.03341 2.21132V2.21117Z" fill="#B7B7B7"/>
<path d="M4.5479 2.50708C4.15333 2.89451 3.75263 3.27775 3.32471 3.62866C3.30805 3.64557 3.29871 3.66836 3.29871 3.6921C3.29871 3.71584 3.30805 3.73863 3.32471 3.75554C3.34179 3.77188 3.36452 3.781 3.38815 3.781C3.41179 3.781 3.43452 3.77188 3.4516 3.75554C3.87955 3.40479 4.28022 3.02155 4.67479 2.63397C4.75733 2.55295 4.63041 2.42607 4.5479 2.50708Z" fill="#B7B7B7"/>
<path d="M6.04793 2.10084C5.86266 2.34532 5.6417 2.56056 5.39245 2.73935C5.14184 2.91479 4.8638 3.04731 4.5697 3.1315C4.45893 3.16342 4.50614 3.33663 4.6174 3.30452C5.09814 3.16557 5.53581 2.90703 5.88953 2.55306C5.99147 2.45074 6.08677 2.342 6.17482 2.22751C6.19094 2.21031 6.19991 2.18763 6.19991 2.16406C6.19991 2.14049 6.19094 2.11781 6.17482 2.10062C6.15792 2.08394 6.13513 2.07458 6.11138 2.07458C6.08763 2.07458 6.06484 2.08394 6.04793 2.10062V2.10084Z" fill="#B7B7B7"/>
<path d="M7.24381 7.40993C7.09509 7.35849 6.94753 7.30342 6.80008 7.24842C6.72792 7.22151 6.65566 7.1947 6.58417 7.16595C6.5789 7.16386 6.57363 7.16165 6.56832 7.15952C6.55109 7.15264 6.57012 7.16031 6.57057 7.16053C6.55886 7.15507 6.54697 7.15014 6.53531 7.14464C6.48956 7.12498 6.4502 7.09295 6.42166 7.05215C6.39261 7.00584 6.37617 6.95274 6.37395 6.89812C6.36838 6.81587 6.36431 6.73362 6.35694 6.65137C6.35635 6.62776 6.3467 6.60529 6.33 6.58859C6.3133 6.57189 6.29083 6.56224 6.26722 6.56165C6.24347 6.56182 6.22075 6.57133 6.20397 6.58812C6.18718 6.60491 6.17767 6.62763 6.17749 6.65137C6.1899 6.7897 6.17771 6.9425 6.23159 7.07293C6.27763 7.18207 6.36514 7.26844 6.47486 7.31306C6.63393 7.38264 6.79933 7.4392 6.96233 7.49876C7.04009 7.52713 7.11786 7.55574 7.1961 7.5828C7.30546 7.62064 7.35245 7.44735 7.24381 7.40978V7.40993Z" fill="#B7B7B7"/>
<path d="M3.39186 7.58885C4.30325 8.125 5.4492 8.22583 6.44923 7.89582C6.71102 7.81078 6.96158 7.69443 7.19546 7.54929C7.29303 7.48802 7.20293 7.33268 7.10487 7.39433C6.25528 7.92767 5.17045 8.03852 4.21644 7.75181C3.95994 7.67565 3.71351 7.56896 3.48244 7.43403C3.3827 7.37534 3.29226 7.53037 3.39186 7.58896V7.58885Z" fill="#B7B7B7"/>
<path d="M3.3069 8.50378C3.50104 8.60807 3.70733 8.68796 3.92107 8.74163C4.16993 8.80918 4.4258 8.84755 4.68352 8.85596C4.79904 8.85917 4.79897 8.67972 4.68352 8.67651C4.44189 8.66846 4.20202 8.63223 3.96878 8.56857C3.76998 8.51922 3.57808 8.4454 3.39745 8.34882C3.29651 8.29244 3.20592 8.44741 3.3069 8.50378Z" fill="#B7B7B7"/>
<path d="M4.597 8.74238C4.56766 8.94427 4.53984 9.14645 4.5121 9.34863C4.50658 9.37154 4.50999 9.3957 4.52162 9.41619C4.53326 9.43669 4.55226 9.45199 4.57476 9.45899C4.5977 9.46515 4.62214 9.46203 4.64279 9.4503C4.66345 9.43857 4.67865 9.41919 4.68512 9.39634C4.71286 9.19415 4.74071 8.99201 4.77003 8.79009C4.77557 8.76717 4.77218 8.74301 4.76054 8.7225C4.7489 8.702 4.72988 8.68671 4.70737 8.67972C4.68443 8.67357 4.65999 8.67669 4.63933 8.68842C4.61868 8.70014 4.60347 8.71953 4.597 8.74238Z" fill="#B7B7B7"/>
<path d="M3.38584 6.12306C3.32123 5.94692 3.26877 5.76656 3.22882 5.58324C3.19218 5.4122 3.16527 5.23929 3.13382 5.06732C3.12373 5.01233 3.14571 4.93064 3.21757 4.94155C3.29649 4.95352 3.32617 5.03464 3.3495 5.09936C3.40984 5.26644 3.4654 5.43482 3.5229 5.60291C3.55281 5.69013 3.58481 5.77653 3.62145 5.86117C3.65838 5.94713 3.71259 6.02457 3.78071 6.0887C3.90474 6.21034 4.03942 6.32062 4.18313 6.41822C4.26194 6.47086 4.3443 6.51725 4.42498 6.56679C4.48816 6.60556 4.57026 6.6524 4.60473 6.71106C4.64638 6.78459 4.66785 6.86782 4.66698 6.95231C4.66773 7.0506 4.64017 7.14365 4.6321 7.24082C4.59269 7.71285 4.57419 8.18668 4.51848 8.65722C4.51861 8.68098 4.52811 8.70373 4.5449 8.72053C4.5617 8.73732 4.58445 8.74682 4.60821 8.74695C4.63183 8.7464 4.65434 8.73677 4.67104 8.72006C4.68775 8.70335 4.69738 8.68084 4.69794 8.65722C4.75102 8.20859 4.77058 7.75697 4.80617 7.30677C4.81458 7.20071 4.84101 7.09718 4.84565 6.99075C4.85099 6.89019 4.83415 6.7897 4.79633 6.69637C4.75958 6.60813 4.6976 6.5327 4.61815 6.47953C4.53624 6.41994 4.44663 6.37231 4.36064 6.319C4.20603 6.2224 4.06187 6.11002 3.93048 5.98365C3.89644 5.95434 3.86515 5.92198 3.83701 5.88697C3.81163 5.84906 3.79056 5.80843 3.77421 5.76584C3.73491 5.67316 3.7028 5.57734 3.6711 5.4817C3.6127 5.30599 3.56178 5.12302 3.48417 4.9543C3.39496 4.7599 3.11364 4.67836 2.99045 4.88779C2.96183 4.93463 2.94746 4.98879 2.9491 5.04366C2.95622 5.10419 2.96656 5.1643 2.98006 5.22374C2.99815 5.32625 3.01542 5.42895 3.0352 5.53117C3.07745 5.74858 3.1367 5.96233 3.21241 6.17046C3.21927 6.19307 3.23455 6.21218 3.25509 6.22384C3.27564 6.23551 3.29988 6.23883 3.32281 6.23312C3.34564 6.22662 3.365 6.21141 3.37672 6.19076C3.38844 6.17012 3.39158 6.1457 3.38547 6.12276L3.38584 6.12306Z" fill="#B7B7B7"/>
<path d="M3.28149 4.71567C3.2441 4.57076 3.16712 4.39714 2.9876 4.4112C2.94447 4.41327 2.90228 4.42442 2.86376 4.44391C2.82524 4.4634 2.79127 4.49081 2.76407 4.52433C2.72085 4.58829 2.69606 4.66291 2.6924 4.74001C2.68331 4.93099 2.68687 5.12236 2.70305 5.31287C2.71427 5.53102 2.72844 5.74932 2.74982 5.96675C2.75419 6.0303 2.76278 6.09348 2.77554 6.15589C2.81486 6.31718 2.87905 6.47138 2.9658 6.61293C3.1543 6.92435 3.42729 7.17091 3.69707 7.41018C3.78305 7.4866 3.91058 7.36012 3.82399 7.28329C3.60839 7.0921 3.38762 6.89822 3.21621 6.66486C3.1298 6.55043 3.05895 6.42506 3.0055 6.29201C2.97957 6.22645 2.95913 6.15885 2.94441 6.0899C2.94281 6.08197 2.94161 6.07397 2.9403 6.06597C2.93963 6.06182 2.93731 6.04436 2.93955 6.061C2.94191 6.0785 2.93858 6.05278 2.93802 6.04833C2.91667 5.8706 2.90538 5.69133 2.89409 5.51278C2.88108 5.30715 2.86949 5.10123 2.86819 4.89527C2.86762 4.81033 2.8619 4.72259 2.89679 4.65088C2.91903 4.6052 2.99077 4.56923 3.03739 4.60179C3.07852 4.63047 3.09508 4.7116 3.10843 4.76338C3.13725 4.87512 3.31035 4.82775 3.28149 4.71567Z" fill="#B7B7B7"/>
<path d="M3.54078 8.45185C3.58475 8.26589 3.62396 8.07881 3.66434 7.89203C3.68427 7.79987 3.7043 7.70772 3.72528 7.61579C3.73996 7.53103 3.76514 7.44843 3.80024 7.3699C3.85295 7.26739 3.69817 7.1765 3.64527 7.27935C3.55929 7.44662 3.53398 7.64708 3.49457 7.82915C3.45303 8.02097 3.41292 8.21314 3.36776 8.40414C3.34118 8.5163 3.51416 8.56438 3.54078 8.45185Z" fill="#B7B7B7"/>
</svg>
