<svg width="22" height="24" viewBox="0 0 22 24" fill="none" xmlns="http://www.w3.org/2000/svg">
<path d="M12.0019 0C17.1618 0 21.3357 4.17316 21.3359 9.33301C21.3359 13.053 19.1486 16.2664 16.0019 17.7598V24H6.66891V20H5.33591C3.86924 20 2.66891 18.7997 2.66891 17.333V13.333H0.668914C0.122303 13.3329 -0.197604 12.7066 0.135711 12.2666L2.69528 8.85352C2.93527 3.92032 7.00211 0.000217602 12.0019 0ZM12 12.0703C10.71 10.1023 8.50797 8.7998 5.99997 8.7998C5.99997 11.9918 8.01633 14.6923 10.8183 15.6943C11.1962 15.8323 11.5921 15.934 12 16C12.4078 15.928 12.7977 15.8263 13.1816 15.6943C15.9836 14.6923 18 11.9918 18 8.7998C15.492 8.7998 13.29 10.1023 12 12.0703ZM12.0361 4C10.7521 5.284 10.0442 6.91612 9.90622 8.57812C10.6741 8.98611 11.382 9.51432 12 10.1562C12.6179 9.52032 13.3258 8.99211 14.0937 8.57812C13.9857 6.90415 13.3081 5.27199 12.0361 4ZM10.1582 10.1445C10.1701 10.1524 10.1827 10.1597 10.1943 10.168C10.1843 10.1608 10.1734 10.1545 10.1631 10.1475C10.1615 10.1464 10.1597 10.1456 10.1582 10.1445Z" fill="white"/>
</svg>
