<svg width="24" height="16" viewBox="0 0 24 16" fill="none" xmlns="http://www.w3.org/2000/svg">
<g clip-path="url(#clip0_9_1700)">
<path d="M0 2C0 0.895431 0.895431 0 2 0H22C23.1046 0 24 0.895431 24 2V14C24 15.1046 23.1046 16 22 16H2C0.89543 16 0 15.1046 0 14V2Z" fill="#FCE0CF"/>
<path d="M14.2902 7.99111C14.292 7.56126 14.1308 7.13077 13.8065 6.80637C13.4814 6.4813 13.0498 6.32026 12.6191 6.32285C12.617 6.32285 12.615 6.32272 12.6129 6.32272C11.6775 6.32272 10.9356 7.06448 10.9356 8.00013C10.9356 8.92653 11.6867 9.6774 12.6129 9.6774C13.5485 9.6774 14.2904 8.9355 14.2904 8.00013C14.2904 7.99705 14.2902 7.99415 14.2902 7.99111Z" fill="#F26E21"/>
<path d="M10.6237 8.70967C10.373 8.96065 10.1416 9.0587 9.89233 9.06401C9.28515 9.05856 8.83874 8.6089 8.83874 7.96782C8.83874 7.64511 8.96092 7.38062 9.15448 7.15467C9.336 6.98234 9.56984 6.871 9.83875 6.871C10.129 6.871 10.3549 6.96776 10.6128 7.22582V6.48392C10.355 6.35496 10.129 6.29041 9.83875 6.29041C9.4287 6.31971 9.04207 6.48539 8.7455 6.74556C8.66003 6.82246 8.57813 6.90736 8.50867 7.00452C8.29205 7.28529 8.16112 7.62909 8.16112 8.0002C8.16112 8.93553 8.90329 9.64518 9.83871 9.64518C9.84326 9.64518 9.84776 9.64478 9.85218 9.64473C9.85847 9.64482 9.86467 9.64518 9.87091 9.64518C10.1289 9.64518 10.3549 9.58081 10.6452 9.45175L10.6237 8.70967C10.6128 8.72056 10.6345 8.73068 10.6237 8.74099V8.70967Z" fill="#2B2B2B"/>
<path d="M16.408 6.75237L15.6774 8.54844L14.8387 6.41927H14.1614L15.4839 9.67733H15.8387L17.2258 6.41927H16.5485L16.408 6.75237Z" fill="#2B2B2B"/>
<path d="M17.4839 7.83865V9.5807H19.226H19.2581V9.06439H18.7097H18.1291V8.48389V8.19366H19.226V7.64509H18.1291V6.96774H19.2581V6.41927H17.4839V7.83865Z" fill="#2B2B2B"/>
<path d="M2.90339 6.41927H2V9.5807H2.90334C3.38714 9.5807 3.74192 9.45156 4.03224 9.22574C4.38702 8.93543 4.61292 8.48393 4.61292 8.00014C4.61296 7.06441 3.93543 6.41927 2.90339 6.41927ZM3.64525 8.8065C3.45169 8.96772 3.19362 9.06439 2.8065 9.06439H2.61294V6.9677H2.7742C3.16132 6.9677 3.41939 7.0322 3.61299 7.22567C3.83876 7.4191 3.96786 7.7096 3.96786 8.00001C4.00012 8.29033 3.87111 8.61276 3.64525 8.8065Z" fill="#2B2B2B"/>
<path d="M5.51635 6.419H4.90346V9.58035H5.51635V6.419Z" fill="#2B2B2B"/>
<path d="M7.06456 7.64512C6.67753 7.51611 6.58064 7.41927 6.58064 7.25805C6.58064 7.06449 6.7742 6.90322 7.03226 6.90322C7.22582 6.90322 7.38709 6.96777 7.5484 7.16133L7.87106 6.742C7.6129 6.5161 7.29046 6.38722 6.9356 6.38722C6.38708 6.38722 5.93545 6.77434 5.93545 7.2903C5.93545 7.74202 6.12919 7.93553 6.70974 8.16135C6.9678 8.25797 7.06461 8.29036 7.12925 8.35486C7.25803 8.41928 7.32267 8.54842 7.32267 8.6773C7.32267 8.93541 7.12925 9.12902 6.83875 9.12902C6.54816 9.12902 6.29032 8.96775 6.16126 8.70964L5.77414 9.09676C6.06459 9.51609 6.41942 9.70961 6.87104 9.70961C7.51614 9.70961 7.96755 9.29028 7.96755 8.6773C7.96764 8.12905 7.77426 7.90323 7.06456 7.64512Z" fill="#2B2B2B"/>
<path d="M21.0001 8.25794C21.4838 8.16131 21.742 7.83861 21.742 7.35486C21.742 6.77431 21.3226 6.41927 20.613 6.41927H19.6774V9.5807H20.2903V8.32249H20.3872L21.258 9.5807H22L21.0001 8.25794ZM20.4838 7.87082H20.2904V6.90319H20.4838C20.8709 6.90319 21.0968 7.06441 21.0968 7.38721C21.0968 7.70964 20.871 7.87082 20.4838 7.87082Z" fill="#2B2B2B"/>
</g>
<defs>
<clipPath id="clip0_9_1700">
<rect width="24" height="16" fill="white"/>
</clipPath>
</defs>
</svg>
