<svg width="32" height="32" viewBox="0 0 32 32" fill="none" xmlns="http://www.w3.org/2000/svg">
<path fill-rule="evenodd" clip-rule="evenodd" d="M22.5637 13.6C22.0117 13.6 21.5637 13.152 21.5637 12.6V9.73735C21.5637 6.94268 19.2903 4.66935 16.4957 4.66935H16.4743C15.1237 4.66935 13.8583 5.18935 12.9023 6.13735C11.9397 7.08935 11.4077 8.36001 11.4023 9.71468V12.6C11.4023 13.152 10.9543 13.6 10.4023 13.6C9.85034 13.6 9.40234 13.152 9.40234 12.6V9.73735C9.41034 7.81735 10.153 6.04535 11.493 4.71735C12.8343 3.38801 14.605 2.61868 16.4997 2.66935C20.393 2.66935 23.5637 5.84001 23.5637 9.73735V12.6C23.5637 13.152 23.1157 13.6 22.5637 13.6" fill="#907FB1"/>
<path fill-rule="evenodd" clip-rule="evenodd" d="M11.3893 13.5051C9.15192 13.5051 7.33325 15.3237 7.33325 17.5611V23.2797C7.33325 25.5171 9.15192 27.3357 11.3893 27.3357H21.5773C23.8133 27.3357 25.6333 25.5171 25.6333 23.2797V17.5611C25.6333 15.3237 23.8133 13.5051 21.5773 13.5051H11.3893ZM21.5773 29.3357H11.3893C8.04925 29.3357 5.33325 26.6197 5.33325 23.2797V17.5611C5.33325 14.2211 8.04925 11.5051 11.3893 11.5051H21.5773C24.9173 11.5051 27.6333 14.2211 27.6333 17.5611V23.2797C27.6333 26.6197 24.9173 29.3357 21.5773 29.3357V29.3357Z" fill="#907FB1"/>
<path fill-rule="evenodd" clip-rule="evenodd" d="M16.4829 22.9008C15.9309 22.9008 15.4829 22.4528 15.4829 21.9008V18.9395C15.4829 18.3875 15.9309 17.9395 16.4829 17.9395C17.0349 17.9395 17.4829 18.3875 17.4829 18.9395V21.9008C17.4829 22.4528 17.0349 22.9008 16.4829 22.9008" fill="#907FB1"/>
</svg>
