<svg width="44" height="44" viewBox="0 0 44 44" fill="none" xmlns="http://www.w3.org/2000/svg">
<rect width="44" height="44" rx="12" fill="url(#paint0_linear_3334_38219)"/>
<path d="M21.0625 31.375V25.75H22.9375V31.375H21.0625Z" fill="url(#paint1_linear_3334_38219)"/>
<path fill-rule="evenodd" clip-rule="evenodd" d="M23.875 15.4375C23.875 14.6916 24.1713 13.9762 24.6988 13.4488C25.2262 12.9213 25.9416 12.625 26.6875 12.625H30.4375C31.1834 12.625 31.8988 12.9213 32.4262 13.4488C32.9537 13.9762 33.25 14.6916 33.25 15.4375V17.3125C33.25 18.5557 32.7561 19.748 31.8771 20.6271C30.998 21.5061 29.8057 22 28.5625 22C27.3193 22 26.127 21.5061 25.2479 20.6271C24.3689 19.748 23.875 18.5557 23.875 17.3125V15.4375ZM26.6875 14.5C26.4389 14.5 26.2004 14.5988 26.0246 14.7746C25.8488 14.9504 25.75 15.1889 25.75 15.4375V17.3125C25.75 18.0584 26.0463 18.7738 26.5738 19.3012C27.1012 19.8287 27.8166 20.125 28.5625 20.125C29.3084 20.125 30.0238 19.8287 30.5512 19.3012C31.0787 18.7738 31.375 18.0584 31.375 17.3125V15.4375C31.375 15.1889 31.2762 14.9504 31.1004 14.7746C30.9246 14.5988 30.6861 14.5 30.4375 14.5H26.6875Z" fill="url(#paint2_linear_3334_38219)"/>
<path fill-rule="evenodd" clip-rule="evenodd" d="M10.75 15.4375C10.75 14.6916 11.0463 13.9762 11.5738 13.4488C12.1012 12.9213 12.8166 12.625 13.5625 12.625H17.3125C18.0584 12.625 18.7738 12.9213 19.3012 13.4488C19.8287 13.9762 20.125 14.6916 20.125 15.4375V17.3125C20.125 18.5557 19.6311 19.748 18.7521 20.6271C17.873 21.5061 16.6807 22 15.4375 22C14.1943 22 13.002 21.5061 12.1229 20.6271C11.2439 19.748 10.75 18.5557 10.75 17.3125V15.4375ZM13.5625 14.5C13.3139 14.5 13.0754 14.5988 12.8996 14.7746C12.7238 14.9504 12.625 15.1889 12.625 15.4375V17.3125C12.625 18.0584 12.9213 18.7738 13.4488 19.3012C13.9762 19.8287 14.6916 20.125 15.4375 20.125C16.1834 20.125 16.8988 19.8287 17.4262 19.3012C17.9537 18.7738 18.25 18.0584 18.25 17.3125V15.4375C18.25 15.1889 18.1512 14.9504 17.9754 14.7746C17.7996 14.5988 17.5611 14.5 17.3125 14.5H13.5625Z" fill="url(#paint3_linear_3334_38219)"/>
<path d="M14.5 33.25C14.5 32.2554 14.8951 31.3016 15.5983 30.5984C16.3016 29.8951 17.2554 29.5 18.25 29.5H25.75C26.7446 29.5 27.6984 29.8951 28.4016 30.5984C29.1049 31.3016 29.5 32.2554 29.5 33.25V34.195C29.5 34.4436 29.4012 34.6821 29.2254 34.8579C29.0496 35.0337 28.8111 35.1325 28.5625 35.1325H15.4375C15.1889 35.1325 14.9504 35.0337 14.7746 34.8579C14.5988 34.6821 14.5 34.4436 14.5 34.195V33.25Z" fill="url(#paint4_linear_3334_38219)"/>
<path d="M18.25 8.875C17.2554 8.875 16.3016 9.27009 15.5983 9.97335C14.8951 10.6766 14.5 11.6304 14.5 12.625V20.125C14.5 22.1141 15.2902 24.0218 16.6967 25.4283C18.1032 26.8348 20.0109 27.625 22 27.625C23.9891 27.625 25.8968 26.8348 27.3033 25.4283C28.7098 24.0218 29.5 22.1141 29.5 20.125V12.625C29.5 11.6304 29.1049 10.6766 28.4016 9.97335C27.6984 9.27009 26.7446 8.875 25.75 8.875H18.25Z" fill="url(#paint5_radial_3334_38219)"/>
<defs>
<linearGradient id="paint0_linear_3334_38219" x1="22" y1="44" x2="22" y2="0" gradientUnits="userSpaceOnUse">
<stop stop-color="#F4D0C2" stop-opacity="0.713726"/>
<stop offset="1" stop-color="#FFE8DF"/>
</linearGradient>
<linearGradient id="paint1_linear_3334_38219" x1="20.125" y1="24.625" x2="29.4981" y2="35.365" gradientUnits="userSpaceOnUse">
<stop offset="0.174" stop-color="#EB4824"/>
<stop offset="0.563" stop-color="#FF921F" stop-opacity="0.988"/>
<stop offset="0.853" stop-color="#EB4824"/>
</linearGradient>
<linearGradient id="paint2_linear_3334_38219" x1="27.0006" y1="16.5306" x2="35.5938" y2="16.5306" gradientUnits="userSpaceOnUse">
<stop stop-color="#EB4824"/>
<stop offset="1" stop-color="#FFCD0F" stop-opacity="0.988"/>
</linearGradient>
<linearGradient id="paint3_linear_3334_38219" x1="17.7812" y1="16.5306" x2="8.40625" y2="16.5306" gradientUnits="userSpaceOnUse">
<stop stop-color="#EB4824"/>
<stop offset="1" stop-color="#FFCD0F" stop-opacity="0.988"/>
</linearGradient>
<linearGradient id="paint4_linear_3334_38219" x1="57.0006" y1="52.0262" x2="48.4731" y2="20.7062" gradientUnits="userSpaceOnUse">
<stop offset="0.184" stop-color="#FFCD0F"/>
<stop offset="1" stop-color="#FF6F47"/>
</linearGradient>
<radialGradient id="paint5_radial_3334_38219" cx="0" cy="0" r="1" gradientUnits="userSpaceOnUse" gradientTransform="translate(29.5001 26.8082) rotate(-130.987) scale(21.5992 23.0835)">
<stop stop-color="#FF6F47"/>
<stop offset="1" stop-color="#FFCD0F"/>
</radialGradient>
</defs>
</svg>
