<svg width="25" height="24" viewBox="0 0 25 24" fill="none" xmlns="http://www.w3.org/2000/svg">
<path d="M21.9291 1.24682C21.817 1.4709 21.6188 1.67775 21.4033 1.79841C21.2137 1.91045 21.0586 2.0225 21.0586 2.05697C21.0586 2.09144 21.2051 2.19487 21.3861 2.28967C21.5757 2.38448 21.7826 2.59133 21.9032 2.80679C22.0153 3.00502 22.1187 3.16016 22.1359 3.16016C22.1618 3.16016 22.2566 3.00502 22.3514 2.81541C22.4548 2.60856 22.6617 2.40172 22.8685 2.28105C23.0581 2.16901 23.2133 2.05697 23.2133 2.03111C23.2133 2.00526 23.0754 1.91907 22.9116 1.8415C22.7392 1.75532 22.5065 1.53123 22.36 1.29853L22.1101 0.893453L21.9291 1.24682Z" fill="white"/>
<path d="M5.99473 1.48804C5.32247 1.83279 5.10701 2.393 5.27938 3.40138C5.58103 5.19406 6.57218 7.24529 7.67536 8.36572C8.4338 9.1414 8.39071 8.96041 8.39071 11.434C8.39071 13.3818 8.37347 13.7007 8.21834 14.235C7.60641 16.3552 7.49437 18.4409 7.89083 19.9664C8.31314 21.535 9.08882 22.9312 9.71798 23.2415C10.1748 23.457 10.6316 23.4656 11.0453 23.2501C11.4417 23.0519 11.6227 22.8537 11.7951 22.44C12.0105 21.9315 11.9588 21.5953 11.5451 20.811C10.735 19.2683 10.4161 17.8204 10.6143 16.5707C10.7608 15.6485 10.9074 15.3123 11.1918 15.3123C11.4762 15.3123 11.5107 15.3985 11.7951 17.1223C12.045 18.6391 12.114 18.846 12.5018 19.1994C12.95 19.613 13.4671 19.7596 13.9928 19.6217C14.329 19.5355 17.4748 17.5273 17.8971 17.1309C18.621 16.4672 18.5521 15.4416 17.7592 14.8469C17.5696 14.709 17.3886 14.6659 16.9835 14.6659C16.4578 14.6659 16.4147 14.6832 15.389 15.3468C14.803 15.7174 14.3203 16.0105 14.3031 15.9932C14.2859 15.976 14.1911 15.5623 14.0963 15.071C13.9325 14.2953 13.9066 13.9075 13.9066 11.9683C13.9066 10.2273 13.9325 9.71023 14.0273 9.58095C14.1221 9.45167 14.4238 9.39134 15.6907 9.22758C17.3541 9.02074 17.6558 8.92593 17.966 8.495C18.3452 7.96064 18.3022 7.7107 17.4144 5.34057C16.9663 4.14258 16.5353 3.06525 16.4578 2.94459C16.0268 2.28957 14.8288 2.34129 14.3807 3.02216C14.079 3.47895 14.1221 3.80646 14.622 5.22853C14.8892 5.96112 15.0788 6.59028 15.0443 6.61613C15.0098 6.65061 14.5703 6.7368 14.0532 6.80574L13.131 6.93502L11.683 6.60752C9.44218 6.09902 9.55423 6.14211 9.17501 5.63361C8.58032 4.84069 8.2011 3.84955 8.08044 2.81531C7.98563 1.93621 7.51161 1.42771 6.73593 1.376C6.42566 1.35876 6.18434 1.39324 5.99473 1.48804Z" fill="white"/>
<path d="M10.8458 1.71231C9.22545 2.28114 8.82037 4.40132 10.1218 5.51313C10.4924 5.83202 11.1388 6.09058 11.5783 6.09058C12.1127 6.09058 12.716 5.8234 13.1383 5.40108C14.2415 4.28928 13.914 2.47936 12.4833 1.81573C12.0179 1.59164 11.3112 1.54855 10.8458 1.71231Z" fill="white"/>
<path d="M1.50577 2.18629C1.44544 2.33281 1.28169 2.50518 1.13517 2.57413L0.859375 2.70341L1.12655 2.85854C1.27307 2.94473 1.43682 3.10849 1.48854 3.22053C1.6092 3.47909 1.704 3.47047 1.82466 3.20329C1.88499 3.08263 2.02289 2.94473 2.14355 2.8844C2.41935 2.76374 2.41935 2.66893 2.14355 2.53965C2.02289 2.48794 1.92809 2.41899 1.92809 2.39314C1.92809 2.36728 1.85052 2.24662 1.76433 2.13458L1.6092 1.93635L1.50577 2.18629Z" fill="white"/>
<path d="M22.7154 5.71117C22.5344 5.83183 22.5258 5.89216 22.5258 7.12463V8.4088L22.1207 8.36571C21.7932 8.33124 21.6208 8.36571 21.3192 8.52085C20.3108 9.03796 20.2677 10.3221 21.233 10.8479C21.6467 11.072 22.4654 11.0289 22.8447 10.7617C23.3187 10.4256 23.3876 10.1498 23.3876 8.51223C23.3876 7.70208 23.4135 7.03844 23.4394 7.03844C23.4652 7.03844 23.6117 7.13324 23.7669 7.25391C24.1202 7.5297 24.3788 7.5297 24.5512 7.26252C24.6632 7.09877 24.6718 7.01258 24.5943 6.87469C24.465 6.61613 23.1291 5.57327 22.9395 5.57327C22.9222 5.57327 22.8188 5.6336 22.7154 5.71117Z" fill="white"/>
<path d="M2.96085 10.7273C2.6592 10.8135 2.61611 11.0204 2.61611 12.2615V13.4939L2.16794 13.4508C1.56463 13.3905 1.09922 13.6491 0.823428 14.192C0.590725 14.6661 0.582106 14.8988 0.814809 15.3642C1.05613 15.8813 1.42673 16.0881 2.07313 16.0881C2.67644 16.0881 3.06428 15.8813 3.34007 15.3986C3.49521 15.1315 3.52968 14.9074 3.56416 13.606L3.60725 12.1149L3.90028 12.339C4.38293 12.6924 4.77077 12.589 4.77077 12.1149C4.77077 11.9253 4.64149 11.7788 4.06404 11.3306C3.29698 10.736 3.15908 10.6584 2.96085 10.7273Z" fill="white"/>
<path d="M20.8447 17.7601L20.5 18.1134L20.8534 18.4754L21.2067 18.8374L21.3274 18.6219C21.3877 18.5013 21.5601 18.3375 21.698 18.2686C21.9393 18.1393 21.9479 18.1307 21.7928 18.0186C21.7066 17.9497 21.6032 17.898 21.5687 17.898C21.5342 17.898 21.4394 17.7859 21.3446 17.648L21.1895 17.3981L20.8447 17.7601Z" fill="white"/>
<path d="M4.78746 21.0353C4.73574 21.156 4.59785 21.3111 4.47718 21.3887L4.26172 21.5352L4.54613 21.8024C4.70127 21.9575 4.85641 22.1385 4.88226 22.2075C4.92535 22.3195 4.95121 22.3109 5.0374 22.173C5.15806 21.9748 5.38214 21.7593 5.59761 21.6386C5.74413 21.5525 5.74413 21.5352 5.5028 21.4059C5.35629 21.337 5.18391 21.1732 5.11496 21.0526C4.96845 20.7768 4.90812 20.7682 4.78746 21.0353Z" fill="white"/>
</svg>
