<svg width="25" height="23" viewBox="0 0 25 23" fill="none" xmlns="http://www.w3.org/2000/svg">
<mask id="path-1-outside-1_3442_24970" maskUnits="userSpaceOnUse" x="-0.332031" y="-0.618652" width="26" height="24" fill="black">
<rect fill="white" x="-0.332031" y="-0.618652" width="26" height="24"/>
<path fill-rule="evenodd" clip-rule="evenodd" d="M0.667969 16.4559V8.37487V0.303978H3.30088H5.93379V1.05335V1.79259L6.9262 1.29638C8.67809 0.415371 9.03253 0.364738 12.668 0.364738C16.3034 0.364738 16.6578 0.415371 18.4199 1.29638L19.4021 1.79259V1.05335V0.303978H22.0351H24.668V8.37487V16.4559L22.6832 18.9369C21.5996 20.304 20.5667 21.5698 20.3946 21.742C19.392 22.785 17.63 22.5116 16.9616 21.2154L16.7085 20.6989L16.0806 20.9825C13.9439 21.9445 11.4021 21.9445 9.25531 20.9825L8.62746 20.6989L8.36417 21.2154C7.99961 21.9242 7.4224 22.2989 6.65278 22.3597C5.88316 22.4103 5.45784 22.2685 5.00215 21.7926C4.79961 21.5901 3.73632 20.304 2.65278 18.9369L0.667969 16.4559ZM4.51607 8.01031V4.86094V1.7217H3.30088H2.08569V8.84069V15.9698L4.01987 18.3901C5.08316 19.7166 6.0148 20.8508 6.09582 20.8913C6.58189 21.1647 7.34139 20.6382 7.20974 20.1217C7.17936 19.9901 6.72366 19.3318 6.18696 18.6736C5.3667 17.6407 5.1743 17.4584 4.85025 17.3875C4.28316 17.2761 3.83759 16.942 3.52366 16.4255C3.46072 16.3159 3.41227 16.2316 3.37497 16.1426C3.25025 15.8449 3.25025 15.495 3.25025 13.9749V12.0002H3.90848H4.5667L4.61734 13.8331C4.66797 15.828 4.7186 16.0002 5.23506 16.0002C5.80215 16.0002 5.83253 15.828 5.83253 12.942V10.3293L5.1743 9.16474L4.51607 8.01031ZM18.8857 3.25082C18.268 2.75461 17.1439 2.18752 16.3135 1.95461C15.4832 1.7217 10.4705 1.66094 9.4781 1.8736C8.26291 2.12676 7.24012 2.60271 6.36923 3.31157L5.93379 3.65588V5.65082C5.93379 6.74449 5.9743 7.70651 6.02493 7.78752C6.09582 7.89892 6.1667 7.88879 6.41987 7.70651C6.89582 7.37233 7.51354 7.19006 8.50594 7.07866C9.99455 6.92677 11.1186 6.26854 11.7161 5.20525L12.03 4.65841H12.668H13.3059L13.6097 5.19512C14.2477 6.3293 15.311 6.92676 16.9819 7.08879C17.8123 7.1698 18.1667 7.25082 18.6427 7.48373C18.9667 7.64575 19.2806 7.75714 19.3211 7.73689C19.3616 7.70651 19.4021 6.77487 19.4021 5.67107V3.64575L18.8857 3.25082ZM23.2502 15.9597V8.84069V1.7217H22.0351H20.8199V4.85082V7.97993L20.1616 9.15461L19.5034 10.3293V12.942C19.5034 15.8787 19.5338 16.0407 20.1414 15.9799C20.6477 15.9293 20.7186 15.6761 20.7186 13.6913V11.9394L21.4072 11.9698L22.0857 12.0002V13.9749V13.9749C22.0857 15.9496 22.0857 15.9496 21.8123 16.4255C21.4983 16.942 21.0528 17.2761 20.4857 17.3875C20.1616 17.4584 19.9692 17.6407 19.149 18.6736C18.6123 19.3318 18.1566 19.9901 18.1262 20.1217C17.9946 20.6483 18.754 21.1647 19.2401 20.8913C19.3211 20.8508 20.2528 19.7166 21.3161 18.3799L23.2502 15.9597ZM8.66797 12.7698V12.0508V11.3419H9.37683H10.0958L10.0654 12.0204L10.0351 12.709L9.35658 12.7394L8.66797 12.7698ZM15.2706 12.0204L15.301 12.709L15.9896 12.7394L16.6681 12.7698V12.0508V11.3419H15.9592H15.2402L15.2706 12.0204ZM10.6931 16.1116L10.4399 15.899L10.9463 15.4433C11.2298 15.1901 11.4627 14.9876 11.4729 14.9876C11.4802 14.9876 11.5726 15.0408 11.7039 15.1163C11.7538 15.145 11.8093 15.1769 11.8678 15.2104C12.3539 15.4939 12.9817 15.4939 13.4678 15.2104L13.8425 14.9876L14.3488 15.4129C14.6222 15.6357 14.845 15.8585 14.845 15.899C14.845 16.0104 14.1361 16.4762 13.6804 16.6686C13.0627 16.9218 12.1412 16.8914 11.4931 16.5775C11.1893 16.4357 10.8349 16.223 10.6931 16.1116Z"/>
</mask>
<path fill-rule="evenodd" clip-rule="evenodd" d="M0.667969 16.4559V8.37487V0.303978H3.30088H5.93379V1.05335V1.79259L6.9262 1.29638C8.67809 0.415371 9.03253 0.364738 12.668 0.364738C16.3034 0.364738 16.6578 0.415371 18.4199 1.29638L19.4021 1.79259V1.05335V0.303978H22.0351H24.668V8.37487V16.4559L22.6832 18.9369C21.5996 20.304 20.5667 21.5698 20.3946 21.742C19.392 22.785 17.63 22.5116 16.9616 21.2154L16.7085 20.6989L16.0806 20.9825C13.9439 21.9445 11.4021 21.9445 9.25531 20.9825L8.62746 20.6989L8.36417 21.2154C7.99961 21.9242 7.4224 22.2989 6.65278 22.3597C5.88316 22.4103 5.45784 22.2685 5.00215 21.7926C4.79961 21.5901 3.73632 20.304 2.65278 18.9369L0.667969 16.4559ZM4.51607 8.01031V4.86094V1.7217H3.30088H2.08569V8.84069V15.9698L4.01987 18.3901C5.08316 19.7166 6.0148 20.8508 6.09582 20.8913C6.58189 21.1647 7.34139 20.6382 7.20974 20.1217C7.17936 19.9901 6.72366 19.3318 6.18696 18.6736C5.3667 17.6407 5.1743 17.4584 4.85025 17.3875C4.28316 17.2761 3.83759 16.942 3.52366 16.4255C3.46072 16.3159 3.41227 16.2316 3.37497 16.1426C3.25025 15.8449 3.25025 15.495 3.25025 13.9749V12.0002H3.90848H4.5667L4.61734 13.8331C4.66797 15.828 4.7186 16.0002 5.23506 16.0002C5.80215 16.0002 5.83253 15.828 5.83253 12.942V10.3293L5.1743 9.16474L4.51607 8.01031ZM18.8857 3.25082C18.268 2.75461 17.1439 2.18752 16.3135 1.95461C15.4832 1.7217 10.4705 1.66094 9.4781 1.8736C8.26291 2.12676 7.24012 2.60271 6.36923 3.31157L5.93379 3.65588V5.65082C5.93379 6.74449 5.9743 7.70651 6.02493 7.78752C6.09582 7.89892 6.1667 7.88879 6.41987 7.70651C6.89582 7.37233 7.51354 7.19006 8.50594 7.07866C9.99455 6.92677 11.1186 6.26854 11.7161 5.20525L12.03 4.65841H12.668H13.3059L13.6097 5.19512C14.2477 6.3293 15.311 6.92676 16.9819 7.08879C17.8123 7.1698 18.1667 7.25082 18.6427 7.48373C18.9667 7.64575 19.2806 7.75714 19.3211 7.73689C19.3616 7.70651 19.4021 6.77487 19.4021 5.67107V3.64575L18.8857 3.25082ZM23.2502 15.9597V8.84069V1.7217H22.0351H20.8199V4.85082V7.97993L20.1616 9.15461L19.5034 10.3293V12.942C19.5034 15.8787 19.5338 16.0407 20.1414 15.9799C20.6477 15.9293 20.7186 15.6761 20.7186 13.6913V11.9394L21.4072 11.9698L22.0857 12.0002V13.9749V13.9749C22.0857 15.9496 22.0857 15.9496 21.8123 16.4255C21.4983 16.942 21.0528 17.2761 20.4857 17.3875C20.1616 17.4584 19.9692 17.6407 19.149 18.6736C18.6123 19.3318 18.1566 19.9901 18.1262 20.1217C17.9946 20.6483 18.754 21.1647 19.2401 20.8913C19.3211 20.8508 20.2528 19.7166 21.3161 18.3799L23.2502 15.9597ZM8.66797 12.7698V12.0508V11.3419H9.37683H10.0958L10.0654 12.0204L10.0351 12.709L9.35658 12.7394L8.66797 12.7698ZM15.2706 12.0204L15.301 12.709L15.9896 12.7394L16.6681 12.7698V12.0508V11.3419H15.9592H15.2402L15.2706 12.0204ZM10.6931 16.1116L10.4399 15.899L10.9463 15.4433C11.2298 15.1901 11.4627 14.9876 11.4729 14.9876C11.4802 14.9876 11.5726 15.0408 11.7039 15.1163C11.7538 15.145 11.8093 15.1769 11.8678 15.2104C12.3539 15.4939 12.9817 15.4939 13.4678 15.2104L13.8425 14.9876L14.3488 15.4129C14.6222 15.6357 14.845 15.8585 14.845 15.899C14.845 16.0104 14.1361 16.4762 13.6804 16.6686C13.0627 16.9218 12.1412 16.8914 11.4931 16.5775C11.1893 16.4357 10.8349 16.223 10.6931 16.1116Z" fill="white"/>
<path d="M14.0452 7.6255L14.0975 7.54022L14.0994 7.54145L14.0452 7.6255ZM16.7895 8.49638L16.7801 8.59594L16.779 8.59583L16.7895 8.49638ZM18.3996 8.98246L18.3365 9.06013L18.3336 9.05758L18.3996 8.98246ZM18.1061 13.0017L18.2061 13.0007V13.0017H18.1061ZM18.1061 13.0017L18.0061 13.0028V13.0017H18.1061ZM18.3794 16.3749L18.4657 16.3243L18.4659 16.3247L18.3794 16.3749ZM17.9338 17.823L17.8565 17.7595L17.8566 17.7594L17.9338 17.823ZM7.40215 17.823L7.47934 17.7594L7.47941 17.7595L7.40215 17.823ZM6.95658 16.3749L6.87007 16.3247L6.87028 16.3243L6.95658 16.3749ZM7.22979 13.0118L7.32979 13.0129V13.0129L7.22979 13.0118ZM7.22999 12.9926L7.13 12.9915L7.13 12.9915L7.22999 12.9926ZM7.04772 9.62044L6.95917 9.66692L6.95885 9.6663L7.04772 9.62044ZM6.94645 9.06347L6.86835 9.00099L6.86963 8.99946L6.94645 9.06347ZM8.74898 8.46601L8.73944 8.36646L8.74006 8.3664L8.74898 8.46601ZM12.2427 6.84575L12.1708 6.77623L12.1711 6.77588L12.2427 6.84575ZM12.668 6.41031L12.5964 6.34044L12.6689 6.26626L12.7404 6.34134L12.668 6.41031ZM13.073 6.83563L13.1455 6.76665L13.1467 6.76805L13.073 6.83563ZM14.0452 7.6255L14.0994 7.54145C14.8523 8.02687 15.6562 8.27654 16.8 8.39693L16.7895 8.49638L16.779 8.59583C15.6139 8.47319 14.7773 8.21654 13.991 7.70955L14.0452 7.6255ZM16.7895 8.49638L16.7989 8.39683C17.2805 8.44246 17.6083 8.49123 17.8592 8.56783C18.1146 8.64579 18.2889 8.75206 18.4656 8.90734L18.3996 8.98246L18.3336 9.05758C18.1761 8.91919 18.0264 8.82799 17.8008 8.75912C17.5707 8.68888 17.2605 8.64145 16.7801 8.59594L16.7895 8.49638ZM18.3996 8.98246L18.4627 8.90485C18.5037 8.93821 18.5454 8.97515 18.5732 9.02042C18.6045 9.07131 18.615 9.12646 18.6062 9.18774C18.5982 9.24364 18.5744 9.30355 18.5421 9.36957C18.5093 9.43675 18.4634 9.51858 18.4053 9.61965L18.3186 9.5698L18.2319 9.51996C18.2903 9.41849 18.333 9.34209 18.3625 9.28174C18.3925 9.22023 18.4048 9.18331 18.4082 9.15946C18.4109 9.14099 18.408 9.13348 18.4029 9.12519C18.3943 9.11129 18.3765 9.09254 18.3366 9.06007L18.3996 8.98246ZM18.1059 12.9825L18.2059 12.9814L18.2061 13.0007L18.1061 13.0017L18.0061 13.0027L18.0059 12.9835L18.1059 12.9825ZM18.1061 13.0017H18.2061V13.0017H18.1061H18.0061V13.0017H18.1061ZM18.1061 13.0017H18.2061V13.0017H18.1061H18.0061V13.0017H18.1061ZM18.1061 13.0017L18.2061 13.0007C18.2213 14.4569 18.229 15.1917 18.2628 15.6153C18.2797 15.8261 18.3026 15.9535 18.3339 16.0515C18.3648 16.1486 18.4053 16.2212 18.4657 16.3243L18.3794 16.3749L18.2931 16.4254C18.2322 16.3214 18.1816 16.2323 18.1433 16.1123C18.1054 15.9933 18.0808 15.8485 18.0634 15.6312C18.0289 15.1987 18.0212 14.4541 18.0061 13.0028L18.1061 13.0017ZM18.3794 16.3749L18.4659 16.3247C18.6113 16.5755 18.7019 16.7584 18.628 16.9957C18.5934 17.1069 18.5247 17.224 18.425 17.3631C18.3248 17.5028 18.1879 17.6718 18.011 17.8865L17.9338 17.823L17.8566 17.7594C18.0342 17.5438 18.1668 17.3799 18.2625 17.2465C18.3587 17.1124 18.4122 17.0163 18.437 16.9363C18.4822 16.7914 18.4411 16.6806 18.2929 16.425L18.3794 16.3749ZM17.9338 17.823L18.0111 17.8865C16.6853 19.4999 14.7935 20.3837 12.668 20.3837V20.2837V20.1837C14.7349 20.1837 16.5696 19.3257 17.8565 17.7595L17.9338 17.823ZM12.668 20.2837V20.3837C10.5425 20.3837 8.65061 19.4999 7.32488 17.8865L7.40215 17.823L7.47941 17.7595C8.76634 19.3257 10.601 20.1837 12.668 20.1837V20.2837ZM7.40215 17.823L7.32495 17.8865C7.14807 17.6718 7.01113 17.5028 6.91092 17.3631C6.8112 17.224 6.74253 17.1069 6.70793 16.9957C6.63405 16.7584 6.72462 16.5755 6.87007 16.3247L6.95658 16.3749L7.04308 16.425C6.89486 16.6806 6.85378 16.7914 6.89889 16.9363C6.92379 17.0163 6.97727 17.1124 7.07344 17.2465C7.16912 17.3799 7.30179 17.5438 7.47934 17.7594L7.40215 17.823ZM6.95658 16.3749L6.87028 16.3243C6.93066 16.2212 6.9711 16.1486 7.00207 16.0516C7.03333 15.9538 7.05628 15.8267 7.07313 15.6165C7.10699 15.1942 7.11468 14.4619 7.1298 13.0108L7.22979 13.0118L7.32979 13.0129C7.31472 14.4592 7.30706 15.2013 7.27249 15.6325C7.25511 15.8492 7.23057 15.9936 7.19258 16.1125C7.15431 16.2323 7.10374 16.3214 7.04288 16.4254L6.95658 16.3749ZM7.22979 13.0118L7.1298 13.0108L7.13 12.9915L7.22999 12.9926L7.32999 12.9936L7.32979 13.0129L7.22979 13.0118ZM7.22999 12.9926L7.13 12.9915C7.14521 11.5717 7.1527 10.8343 7.13013 10.4003C7.11888 10.1841 7.10036 10.0487 7.07338 9.94456C7.04681 9.84199 7.01107 9.76575 6.95918 9.66692L7.04772 9.62044L7.13626 9.57395C7.1907 9.67765 7.2347 9.76977 7.26699 9.89441C7.29887 10.0175 7.31832 10.1682 7.32986 10.3899C7.35285 10.8319 7.34516 11.578 7.32999 12.9937L7.22999 12.9926ZM7.04772 9.62044L6.95885 9.6663C6.87706 9.50782 6.82537 9.38255 6.80742 9.27934C6.78836 9.16976 6.80647 9.07837 6.86836 9.001L6.94645 9.06347L7.02454 9.12594C7.00541 9.14985 6.99314 9.17997 7.00446 9.24507C7.01689 9.31655 7.05635 9.41913 7.13658 9.57457L7.04772 9.62044ZM6.94645 9.06347L6.86963 8.99946C6.93349 8.92282 7.04001 8.85209 7.16398 8.78856C7.29053 8.72371 7.44525 8.66141 7.61504 8.60524C7.95452 8.49294 8.36185 8.40267 8.73944 8.36646L8.74898 8.46601L8.75853 8.56555C8.39688 8.60023 8.0042 8.68717 7.67786 8.79512C7.51474 8.84908 7.37009 8.90767 7.25519 8.96655C7.1377 9.02676 7.06067 9.08261 7.02327 9.12749L6.94645 9.06347ZM8.74898 8.46601L8.74006 8.3664C10.0748 8.24688 11.2974 7.67933 12.1708 6.77624L12.2427 6.84575L12.3145 6.91527C11.4056 7.85522 10.1371 8.44209 8.7579 8.56561L8.74898 8.46601ZM12.2427 6.84575L12.1711 6.77588L12.5964 6.34044L12.668 6.41031L12.7395 6.48018L12.3142 6.91563L12.2427 6.84575ZM12.668 6.41031L12.7404 6.34134L13.1454 6.76666L13.073 6.83563L13.0006 6.90459L12.5956 6.47927L12.668 6.41031ZM13.073 6.83563L13.1467 6.76805C13.3626 7.00357 13.7907 7.35221 14.0974 7.54024L14.0452 7.6255L13.9929 7.71076C13.6719 7.51397 13.229 7.15376 12.9993 6.9032L13.073 6.83563ZM0.667969 16.4559L0.511795 16.5808L0.467969 16.526V16.4559H0.667969ZM0.667969 0.303978H0.467969V0.103977H0.667969V0.303978ZM5.93379 0.303978V0.103977H6.13379V0.303978H5.93379ZM5.93379 1.79259L6.02323 1.97147L5.73379 2.11619V1.79259H5.93379ZM6.9262 1.29638L7.01605 1.47506L7.01564 1.47527L6.9262 1.29638ZM18.4199 1.29638L18.5093 1.1175L18.51 1.11787L18.4199 1.29638ZM19.4021 1.79259H19.6021V2.11769L19.312 1.9711L19.4021 1.79259ZM19.4021 0.303978H19.2021V0.103977H19.4021V0.303978ZM24.668 0.303978V0.103977H24.868V0.303978H24.668ZM24.668 16.4559H24.868V16.526L24.8241 16.5808L24.668 16.4559ZM22.6832 18.9369L22.5264 18.8127L22.527 18.812L22.6832 18.9369ZM20.3946 21.742L20.2503 21.6033L20.2531 21.6005L20.3946 21.742ZM16.9616 21.2154L16.7838 21.307L16.7821 21.3034L16.9616 21.2154ZM16.7085 20.6989L16.6262 20.5166L16.8028 20.4369L16.8881 20.6109L16.7085 20.6989ZM16.0806 20.9825L16.1629 21.1647L16.1627 21.1648L16.0806 20.9825ZM9.25531 20.9825L9.17352 21.165L9.17299 21.1647L9.25531 20.9825ZM8.62746 20.6989L8.44928 20.6081L8.53592 20.4381L8.70978 20.5166L8.62746 20.6989ZM8.36417 21.2154L8.54235 21.3062L8.54203 21.3068L8.36417 21.2154ZM6.65278 22.3597L6.66852 22.5591L6.66591 22.5592L6.65278 22.3597ZM5.00215 21.7926L5.1436 21.6511L5.14661 21.6543L5.00215 21.7926ZM2.65278 18.9369L2.80895 18.812L2.80952 18.8127L2.65278 18.9369ZM4.51607 8.01031L4.34233 8.10937L4.31607 8.06332V8.01031H4.51607ZM4.51607 1.7217V1.5217H4.71607V1.7217H4.51607ZM2.08569 1.7217H1.88569V1.5217H2.08569V1.7217ZM2.08569 15.9698L1.92945 16.0947L1.88569 16.0399V15.9698H2.08569ZM4.01987 18.3901L3.86381 18.5151L3.86363 18.5149L4.01987 18.3901ZM6.09582 20.8913L6.18537 20.7122L6.19387 20.717L6.09582 20.8913ZM7.20974 20.1217L7.01589 20.1711L7.01486 20.1667L7.20974 20.1217ZM6.18696 18.6736L6.03194 18.8L6.03033 18.798L6.18696 18.6736ZM4.85025 17.3875L4.88881 17.1912L4.89299 17.1921L4.85025 17.3875ZM3.52366 16.4255L3.35271 16.5294L3.35024 16.5251L3.52366 16.4255ZM3.37497 16.1426L3.55944 16.0653L3.37497 16.1426ZM3.25025 12.0002H3.05025V11.8002H3.25025V12.0002ZM4.5667 12.0002V11.8002H4.76125L4.76663 11.9947L4.5667 12.0002ZM4.61734 13.8331L4.81726 13.8276L4.81727 13.828L4.61734 13.8331ZM5.83253 10.3293L6.00664 10.2309L6.03253 10.2767V10.3293H5.83253ZM5.1743 9.16474L5.34804 9.06568L5.34841 9.06633L5.1743 9.16474ZM16.3135 1.95461L16.2595 2.14718L16.3135 1.95461ZM18.8857 3.25082L18.7642 3.40973L18.7604 3.40674L18.8857 3.25082ZM9.4781 1.8736L9.52 2.06916L9.51889 2.0694L9.4781 1.8736ZM6.36923 3.31157L6.4955 3.4667L6.49328 3.46846L6.36923 3.31157ZM5.93379 3.65588H5.73379V3.55905L5.80974 3.499L5.93379 3.65588ZM6.02493 7.78752L5.85619 7.8949L5.85533 7.89352L6.02493 7.78752ZM6.41987 7.70651L6.303 7.54419L6.30494 7.54283L6.41987 7.70651ZM8.50594 7.07866L8.48363 6.8799L8.48564 6.8797L8.50594 7.07866ZM11.7161 5.20525L11.5417 5.10727L11.5426 5.10567L11.7161 5.20525ZM12.03 4.65841L11.8565 4.55884L11.9142 4.45841H12.03V4.65841ZM13.3059 4.65841V4.45841H13.4226L13.48 4.55989L13.3059 4.65841ZM13.6097 5.19512L13.7838 5.0966L13.7841 5.09707L13.6097 5.19512ZM16.9819 7.08879L17.0012 6.88972L17.0013 6.88974L16.9819 7.08879ZM18.6427 7.48373L18.7306 7.30408L18.7321 7.30484L18.6427 7.48373ZM19.3211 7.73689L19.4411 7.89689L19.4267 7.90771L19.4106 7.91578L19.3211 7.73689ZM19.4021 3.64575L19.5236 3.48688L19.6021 3.54692V3.64575H19.4021ZM23.2502 15.9597H23.4502V16.0298L23.4065 16.0845L23.2502 15.9597ZM23.2502 1.7217V1.5217H23.4502V1.7217H23.2502ZM20.8199 1.7217H20.6199V1.5217H20.8199V1.7217ZM20.8199 7.97993H21.0199V8.03214L20.9943 8.0777L20.8199 7.97993ZM20.1616 9.15461L19.9872 9.05685L20.1616 9.15461ZM19.5034 10.3293H19.3034V10.2771L19.3289 10.2315L19.5034 10.3293ZM20.1414 15.9799L20.1613 16.1789L20.1414 15.9799ZM20.7186 11.9394H20.5186V11.7304L20.7274 11.7396L20.7186 11.9394ZM21.4072 11.9698L21.416 11.77L21.4162 11.77L21.4072 11.9698ZM22.0857 12.0002L22.0946 11.8004L22.2857 11.8089V12.0002H22.0857ZM21.8123 16.4255L21.9857 16.5252L21.9832 16.5294L21.8123 16.4255ZM20.4857 17.3875L20.4429 17.1921L20.4471 17.1913L20.4857 17.3875ZM19.149 18.6736L19.3056 18.798L19.304 18.8L19.149 18.6736ZM18.1262 20.1217L18.3211 20.1667L18.3202 20.1702L18.1262 20.1217ZM19.2401 20.8913L19.142 20.7168L19.1507 20.7124L19.2401 20.8913ZM21.3161 18.3799L21.1595 18.2554L21.1598 18.2551L21.3161 18.3799ZM8.66797 12.7698L8.67678 12.9696L8.46797 12.9788V12.7698H8.66797ZM8.66797 11.3419H8.46797V11.1419H8.66797V11.3419ZM10.0958 11.3419V11.1419H10.305L10.2956 11.3509L10.0958 11.3419ZM10.0654 12.0204L9.86563 12.0116L9.86564 12.0115L10.0654 12.0204ZM10.0351 12.709L10.2349 12.7178L10.2268 12.9006L10.044 12.9088L10.0351 12.709ZM9.35658 12.7394L9.36552 12.9392L9.36539 12.9392L9.35658 12.7394ZM15.301 12.709L15.2922 12.9088L15.1093 12.9008L15.1012 12.7178L15.301 12.709ZM15.2706 12.0204L15.4704 12.0115L15.4704 12.0116L15.2706 12.0204ZM15.9896 12.7394L15.9984 12.5396L15.9985 12.5396L15.9896 12.7394ZM16.6681 12.7698H16.8681V12.9789L16.6591 12.9696L16.6681 12.7698ZM16.6681 11.3419V11.1419H16.8681V11.3419H16.6681ZM15.2402 11.3419L15.0404 11.3509L15.0311 11.1419H15.2402V11.3419ZM10.4399 15.899L10.3113 16.0521L10.1352 15.9042L10.3061 15.7503L10.4399 15.899ZM10.6931 16.1116L10.5695 16.269L10.5645 16.2648L10.6931 16.1116ZM10.9463 15.4433L10.8125 15.2946L10.8131 15.2941L10.9463 15.4433ZM11.7039 15.1163L11.8037 14.943L11.8037 14.943L11.7039 15.1163ZM11.8678 15.2104L11.967 15.0367L11.9686 15.0376L11.8678 15.2104ZM13.4678 15.2104L13.57 15.3823L13.5686 15.3831L13.4678 15.2104ZM13.8425 14.9876L13.7403 14.8157L13.8623 14.7431L13.9711 14.8345L13.8425 14.9876ZM14.3488 15.4129L14.2225 15.568L14.2202 15.566L14.3488 15.4129ZM13.6804 16.6686L13.7582 16.8529L13.7563 16.8537L13.6804 16.6686ZM11.4931 16.5775L11.5777 16.3962L11.5803 16.3975L11.4931 16.5775ZM0.667969 8.37487H0.867969V16.4559H0.667969H0.467969V8.37487H0.667969ZM0.667969 0.303978H0.867969V8.37487H0.667969H0.467969V0.303978H0.667969ZM3.30088 0.303978V0.503979H0.667969V0.303978V0.103977H3.30088V0.303978ZM5.93379 0.303978V0.503979H3.30088V0.303978V0.103977H5.93379V0.303978ZM5.93379 1.05335H5.73379V0.303978H5.93379H6.13379V1.05335H5.93379ZM5.93379 1.79259H5.73379V1.05335H5.93379H6.13379V1.79259H5.93379ZM6.9262 1.29638L7.01564 1.47527L6.02323 1.97147L5.93379 1.79259L5.84435 1.6137L6.83675 1.1175L6.9262 1.29638ZM12.668 0.364738V0.564739C10.8444 0.564739 9.86525 0.577967 9.12257 0.697634C8.39232 0.8153 7.8885 1.03632 7.01605 1.47506L6.9262 1.29638L6.83634 1.11771C7.7158 0.675436 8.26514 0.430634 9.05894 0.302729C9.8403 0.176826 10.8561 0.164738 12.668 0.164738V0.364738ZM18.4199 1.29638L18.3304 1.47527C17.4528 1.03647 16.9464 0.815344 16.2147 0.697643C15.4707 0.577963 14.4915 0.564739 12.668 0.564739V0.364738V0.164738C14.4799 0.164738 15.4956 0.17683 16.2782 0.302719C17.0731 0.430588 17.6249 0.675285 18.5093 1.1175L18.4199 1.29638ZM19.4021 1.79259L19.312 1.9711L18.3297 1.4749L18.4199 1.29638L18.51 1.11787L19.4923 1.61407L19.4021 1.79259ZM19.4021 1.05335H19.6021V1.79259H19.4021H19.2021V1.05335H19.4021ZM19.4021 0.303978H19.6021V1.05335H19.4021H19.2021V0.303978H19.4021ZM22.0351 0.303978V0.503979H19.4021V0.303978V0.103977H22.0351V0.303978ZM24.668 0.303978V0.503979H22.0351V0.303978V0.103977H24.668V0.303978ZM24.668 8.37487H24.468V0.303978H24.668H24.868V8.37487H24.668ZM24.668 16.4559H24.468V8.37487H24.668H24.868V16.4559H24.668ZM22.6832 18.9369L22.527 18.812L24.5118 16.3309L24.668 16.4559L24.8241 16.5808L22.8393 19.0618L22.6832 18.9369ZM20.3946 21.742L20.2531 21.6005C20.3301 21.5236 20.6229 21.1749 21.0421 20.6611C21.4566 20.1531 21.9851 19.4956 22.5264 18.8127L22.6832 18.9369L22.8399 19.0611C22.2976 19.7453 21.7679 20.4043 21.352 20.914C20.9409 21.4179 20.6312 21.7882 20.536 21.8834L20.3946 21.742ZM16.9616 21.2154L17.1394 21.1237C17.7466 22.3013 19.3454 22.5449 20.2504 21.6034L20.3946 21.742L20.5387 21.8805C19.4386 23.0251 17.5134 22.7218 16.7839 21.307L16.9616 21.2154ZM16.7085 20.6989L16.8881 20.6109L17.1412 21.1273L16.9616 21.2154L16.7821 21.3034L16.5289 20.7869L16.7085 20.6989ZM16.0806 20.9825L15.9983 20.8002L16.6262 20.5166L16.7085 20.6989L16.7908 20.8812L16.1629 21.1647L16.0806 20.9825ZM9.25531 20.9825L9.3371 20.7999C11.432 21.7387 13.9141 21.7386 15.9985 20.8001L16.0806 20.9825L16.1627 21.1648C13.9737 22.1504 11.3723 22.1503 9.17352 21.165L9.25531 20.9825ZM8.62746 20.6989L8.70978 20.5166L9.33763 20.8002L9.25531 20.9825L9.17299 21.1647L8.54515 20.8812L8.62746 20.6989ZM8.36417 21.2154L8.18599 21.1245L8.44928 20.6081L8.62746 20.6989L8.80564 20.7898L8.54235 21.3062L8.36417 21.2154ZM6.65278 22.3597L6.63704 22.1603C7.33798 22.105 7.85364 21.7708 8.18631 21.1239L8.36417 21.2154L8.54203 21.3068C8.14559 22.0777 7.50682 22.4929 6.66852 22.5591L6.65278 22.3597ZM5.00215 21.7926L5.14661 21.6543C5.35887 21.876 5.55304 22.0088 5.77437 22.0843C5.99876 22.161 6.26786 22.1846 6.63965 22.1601L6.65278 22.3597L6.66591 22.5592C6.26808 22.5854 5.93971 22.5635 5.64511 22.4629C5.34746 22.3612 5.10112 22.1852 4.85768 21.9309L5.00215 21.7926ZM2.65278 18.9369L2.80952 18.8127C3.89684 20.1845 4.95132 21.4589 5.14357 21.6512L5.00215 21.7926L4.86072 21.934C4.64791 21.7212 3.5758 20.4234 2.49604 19.0611L2.65278 18.9369ZM0.667969 16.4559L0.824143 16.3309L2.80895 18.812L2.65278 18.9369L2.49661 19.0618L0.511795 16.5808L0.667969 16.4559ZM4.51607 4.86094H4.71607V8.01031H4.51607H4.31607V4.86094H4.51607ZM4.51607 1.7217H4.71607V4.86094H4.51607H4.31607V1.7217H4.51607ZM3.30088 1.7217V1.5217H4.51607V1.7217V1.9217H3.30088V1.7217ZM2.08569 1.7217V1.5217H3.30088V1.7217V1.9217H2.08569V1.7217ZM2.08569 8.84069H1.88569V1.7217H2.08569H2.28569V8.84069H2.08569ZM2.08569 15.9698H1.88569V8.84069H2.08569H2.28569V15.9698H2.08569ZM4.01987 18.3901L3.86363 18.5149L1.92945 16.0947L2.08569 15.9698L2.24193 15.8449L4.17611 18.2652L4.01987 18.3901ZM6.09582 20.8913L6.00637 21.0702C5.97096 21.0525 5.94223 21.0247 5.93375 21.0168C5.91802 21.002 5.90024 20.9838 5.88138 20.9638C5.84335 20.9234 5.79412 20.8682 5.73583 20.8011C5.61889 20.6666 5.4604 20.4781 5.2721 20.2505C4.89522 19.7949 4.39576 19.1788 3.86381 18.5151L4.01987 18.3901L4.17593 18.265C4.70726 18.9279 5.20528 19.5422 5.5803 19.9955C5.76794 20.2223 5.92401 20.4079 6.03777 20.5388C6.09483 20.6045 6.13998 20.6549 6.17255 20.6895C6.189 20.707 6.20058 20.7186 6.20791 20.7255C6.22251 20.7392 6.21055 20.7251 6.18526 20.7124L6.09582 20.8913ZM7.20974 20.1217L7.40354 20.0723C7.49848 20.4447 7.26786 20.7806 6.99822 20.9672C6.72627 21.1553 6.33053 21.2528 5.99777 21.0656L6.09582 20.8913L6.19387 20.717C6.34718 20.8032 6.57422 20.7741 6.77063 20.6382C6.96934 20.5008 7.05265 20.3151 7.01594 20.1711L7.20974 20.1217ZM6.18696 18.6736L6.34196 18.5472C6.61313 18.8798 6.86416 19.2127 7.05192 19.4802C7.14567 19.6138 7.22483 19.7327 7.28319 19.8281C7.31228 19.8756 7.33741 19.9193 7.3569 19.9571C7.37404 19.9904 7.39478 20.0341 7.40462 20.0767L7.20974 20.1217L7.01486 20.1667C7.0171 20.1764 7.01696 20.1707 7.00127 20.1402C6.98793 20.1143 6.96828 20.0798 6.94199 20.0368C6.88959 19.9512 6.81558 19.8398 6.72452 19.71C6.54266 19.4509 6.29749 19.1256 6.03195 18.8L6.18696 18.6736ZM4.85025 17.3875L4.89299 17.1921C5.09731 17.2368 5.25835 17.3213 5.47105 17.5255C5.67371 17.7202 5.93536 18.0352 6.34358 18.5492L6.18696 18.6736L6.03033 18.798C5.6183 18.2791 5.37362 17.9865 5.194 17.8141C5.02442 17.6512 4.92723 17.6091 4.80751 17.5829L4.85025 17.3875ZM3.52366 16.4255L3.69457 16.3216C3.98276 16.7957 4.38303 17.0919 4.8888 17.1913L4.85025 17.3875L4.8117 17.5838C4.18328 17.4603 3.69242 17.0882 3.35276 16.5294L3.52366 16.4255ZM3.37497 16.1426L3.55944 16.0653C3.59099 16.1406 3.63262 16.2137 3.69709 16.3259L3.52366 16.4255L3.35024 16.5251C3.28882 16.4182 3.23355 16.3226 3.19051 16.2199L3.37497 16.1426ZM3.25025 13.9749H3.45025C3.45025 14.7377 3.45031 15.1988 3.46559 15.5072C3.48075 15.8131 3.51028 15.948 3.55944 16.0653L3.37497 16.1426L3.19051 16.2199C3.11494 16.0395 3.08211 15.8506 3.06608 15.527C3.05018 15.2061 3.05025 14.7321 3.05025 13.9749H3.25025ZM3.25025 12.0002H3.45025V13.9749H3.25025H3.05025V12.0002H3.25025ZM3.90848 12.0002V12.2002H3.25025V12.0002V11.8002H3.90848V12.0002ZM4.5667 12.0002V12.2002H3.90848V12.0002V11.8002H4.5667V12.0002ZM4.61734 13.8331L4.41741 13.8386L4.36678 12.0057L4.5667 12.0002L4.76663 11.9947L4.81726 13.8276L4.61734 13.8331ZM5.23506 16.0002V16.2002C5.10381 16.2002 4.95373 16.1916 4.82422 16.1132C4.68522 16.0291 4.60788 15.89 4.55921 15.7197C4.51125 15.5518 4.4831 15.3253 4.46304 15.0267C4.44279 14.7254 4.43005 14.3367 4.4174 13.8382L4.61734 13.8331L4.81727 13.828C4.82994 14.327 4.84252 14.7079 4.86214 14.9999C4.88195 15.2947 4.90824 15.4853 4.94382 15.6098C4.97869 15.7318 5.01401 15.7605 5.03134 15.771C5.05816 15.7872 5.10808 15.8002 5.23506 15.8002V16.0002ZM5.83253 12.942H6.03253C6.03253 14.3731 6.02595 15.1636 5.94278 15.5915C5.90093 15.8068 5.83134 15.9817 5.68676 16.0889C5.54577 16.1934 5.37481 16.2002 5.23506 16.2002V16.0002V15.8002C5.37885 15.8002 5.42434 15.7855 5.44854 15.7675C5.46915 15.7522 5.51349 15.7037 5.55012 15.5152C5.62391 15.1355 5.63253 14.3969 5.63253 12.942H5.83253ZM5.83253 10.3293H6.03253V12.942H5.83253H5.63253V10.3293H5.83253ZM5.1743 9.16474L5.34841 9.06633L6.00664 10.2309L5.83253 10.3293L5.65841 10.4277L5.00019 9.26315L5.1743 9.16474ZM4.51607 8.01031L4.68981 7.91125L5.34804 9.06568L5.1743 9.16474L5.00056 9.2638L4.34233 8.10937L4.51607 8.01031ZM16.3135 1.95461L16.3676 1.76204C17.2217 2.00163 18.3705 2.58043 19.0109 3.09489L18.8857 3.25082L18.7604 3.40674C18.1654 2.9288 17.0661 2.37342 16.2595 2.14718L16.3135 1.95461ZM9.4781 1.8736L9.43619 1.67804C9.70461 1.62052 10.2218 1.58437 10.8414 1.5639C11.4676 1.54321 12.2163 1.53815 12.959 1.54703C13.7016 1.55592 14.4403 1.57878 15.0464 1.61413C15.643 1.64893 16.1351 1.69685 16.3676 1.76204L16.3135 1.95461L16.2595 2.14718C16.0768 2.09592 15.6309 2.0489 15.0231 2.01345C14.4248 1.97855 13.6925 1.95584 12.9542 1.947C12.2159 1.93817 11.4734 1.94323 10.8546 1.96368C10.2293 1.98434 9.74779 2.02035 9.52 2.06916L9.4781 1.8736ZM6.36923 3.31157L6.24298 3.15646C7.14087 2.42562 8.19366 1.9369 9.4373 1.6778L9.4781 1.8736L9.51889 2.0694C8.33215 2.31663 7.33937 2.77981 6.49549 3.46669L6.36923 3.31157ZM5.93379 3.65588L5.80974 3.499L6.24519 3.15469L6.36923 3.31157L6.49328 3.46846L6.05784 3.81276L5.93379 3.65588ZM5.93379 5.65082H5.73379V3.65588H5.93379H6.13379V5.65082H5.93379ZM6.02493 7.78752L5.85533 7.89352C5.83514 7.86122 5.82597 7.82771 5.82208 7.81282C5.81683 7.79278 5.81264 7.7711 5.80913 7.74977C5.80206 7.7068 5.79581 7.65296 5.79017 7.59161C5.77882 7.46821 5.76884 7.30248 5.76055 7.10741C5.74395 6.7166 5.73379 6.19977 5.73379 5.65082H5.93379H6.13379C6.13379 6.19553 6.14389 6.70655 6.16019 7.09043C6.16836 7.2827 6.17801 7.44101 6.18849 7.55496C6.19376 7.61228 6.19899 7.65543 6.20383 7.68485C6.20627 7.69972 6.20814 7.70808 6.20905 7.71156C6.21131 7.7202 6.20839 7.7037 6.19453 7.68152L6.02493 7.78752ZM6.41987 7.70651L6.53673 7.86882C6.47153 7.91576 6.41308 7.95529 6.36076 7.98526C6.31027 8.01419 6.25322 8.04153 6.19245 8.05342C6.12461 8.0667 6.05045 8.0608 5.981 8.02073C5.91934 7.98516 5.88058 7.93322 5.8562 7.8949L6.02493 7.78752L6.19366 7.68015C6.20472 7.69753 6.20141 7.6861 6.18089 7.67426C6.15258 7.65792 6.12526 7.65899 6.11564 7.66087C6.1131 7.66136 6.12566 7.65896 6.16189 7.6382C6.19628 7.6185 6.24162 7.5884 6.30301 7.5442L6.41987 7.70651ZM8.50594 7.07866L8.52825 7.27742C7.54712 7.38754 6.96956 7.56493 6.53479 7.87019L6.41987 7.70651L6.30494 7.54283C6.82207 7.17974 7.47995 6.99257 8.48363 6.87991L8.50594 7.07866ZM11.7161 5.20525L11.8904 5.30322C11.2539 6.43607 10.0634 7.12078 8.52625 7.27763L8.50594 7.07866L8.48564 6.8797C9.92571 6.73275 10.9833 6.101 11.5417 5.10727L11.7161 5.20525ZM12.03 4.65841L12.2034 4.75798L11.8895 5.30482L11.7161 5.20525L11.5426 5.10567L11.8565 4.55884L12.03 4.65841ZM12.668 4.65841V4.85841H12.03V4.65841V4.45841H12.668V4.65841ZM13.3059 4.65841V4.85841H12.668V4.65841V4.45841H13.3059V4.65841ZM13.6097 5.19512L13.4357 5.29364L13.1319 4.75693L13.3059 4.65841L13.48 4.55989L13.7838 5.0966L13.6097 5.19512ZM16.9819 7.08879L16.9626 7.28786C15.2476 7.12155 14.1145 6.50048 13.4354 5.29317L13.6097 5.19512L13.7841 5.09707C14.3809 6.15811 15.3745 6.73198 17.0012 6.88972L16.9819 7.08879ZM18.6427 7.48373L18.5547 7.66337C18.1097 7.4456 17.7824 7.36784 16.9625 7.28784L16.9819 7.08879L17.0013 6.88974C17.8421 6.97176 18.2237 7.05603 18.7306 7.30408L18.6427 7.48373ZM19.3211 7.73689L19.4106 7.91578C19.3726 7.93475 19.3376 7.93796 19.3216 7.93886C19.3023 7.93993 19.285 7.93871 19.272 7.9373C19.2459 7.93446 19.2191 7.92873 19.1947 7.9226C19.145 7.91008 19.0846 7.89039 19.0193 7.8664C18.8876 7.81803 18.7213 7.74664 18.5532 7.66261L18.6427 7.48373L18.7321 7.30484C18.8881 7.38284 19.0408 7.44816 19.1572 7.49093C19.2159 7.5125 19.2618 7.527 19.2925 7.53473C19.2998 7.53658 19.3056 7.53785 19.3098 7.53868C19.3142 7.53954 19.3158 7.53971 19.3153 7.53965C19.3149 7.53961 19.3134 7.53946 19.3111 7.53936C19.3088 7.53926 19.3047 7.53917 19.2992 7.53948C19.2924 7.53986 19.2646 7.54157 19.2317 7.55801L19.3211 7.73689ZM19.4021 5.67107H19.6021C19.6021 6.2251 19.592 6.73672 19.5767 7.11461C19.569 7.30319 19.56 7.46052 19.5501 7.57389C19.5452 7.62999 19.5398 7.67899 19.5336 7.71689C19.5306 7.73522 19.5266 7.75625 19.5209 7.77613C19.5181 7.78581 19.5134 7.80053 19.5059 7.81658C19.5011 7.82674 19.4828 7.86563 19.4411 7.89689L19.3211 7.73689L19.2011 7.57689C19.162 7.60626 19.1462 7.64149 19.144 7.64627C19.1389 7.65695 19.1368 7.66457 19.1365 7.66549C19.1358 7.66785 19.1369 7.66467 19.1389 7.65246C19.1426 7.62929 19.147 7.5919 19.1516 7.53914C19.1607 7.43478 19.1694 7.28452 19.177 7.09841C19.1921 6.72694 19.2021 6.22084 19.2021 5.67107H19.4021ZM19.4021 3.64575H19.6021V5.67107H19.4021H19.2021V3.64575H19.4021ZM18.8857 3.25082L19.0072 3.09195L19.5236 3.48688L19.4021 3.64575L19.2807 3.80462L18.7642 3.40969L18.8857 3.25082ZM23.2502 8.84069H23.4502V15.9597H23.2502H23.0502V8.84069H23.2502ZM23.2502 1.7217H23.4502V8.84069H23.2502H23.0502V1.7217H23.2502ZM22.0351 1.7217V1.5217H23.2502V1.7217V1.9217H22.0351V1.7217ZM20.8199 1.7217V1.5217H22.0351V1.7217V1.9217H20.8199V1.7217ZM20.8199 4.85082H20.6199V1.7217H20.8199H21.0199V4.85082H20.8199ZM20.8199 7.97993H20.6199V4.85082H20.8199H21.0199V7.97993H20.8199ZM20.1616 9.15461L19.9872 9.05685L20.6454 7.88216L20.8199 7.97993L20.9943 8.0777L20.3361 9.25238L20.1616 9.15461ZM19.5034 10.3293L19.3289 10.2315L19.9872 9.05685L20.1616 9.15461L20.3361 9.25238L19.6779 10.4271L19.5034 10.3293ZM19.5034 12.942H19.3034V10.3293H19.5034H19.7034V12.942H19.5034ZM20.1414 15.9799L20.1613 16.1789C20.016 16.1935 19.8353 16.2063 19.6831 16.1157C19.5201 16.0187 19.4436 15.8404 19.3988 15.6259C19.353 15.4069 19.3301 15.0975 19.3177 14.6699C19.3053 14.2393 19.3034 13.6756 19.3034 12.942H19.5034H19.7034C19.7034 13.6767 19.7053 14.2345 19.7176 14.6583C19.7299 15.0851 19.7525 15.3631 19.7903 15.5441C19.8291 15.7296 19.8741 15.7639 19.8876 15.772C19.912 15.7865 19.9629 15.7968 20.1215 15.7809L20.1414 15.9799ZM20.7186 13.6913H20.9186C20.9186 14.6734 20.9023 15.2626 20.8137 15.6104C20.7677 15.7908 20.6953 15.9368 20.5696 16.0367C20.446 16.1349 20.2993 16.1651 20.1613 16.1789L20.1414 15.9799L20.1215 15.7809C20.2366 15.7694 20.2887 15.749 20.3207 15.7235C20.3507 15.6997 20.3911 15.6488 20.4261 15.5115C20.4994 15.2238 20.5186 14.694 20.5186 13.6913H20.7186ZM20.7186 11.9394H20.9186V13.6913H20.7186H20.5186V11.9394H20.7186ZM21.4072 11.9698L21.3984 12.1696L20.7098 12.1392L20.7186 11.9394L20.7274 11.7396L21.416 11.77L21.4072 11.9698ZM22.0857 12.0002L22.0767 12.2L21.3983 12.1696L21.4072 11.9698L21.4162 11.77L22.0946 11.8004L22.0857 12.0002ZM22.0857 13.9749H21.8857V12.0002H22.0857H22.2857V13.9749H22.0857ZM22.0857 13.9749H21.8857V13.9749H22.0857H22.2857V13.9749H22.0857ZM21.8123 16.4255L21.6389 16.3259C21.7089 16.2039 21.7522 16.1278 21.7842 16.0463C21.8147 15.9688 21.8371 15.8804 21.8527 15.74C21.8853 15.4479 21.8857 14.9696 21.8857 13.9749H22.0857H22.2857C22.2857 14.9549 22.286 15.4639 22.2503 15.7844C22.2318 15.9504 22.2029 16.0747 22.1565 16.1927C22.1116 16.3067 22.0523 16.4091 21.9857 16.5251L21.8123 16.4255ZM20.4857 17.3875L20.4471 17.1913C20.9529 17.0919 21.3532 16.7957 21.6414 16.3216L21.8123 16.4255L21.9832 16.5294C21.6435 17.0882 21.1527 17.4603 20.5242 17.5838L20.4857 17.3875ZM19.149 18.6736L18.9924 18.5492C19.4006 18.0352 19.6622 17.7202 19.8649 17.5255C20.0776 17.3213 20.2386 17.2368 20.443 17.1921L20.4857 17.3875L20.5284 17.5829C20.4087 17.6091 20.3115 17.6512 20.1419 17.8141C19.9623 17.9865 19.7176 18.2791 19.3056 18.798L19.149 18.6736ZM18.1262 20.1217L17.9313 20.0767C17.9412 20.0341 17.9619 19.9904 17.979 19.9571C17.9985 19.9193 18.0237 19.8756 18.0528 19.8281C18.1111 19.7327 18.1903 19.6138 18.284 19.4802C18.4718 19.2127 18.7228 18.8798 18.994 18.5472L19.149 18.6736L19.304 18.8C19.0384 19.1256 18.7933 19.4509 18.6114 19.71C18.5204 19.8398 18.4463 19.9512 18.3939 20.0368C18.3677 20.0798 18.348 20.1143 18.3347 20.1402C18.319 20.1707 18.3188 20.1764 18.3211 20.1667L18.1262 20.1217ZM19.2401 20.8913L19.3382 21.0656C19.0066 21.2522 18.6113 21.1588 18.3383 20.9714C18.0669 20.785 17.8382 20.4492 17.9322 20.0732L18.1262 20.1217L18.3202 20.1702C18.2826 20.3208 18.3678 20.5065 18.5647 20.6416C18.7601 20.7758 18.9876 20.8039 19.1421 20.717L19.2401 20.8913ZM21.3161 18.3799L21.4726 18.5044C20.9405 19.1733 20.441 19.7921 20.064 20.249C19.8757 20.4773 19.7172 20.6661 19.6002 20.8009C19.5419 20.8681 19.4926 20.9233 19.4546 20.9637C19.4357 20.9837 19.4179 21.0019 19.4022 21.0167C19.3937 21.0247 19.365 21.0525 19.3296 21.0702L19.2401 20.8913L19.1507 20.7124C19.1254 20.7251 19.1134 20.7392 19.128 20.7255C19.1353 20.7186 19.1469 20.707 19.1633 20.6895C19.1959 20.6549 19.241 20.6044 19.2981 20.5387C19.4118 20.4077 19.5679 20.2218 19.7555 19.9944C20.1304 19.54 20.6283 18.9232 21.1595 18.2554L21.3161 18.3799ZM23.2502 15.9597L23.4065 16.0845L21.4723 18.5048L21.3161 18.3799L21.1598 18.2551L23.094 15.8348L23.2502 15.9597ZM8.66797 12.0508H8.86797V12.7698H8.66797H8.46797V12.0508H8.66797ZM8.66797 11.3419H8.86797V12.0508H8.66797H8.46797V11.3419H8.66797ZM9.37683 11.3419V11.5419H8.66797V11.3419V11.1419H9.37683V11.3419ZM10.0958 11.3419V11.5419H9.37683V11.3419V11.1419H10.0958V11.3419ZM10.0654 12.0204L9.86564 12.0115L9.89602 11.333L10.0958 11.3419L10.2956 11.3509L10.2652 12.0294L10.0654 12.0204ZM10.0351 12.709L9.83525 12.7002L9.86563 12.0116L10.0654 12.0204L10.2652 12.0292L10.2349 12.7178L10.0351 12.709ZM9.35658 12.7394L9.34763 12.5396L10.0261 12.5092L10.0351 12.709L10.044 12.9088L9.36552 12.9392L9.35658 12.7394ZM8.66797 12.7698L8.65915 12.57L9.34776 12.5396L9.35658 12.7394L9.36539 12.9392L8.67678 12.9696L8.66797 12.7698ZM15.301 12.709L15.1012 12.7178L15.0708 12.0292L15.2706 12.0204L15.4704 12.0116L15.5008 12.7002L15.301 12.709ZM15.9896 12.7394L15.9808 12.9392L15.2922 12.9088L15.301 12.709L15.3098 12.5092L15.9984 12.5396L15.9896 12.7394ZM16.6681 12.7698L16.6591 12.9696L15.9807 12.9392L15.9896 12.7394L15.9985 12.5396L16.677 12.57L16.6681 12.7698ZM16.6681 12.0508H16.8681V12.7698H16.6681H16.4681V12.0508H16.6681ZM16.6681 11.3419H16.8681V12.0508H16.6681H16.4681V11.3419H16.6681ZM15.9592 11.3419V11.1419H16.6681V11.3419V11.5419H15.9592V11.3419ZM15.2402 11.3419V11.1419H15.9592V11.3419V11.5419H15.2402V11.3419ZM15.2706 12.0204L15.0708 12.0294L15.0404 11.3509L15.2402 11.3419L15.44 11.333L15.4704 12.0115L15.2706 12.0204ZM10.4399 15.899L10.5686 15.7458L10.8217 15.9585L10.6931 16.1116L10.5645 16.2648L10.3113 16.0521L10.4399 15.899ZM10.9463 15.4433L11.0801 15.5919L10.5737 16.0476L10.4399 15.899L10.3061 15.7503L10.8125 15.2946L10.9463 15.4433ZM11.4729 14.9876V15.1876C11.5082 15.1876 11.5344 15.178 11.5415 15.1754C11.5522 15.1714 11.5601 15.1674 11.5641 15.1653C11.5721 15.1611 11.5776 15.1575 11.5789 15.1566C11.5821 15.1545 11.5832 15.1536 11.5804 15.1557C11.5757 15.1593 11.567 15.1662 11.5538 15.1772C11.5278 15.1987 11.4902 15.2308 11.4431 15.2716C11.3492 15.353 11.2208 15.4663 11.0795 15.5925L10.9463 15.4433L10.8131 15.2941C10.9552 15.1672 11.0852 15.0525 11.1811 14.9694C11.2289 14.9279 11.2692 14.8936 11.2986 14.8692C11.313 14.8572 11.3264 14.8463 11.3375 14.8379C11.3426 14.834 11.35 14.8285 11.3579 14.8232C11.3615 14.8208 11.3689 14.816 11.3785 14.811C11.3831 14.8086 11.3917 14.8043 11.403 14.8001C11.4105 14.7973 11.4372 14.7876 11.4729 14.7876V14.9876ZM11.7039 15.1163L11.6042 15.2897C11.5382 15.2517 11.4833 15.2201 11.4439 15.198C11.424 15.1868 11.4097 15.1789 11.4006 15.1742C11.3958 15.1716 11.3947 15.1712 11.396 15.1718C11.3964 15.1719 11.4004 15.1738 11.4063 15.176C11.4093 15.1771 11.4153 15.1792 11.4232 15.1813C11.4285 15.1826 11.4476 15.1876 11.4729 15.1876V14.9876V14.7876C11.4985 14.7876 11.5183 14.7927 11.5243 14.7942C11.5331 14.7965 11.54 14.799 11.5441 14.8004C11.5523 14.8035 11.5591 14.8065 11.563 14.8083C11.5713 14.8121 11.5796 14.8164 11.5865 14.82C11.601 14.8276 11.6194 14.8377 11.6399 14.8493C11.6814 14.8726 11.7384 14.9054 11.8037 14.943L11.7039 15.1163ZM11.8678 15.2104L11.7686 15.384C11.7097 15.3504 11.654 15.3184 11.6042 15.2897L11.7039 15.1163L11.8037 14.943C11.8536 14.9717 11.9088 15.0034 11.967 15.0367L11.8678 15.2104ZM13.4678 15.2104L13.5686 15.3831C13.0202 15.703 12.3154 15.703 11.767 15.3831L11.8678 15.2104L11.9686 15.0376C12.3924 15.2848 12.9432 15.2848 13.367 15.0376L13.4678 15.2104ZM13.8425 14.9876L13.9447 15.1595L13.57 15.3823L13.4678 15.2104L13.3656 15.0385L13.7403 14.8157L13.8425 14.9876ZM14.3488 15.4129L14.2202 15.566L13.7138 15.1407L13.8425 14.9876L13.9711 14.8345L14.4774 15.2598L14.3488 15.4129ZM14.845 15.899H14.645C14.645 15.9369 14.6565 15.9633 14.659 15.969C14.6611 15.9739 14.663 15.9775 14.6641 15.9794C14.6652 15.9815 14.666 15.9827 14.6662 15.983C14.6665 15.9835 14.6657 15.9822 14.6631 15.9788C14.6607 15.9756 14.6572 15.9712 14.6525 15.9656C14.6332 15.9425 14.6018 15.9089 14.559 15.8667C14.4743 15.7832 14.355 15.676 14.2225 15.568L14.3488 15.4129L14.4751 15.2579C14.616 15.3726 14.7449 15.4882 14.8399 15.5819C14.887 15.6283 14.9284 15.6719 14.9593 15.7089C14.9744 15.727 14.9903 15.7474 15.0036 15.7682C15.0102 15.7785 15.0185 15.7927 15.0259 15.8096C15.0317 15.8231 15.045 15.856 15.045 15.899H14.845ZM13.6804 16.6686L13.6027 16.4844C13.8157 16.3944 14.0958 16.2366 14.3235 16.0865C14.4372 16.0115 14.5327 15.9417 14.5978 15.8866C14.631 15.8585 14.6512 15.8384 14.6615 15.8264C14.6667 15.8203 14.6654 15.8207 14.662 15.827C14.6602 15.8302 14.645 15.8569 14.645 15.899H14.845H15.045C15.045 15.955 15.0243 15.9984 15.0119 16.0208C14.9978 16.0462 14.9809 16.0682 14.9658 16.0859C14.9355 16.1215 14.8969 16.1575 14.8564 16.1918C14.7744 16.2613 14.6642 16.3409 14.5437 16.4204C14.3031 16.5791 14.0009 16.7504 13.7582 16.8529L13.6804 16.6686ZM11.4931 16.5775L11.5803 16.3975C12.1794 16.6876 13.0416 16.7143 13.6046 16.4835L13.6804 16.6686L13.7563 16.8537C13.0838 17.1293 12.1031 17.0951 11.4059 16.7575L11.4931 16.5775ZM10.6931 16.1116L10.8167 15.9544C10.9426 16.0533 11.2825 16.2585 11.5777 16.3962L11.4931 16.5775L11.4085 16.7587C11.0961 16.6129 10.7272 16.3928 10.5695 16.2689L10.6931 16.1116Z" fill="white" mask="url(#path-1-outside-1_3442_24970)"/>
</svg>
