<svg width="18" height="24" viewBox="0 0 18 24" fill="none" xmlns="http://www.w3.org/2000/svg">
<path fill-rule="evenodd" clip-rule="evenodd" d="M2.4 0C1.07452 0 0 1.07452 0 2.4V21.6C0 22.9255 1.07452 24 2.4 24H5.98599C6.14813 23.4126 6.3744 22.8268 6.66369 22.249C7.5216 20.5391 7.62514 20.0679 7.53639 18.0079C7.47722 16.5672 7.35889 15.8401 6.92994 14.2783C6.27911 11.8413 6.02766 9.57935 6.24953 8.07137C6.44182 6.79229 6.61932 6.29412 7.53639 4.51686C8.09847 3.43974 8.23159 3.02235 8.27597 2.22797C8.32034 1.70287 8.36472 1.19124 8.40909 1.08353C8.48305 0.881564 8.69013 0.908491 10.1693 1.3932L10.4572 1.48681C10.9125 1.63481 11.2394 2.03507 11.2934 2.51072C11.397 3.52052 11.5449 3.74941 12.8761 5.04196C15.1096 7.22314 16.1007 8.71765 16.2634 10.1179C16.3078 10.5353 16.2042 11.6259 16.0415 12.7165C15.864 13.7532 15.6273 15.9882 15.4942 17.6982C15.3611 19.3947 15.2132 20.8353 15.1836 20.8892C15.0357 21.1046 14.8434 20.8488 14.5476 20.014C14.3701 19.5562 13.8967 18.6676 13.4826 18.0348C13.3838 17.8841 13.2918 17.7448 13.206 17.6148L13.2051 17.6135L13.2048 17.6131L13.2048 17.613C12.706 16.8577 12.4177 16.4212 12.2472 15.9426C12.0135 15.287 12.0008 14.5526 11.9708 12.8121V12.8121V12.8121L11.9708 12.8114L11.9707 12.8067L11.9707 12.8062C11.9672 12.6021 11.9634 12.3842 11.9591 12.151C11.8851 8.50222 11.7372 7.39817 11.1455 6.34797C10.7905 5.72863 10.613 5.59399 10.3024 5.7017C10.1101 5.76902 10.1397 5.87673 10.4651 6.3749C11.1307 7.41164 11.3082 8.60994 11.3526 12.2452C11.397 15.9209 11.4266 16.0556 12.4472 17.5231C13.7753 19.4425 14.381 20.9464 14.9799 24H15.6C16.9255 24 18 22.9255 18 21.6V2.4C18 1.07452 16.9255 0 15.6 0H2.4ZM11.9969 24C10.6693 21.9367 9.48591 19.889 9.28179 19.2735C9.22262 19.0984 9.07471 18.9773 8.88242 18.9773C8.63096 18.9773 8.60138 19.0311 8.69013 19.3408C8.86621 19.9934 9.88713 21.8141 11.28 24H11.9969ZM5.18452 1.23166C5.05139 1.32591 4.91827 1.62212 4.8739 1.87793C4.84431 2.13375 4.72598 2.63192 4.60765 2.99545C4.43015 3.56094 4.44494 3.65519 4.65202 3.84369C5.05139 4.20722 5.46556 3.96486 5.79097 3.14355C6.38263 1.71636 6.02763 0.625774 5.18452 1.23166ZM2.99531 6.94041C2.99531 6.52302 3.42427 5.24394 3.67572 4.86694C3.92718 4.51688 4.43009 4.50341 4.65196 4.84001C4.84425 5.12276 4.10468 7.34433 3.79405 7.45204C3.43906 7.57322 2.99531 7.29047 2.99531 6.94041ZM2.93657 8.4215C2.72949 8.59653 2.71469 8.82542 2.78865 9.72751C2.89219 10.8854 3.01052 11.1682 3.42469 11.1682C3.89802 11.1682 4.03114 10.872 4.03114 9.74097C4.03114 8.9062 3.97197 8.5696 3.79447 8.4215C3.49864 8.15221 3.2324 8.15221 2.93657 8.4215ZM3.77934 14.6419C3.52789 14.3592 3.11372 12.555 3.21727 12.2453C3.29122 12.0164 3.40956 11.976 3.77934 12.0029C4.23788 12.0433 4.26746 12.0837 4.50413 12.9858C4.85912 14.2649 4.81475 14.7227 4.31184 14.7765C4.10476 14.8035 3.86809 14.7361 3.77934 14.6419ZM4.35647 15.6921C4.06064 15.8806 4.03105 15.9748 4.1198 16.8635C4.25293 18.1426 4.38605 18.4388 4.82979 18.4388C5.525 18.4388 5.64333 17.8464 5.27354 16.1095C5.15521 15.6113 4.75584 15.4363 4.35647 15.6921ZM3.46877 21.7106C3.4244 21.4547 4.01606 19.7313 4.26751 19.3678C4.31189 19.3005 4.43022 19.2466 4.54855 19.2466C4.9923 19.2466 5.21417 19.4217 5.21417 19.7852C5.21417 20.2026 4.71126 21.6163 4.44501 21.8991C4.17876 22.1953 3.52794 22.0606 3.46877 21.7106Z" fill="white"/>
</svg>
