<svg width="44" height="44" viewBox="0 0 44 44" fill="none" xmlns="http://www.w3.org/2000/svg">
<rect width="44" height="44" rx="12" fill="url(#paint0_linear_3334_38204)"/>
<path fill-rule="evenodd" clip-rule="evenodd" d="M10.5987 11.8487C9.5 12.9462 9.5 14.715 9.5 18.25V25.75C9.5 29.285 9.5 31.0538 10.5987 32.1513C11.6962 33.25 13.465 33.25 17 33.25H27C30.535 33.25 32.3038 33.25 33.4013 32.1513C34.5 31.0538 34.5 29.285 34.5 25.75V18.25C34.5 14.715 34.5 12.9462 33.4013 11.8487C32.3038 10.75 30.535 10.75 27 10.75H17C13.465 10.75 11.6962 10.75 10.5987 11.8487ZM27 17C27.3315 17 27.6495 17.1317 27.8839 17.3661C28.1183 17.6005 28.25 17.9185 28.25 18.25V28.25C28.25 28.5815 28.1183 28.8995 27.8839 29.1339C27.6495 29.3683 27.3315 29.5 27 29.5C26.6685 29.5 26.3505 29.3683 26.1161 29.1339C25.8817 28.8995 25.75 28.5815 25.75 28.25V18.25C25.75 17.9185 25.8817 17.6005 26.1161 17.3661C26.3505 17.1317 26.6685 17 27 17ZM18.25 20.75C18.25 20.4185 18.1183 20.1005 17.8839 19.8661C17.6495 19.6317 17.3315 19.5 17 19.5C16.6685 19.5 16.3505 19.6317 16.1161 19.8661C15.8817 20.1005 15.75 20.4185 15.75 20.75V28.25C15.75 28.5815 15.8817 28.8995 16.1161 29.1339C16.3505 29.3683 16.6685 29.5 17 29.5C17.3315 29.5 17.6495 29.3683 17.8839 29.1339C18.1183 28.8995 18.25 28.5815 18.25 28.25V20.75ZM23.25 23.25C23.25 22.9185 23.1183 22.6005 22.8839 22.3661C22.6495 22.1317 22.3315 22 22 22C21.6685 22 21.3505 22.1317 21.1161 22.3661C20.8817 22.6005 20.75 22.9185 20.75 23.25V28.25C20.75 28.5815 20.8817 28.8995 21.1161 29.1339C21.3505 29.3683 21.6685 29.5 22 29.5C22.3315 29.5 22.6495 29.3683 22.8839 29.1339C23.1183 28.8995 23.25 28.5815 23.25 28.25V23.25Z" fill="#37CAC3"/>
<defs>
<linearGradient id="paint0_linear_3334_38204" x1="22" y1="44" x2="22" y2="0" gradientUnits="userSpaceOnUse">
<stop stop-color="#C4F0EE"/>
<stop offset="1" stop-color="#CFFFFD"/>
</linearGradient>
</defs>
</svg>
