<svg width="24" height="24" viewBox="0 0 24 24" fill="none" xmlns="http://www.w3.org/2000/svg">
<path d="M12 0C5.376 0 0 5.376 0 12C0 18.624 5.376 24 12 24C18.624 24 24 18.624 24 12C24 5.376 18.624 0 12 0ZM12 21.6C6.696 21.6 2.4 17.304 2.4 12C2.4 9.78 3.156 7.74 4.428 6.12L17.88 19.572C16.26 20.844 14.22 21.6 12 21.6ZM19.572 17.88L6.12 4.428C7.74 3.156 9.78 2.4 12 2.4C17.304 2.4 21.6 6.696 21.6 12C21.6 14.22 20.844 16.26 19.572 17.88Z" fill="white"/>
<path d="M8.44142 10.6973C8.47893 10.7348 8.5 10.7857 8.5 10.8387V16.55C8.5 16.6605 8.58954 16.75 8.7 16.75H14.4113C14.4643 16.75 14.5152 16.7711 14.5527 16.8086L16.6412 18.8971C16.6879 18.9438 16.7093 19.0107 16.6935 19.0748C16.4918 19.8926 15.7548 20.5 14.875 20.5H8.875C7.84 20.5 7 19.66 7 18.625V9.7387C7 9.56052 7.21543 9.47129 7.34142 9.59728L8.44142 10.6973ZM11.875 17.5C11.2525 17.5 10.75 18.0025 10.75 18.625C10.75 19.2475 11.2525 19.75 11.875 19.75C12.4975 19.75 13 19.2475 13 18.625C13 18.0025 12.4975 17.5 11.875 17.5ZM14.875 4C15.91 4 16.75 4.84 16.75 5.875V14.0113C16.75 14.1895 16.5346 14.2787 16.4086 14.1527L15.3086 13.0527C15.2711 13.0152 15.25 12.9643 15.25 12.9113V6.45C15.25 6.33954 15.1605 6.25 15.05 6.25H8.5887C8.53566 6.25 8.48479 6.22893 8.44728 6.19142L7.33659 5.08073C7.27371 5.01785 7.259 4.92035 7.30788 4.84607C7.64316 4.3366 8.21993 4 8.875 4H14.875Z" fill="white"/>
</svg>
