<svg width="19" height="19" viewBox="0 0 19 19" fill="none" xmlns="http://www.w3.org/2000/svg">
<path d="M10.196 2.11426V3.59911C13.4552 4.00002 15.7641 6.96229 15.3632 10.2215C15.1993 11.5349 14.6022 12.7561 13.6664 13.6919C12.7305 14.6278 11.5093 15.2249 10.196 15.3888V16.8737C14.2793 16.4282 17.2119 12.7606 16.7664 8.68471C16.3803 5.22502 13.6556 2.48547 10.196 2.11426ZM8.7111 2.11426C7.25595 2.24789 5.88247 2.81956 4.75398 3.74759L5.81565 4.89092C6.64716 4.22274 7.64944 3.79214 8.7111 3.64365V2.1588M3.70716 4.83895C2.77553 5.96345 2.20382 7.34227 2.06641 8.79608H3.55125C3.69232 7.74183 4.10807 6.73956 4.76883 5.90062L3.70716 4.83895ZM2.07383 10.2809C2.22232 11.7361 2.79398 13.1096 3.71459 14.238L4.76883 13.1764C4.11315 12.3372 3.69518 11.3371 3.55868 10.2809H2.07383ZM5.78595 14.2677L4.75398 15.2849C5.87873 16.2221 7.25548 16.8059 8.7111 16.9627V15.4779C7.65491 15.3414 6.65485 14.9234 5.81565 14.2677H5.78595ZM6.91444 13.1021L7.59747 10.2141L5.37019 8.29865L8.30277 8.02395L9.45353 5.3438L10.6043 8.05365L13.5369 8.29865L11.3096 10.2141L11.9926 13.1021L9.45353 11.5727L6.91444 13.1021Z" fill="#969AB7"/>
</svg>
