<svg width="24" height="24" viewBox="0 0 24 24" fill="none" xmlns="http://www.w3.org/2000/svg">
<g clip-path="url(#clip0_3442_25169)">
<path d="M5 11.9004C7.85523 11.9004 10.0996 14.1448 10.0996 17C10.0996 19.8552 7.85523 22.0996 5 22.0996C2.14477 22.0996 -0.0996094 19.8552 -0.0996094 17C-0.0996094 14.1448 2.14477 11.9004 5 11.9004ZM19 11.9004C21.8552 11.9004 24.0996 14.1448 24.0996 17C24.0996 19.8552 21.8552 22.0996 19 22.0996C16.1448 22.0996 13.9004 19.8552 13.9004 17C13.9004 14.1448 16.1448 11.9004 19 11.9004ZM5 13.5996C3.15523 13.5996 1.59961 15.1552 1.59961 17C1.59961 18.8448 3.15523 20.4004 5 20.4004C6.84477 20.4004 8.40039 18.8448 8.40039 17C8.40039 15.1552 6.84477 13.5996 5 13.5996ZM19 13.5996C17.1552 13.5996 15.5996 15.1552 15.5996 17C15.5996 18.8448 17.1552 20.4004 19 20.4004C20.8448 20.4004 22.4004 18.8448 22.4004 17C22.4004 15.1552 20.8448 13.5996 19 13.5996ZM15.5 1.40039C16.6552 1.40039 17.5996 2.34477 17.5996 3.5C17.5996 4.65523 16.6552 5.59961 15.5 5.59961C14.3448 5.59961 13.4004 4.65523 13.4004 3.5C13.4004 2.34477 14.3448 1.40039 15.5 1.40039ZM19.2002 11.0996H19.0996C16.9719 11.0995 15.2473 10.2882 13.9297 8.9707L13.1992 8.24121L10.9395 10.501L13.0723 12.7305L13.0996 12.7598V19.0996H10.9004V14.0449L7.73438 11.2754V11.2744C7.3062 10.9496 7.09961 10.4179 7.09961 9.7998C7.09966 9.27251 7.31139 8.74721 7.72949 8.3291L10.5293 5.5293C10.8544 5.10453 11.3843 4.90039 12 4.90039C12.6262 4.90039 13.1476 5.10996 13.6621 5.52148L13.6709 5.5293L15.5703 7.42969C16.4535 8.31291 17.6291 8.90029 19.0996 8.90039H19.2002V11.0996Z" fill="white" stroke="white" stroke-width="0.2"/>
</g>
<defs>
<clipPath id="clip0_3442_25169">
<rect width="24" height="24" fill="white"/>
</clipPath>
</defs>
</svg>
