<svg width="32" height="32" viewBox="0 0 32 32" fill="none" xmlns="http://www.w3.org/2000/svg">
<g clip-path="url(#clip0_199_813)">
<path d="M16 4C9.37259 4 4 9.37259 4 16V24C4 26.2092 5.79087 28 8 28H9.84263C10.8527 28 11.7761 27.4293 12.2278 26.5259L12.4609 26.0597C12.0417 25.7672 11.6357 25.4279 11.2561 25.0456C9.79113 23.5704 8.66667 21.4061 8.66667 18.6667C8.66667 17.6867 8.83212 16.7115 9.1318 15.7901C9.26476 15.3813 9.63444 15.3333 10 15.3333C12.2542 15.3333 14.2472 14.2152 15.4549 12.5003C15.5797 12.3229 15.7831 12.2174 16 12.2175C16.2168 12.2175 16.4201 12.3229 16.5451 12.5003C17.7527 14.2152 19.7457 15.3333 22 15.3333C22.3656 15.3333 22.7353 15.3813 22.8683 15.7901C23.1679 16.7116 23.3333 17.6867 23.3333 18.6667C23.3333 21.4061 22.2089 23.5704 20.7439 25.0456C20.3643 25.4279 19.9583 25.7672 19.5392 26.0597L19.7723 26.5259C20.224 27.4293 21.1473 28 22.1573 28H24C26.2092 28 28 26.2092 28 24V16C28 9.37259 22.6275 4 16 4Z" fill="#B7B7B7"/>
</g>
<defs>
<clipPath id="clip0_199_813">
<rect width="32" height="32" fill="white"/>
</clipPath>
</defs>
</svg>
