<svg width="22" height="26" viewBox="0 0 22 26" fill="none" xmlns="http://www.w3.org/2000/svg">
<path d="M10.2949 25.0361C11.2652 25.3251 12.1044 25.082 13.8018 24.0791C16.4485 22.5222 18.7629 19.8198 19.8535 16.9961L20.0322 16.5254C20.4286 15.4589 20.6768 14.5982 20.8389 13.5303C21.0234 12.3141 21.0956 10.8321 21.1533 8.47461V8.47363L21.249 4.12305L21.2529 3.97656L21.1064 3.96973L18.6426 3.85449H18.6416C17.1051 3.78726 16.0478 3.65756 15.1406 3.37012C14.2365 3.08361 13.4715 2.63783 12.5264 1.92188L12.5273 1.9209C12.1516 1.63185 11.7992 1.36679 11.5381 1.17578C11.4077 1.08041 11.2987 1.00216 11.2207 0.949219C11.1821 0.923058 11.1486 0.901706 11.123 0.886719C11.1111 0.879715 11.0966 0.871546 11.082 0.865234C11.0756 0.862462 11.0612 0.856957 11.0439 0.853516C11.0373 0.852208 11.0261 0.851438 11.0117 0.851562V0.850586C11.0106 0.850586 11.009 0.851536 11.0078 0.851562C11.0048 0.851665 11.0013 0.850279 10.998 0.850586C10.9876 0.851607 10.9722 0.854379 10.9551 0.861328C10.953 0.862114 10.9511 0.861936 10.9502 0.862305C10.9407 0.866088 10.9326 0.870867 10.9268 0.874023C10.9146 0.880533 10.901 0.888527 10.8887 0.896484C10.8636 0.912746 10.8308 0.935704 10.793 0.962891C10.7166 1.01779 10.6114 1.09656 10.4854 1.19141C10.2319 1.38212 9.89145 1.64119 9.5166 1.91992L9.51367 1.92188C8.59756 2.63759 7.85281 3.08385 6.95898 3.37012C6.06175 3.65742 5.00442 3.78725 3.45801 3.85449H3.45703L0.993164 3.96973L0.84668 3.97656L0.849609 4.12305L0.946289 8.47363V8.47461C1.06195 13.0236 1.23594 14.2556 2.11035 16.6846L2.24805 17.0508C2.94917 18.8467 3.85604 20.165 5.45605 21.7832L5.45703 21.7842C7.00652 23.3336 8.8942 24.6027 10.293 25.0361H10.2949ZM9.63477 22.9121L9.63574 22.9111C7.50871 21.8286 5.33644 19.6191 4.27246 17.4531C3.64078 16.1706 3.25182 15.1525 3.00488 13.9297C2.75738 12.7038 2.65146 11.2661 2.59375 9.14062V9.13965L2.48242 5.6084L4.14746 5.50098H4.14844C6.80523 5.32637 8.97635 4.58888 10.4717 3.33008L10.9023 2.99023C10.9568 2.94912 11.0028 2.91491 11.0381 2.88965C11.078 2.91565 11.1324 2.95209 11.1973 2.99902C11.3345 3.0984 11.516 3.23678 11.707 3.38965L12.0127 3.62207C13.559 4.74404 15.4033 5.31858 17.9307 5.48242L19.6162 5.60742L19.5059 9.13965V9.14062C19.4481 11.2663 19.3423 12.6998 19.0947 13.9258C18.8478 15.1485 18.458 16.1706 17.8262 17.4727V17.4736C16.7626 19.6379 14.6116 21.8079 12.4844 22.9102L11.0498 23.6279L9.63477 22.9121Z" fill="white" stroke="white" stroke-width="0.3"/>
<path d="M10.8007 8.16234C10.6274 8.60515 9.91504 9.60627 9.22195 10.3764C8.52887 11.1465 7.83578 12.0321 7.68176 12.3401C7.35447 12.9947 7.29671 14.5734 7.60475 15.3627C7.85503 16.0173 8.66364 16.9029 9.35672 17.2687C10.0691 17.6345 10.0883 17.6153 9.83803 16.9607C9.64551 16.4216 9.68401 16.2291 10.2616 15.1317C10.6081 14.4386 10.9739 13.8803 11.0509 13.8803C11.1279 13.8803 11.4937 14.4386 11.8403 15.1317C12.4179 16.2291 12.4564 16.4216 12.2638 16.9607C12.0136 17.6153 12.0328 17.6345 12.7644 17.2687C13.4575 16.9029 14.4779 15.7285 14.6319 15.1125C14.8822 14.1498 14.6126 12.6096 14.0158 11.6855C13.4575 10.7999 13.1687 10.5881 13.1687 11.0502C13.1687 11.2042 13.0147 11.4545 12.8222 11.647C12.4756 11.9551 12.4564 11.9166 12.4564 10.8577C12.4756 10.1068 12.3216 9.41375 12.0328 8.73991C11.3975 7.29598 11.205 7.19972 10.8007 8.16234Z" fill="white"/>
</svg>
