<svg width="10" height="11" viewBox="0 0 10 11" fill="none" xmlns="http://www.w3.org/2000/svg">
<g clip-path="url(#clip0_3334_20459)">
<path d="M7.79183 5.83332C7.67516 5.76665 7.55433 5.71248 7.4335 5.66665C7.55433 5.62082 7.67516 5.56665 7.79183 5.49998C8.59183 5.03748 9.03766 4.19998 9.04183 3.33748C8.296 2.90832 7.346 2.87498 6.54183 3.33748C6.42516 3.40415 6.31683 3.48332 6.21683 3.56248C6.23766 3.43332 6.25016 3.29998 6.25016 3.16665C6.25016 2.24165 5.746 1.43748 5.00016 1.00415C4.25433 1.43748 3.75016 2.24165 3.75016 3.16665C3.75016 3.29998 3.76266 3.43332 3.7835 3.56248C3.6835 3.47915 3.57516 3.39998 3.4585 3.33332C2.6585 2.87082 1.7085 2.90415 0.958496 3.33332C0.958496 4.19582 1.40433 5.03332 2.2085 5.49582C2.32516 5.56248 2.446 5.61665 2.56683 5.66248C2.446 5.70832 2.32516 5.76248 2.2085 5.82915C1.4085 6.29165 0.962663 7.12915 0.958496 7.99165C1.70433 8.42082 2.65433 8.45415 3.4585 7.99165C3.57516 7.92498 3.6835 7.84582 3.7835 7.76665C3.76266 7.89998 3.75016 8.03332 3.75016 8.16665C3.75016 9.09165 4.25433 9.89582 5.00016 10.3292C5.746 9.89582 6.25016 9.09165 6.25016 8.16665C6.25016 8.03332 6.23766 7.89998 6.21683 7.77082C6.31683 7.85415 6.42516 7.92915 6.54183 7.99582C7.34183 8.45832 8.29183 8.42498 9.04183 7.99582C9.03766 7.13332 8.59183 6.29582 7.79183 5.83332ZM5.00016 7.33332C4.07933 7.33332 3.3335 6.58748 3.3335 5.66665C3.3335 4.74582 4.07933 3.99998 5.00016 3.99998C5.921 3.99998 6.66683 4.74582 6.66683 5.66665C6.66683 6.58748 5.921 7.33332 5.00016 7.33332Z" fill="white"/>
</g>
<defs>
<clipPath id="clip0_3334_20459">
<rect width="10" height="10" fill="white" transform="translate(0 0.666687)"/>
</clipPath>
</defs>
</svg>
