<svg width="24" height="24" viewBox="0 0 24 24" fill="none" xmlns="http://www.w3.org/2000/svg">
<g clip-path="url(#clip0_3445_25460)">
<path d="M22 9.7998C22 9.9998 21.896 10.1999 21.688 10.3999L17.325 14.5999L18.358 20.6998C18.366 20.6998 18.37 20.7999 18.37 20.8999C18.37 21.0999 18.326 21.1998 18.238 21.2998C18.158 21.3998 18.038 21.4999 17.877 21.4999C17.725 21.4999 17.565 21.4999 17.397 21.3999L12 18.4999L6.6034 21.3999C6.4271 21.4999 6.2668 21.4999 6.1226 21.4999C5.9543 21.4999 5.8261 21.3998 5.738 21.2998C5.6578 21.1998 5.6178 21.0999 5.6178 20.8999C5.6178 20.8999 5.6258 20.7998 5.6418 20.6998L6.6755 14.5999L2.3005 10.3999C2.1002 10.1999 2 9.9998 2 9.7998C2 9.4998 2.2244 9.2998 2.6731 9.2998L8.7067 8.3999L11.411 2.8999C11.563 2.5999 11.76 2.3999 12 2.3999C12.24 2.3999 12.437 2.5999 12.589 2.8999L15.293 8.3999L21.327 9.2998C21.776 9.2998 22 9.4998 22 9.7998Z" fill="#E67E22"/>
<path d="M22 8.7998C22 8.9998 21.896 9.1999 21.688 9.3999L17.325 13.5999L18.358 19.6998C18.366 19.6998 18.37 19.7999 18.37 19.8999C18.37 20.0999 18.326 20.1998 18.238 20.2998C18.158 20.3998 18.038 20.4999 17.877 20.4999C17.725 20.4999 17.565 20.4999 17.397 20.3999L12 17.4999L6.6034 20.3999C6.4271 20.4999 6.2668 20.4999 6.1226 20.4999C5.9543 20.4999 5.8261 20.3998 5.738 20.2998C5.6578 20.1998 5.6178 20.0999 5.6178 19.8999C5.6178 19.8999 5.6258 19.7998 5.6418 19.6998L6.6755 13.5999L2.3005 9.3999C2.1002 9.1999 2 8.9998 2 8.7998C2 8.4998 2.2244 8.2998 2.6731 8.2998L8.7067 7.3999L11.411 1.8999C11.563 1.5999 11.76 1.3999 12 1.3999C12.24 1.3999 12.437 1.5999 12.589 1.8999L15.293 7.3999L21.327 8.2998C21.776 8.2998 22 8.4998 22 8.7998Z" fill="#F1C40F"/>
</g>
<defs>
<clipPath id="clip0_3445_25460">
<rect width="24" height="24" fill="white"/>
</clipPath>
</defs>
</svg>
