<svg width="18" height="25" viewBox="0 0 18 25" fill="none" xmlns="http://www.w3.org/2000/svg">
<path d="M3.17031 0.374117C2.6987 0.567047 2.42002 1.0065 2.42002 1.56386C2.42002 2.01403 2.47361 2.13193 2.77373 2.43205C3.106 2.76432 3.17031 2.78575 4.02778 2.82863L4.93884 2.86078V3.9219V4.98302H4.09209C3.3418 4.98302 3.20246 5.01518 2.9345 5.24026C2.65583 5.48679 2.63439 5.56182 2.60223 6.50504L2.55936 7.51256L2.08775 7.64118C1.83051 7.71621 1.42321 7.9413 1.18741 8.15567C0.426402 8.84164 0.43712 8.7559 0.447839 16.3338C0.447839 21.2428 0.479994 23.14 0.576459 23.4187C0.651488 23.6223 0.865856 23.8903 1.06951 24.0296L1.43393 24.2761H6.46085C11.9058 24.2761 11.8844 24.2761 12.2702 23.6973C12.431 23.4401 12.4417 22.7863 12.4203 16.1516L12.3881 8.8738L12.0773 8.47722C11.7021 7.98417 11.2305 7.68406 10.7053 7.59831L10.298 7.52328V6.4836C10.298 5.13308 10.223 5.05805 8.92608 4.98302L7.99358 4.92943V3.91118V2.89294L9.2262 2.86078L10.4695 2.82863L10.9626 3.22521C11.8522 3.91118 12.7847 3.76113 13.1598 2.8715C13.3957 2.28199 13.2134 1.78894 12.5167 1.178C11.4985 0.28837 11.3699 0.266933 7.10396 0.277651C5.05675 0.277651 3.28821 0.320524 3.17031 0.374117ZM10.073 10.7066C10.2337 10.7924 10.4481 10.9853 10.5553 11.1354C10.7804 11.4784 10.7804 12.2072 10.5553 12.5502C10.1801 13.1076 10.0408 13.129 6.46085 13.129C3.19175 13.129 3.14887 13.129 2.78445 12.8825C2.03416 12.3787 2.03416 11.3069 2.78445 10.8031C3.14887 10.5566 3.19175 10.5566 6.46085 10.5566C9.14045 10.5566 9.82643 10.5887 10.073 10.7066ZM6.73953 14.5438C6.81456 14.6189 6.86815 14.8975 6.86815 15.1655C6.86815 15.6585 6.72881 15.9158 6.48229 15.9158C6.22505 15.9158 6.01068 15.5728 6.01068 15.1655C6.01068 14.5653 6.41798 14.2223 6.73953 14.5438ZM4.57442 15.7443C4.98172 16.1516 5.04603 16.4946 4.72448 16.6661C4.46723 16.8054 4.18856 16.6768 3.87772 16.2802C3.59904 15.9265 3.58833 15.6371 3.84557 15.4978C4.12425 15.3263 4.17784 15.3477 4.57442 15.7443ZM9.12973 15.487C9.39769 15.6371 9.38697 15.9265 9.1083 16.2802C8.79746 16.6768 8.51878 16.8054 8.26154 16.6661C7.93999 16.4946 8.0043 16.1516 8.4116 15.7443C8.8189 15.337 8.82962 15.337 9.12973 15.487ZM7.23258 16.7733C7.90784 17.1055 8.10077 17.4485 8.10077 18.2953C8.10077 18.9384 8.06861 19.0455 7.77922 19.3564C7.17899 19.9888 6.50373 20.1388 5.732 19.7851C4.48867 19.217 4.48867 17.3306 5.732 16.7625C6.30008 16.5053 6.69666 16.5053 7.23258 16.7733ZM4.01706 18.0809C4.20999 18.4024 3.97419 18.649 3.41683 18.6811C2.94522 18.7133 2.5808 18.5311 2.5808 18.2738C2.5808 18.2202 2.65583 18.1023 2.75229 18.0059C2.9881 17.7701 3.85629 17.8237 4.01706 18.0809ZM10.2337 18.0809C10.4267 18.4024 10.1909 18.649 9.6335 18.6811C9.16189 18.7133 8.79746 18.5311 8.79746 18.2738C8.79746 18.2202 8.87249 18.1023 8.96896 18.0059C9.20476 17.7701 10.073 17.8237 10.2337 18.0809ZM4.73519 19.8816C5.00315 20.0316 4.99243 20.321 4.71376 20.6747C4.40292 21.0713 4.12425 21.1999 3.867 21.0606C3.54545 20.8891 3.60976 20.5461 4.01706 20.1388C4.42436 19.7315 4.43508 19.7315 4.73519 19.8816ZM8.96896 20.1388C9.37626 20.5461 9.44057 20.8891 9.11901 21.0606C8.86177 21.1999 8.5831 21.0713 8.27226 20.6747C7.99358 20.321 7.98287 20.0316 8.24011 19.8923C8.51878 19.7208 8.57238 19.7422 8.96896 20.1388ZM6.73953 20.7605C6.81456 20.8355 6.86815 21.1142 6.86815 21.3822C6.86815 21.8752 6.72881 22.1324 6.48229 22.1324C6.22505 22.1324 6.01068 21.7895 6.01068 21.3822C6.01068 20.7819 6.41798 20.4389 6.73953 20.7605Z" fill="white"/>
<path d="M3.17931 11.5855C3.08284 11.6713 3.00781 11.7892 3.00781 11.8427C3.00781 11.8963 3.08284 12.0142 3.17931 12.1C3.31865 12.25 3.76882 12.2715 6.4377 12.2715C8.14192 12.2715 9.59962 12.2393 9.69609 12.2072C9.92117 12.1214 9.92117 11.5641 9.69609 11.4783C9.59962 11.4462 8.14192 11.414 6.4377 11.414C3.76882 11.414 3.31865 11.4355 3.17931 11.5855Z" fill="white"/>
<path d="M5.94565 17.6629C5.73128 17.8451 5.65625 18.0166 5.65625 18.2738C5.65625 18.531 5.73128 18.7025 5.94565 18.8847C6.31007 19.1849 6.64234 19.1956 7.01749 18.9062C7.23185 18.7347 7.29616 18.5954 7.29616 18.2738C7.29616 17.5235 6.52444 17.1698 5.94565 17.6629Z" fill="white"/>
<path d="M14.7992 6.05472C13.6738 7.70535 13.3951 8.70216 13.8024 9.55963C14.3704 10.7601 16.2462 10.8566 16.9965 9.70969C17.4466 9.03443 17.4145 8.44492 16.8464 7.33021C16.2569 6.1619 15.7102 5.41162 15.4423 5.41162C15.3137 5.41162 15.0886 5.6367 14.7992 6.05472Z" fill="white"/>
</svg>
