<svg width="24" height="24" viewBox="0 0 24 24" fill="none" xmlns="http://www.w3.org/2000/svg">
<g clip-path="url(#clip0_3442_25131)">
<path d="M9.82715 2.67188C10.2372 2.26182 10.9024 2.26182 11.3125 2.67188L11.3281 2.6875C11.7382 3.09755 11.7382 3.7628 11.3281 4.17285L9.17285 6.32812C8.80185 6.69912 8.80185 7.30088 9.17285 7.67188L16.3281 14.8271C16.6991 15.1981 17.3009 15.1981 17.6719 14.8271L19.8271 12.6719C20.2372 12.2618 20.9024 12.2618 21.3125 12.6719L21.3281 12.6875C21.7382 13.0976 21.7382 13.7628 21.3281 14.1729L21.3125 14.1885C20.9416 14.5595 20.9415 15.1613 21.3125 15.5322L21.3281 15.5479C21.7381 15.9579 21.7381 16.6222 21.3281 17.0322L20.6025 17.7578C20.2316 18.1288 20.2316 18.7306 20.6025 19.1016L20.6182 19.1172C21.0282 19.5272 21.0282 20.1925 20.6182 20.6025L20.6025 20.6182C20.1925 21.0282 19.5272 21.0282 19.1172 20.6182L19.1016 20.6025C18.7306 20.2316 18.1288 20.2316 17.7578 20.6025L17.0322 21.3281C16.6222 21.7381 15.9579 21.7381 15.5479 21.3281L15.5322 21.3125C15.1613 20.9415 14.5595 20.9416 14.1885 21.3125L14.1729 21.3281C13.7628 21.7382 13.0976 21.7382 12.6875 21.3281L12.6719 21.3125C12.2618 20.9024 12.2618 20.2372 12.6719 19.8271L14.8271 17.6719C15.1981 17.3009 15.1981 16.6991 14.8271 16.3281L7.67188 9.17285C7.30088 8.80185 6.69912 8.80185 6.32812 9.17285L4.17285 11.3281C3.7628 11.7382 3.09755 11.7382 2.6875 11.3281L2.67188 11.3125C2.26182 10.9024 2.26182 10.2372 2.67188 9.82715L2.6875 9.81152C3.0584 9.44052 3.05847 8.83874 2.6875 8.46777L2.67188 8.45215C2.26194 8.04211 2.26191 7.3778 2.67188 6.96777L3.39746 6.24219C3.76844 5.87121 3.7684 5.26944 3.39746 4.89844L3.38184 4.88281C2.97179 4.47276 2.97179 3.80751 3.38184 3.39746L3.39746 3.38184C3.80751 2.97179 4.47276 2.97179 4.88281 3.38184L4.89844 3.39746C5.26944 3.7684 5.87121 3.76844 6.24219 3.39746L6.96777 2.67188C7.3778 2.26191 8.04211 2.26194 8.45215 2.67188L8.46777 2.6875C8.83874 3.05847 9.44052 3.0584 9.81152 2.6875L9.82715 2.67188Z" fill="white" stroke="white" stroke-width="0.1"/>
</g>
<defs>
<clipPath id="clip0_3442_25131">
<rect width="24" height="24" fill="white"/>
</clipPath>
</defs>
</svg>
