<svg width="13" height="13" viewBox="0 0 13 13" fill="none" xmlns="http://www.w3.org/2000/svg">
<path d="M7.75513 1.69012H4.91138V2.63804H7.75513V1.69012ZM5.85929 7.85158H6.80721V5.00783H5.85929V7.85158ZM9.66518 4.71872L10.3382 4.0457C10.1344 3.80398 9.91164 3.57648 9.66992 3.37742L8.9969 4.05044C8.26226 3.46273 7.33804 3.112 6.33325 3.112C3.97768 3.112 2.06763 5.02205 2.06763 7.37762C2.06763 9.7332 3.97294 11.6432 6.33325 11.6432C8.69356 11.6432 10.5989 9.7332 10.5989 7.37762C10.5989 6.37283 10.2481 5.44861 9.66518 4.71872ZM6.33325 10.6953C4.49903 10.6953 3.01554 9.21184 3.01554 7.37762C3.01554 5.54341 4.49903 4.05992 6.33325 4.05992C8.16747 4.05992 9.65096 5.54341 9.65096 7.37762C9.65096 9.21184 8.16747 10.6953 6.33325 10.6953Z" fill="white"/>
</svg>
