<svg width="24" height="25" viewBox="0 0 24 25" fill="none" xmlns="http://www.w3.org/2000/svg">
<mask id="mask0_3334_23318" style="mask-type:luminance" maskUnits="userSpaceOnUse" x="4" y="4" width="16" height="17">
<path d="M19.0635 4.90088V20.6411H4.40039V4.90088H19.0635Z" fill="white" stroke="white" stroke-width="0.2"/>
</mask>
<g mask="url(#mask0_3334_23318)">
<mask id="path-2-outside-1_3334_23318" maskUnits="userSpaceOnUse" x="3.5" y="4.00049" width="16" height="17" fill="black">
<rect fill="white" x="3.5" y="4.00049" width="16" height="17"/>
<path fill-rule="evenodd" clip-rule="evenodd" d="M8.4016 16.5804C8.57335 16.5804 8.7451 16.6021 8.9131 16.6471C9.4201 16.7836 9.86035 17.1226 10.1213 17.5779C10.2908 17.8636 10.3846 18.1974 10.3876 18.5379C10.3876 19.0254 10.7791 19.4161 11.2606 19.4161H12.2003C12.6796 19.4161 13.0711 19.0276 13.0733 18.5484C13.0703 18.0189 13.2773 17.5156 13.6561 17.1369C14.0296 16.7634 14.5516 16.5391 15.0736 16.5541C15.4156 16.5624 15.7448 16.6546 16.0351 16.8196C16.4528 17.0589 16.9861 16.9164 17.2276 16.5039L17.7256 15.6736C17.8366 15.4824 17.8688 15.2424 17.8096 15.0211C17.7511 14.7999 17.6041 14.6079 17.4061 14.4946C16.9426 14.2276 16.6118 13.7971 16.4746 13.2811C16.3388 12.7749 16.4131 12.2221 16.6778 11.7669C16.8503 11.4669 17.1031 11.2141 17.4061 11.0401C17.8126 10.8024 17.9551 10.2706 17.7188 9.85662C17.7091 9.84012 17.7001 9.82287 17.6926 9.80487L17.2531 9.04287C17.0138 8.62662 16.4813 8.48337 16.0636 8.72112C15.6121 8.98812 15.0751 9.06462 14.5591 8.92887C14.0438 8.79537 13.6118 8.46912 13.3426 8.00862C13.1701 7.72062 13.0763 7.38537 13.0733 7.04412C13.0801 6.78762 12.9901 6.55737 12.8266 6.38862C12.6638 6.22062 12.4351 6.12537 12.2003 6.12537H11.2606C11.0281 6.12537 10.8106 6.21612 10.6463 6.37962C10.4828 6.54387 10.3936 6.76212 10.3951 6.99462C10.3793 8.09112 9.4831 8.97387 8.39785 8.97387C8.04985 8.97012 7.7146 8.87637 7.4236 8.70237C7.01485 8.46987 6.48085 8.61312 6.2416 9.02937L5.73385 9.86412C5.50135 10.2676 5.64385 10.8009 6.05785 11.0416C6.6721 11.3971 7.05535 12.0601 7.05535 12.7711C7.05535 13.4821 6.6721 14.1444 6.05635 14.5006C5.6446 14.7391 5.5021 15.2694 5.7406 15.6819L6.21385 16.4979C6.33085 16.7086 6.5221 16.8609 6.74335 16.9231C6.96385 16.9846 7.20685 16.9584 7.40935 16.8459C7.7071 16.6711 8.0536 16.5804 8.4016 16.5804ZM12.2005 20.5412H11.2607C10.159 20.5412 9.26274 19.6457 9.26274 18.544C9.26124 18.4082 9.22224 18.2672 9.14949 18.145C9.03174 17.9395 8.84124 17.7925 8.62149 17.734C8.40324 17.6755 8.16399 17.7077 7.96749 17.8217C7.49649 18.0842 6.94224 18.148 6.43524 18.0055C5.92899 17.8622 5.49174 17.5142 5.23524 17.053L4.76649 16.2452C4.21824 15.2942 4.54449 14.0755 5.49399 13.5265C5.76324 13.3712 5.93049 13.0817 5.93049 12.7712C5.93049 12.4607 5.76324 12.1705 5.49399 12.0152C4.54374 11.4632 4.21824 10.2415 4.76574 9.29049L5.27424 8.45574C5.81499 7.51524 7.03749 7.18374 7.99074 7.73124C8.12049 7.80849 8.26149 7.84749 8.40474 7.84899C8.87199 7.84899 9.26274 7.46349 9.27024 6.98949C9.26724 6.46674 9.47349 5.96499 9.84924 5.58624C10.2265 5.20824 10.7275 5.00049 11.2607 5.00049H12.2005C12.7375 5.00049 13.2595 5.22099 13.6337 5.60424C14.0072 5.98974 14.2135 6.51849 14.1977 7.05474C14.1992 7.17549 14.239 7.31499 14.311 7.43724C14.4302 7.63974 14.6185 7.78224 14.842 7.84074C15.0655 7.89624 15.2995 7.86624 15.4982 7.74849C16.4582 7.20024 17.68 7.52874 18.2282 8.48124L18.6955 9.29049C18.7075 9.31224 18.718 9.33324 18.727 9.35499C19.2235 10.2932 18.892 11.4745 17.9695 12.0137C17.8352 12.091 17.7265 12.199 17.6515 12.3295C17.5352 12.5312 17.503 12.7712 17.5615 12.9917C17.6215 13.2167 17.7647 13.4035 17.9665 13.519C18.4217 13.7807 18.7615 14.2217 18.8972 14.731C19.033 15.2395 18.9587 15.7915 18.694 16.2467L18.196 17.0762C17.6477 18.0182 16.426 18.3445 15.4757 17.7955C15.349 17.7227 15.2027 17.683 15.0572 17.6792H15.0527C14.836 17.6792 14.6132 17.7715 14.4512 17.9327C14.287 18.097 14.197 18.316 14.1985 18.5485C14.1932 19.6502 13.297 20.5412 12.2005 20.5412Z"/>
</mask>
<path fill-rule="evenodd" clip-rule="evenodd" d="M8.4016 16.5804C8.57335 16.5804 8.7451 16.6021 8.9131 16.6471C9.4201 16.7836 9.86035 17.1226 10.1213 17.5779C10.2908 17.8636 10.3846 18.1974 10.3876 18.5379C10.3876 19.0254 10.7791 19.4161 11.2606 19.4161H12.2003C12.6796 19.4161 13.0711 19.0276 13.0733 18.5484C13.0703 18.0189 13.2773 17.5156 13.6561 17.1369C14.0296 16.7634 14.5516 16.5391 15.0736 16.5541C15.4156 16.5624 15.7448 16.6546 16.0351 16.8196C16.4528 17.0589 16.9861 16.9164 17.2276 16.5039L17.7256 15.6736C17.8366 15.4824 17.8688 15.2424 17.8096 15.0211C17.7511 14.7999 17.6041 14.6079 17.4061 14.4946C16.9426 14.2276 16.6118 13.7971 16.4746 13.2811C16.3388 12.7749 16.4131 12.2221 16.6778 11.7669C16.8503 11.4669 17.1031 11.2141 17.4061 11.0401C17.8126 10.8024 17.9551 10.2706 17.7188 9.85662C17.7091 9.84012 17.7001 9.82287 17.6926 9.80487L17.2531 9.04287C17.0138 8.62662 16.4813 8.48337 16.0636 8.72112C15.6121 8.98812 15.0751 9.06462 14.5591 8.92887C14.0438 8.79537 13.6118 8.46912 13.3426 8.00862C13.1701 7.72062 13.0763 7.38537 13.0733 7.04412C13.0801 6.78762 12.9901 6.55737 12.8266 6.38862C12.6638 6.22062 12.4351 6.12537 12.2003 6.12537H11.2606C11.0281 6.12537 10.8106 6.21612 10.6463 6.37962C10.4828 6.54387 10.3936 6.76212 10.3951 6.99462C10.3793 8.09112 9.4831 8.97387 8.39785 8.97387C8.04985 8.97012 7.7146 8.87637 7.4236 8.70237C7.01485 8.46987 6.48085 8.61312 6.2416 9.02937L5.73385 9.86412C5.50135 10.2676 5.64385 10.8009 6.05785 11.0416C6.6721 11.3971 7.05535 12.0601 7.05535 12.7711C7.05535 13.4821 6.6721 14.1444 6.05635 14.5006C5.6446 14.7391 5.5021 15.2694 5.7406 15.6819L6.21385 16.4979C6.33085 16.7086 6.5221 16.8609 6.74335 16.9231C6.96385 16.9846 7.20685 16.9584 7.40935 16.8459C7.7071 16.6711 8.0536 16.5804 8.4016 16.5804ZM12.2005 20.5412H11.2607C10.159 20.5412 9.26274 19.6457 9.26274 18.544C9.26124 18.4082 9.22224 18.2672 9.14949 18.145C9.03174 17.9395 8.84124 17.7925 8.62149 17.734C8.40324 17.6755 8.16399 17.7077 7.96749 17.8217C7.49649 18.0842 6.94224 18.148 6.43524 18.0055C5.92899 17.8622 5.49174 17.5142 5.23524 17.053L4.76649 16.2452C4.21824 15.2942 4.54449 14.0755 5.49399 13.5265C5.76324 13.3712 5.93049 13.0817 5.93049 12.7712C5.93049 12.4607 5.76324 12.1705 5.49399 12.0152C4.54374 11.4632 4.21824 10.2415 4.76574 9.29049L5.27424 8.45574C5.81499 7.51524 7.03749 7.18374 7.99074 7.73124C8.12049 7.80849 8.26149 7.84749 8.40474 7.84899C8.87199 7.84899 9.26274 7.46349 9.27024 6.98949C9.26724 6.46674 9.47349 5.96499 9.84924 5.58624C10.2265 5.20824 10.7275 5.00049 11.2607 5.00049H12.2005C12.7375 5.00049 13.2595 5.22099 13.6337 5.60424C14.0072 5.98974 14.2135 6.51849 14.1977 7.05474C14.1992 7.17549 14.239 7.31499 14.311 7.43724C14.4302 7.63974 14.6185 7.78224 14.842 7.84074C15.0655 7.89624 15.2995 7.86624 15.4982 7.74849C16.4582 7.20024 17.68 7.52874 18.2282 8.48124L18.6955 9.29049C18.7075 9.31224 18.718 9.33324 18.727 9.35499C19.2235 10.2932 18.892 11.4745 17.9695 12.0137C17.8352 12.091 17.7265 12.199 17.6515 12.3295C17.5352 12.5312 17.503 12.7712 17.5615 12.9917C17.6215 13.2167 17.7647 13.4035 17.9665 13.519C18.4217 13.7807 18.7615 14.2217 18.8972 14.731C19.033 15.2395 18.9587 15.7915 18.694 16.2467L18.196 17.0762C17.6477 18.0182 16.426 18.3445 15.4757 17.7955C15.349 17.7227 15.2027 17.683 15.0572 17.6792H15.0527C14.836 17.6792 14.6132 17.7715 14.4512 17.9327C14.287 18.097 14.197 18.316 14.1985 18.5485C14.1932 19.6502 13.297 20.5412 12.2005 20.5412Z" fill="#907FB1"/>
<path d="M8.9131 16.6471L8.96509 16.454L8.96485 16.4539L8.9131 16.6471ZM10.1213 17.5779L9.94782 17.6774L9.94933 17.6799L10.1213 17.5779ZM10.3876 18.5379H10.5876L10.5876 18.5361L10.3876 18.5379ZM13.0733 18.5484L13.2734 18.5493L13.2733 18.5472L13.0733 18.5484ZM15.0736 16.5541L15.0679 16.754L15.0688 16.7541L15.0736 16.5541ZM16.0351 16.8196L16.1345 16.6461L16.1339 16.6457L16.0351 16.8196ZM17.2276 16.5039L17.0561 16.401L17.055 16.4028L17.2276 16.5039ZM17.7256 15.6736L17.8971 15.7765L17.8986 15.774L17.7256 15.6736ZM17.8096 15.0211L17.6162 15.0722L17.6164 15.0729L17.8096 15.0211ZM17.4061 14.4946L17.3063 14.6679L17.3068 14.6682L17.4061 14.4946ZM16.4746 13.2811L16.6679 13.2297L16.6678 13.2293L16.4746 13.2811ZM16.6778 11.7669L16.8507 11.8674L16.8512 11.8666L16.6778 11.7669ZM17.4061 11.0401L17.5057 11.2136L17.5071 11.2128L17.4061 11.0401ZM17.7188 9.85662L17.8926 9.75748L17.891 9.75487L17.7188 9.85662ZM17.6926 9.80487L17.8772 9.72794L17.8723 9.71608L17.8658 9.70494L17.6926 9.80487ZM17.2531 9.04287L17.0797 9.14253L17.0799 9.14279L17.2531 9.04287ZM16.0636 8.72112L15.9647 8.54727L15.9618 8.54896L16.0636 8.72112ZM14.5591 8.92887L14.61 8.73545L14.6093 8.73526L14.5591 8.92887ZM13.3426 8.00862L13.5153 7.90766L13.5142 7.90585L13.3426 8.00862ZM13.0733 7.04412L12.8733 7.03885L12.8734 7.04587L13.0733 7.04412ZM12.8266 6.38862L12.683 6.52778L12.683 6.52779L12.8266 6.38862ZM10.6463 6.37962L10.5053 6.23787L10.5046 6.23852L10.6463 6.37962ZM10.3951 6.99462L10.5951 6.99749L10.5951 6.99333L10.3951 6.99462ZM8.39785 8.97387L8.39569 9.17387H8.39785V8.97387ZM7.4236 8.70237L7.52626 8.53067L7.52248 8.52852L7.4236 8.70237ZM6.2416 9.02937L6.41252 9.13333L6.415 9.12903L6.2416 9.02937ZM5.73385 9.86412L5.56293 9.76015L5.56056 9.76426L5.73385 9.86412ZM6.05785 11.0416L5.95731 11.2145L5.95767 11.2147L6.05785 11.0416ZM6.05635 14.5006L5.95619 14.3275L5.9561 14.3276L6.05635 14.5006ZM5.7406 15.6819L5.56746 15.782L5.56759 15.7822L5.7406 15.6819ZM6.21385 16.4979L6.38874 16.4008L6.38686 16.3975L6.21385 16.4979ZM6.74335 16.9231L6.68918 17.1156L6.68962 17.1158L6.74335 16.9231ZM7.40935 16.8459L7.5065 17.0207L7.51058 17.0184L7.40935 16.8459ZM9.26274 18.544H9.46275L9.46273 18.5418L9.26274 18.544ZM9.14949 18.145L8.97593 18.2444L8.97762 18.2473L9.14949 18.145ZM8.62149 17.734L8.56971 17.9272L8.57004 17.9273L8.62149 17.734ZM7.96749 17.8217L8.06487 17.9965L8.06785 17.9947L7.96749 17.8217ZM6.43524 18.0055L6.38079 18.1979L6.38112 18.198L6.43524 18.0055ZM5.23524 17.053L5.41006 16.9558L5.40822 16.9526L5.23524 17.053ZM4.76649 16.2452L4.59322 16.3451L4.59351 16.3456L4.76649 16.2452ZM5.49399 13.5265L5.39409 13.3532L5.39388 13.3533L5.49399 13.5265ZM5.49399 12.0152L5.39353 12.1882L5.39409 12.1885L5.49399 12.0152ZM4.76574 9.29049L4.59488 9.18641L4.59241 9.1907L4.76574 9.29049ZM5.27424 8.45574L5.4451 8.55982L5.44762 8.55543L5.27424 8.45574ZM7.99074 7.73124L8.09307 7.55937L8.09035 7.55781L7.99074 7.73124ZM8.40474 7.84899L8.40265 8.04899H8.40474V7.84899ZM9.27024 6.98949L9.47026 6.99265L9.47024 6.98834L9.27024 6.98949ZM9.84924 5.58624L9.70768 5.44496L9.70726 5.44538L9.84924 5.58624ZM13.6337 5.60424L13.7774 5.46507L13.7768 5.46451L13.6337 5.60424ZM14.1977 7.05474L13.9977 7.04886L13.9978 7.05722L14.1977 7.05474ZM14.311 7.43724L14.4833 7.33575L14.4833 7.33574L14.311 7.43724ZM14.842 7.84074L14.7913 8.03424L14.7938 8.03484L14.842 7.84074ZM15.4982 7.74849L15.399 7.57479L15.3963 7.57642L15.4982 7.74849ZM18.2282 8.48124L18.0549 8.58101L18.055 8.58124L18.2282 8.48124ZM18.6955 9.29049L18.8706 9.19385L18.8687 9.19048L18.6955 9.29049ZM18.727 9.35499L18.5422 9.43146L18.5458 9.44019L18.5502 9.44853L18.727 9.35499ZM17.9695 12.0137L18.0692 12.1871L18.0704 12.1864L17.9695 12.0137ZM17.6515 12.3295L17.8248 12.4293L17.8249 12.4291L17.6515 12.3295ZM17.5615 12.9917L17.3682 13.043L17.3682 13.0433L17.5615 12.9917ZM17.9665 13.519L18.0662 13.3456L18.0659 13.3454L17.9665 13.519ZM18.8972 14.731L18.704 14.7825L18.704 14.7826L18.8972 14.731ZM18.694 16.2467L18.8655 16.3497L18.8669 16.3473L18.694 16.2467ZM18.196 17.0762L18.0245 16.9733L18.0231 16.9756L18.196 17.0762ZM15.4757 17.7955L15.5758 17.6223L15.5753 17.622L15.4757 17.7955ZM15.0572 17.6792L15.0624 17.4792H15.0572V17.6792ZM14.4512 17.9327L14.3101 17.791L14.3098 17.7913L14.4512 17.9327ZM14.1985 18.5485L14.3985 18.5494L14.3985 18.5472L14.1985 18.5485ZM8.4016 16.5804V16.7804C8.55643 16.7804 8.71076 16.8 8.86135 16.8403L8.9131 16.6471L8.96485 16.4539C8.77944 16.4043 8.59027 16.3804 8.4016 16.3804V16.5804ZM8.9131 16.6471L8.8611 16.8402C9.31684 16.9629 9.71333 17.2683 9.94784 17.6773L10.1213 17.5779L10.2949 17.4784C10.0074 16.9769 9.52336 16.6043 8.96509 16.454L8.9131 16.6471ZM10.1213 17.5779L9.94933 17.6799C10.1007 17.9351 10.1849 18.2342 10.1876 18.5396L10.3876 18.5379L10.5876 18.5361C10.5843 18.1605 10.481 17.7921 10.2934 17.4758L10.1213 17.5779ZM10.3876 18.5379H10.1876C10.1876 19.1352 10.668 19.6161 11.2606 19.6161V19.4161V19.2161C10.8902 19.2161 10.5876 18.9156 10.5876 18.5379H10.3876ZM11.2606 19.4161V19.6161H12.2003V19.4161V19.2161H11.2606V19.4161ZM12.2003 19.4161V19.6161C12.7893 19.6161 13.2706 19.139 13.2733 18.5493L13.0733 18.5484L12.8734 18.5474C12.8716 18.9162 12.5699 19.2161 12.2003 19.2161V19.4161ZM13.0733 18.5484L13.2733 18.5472C13.2707 18.0716 13.4563 17.6195 13.7975 17.2783L13.6561 17.1369L13.5147 16.9954C13.0984 17.4117 12.87 17.9662 12.8734 18.5495L13.0733 18.5484ZM13.6561 17.1369L13.7975 17.2783C14.1354 16.9404 14.6054 16.7407 15.0679 16.754L15.0736 16.5541L15.0793 16.3542C14.4978 16.3375 13.9238 16.5864 13.5147 16.9954L13.6561 17.1369ZM15.0736 16.5541L15.0688 16.7541C15.3778 16.7615 15.6747 16.8448 15.9363 16.9935L16.0351 16.8196L16.1339 16.6457C15.8149 16.4644 15.4534 16.3632 15.0784 16.3542L15.0736 16.5541ZM16.0351 16.8196L15.9357 16.9932C16.4483 17.2868 17.1031 17.1124 17.4002 16.6049L17.2276 16.5039L17.055 16.4028C16.8691 16.7203 16.4574 16.831 16.1345 16.6461L16.0351 16.8196ZM17.2276 16.5039L17.3991 16.6067L17.8971 15.7765L17.7256 15.6736L17.5541 15.5707L17.0561 16.401L17.2276 16.5039ZM17.7256 15.6736L17.8986 15.774C18.0367 15.5361 18.0756 15.2413 18.0028 14.9694L17.8096 15.0211L17.6164 15.0729C17.6621 15.2434 17.6365 15.4286 17.5526 15.5732L17.7256 15.6736ZM17.8096 15.0211L18.003 14.97C17.9308 14.6973 17.7502 14.461 17.5054 14.321L17.4061 14.4946L17.3068 14.6682C17.458 14.7547 17.5714 14.9025 17.6162 15.0722L17.8096 15.0211ZM17.4061 14.4946L17.5059 14.3213C17.0884 14.0808 16.7914 13.6941 16.6679 13.2297L16.4746 13.2811L16.2813 13.3325C16.4323 13.9002 16.7968 14.3744 17.3063 14.6679L17.4061 14.4946ZM16.4746 13.2811L16.6678 13.2293C16.5459 12.7748 16.6126 12.2769 16.8507 11.8674L16.6778 11.7669L16.505 11.6663C16.2136 12.1674 16.1318 12.7749 16.2814 13.3329L16.4746 13.2811ZM16.6778 11.7669L16.8512 11.8666C17.006 11.5974 17.2333 11.37 17.5057 11.2136L17.4061 11.0401L17.3065 10.8667C16.9729 11.0582 16.6947 11.3364 16.5045 11.6672L16.6778 11.7669ZM17.4061 11.0401L17.5071 11.2128C18.0089 10.9193 18.1828 10.266 17.8926 9.75749L17.7188 9.85662L17.5451 9.95574C17.7274 10.2752 17.6163 10.6855 17.3051 10.8675L17.4061 11.0401ZM17.7188 9.85662L17.891 9.75487C17.8848 9.74439 17.8804 9.73552 17.8772 9.72794L17.6926 9.80487L17.508 9.88179C17.5198 9.91021 17.5334 9.93585 17.5467 9.95836L17.7188 9.85662ZM17.6926 9.80487L17.8658 9.70494L17.4263 8.94294L17.2531 9.04287L17.0799 9.14279L17.5194 9.90479L17.6926 9.80487ZM17.2531 9.04287L17.4265 8.9432C17.132 8.43078 16.4774 8.25547 15.9647 8.54729L16.0636 8.72112L16.1625 8.89494C16.4853 8.71126 16.8957 8.82245 17.0797 9.14253L17.2531 9.04287ZM16.0636 8.72112L15.9618 8.54896C15.5563 8.78875 15.0743 8.8576 14.61 8.73545L14.5591 8.92887L14.5082 9.12228C15.0759 9.27163 15.6679 9.18748 16.1654 8.89327L16.0636 8.72112ZM14.5591 8.92887L14.6093 8.73526C14.1455 8.6151 13.7576 8.32216 13.5153 7.90767L13.3426 8.00862L13.1699 8.10957C13.4661 8.61607 13.9422 8.97563 14.5089 9.12247L14.5591 8.92887ZM13.3426 8.00862L13.5142 7.90585C13.3602 7.64883 13.276 7.34853 13.2733 7.04236L13.0733 7.04412L12.8734 7.04587C12.8767 7.4222 12.98 7.7924 13.171 8.11138L13.3426 8.00862ZM13.0733 7.04412L13.2733 7.04938C13.2814 6.74156 13.1728 6.45853 12.9702 6.24945L12.8266 6.38862L12.683 6.52779C12.8074 6.6562 12.8788 6.83367 12.8734 7.03885L13.0733 7.04412ZM12.8266 6.38862L12.9702 6.24946C12.7691 6.04182 12.4882 5.92537 12.2003 5.92537V6.12537V6.32537C12.382 6.32537 12.5586 6.39941 12.683 6.52778L12.8266 6.38862ZM12.2003 6.12537V5.92537H11.2606V6.12537V6.32537H12.2003V6.12537ZM11.2606 6.12537V5.92537C10.9747 5.92537 10.7066 6.0374 10.5053 6.23787L10.6463 6.37962L10.7874 6.52136C10.9146 6.39484 11.0815 6.32537 11.2606 6.32537V6.12537ZM10.6463 6.37962L10.5046 6.23852C10.3034 6.44065 10.1933 6.71019 10.1951 6.99591L10.3951 6.99462L10.5951 6.99333C10.5939 6.81404 10.6623 6.64708 10.7881 6.52071L10.6463 6.37962ZM10.3951 6.99462L10.1951 6.99174C10.1809 7.97956 9.37312 8.77387 8.39785 8.77387V8.97387V9.17387C9.59308 9.17387 10.5778 8.20267 10.5951 6.99749L10.3951 6.99462ZM8.39785 8.97387L8.4 8.77388C8.08663 8.7705 7.78618 8.68614 7.52624 8.53071L7.4236 8.70237L7.32096 8.87402C7.64302 9.06659 8.01307 9.16973 8.39569 9.17385L8.39785 8.97387ZM7.4236 8.70237L7.52248 8.52852C7.01754 8.24131 6.36204 8.41848 6.0682 8.9297L6.2416 9.02937L6.415 9.12903C6.59966 8.80776 7.01216 8.69843 7.32471 8.87621L7.4236 8.70237ZM6.2416 9.02937L6.07073 8.92543L5.56298 9.76018L5.73385 9.86412L5.90472 9.96805L6.41247 9.1333L6.2416 9.02937ZM5.73385 9.86412L5.56056 9.76426C5.27203 10.265 5.4499 10.9194 5.95731 11.2145L6.05785 11.0416L6.15839 10.8687C5.8378 10.6823 5.73067 10.2702 5.90714 9.96397L5.73385 9.86412ZM6.05785 11.0416L5.95767 11.2147C6.51023 11.5345 6.85535 12.1316 6.85535 12.7711H7.05535H7.25535C7.25535 11.9886 6.83397 11.2597 6.15803 10.8685L6.05785 11.0416ZM7.05535 12.7711H6.85535C6.85535 13.4105 6.51039 14.0069 5.95619 14.3275L6.05635 14.5006L6.15651 14.6737C6.83381 14.2819 7.25535 13.5538 7.25535 12.7711H7.05535ZM6.05635 14.5006L5.9561 14.3276C5.4491 14.6212 5.27354 15.2736 5.56746 15.782L5.7406 15.6819L5.91374 15.5818C5.73066 15.2651 5.8401 14.857 6.15659 14.6737L6.05635 14.5006ZM5.7406 15.6819L5.56759 15.7822L6.04084 16.5982L6.21385 16.4979L6.38686 16.3975L5.91361 15.5815L5.7406 15.6819ZM6.21385 16.4979L6.03899 16.5949C6.18098 16.8507 6.41482 17.0384 6.68918 17.1156L6.74335 16.9231L6.79752 16.7306C6.62937 16.6833 6.48072 16.5665 6.38871 16.4008L6.21385 16.4979ZM6.74335 16.9231L6.68962 17.1158C6.95963 17.1911 7.25694 17.1593 7.50648 17.0207L7.40935 16.8459L7.31222 16.671C7.15675 16.7574 6.96807 16.7782 6.79708 16.7305L6.74335 16.9231ZM7.40935 16.8459L7.51058 17.0184C7.77639 16.8624 8.08772 16.7804 8.4016 16.7804V16.5804V16.3804C8.01948 16.3804 7.63781 16.4799 7.30812 16.6734L7.40935 16.8459ZM12.2005 20.5412V20.3412H11.2607V20.5412V20.7412H12.2005V20.5412ZM11.2607 20.5412V20.3412C10.2693 20.3412 9.46274 19.5352 9.46274 18.544H9.26274H9.06274C9.06274 19.7563 10.0486 20.7412 11.2607 20.7412V20.5412ZM9.26274 18.544L9.46273 18.5418C9.46084 18.3705 9.41201 18.195 9.32136 18.0427L9.14949 18.145L8.97762 18.2473C9.03247 18.3394 9.06164 18.4459 9.06275 18.5462L9.26274 18.544ZM9.14949 18.145L9.32302 18.0456C9.17945 17.795 8.94566 17.6133 8.67294 17.5407L8.62149 17.734L8.57004 17.9273C8.73682 17.9717 8.88403 18.084 8.97596 18.2444L9.14949 18.145ZM8.62149 17.734L8.67327 17.5408C8.40318 17.4684 8.10923 17.5083 7.86713 17.6487L7.96749 17.8217L8.06785 17.9947C8.21875 17.9072 8.4033 17.8826 8.56971 17.9272L8.62149 17.734ZM7.96749 17.8217L7.87013 17.647C7.44507 17.8839 6.94525 17.9411 6.48936 17.8129L6.43524 18.0055L6.38112 18.198C6.93922 18.3549 7.54791 18.2845 8.06485 17.9964L7.96749 17.8217ZM6.43524 18.0055L6.48969 17.813C6.03511 17.6844 5.64093 17.371 5.41003 16.9558L5.23524 17.053L5.06045 17.1502C5.34255 17.6575 5.82287 18.0401 6.38079 18.1979L6.43524 18.0055ZM5.23524 17.053L5.40822 16.9526L4.93947 16.1449L4.76649 16.2452L4.59351 16.3456L5.06226 17.1534L5.23524 17.053ZM4.76649 16.2452L4.93976 16.1453C4.44657 15.2899 4.74024 14.1933 5.5941 13.6996L5.49399 13.5265L5.39388 13.3533C4.34874 13.9576 3.98991 15.2986 4.59322 16.3451L4.76649 16.2452ZM5.49399 13.5265L5.59389 13.6997C5.92504 13.5088 6.13049 13.1533 6.13049 12.7712H5.93049H5.73049C5.73049 13.0102 5.60144 13.2337 5.39409 13.3532L5.49399 13.5265ZM5.93049 12.7712H6.13049C6.13049 12.3894 5.92521 12.033 5.59389 11.842L5.49399 12.0152L5.39409 12.1885C5.60127 12.308 5.73049 12.5321 5.73049 12.7712H5.93049ZM5.49399 12.0152L5.59445 11.8423C4.7395 11.3457 4.4465 10.2459 4.93907 9.39028L4.76574 9.29049L4.59241 9.1907C3.98998 10.2371 4.34798 11.5808 5.39353 12.1882L5.49399 12.0152ZM4.76574 9.29049L4.93654 9.39454L5.44504 8.55979L5.27424 8.45574L5.10344 8.35169L4.59494 9.18644L4.76574 9.29049ZM5.27424 8.45574L5.44762 8.55543C5.93298 7.71127 7.03301 7.41181 7.89113 7.90467L7.99074 7.73124L8.09035 7.55781C7.04197 6.95567 5.697 7.3192 5.10086 8.35605L5.27424 8.45574ZM7.99074 7.73124L7.88843 7.90309C8.04815 7.99818 8.22367 8.0471 8.40265 8.04898L8.40474 7.84899L8.40683 7.649C8.29931 7.64787 8.19283 7.61879 8.09305 7.55939L7.99074 7.73124ZM8.40474 7.84899V8.04899C8.98249 8.04899 9.46101 7.57458 9.47021 6.99265L9.27024 6.98949L9.07026 6.98632C9.06447 7.35239 8.76149 7.64899 8.40474 7.64899V7.84899ZM9.27024 6.98949L9.47024 6.98834C9.46755 6.51966 9.65228 6.06875 9.99122 5.7271L9.84924 5.58624L9.70726 5.44538C9.2947 5.86123 9.06693 6.41382 9.07024 6.99064L9.27024 6.98949ZM9.84924 5.58624L9.9908 5.72752C10.3306 5.38709 10.7806 5.20049 11.2607 5.20049V5.00049V4.80049C10.6744 4.80049 10.1224 5.02938 9.70768 5.44496L9.84924 5.58624ZM11.2607 5.00049V5.20049H12.2005V5.00049V4.80049H11.2607V5.00049ZM12.2005 5.00049V5.20049C12.6835 5.20049 13.154 5.39919 13.4906 5.74397L13.6337 5.60424L13.7768 5.46451C13.365 5.04278 12.7914 4.80049 12.2005 4.80049V5.00049ZM13.6337 5.60424L13.4901 5.74341C13.8262 6.09035 14.012 6.56687 13.9978 7.04887L14.1977 7.05474L14.3977 7.06061C14.415 6.47011 14.1882 5.88913 13.7774 5.46507L13.6337 5.60424ZM14.1977 7.05474L13.9978 7.05722C13.9997 7.21626 14.0508 7.38956 14.1387 7.53873L14.311 7.43724L14.4833 7.33574C14.4272 7.24041 14.3987 7.13471 14.3977 7.05225L14.1977 7.05474ZM14.311 7.43724L14.1387 7.53873C14.2844 7.78626 14.5162 7.96219 14.7913 8.03422L14.842 7.84074L14.8926 7.64726C14.7208 7.60229 14.5761 7.49322 14.4833 7.33575L14.311 7.43724ZM14.842 7.84074L14.7938 8.03484C15.0657 8.10236 15.354 8.06644 15.6002 7.92056L15.4982 7.74849L15.3963 7.57642C15.245 7.66604 15.0653 7.69012 14.8902 7.64663L14.842 7.84074ZM15.4982 7.74849L15.5974 7.92216C16.4625 7.4281 17.5621 7.72481 18.0549 8.58101L18.2282 8.48124L18.4016 8.38147C17.7979 7.33267 16.4539 6.97238 15.3991 7.57481L15.4982 7.74849ZM18.2282 8.48124L18.055 8.58124L18.5223 9.39049L18.6955 9.29049L18.8687 9.19048L18.4014 8.38123L18.2282 8.48124ZM18.6955 9.29049L18.5204 9.3871C18.5299 9.40442 18.5368 9.41851 18.5422 9.43146L18.727 9.35499L18.9118 9.27852C18.8992 9.24797 18.8851 9.22005 18.8706 9.19387L18.6955 9.29049ZM18.727 9.35499L18.5502 9.44853C18.9968 10.2925 18.6982 11.3561 17.8686 11.8411L17.9695 12.0137L18.0704 12.1864C19.0858 11.5928 19.4502 10.294 18.9038 9.26144L18.727 9.35499ZM17.9695 12.0137L17.8697 11.8404C17.7058 11.9347 17.5712 12.0678 17.4781 12.2298L17.6515 12.3295L17.8249 12.4291C17.8818 12.3302 17.9647 12.2472 18.0692 12.1871L17.9695 12.0137ZM17.6515 12.3295L17.4782 12.2296C17.336 12.4764 17.2959 12.7707 17.3682 13.043L17.5615 12.9917L17.7548 12.9405C17.7101 12.7718 17.7345 12.5861 17.8248 12.4293L17.6515 12.3295ZM17.5615 12.9917L17.3682 13.0433C17.4419 13.3196 17.6188 13.5504 17.8671 13.6926L17.9665 13.519L18.0659 13.3454C17.9107 13.2566 17.801 13.1139 17.7547 12.9402L17.5615 12.9917ZM17.9665 13.519L17.8668 13.6924C18.276 13.9277 18.582 14.3249 18.704 14.7825L18.8972 14.731L19.0905 14.6795C18.941 14.1186 18.5675 13.6338 18.0662 13.3456L17.9665 13.519ZM18.8972 14.731L18.704 14.7826C18.826 15.2395 18.7592 15.7368 18.5211 16.1462L18.694 16.2467L18.8669 16.3473C19.1583 15.8462 19.24 15.2394 19.0905 14.6794L18.8972 14.731ZM18.694 16.2467L18.5225 16.1438L18.0245 16.9733L18.196 17.0762L18.3675 17.1792L18.8655 16.3497L18.694 16.2467ZM18.196 17.0762L18.0231 16.9756C17.5304 17.8222 16.4308 18.1163 15.5758 17.6223L15.4757 17.7955L15.3757 17.9687C16.4212 18.5727 17.765 18.2143 18.3688 17.1768L18.196 17.0762ZM15.4757 17.7955L15.5753 17.622C15.4188 17.5322 15.24 17.4839 15.0624 17.4793L15.0572 17.6792L15.0521 17.8792C15.1655 17.8821 15.2791 17.9132 15.3762 17.9689L15.4757 17.7955ZM15.0572 17.6792V17.4792H15.0527V17.6792V17.8792H15.0572V17.6792ZM15.0527 17.6792V17.4792C14.7815 17.4792 14.5085 17.5936 14.3101 17.791L14.4512 17.9327L14.5923 18.0745C14.718 17.9494 14.8905 17.8792 15.0527 17.8792V17.6792ZM14.4512 17.9327L14.3098 17.7913C14.1078 17.9934 13.9966 18.2637 13.9985 18.5498L14.1985 18.5485L14.3985 18.5472C14.3973 18.3682 14.4662 18.2006 14.5927 18.0742L14.4512 17.9327ZM14.1985 18.5485L13.9985 18.5475C13.9938 19.5394 13.1867 20.3412 12.2005 20.3412V20.5412V20.7412C13.4073 20.7412 14.3927 19.7611 14.3985 18.5494L14.1985 18.5485Z" fill="#907FB1" mask="url(#path-2-outside-1_3334_23318)"/>
</g>
<mask id="path-4-outside-2_3334_23318" maskUnits="userSpaceOnUse" x="8.19434" y="9.23096" width="7" height="7" fill="black">
<rect fill="white" x="8.19434" y="9.23096" width="7" height="7"/>
<path fill-rule="evenodd" clip-rule="evenodd" d="M11.734 11.356C10.954 11.356 10.3195 11.9912 10.3195 12.7712C10.3195 13.5512 10.954 14.185 11.734 14.185C12.514 14.185 13.1485 13.5512 13.1485 12.7712C13.1485 11.9912 12.514 11.356 11.734 11.356ZM11.7338 15.31C10.3336 15.31 9.19434 14.1715 9.19434 12.7712C9.19434 11.371 10.3336 10.231 11.7338 10.231C13.1341 10.231 14.2733 11.371 14.2733 12.7712C14.2733 14.1715 13.1341 15.31 11.7338 15.31Z"/>
</mask>
<path fill-rule="evenodd" clip-rule="evenodd" d="M11.734 11.356C10.954 11.356 10.3195 11.9912 10.3195 12.7712C10.3195 13.5512 10.954 14.185 11.734 14.185C12.514 14.185 13.1485 13.5512 13.1485 12.7712C13.1485 11.9912 12.514 11.356 11.734 11.356ZM11.7338 15.31C10.3336 15.31 9.19434 14.1715 9.19434 12.7712C9.19434 11.371 10.3336 10.231 11.7338 10.231C13.1341 10.231 14.2733 11.371 14.2733 12.7712C14.2733 14.1715 13.1341 15.31 11.7338 15.31Z" fill="#907FB1"/>
<path d="M11.734 11.356V11.156C10.8434 11.156 10.1195 11.8809 10.1195 12.7712H10.3195H10.5195C10.5195 12.1015 11.0646 11.556 11.734 11.556V11.356ZM10.3195 12.7712H10.1195C10.1195 13.6618 10.8436 14.385 11.734 14.385V14.185V13.985C11.0643 13.985 10.5195 13.4406 10.5195 12.7712H10.3195ZM11.734 14.185V14.385C12.6243 14.385 13.3485 13.6618 13.3485 12.7712H13.1485H12.9485C12.9485 13.4406 12.4036 13.985 11.734 13.985V14.185ZM13.1485 12.7712H13.3485C13.3485 11.8809 12.6246 11.156 11.734 11.156V11.356V11.556C12.4034 11.556 12.9485 12.1015 12.9485 12.7712H13.1485ZM11.7338 15.31V15.11C10.444 15.11 9.39434 14.0609 9.39434 12.7712H9.19434H8.99434C8.99434 14.282 10.2232 15.51 11.7338 15.51V15.31ZM9.19434 12.7712H9.39434C9.39434 11.4813 10.4441 10.431 11.7338 10.431V10.231V10.031C10.2231 10.031 8.99434 11.2606 8.99434 12.7712H9.19434ZM11.7338 10.231V10.431C13.0236 10.431 14.0733 11.4813 14.0733 12.7712H14.2733H14.4733C14.4733 11.2606 13.2446 10.031 11.7338 10.031V10.231ZM14.2733 12.7712H14.0733C14.0733 14.0609 13.0237 15.11 11.7338 15.11V15.31V15.51C13.2445 15.51 14.4733 14.282 14.4733 12.7712H14.2733Z" fill="#907FB1" mask="url(#path-4-outside-2_3334_23318)"/>
</svg>
