<svg width="24" height="24" viewBox="0 0 24 24" fill="none" xmlns="http://www.w3.org/2000/svg">
<g clip-path="url(#clip0_5474_39453)">
<path d="M11.9999 3C11.5399 3 11.0699 3.04 10.5999 3.14C7.83995 3.67 5.63995 5.9 5.11995 8.66C4.63995 11.27 5.59995 13.67 7.33995 15.22C7.76995 15.6 7.99995 16.13 7.99995 16.69V19C7.99995 20.1 8.89995 21 9.99995 21H10.2799C10.6299 21.6 11.2599 22 11.9999 22C12.7399 22 13.3799 21.6 13.7199 21H13.9999C15.0999 21 15.9999 20.1 15.9999 19V16.69C15.9999 16.14 16.2199 15.6 16.6399 15.23C18.0899 13.95 18.9999 12.08 18.9999 10C18.9999 6.13 15.8699 3 11.9999 3ZM13.9999 19H9.99995V18H13.9999V19ZM13.9999 17H9.99995V16H13.9999V17ZM12.4999 11.41V14H11.4999V11.41L9.66995 9.59L10.3799 8.88L11.9999 10.5L13.6199 8.88L14.3299 9.59L12.4999 11.41Z" fill="#323232"/>
</g>
<defs>
<clipPath id="clip0_5474_39453">
<rect width="24" height="24" fill="white"/>
</clipPath>
</defs>
</svg>
