<svg width="24" height="24" viewBox="0 0 24 24" fill="none" xmlns="http://www.w3.org/2000/svg">
<g clip-path="url(#clip0_5474_38467)">
<path d="M12 3C7.02944 3 3 7.02944 3 12V18C3 19.6569 4.34315 21 6 21H7.38197C8.13951 21 8.83204 20.572 9.17082 19.8944L9.34564 19.5448C9.03131 19.3254 8.72677 19.0709 8.44209 18.7842C7.34335 17.6778 6.5 16.0546 6.5 14C6.5 13.265 6.62409 12.5336 6.84885 11.8426C6.94857 11.536 7.22583 11.5 7.5 11.5C9.19063 11.5 10.6854 10.6614 11.5912 9.3752C11.6848 9.24221 11.8373 9.16308 12 9.16309C12.1626 9.16309 12.3151 9.24221 12.4088 9.37521C13.3145 10.6614 14.8093 11.5 16.5 11.5C16.7742 11.5 17.0515 11.536 17.1512 11.8426C17.3759 12.5337 17.5 13.265 17.5 14C17.5 16.0546 16.6567 17.6778 15.5579 18.7842C15.2732 19.0709 14.9687 19.3254 14.6544 19.5448L14.8292 19.8944C15.168 20.572 15.8605 21 16.618 21H18C19.6569 21 21 19.6569 21 18V12C21 7.02944 16.9706 3 12 3Z" fill="#323232"/>
</g>
<defs>
<clipPath id="clip0_5474_38467">
<rect width="24" height="24" fill="white"/>
</clipPath>
</defs>
</svg>
