<svg width="24" height="24" viewBox="0 0 24 24" fill="none" xmlns="http://www.w3.org/2000/svg">
<g clip-path="url(#clip0_5474_39479)">
<path d="M12.75 9V9.92L14.5 11.67V9H16V13.17L19 16.17V8C19 6.9 18.1 6 17 6H15V3C15 2.45 14.55 2 14 2H10C9.45001 2 9.00001 2.45 9.00001 3V6H8.83001L11.83 9H12.75ZM10.5 3.5H13.5V6H10.5V3.5ZM21.19 21.19L2.81001 2.81L1.39001 4.22L5.02001 7.85C5.02001 7.9 5.00001 7.95 5.00001 8V19C5.00001 20.1 5.90001 21 7.00001 21C7.00001 21.55 7.45001 22 8.00001 22C8.55001 22 9.00001 21.55 9.00001 21H15C15 21.55 15.45 22 16 22C16.55 22 17 21.55 17 21C17.34 21 17.65 20.91 17.93 20.76L19.78 22.61L21.19 21.19ZM8.00001 18V10.83L9.50001 12.33V18H8.00001ZM12.75 18H11.25V14.08L12.75 15.58V18Z" fill="#323232"/>
</g>
<defs>
<clipPath id="clip0_5474_39479">
<rect width="24" height="24" fill="white"/>
</clipPath>
</defs>
</svg>
