<svg width="24" height="24" viewBox="0 0 24 24" fill="none" xmlns="http://www.w3.org/2000/svg">
<g clip-path="url(#clip0_5474_39495)">
<path d="M12.9999 8.56982C12.2099 8.56982 11.5699 9.20982 11.5699 9.99982C11.5699 10.7898 12.2099 11.4298 12.9999 11.4298C13.7899 11.4298 14.4299 10.7898 14.4299 9.99982C14.4299 9.20982 13.7899 8.56982 12.9999 8.56982Z" fill="#323232"/>
<path d="M12.9999 3C9.24995 3 6.19995 5.94 6.01995 9.64L4.09995 12.2C3.84995 12.53 4.08995 13 4.49995 13H5.99995V16C5.99995 17.1 6.89995 18 7.99995 18H8.99995V21H15.9999V16.32C18.3599 15.2 19.9999 12.79 19.9999 10C19.9999 6.13 16.8699 3 12.9999 3ZM15.9999 10C15.9999 10.13 15.9899 10.26 15.9799 10.39L16.8099 11.05C16.8899 11.11 16.9099 11.21 16.8599 11.3L16.0599 12.69C16.0099 12.78 15.8999 12.81 15.8199 12.78L14.8299 12.38C14.6199 12.54 14.3999 12.67 14.1599 12.77L13.9999 13.83C13.9899 13.93 13.8999 14 13.7999 14H12.1999C12.0999 14 12.0199 13.93 11.9999 13.83L11.8499 12.77C11.5999 12.67 11.3799 12.54 11.1699 12.38L10.1799 12.78C10.0899 12.81 9.97995 12.78 9.92995 12.69L9.12995 11.3C9.07995 11.22 9.09995 11.11 9.17995 11.05L10.0199 10.39C10.0099 10.26 9.99995 10.13 9.99995 10C9.99995 9.87 10.0199 9.73 10.0399 9.61L9.18995 8.95C9.10995 8.89 9.08995 8.79 9.13995 8.69L9.93995 7.31C9.98995 7.22 10.0899 7.19 10.1799 7.22L11.1799 7.62C11.3799 7.47 11.6099 7.33 11.8499 7.23L11.9999 6.17C12.0199 6.07 12.0999 6 12.1999 6H13.7999C13.8999 6 13.9799 6.07 13.9999 6.17L14.1499 7.23C14.3899 7.33 14.6099 7.46 14.8199 7.62L15.8199 7.22C15.9099 7.19 16.0199 7.22 16.0599 7.31L16.8599 8.69C16.9099 8.78 16.8899 8.89 16.8099 8.95L15.9599 9.61C15.9899 9.73 15.9999 9.86 15.9999 10Z" fill="#323232"/>
</g>
<defs>
<clipPath id="clip0_5474_39495">
<rect width="24" height="24" fill="white"/>
</clipPath>
</defs>
</svg>
