<svg width="24" height="24" viewBox="0 0 24 24" fill="none" xmlns="http://www.w3.org/2000/svg">
<g clip-path="url(#clip0_5474_39520)">
<path d="M14.27 6.00026C13.72 6.95026 14.05 8.18026 15 8.73026C15.95 9.28026 17.18 8.95026 17.73 8.00026C18.28 7.05026 17.95 5.82026 17 5.27026C16.05 4.72026 14.82 5.05026 14.27 6.00026Z" fill="#323232"/>
<path d="M15.84 10.4103C15.84 10.4103 14.21 9.47033 13.24 8.91033C10.86 7.53033 10.04 4.47033 11.42 2.09033L9.69001 1.09033C8.10001 3.83033 8.60001 7.21033 10.66 9.40033L5.51001 18.3203L7.24001 19.3203L8.74001 16.7203L10.47 17.7203L7.47001 22.9203L9.20001 23.9203L15.49 13.0303C16.63 14.5803 16.82 16.7203 15.8 18.4903L17.53 19.4903C19.13 16.7403 18.81 12.9103 15.84 10.4103Z" fill="#323232"/>
<path d="M12.75 3.80014C13.47 4.21014 14.38 3.97014 14.8 3.25014C15.21 2.53014 14.97 1.62014 14.25 1.20014C13.53 0.790143 12.62 1.03014 12.2 1.75014C11.79 2.47014 12.03 3.39014 12.75 3.80014Z" fill="#323232"/>
</g>
<defs>
<clipPath id="clip0_5474_39520">
<rect width="24" height="24" fill="white"/>
</clipPath>
</defs>
</svg>
