<svg width="48" height="48" viewBox="0 0 48 48" fill="none" xmlns="http://www.w3.org/2000/svg">
<mask id="path-1-outside-1_190_7228" maskUnits="userSpaceOnUse" x="9.23657" y="14.7018" width="28" height="13" fill="black">
<rect fill="white" x="9.23657" y="14.7018" width="28" height="13"/>
<path fill-rule="evenodd" clip-rule="evenodd" d="M23.5537 26.9296C22.2157 26.9296 20.8817 26.4876 19.7657 25.6036L10.7957 18.3716C10.1497 17.8516 10.0497 16.9056 10.5677 16.2616C11.0897 15.6196 12.0337 15.5176 12.6777 16.0356L21.6397 23.2596C22.7657 24.1516 24.3517 24.1516 25.4857 23.2516L34.3577 16.0396C35.0017 15.5136 35.9457 15.6136 36.4697 16.2576C36.9917 16.8996 36.8937 17.8436 36.2517 18.3676L27.3637 25.5916C26.2397 26.4836 24.8957 26.9296 23.5537 26.9296"/>
</mask>
<path fill-rule="evenodd" clip-rule="evenodd" d="M23.5537 26.9296C22.2157 26.9296 20.8817 26.4876 19.7657 25.6036L10.7957 18.3716C10.1497 17.8516 10.0497 16.9056 10.5677 16.2616C11.0897 15.6196 12.0337 15.5176 12.6777 16.0356L21.6397 23.2596C22.7657 24.1516 24.3517 24.1516 25.4857 23.2516L34.3577 16.0396C35.0017 15.5136 35.9457 15.6136 36.4697 16.2576C36.9917 16.8996 36.8937 17.8436 36.2517 18.3676L27.3637 25.5916C26.2397 26.4836 24.8957 26.9296 23.5537 26.9296" fill="#907FB1"/>
<path d="M19.7657 25.6036L19.6402 25.7593L19.6415 25.7604L19.7657 25.6036ZM10.7957 18.3716L10.9212 18.2159L10.9211 18.2158L10.7957 18.3716ZM10.5677 16.2616L10.4125 16.1354L10.4119 16.1363L10.5677 16.2616ZM12.6777 16.0356L12.8032 15.8799L12.8031 15.8798L12.6777 16.0356ZM21.6397 23.2596L21.5142 23.4153L21.5155 23.4164L21.6397 23.2596ZM25.4857 23.2516L25.6101 23.4083L25.6119 23.4068L25.4857 23.2516ZM34.3577 16.0396L34.4839 16.1948L34.4842 16.1945L34.3577 16.0396ZM36.4697 16.2576L36.6249 16.1314L36.6248 16.1314L36.4697 16.2576ZM36.2517 18.3676L36.3779 18.5228L36.3782 18.5226L36.2517 18.3676ZM27.3637 25.5916L27.488 25.7483L27.4899 25.7468L27.3637 25.5916ZM23.5537 26.9296V26.7296C22.2601 26.7296 20.97 26.3024 19.8899 25.4468L19.7657 25.6036L19.6415 25.7604C20.7934 26.6728 22.1714 27.1296 23.5537 27.1296V26.9296ZM19.7657 25.6036L19.8912 25.4479L10.9212 18.2159L10.7957 18.3716L10.6702 18.5273L19.6402 25.7593L19.7657 25.6036ZM10.7957 18.3716L10.9211 18.2158C10.3614 17.7653 10.2746 16.9452 10.7236 16.387L10.5677 16.2616L10.4119 16.1363C9.82487 16.866 9.93802 17.9379 10.6703 18.5274L10.7957 18.3716ZM10.5677 16.2616L10.7229 16.3878C11.1759 15.8307 11.9946 15.7428 12.5524 16.1915L12.6777 16.0356L12.8031 15.8798C12.0728 15.2924 11.0036 15.4085 10.4125 16.1354L10.5677 16.2616ZM12.6777 16.0356L12.5522 16.1913L21.5142 23.4153L21.6397 23.2596L21.7652 23.1039L12.8032 15.8799L12.6777 16.0356ZM21.6397 23.2596L21.5155 23.4164C22.7146 24.3663 24.4036 24.3658 25.61 23.4083L25.4857 23.2516L25.3614 23.095C24.2999 23.9374 22.8168 23.9369 21.7639 23.1028L21.6397 23.2596ZM25.4857 23.2516L25.6119 23.4068L34.4839 16.1948L34.3577 16.0396L34.2316 15.8844L25.3596 23.0964L25.4857 23.2516ZM34.3577 16.0396L34.4842 16.1945C35.0419 15.739 35.8599 15.825 36.3146 16.3838L36.4697 16.2576L36.6248 16.1314C36.0316 15.4022 34.9615 15.2882 34.2312 15.8847L34.3577 16.0396ZM36.4697 16.2576L36.3145 16.3838C36.7666 16.9398 36.6822 17.7581 36.1253 18.2127L36.2517 18.3676L36.3782 18.5226C37.1053 17.9291 37.2168 16.8594 36.6249 16.1314L36.4697 16.2576ZM36.2517 18.3676L36.1256 18.2124L27.2376 25.4364L27.3637 25.5916L27.4899 25.7468L36.3779 18.5228L36.2517 18.3676ZM27.3637 25.5916L27.2394 25.4349C26.1512 26.2985 24.8512 26.7296 23.5537 26.7296V26.9296V27.1296C24.9402 27.1296 26.3282 26.6687 27.488 25.7483L27.3637 25.5916Z" fill="#907FB1" mask="url(#path-1-outside-1_190_7228)"/>
<mask id="mask0_190_7228" style="mask-type:luminance" maskUnits="userSpaceOnUse" x="1" y="3" width="45" height="41">
<path d="M45.0996 3.90039V43.0996H1.90039V3.90039H45.0996Z" fill="white" stroke="white" stroke-width="0.2"/>
</mask>
<g mask="url(#mask0_190_7228)">
<mask id="path-4-outside-2_190_7228" maskUnits="userSpaceOnUse" x="0.999756" y="3" width="45" height="41" fill="black">
<rect fill="white" x="0.999756" y="3" width="45" height="41"/>
<path fill-rule="evenodd" clip-rule="evenodd" d="M13.6777 40H33.3177C33.3217 39.996 33.3377 40 33.3497 40C35.6317 40 37.6557 39.184 39.2077 37.634C41.0097 35.84 41.9997 33.262 41.9997 30.376V16.64C41.9997 11.054 38.3477 6.99999 33.3177 6.99999H13.6817C8.65166 6.99999 4.99966 11.054 4.99966 16.64V30.376C4.99966 33.262 5.99166 35.84 7.79166 37.634C9.34366 39.184 11.3697 40 13.6497 40H13.6777ZM13.6438 43C10.5578 43 7.80176 41.88 5.67376 39.76C3.30376 37.396 1.99976 34.064 1.99976 30.376V16.64C1.99976 9.434 7.02176 4 13.6818 4H33.3178C39.9778 4 44.9998 9.434 44.9998 16.64V30.376C44.9998 34.064 43.6958 37.396 41.3258 39.76C39.1998 41.878 36.4418 43 33.3498 43H33.3178H13.6818H13.6438Z"/>
</mask>
<path fill-rule="evenodd" clip-rule="evenodd" d="M13.6777 40H33.3177C33.3217 39.996 33.3377 40 33.3497 40C35.6317 40 37.6557 39.184 39.2077 37.634C41.0097 35.84 41.9997 33.262 41.9997 30.376V16.64C41.9997 11.054 38.3477 6.99999 33.3177 6.99999H13.6817C8.65166 6.99999 4.99966 11.054 4.99966 16.64V30.376C4.99966 33.262 5.99166 35.84 7.79166 37.634C9.34366 39.184 11.3697 40 13.6497 40H13.6777ZM13.6438 43C10.5578 43 7.80176 41.88 5.67376 39.76C3.30376 37.396 1.99976 34.064 1.99976 30.376V16.64C1.99976 9.434 7.02176 4 13.6818 4H33.3178C39.9778 4 44.9998 9.434 44.9998 16.64V30.376C44.9998 34.064 43.6958 37.396 41.3258 39.76C39.1998 41.878 36.4418 43 33.3498 43H33.3178H13.6818H13.6438Z" fill="#907FB1"/>
<path d="M33.3177 40V40.2H33.4005L33.4591 40.1414L33.3177 40ZM39.2077 37.634L39.0666 37.4923L39.0663 37.4925L39.2077 37.634ZM7.79166 37.634L7.93299 37.4925L7.93284 37.4923L7.79166 37.634ZM5.67376 39.76L5.53251 39.9016L5.5326 39.9017L5.67376 39.76ZM41.3258 39.76L41.4669 39.9017L41.467 39.9016L41.3258 39.76ZM13.6777 40V40.2H33.3177V40V39.8H13.6777V40ZM33.3177 40L33.4591 40.1414C33.4303 40.1702 33.3997 40.1832 33.3814 40.1891C33.3627 40.1951 33.3473 40.1969 33.3393 40.1976C33.3306 40.1983 33.3239 40.1982 33.3206 40.1982C33.317 40.198 33.3146 40.1978 33.3141 40.1978C33.3135 40.1978 33.3134 40.1977 33.3148 40.1979C33.3157 40.198 33.3185 40.1983 33.321 40.1985C33.3258 40.199 33.3368 40.2 33.3497 40.2V40V39.8C33.3566 39.8 33.3611 39.8005 33.3593 39.8003C33.3586 39.8003 33.3581 39.8002 33.3558 39.8C33.354 39.7998 33.3508 39.7995 33.3473 39.7992C33.3423 39.7988 33.3258 39.7974 33.3061 39.799C33.2957 39.7999 33.2784 39.802 33.258 39.8086C33.238 39.8151 33.206 39.8288 33.1762 39.8586L33.3177 40ZM33.3497 40V40.2C35.6821 40.2 37.7577 39.3647 39.349 37.7755L39.2077 37.634L39.0663 37.4925C37.5536 39.0033 35.5812 39.8 33.3497 39.8V40ZM39.2077 37.634L39.3488 37.7757C41.1938 35.9389 42.1997 33.3072 42.1997 30.376H41.9997H41.7997C41.7997 33.2168 40.8256 35.7411 39.0666 37.4923L39.2077 37.634ZM41.9997 30.376H42.1997V16.64H41.9997H41.7997V30.376H41.9997ZM41.9997 16.64H42.1997C42.1997 10.9637 38.4773 6.79999 33.3177 6.79999V6.99999V7.19999C38.218 7.19999 41.7997 11.1443 41.7997 16.64H41.9997ZM33.3177 6.99999V6.79999H13.6817V6.99999V7.19999H33.3177V6.99999ZM13.6817 6.99999V6.79999C8.52204 6.79999 4.79966 10.9637 4.79966 16.64H4.99966H5.19966C5.19966 11.1443 8.78128 7.19999 13.6817 7.19999V6.99999ZM4.99966 16.64H4.79966V30.376H4.99966H5.19966V16.64H4.99966ZM4.99966 30.376H4.79966C4.79966 33.3073 5.80762 35.9389 7.65047 37.7757L7.79166 37.634L7.93284 37.4923C6.1757 35.741 5.19966 33.2167 5.19966 30.376H4.99966ZM7.79166 37.634L7.65033 37.7755C9.2416 39.3647 11.3192 40.2 13.6497 40.2V40V39.8C11.4201 39.8 9.44572 39.0033 7.93299 37.4925L7.79166 37.634ZM13.6497 40V40.2H13.6777V40V39.8H13.6497V40ZM13.6438 43V42.8C10.609 42.8 7.90427 41.6998 5.81491 39.6183L5.67376 39.76L5.5326 39.9017C7.69924 42.0602 10.5065 43.2 13.6438 43.2V43ZM5.67376 39.76L5.815 39.6184C3.48664 37.2959 2.19976 34.0168 2.19976 30.376H1.99976H1.79976C1.79976 34.1112 3.12087 37.4961 5.53251 39.9016L5.67376 39.76ZM1.99976 30.376H2.19976V16.64H1.99976H1.79976V30.376H1.99976ZM1.99976 16.64H2.19976C2.19976 9.52932 7.14677 4.2 13.6818 4.2V4V3.8C6.89675 3.8 1.79976 9.33868 1.79976 16.64H1.99976ZM13.6818 4V4.2H33.3178V4V3.8H13.6818V4ZM33.3178 4V4.2C39.8527 4.2 44.7998 9.52932 44.7998 16.64H44.9998H45.1998C45.1998 9.33868 40.1028 3.8 33.3178 3.8V4ZM44.9998 16.64H44.7998V30.376H44.9998H45.1998V16.64H44.9998ZM44.9998 30.376H44.7998C44.7998 34.0168 43.5129 37.2959 41.1845 39.6184L41.3258 39.76L41.467 39.9016C43.8786 37.4961 45.1998 34.1112 45.1998 30.376H44.9998ZM41.3258 39.76L41.1846 39.6183C39.0973 41.6978 36.3905 42.8 33.3498 42.8V43V43.2C36.493 43.2 39.3023 42.0582 41.4669 39.9017L41.3258 39.76ZM33.3498 43V42.8H33.3178V43V43.2H33.3498V43ZM33.3178 43V42.8H13.6818V43V43.2H33.3178V43ZM13.6818 43V42.8H13.6438V43V43.2H13.6818V43Z" fill="#907FB1" mask="url(#path-4-outside-2_190_7228)"/>
</g>
</svg>
