<svg width="13" height="13" viewBox="0 0 13 13" fill="none" xmlns="http://www.w3.org/2000/svg">
<path d="M5.6366 0C3.11899 0 0.636599 2.0339 0.636599 3.5C0.636599 4.70339 1.89235 5.19942 2.6366 5C4.14677 4.59535 3.6366 2 6.6366 2C8.13236 2 10.343 2.91723 12.6366 4.5C10.6366 0.974576 8.6366 0 5.6366 0ZM12.6366 6C11.6366 6 9.6366 7 6.6366 7C3.6366 7 1.62283 6.5694 0.636599 6C-0.363401 7.43372 -0.113401 10 0.886599 11C0.886599 9 2.04285 8 2.6366 8C2.29611 9.18981 2.40074 11.0525 3.6366 12C3.1896 10.4664 4.08909 8.93383 5.1366 8.5C4.98273 10 4.9273 10.6279 6.1366 12.25C6.1366 10.9187 6.4078 9.5 7.6366 8.5C7.6366 9.5 8.1366 11 9.1366 12C8.8866 10.3996 9.24992 9 10.1366 8C10.1754 9.3201 10.5507 10.1429 11.8866 11C11.4897 9.1157 11.6366 7.44853 12.6366 6Z" fill="black"/>
</svg>
