<svg width="24" height="24" viewBox="0 0 24 24" fill="none" xmlns="http://www.w3.org/2000/svg">
<g clip-path="url(#clip0_186_1979)">
<path d="M7.99998 5.00005H9.99998V7.00005H9.09998L12 9.90005V9.00005H20V17.9L22 19.9V7.00005H12V3.00005H5.09998L7.99998 5.90005V5.00005ZM16 11H18V13H16V11ZM1.29998 1.80005L0.0999756 3.10005L1.99998 5.00005V21H18L21 24L22.3 22.7001L1.29998 1.80005ZM5.99998 19H3.99998V17H5.99998V19ZM5.99998 15H3.99998V13H5.99998V15ZM5.99998 11H3.99998V9.00005H5.99998V11ZM9.99998 19H7.99998V17H9.99998V19ZM9.99998 15H7.99998V13H9.99998V15ZM12 19V17H14L16 19H12Z" fill="#323232"/>
</g>
<defs>
<clipPath id="clip0_186_1979">
<rect width="24" height="24" fill="white"/>
</clipPath>
</defs>
</svg>
