<svg width="24" height="24" viewBox="0 0 24 24" fill="none" xmlns="http://www.w3.org/2000/svg">
<g clip-path="url(#clip0_186_2760)">
<path d="M18 14C18 10 12 3.20001 12 3.20001C12 3.20001 10.67 4.71001 9.27 6.72001L17.86 15.31C17.95 14.89 18 14.45 18 14ZM17.12 17.12L12.5 12.5L5.27 5.27001L4 6.55001L7.32 9.87001C6.55 11.32 6 12.79 6 14C6 17.31 8.69 20 12 20C13.52 20 14.9 19.43 15.96 18.5L18.59 21.13L19.86 19.86L17.12 17.12Z" fill="#323232"/>
</g>
<defs>
<clipPath id="clip0_186_2760">
<rect width="24" height="24" fill="white"/>
</clipPath>
</defs>
</svg>
