<svg width="23" height="10" viewBox="0 0 23 10" fill="none" xmlns="http://www.w3.org/2000/svg">
<path d="M22.3406 2.61563C22.1344 2.55938 21.4406 2.52188 21.4406 2.52188C21.4406 2.52188 18.4688 1.90313 17.1281 1.02188C16.2469 0.5625 15.4406 0 14.5406 0C14.0906 0 13.3125 0.0843753 12.7406 0.496875C12.4125 0.778125 12.7406 0.496875 12.0469 1.11563C12.0469 1.11563 11.6719 1.52813 11.4094 1.5375C11.4 1.5375 11.4 1.5375 11.3906 1.5375C11.3906 1.5375 11.3813 1.5375 11.3719 1.5375C11.1188 1.52813 10.7344 1.11563 10.7344 1.11563C10.0406 0.4875 10.3781 0.778125 10.0406 0.496875C9.46875 0.0843753 8.69063 0 8.24063 0C7.34063 0 6.525 0.5625 5.65313 1.02188C4.3125 1.9125 1.34062 2.52188 1.34062 2.52188C1.34062 2.52188 0.646875 2.55938 0.440625 2.61563C0.234375 2.67188 0 2.83125 0 3.0375C0 3.44063 0.421875 3.525 1.0125 3.525H4.50937C5.44687 3.525 6.19687 3.62812 6.75937 3.81562C7.32187 4.00312 7.82813 4.20937 8.27813 4.45312C8.72813 4.6875 9.1875 4.9125 9.64688 5.1C10.0969 5.2875 10.6687 5.38125 11.3625 5.38125C11.3719 5.38125 11.3719 5.38125 11.3813 5.38125C11.3813 5.38125 11.3906 5.38125 11.4 5.38125C12.1031 5.38125 12.675 5.2875 13.1156 5.1C13.5656 4.9125 14.025 4.6875 14.4844 4.45312C14.9344 4.21875 15.4406 4.0125 16.0031 3.81562C16.5656 3.62812 17.325 3.525 18.2531 3.525H21.75C22.3406 3.525 22.7625 3.44063 22.7625 3.0375C22.7719 2.83125 22.5469 2.68125 22.3406 2.61563Z" fill="black"/>
<path d="M21.1688 4.18124H19.0406C17.8406 4.18124 16.9219 4.27499 16.3031 4.49062C15.6938 4.70624 15.1875 4.94062 14.7656 5.18437C14.3438 5.43749 13.8938 5.67187 13.425 5.87812C12.9656 6.09374 12.2906 6.19687 11.4 6.20624C11.3906 6.20624 11.3906 6.20624 11.3813 6.20624C11.3813 6.20624 11.3719 6.20624 11.3625 6.20624C10.4719 6.20624 9.79688 6.09374 9.33751 5.87812C8.86876 5.66249 8.41876 5.42812 7.99688 5.18437C7.57501 4.93124 7.07813 4.69687 6.45938 4.49062C5.85001 4.27499 4.93126 4.18124 3.72188 4.18124H1.61251C1.19063 4.18124 0.975006 4.27499 0.975006 4.49062C0.975006 4.61249 1.05001 4.68749 1.20001 4.70624C1.35001 4.73437 1.93126 4.94999 2.83126 5.44687C4.18126 6.44062 4.53751 6.66562 5.54063 7.43437C6.44063 7.93124 7.06876 8.77499 8.25001 9.35624C9.31876 9.75937 10.05 9.92812 11.3813 9.92812C11.3906 9.92812 11.3906 9.92812 11.4 9.92812C11.4 9.92812 11.4094 9.92812 11.4188 9.92812C12.75 9.92812 13.4719 9.75937 14.55 9.35624C15.7219 8.77499 16.35 7.93124 17.2594 7.43437C18.2531 6.66562 18.6094 6.44062 19.9688 5.44687C20.8688 4.94999 21.4594 4.72499 21.6 4.70624C21.75 4.67812 21.825 4.61249 21.825 4.49062C21.8063 4.28437 21.5813 4.18124 21.1688 4.18124Z" fill="black"/>
</svg>
