<svg width="24" height="24" viewBox="0 0 24 24" fill="none" xmlns="http://www.w3.org/2000/svg">
<g clip-path="url(#clip0_186_3782)">
<path d="M22.17 9.17004C22.17 5.30004 19.04 2.17004 15.17 2.17004C11.3 2.17004 8.17 5.30004 8.17 9.17004C8.17 12.64 10.69 15.51 14 16.06V20H6V17H7V13C7 12.45 6.55 12 6 12H3C2.45 12 2 12.45 2 13V17H3V22H19V20H16V16.12C19.47 15.71 22.17 12.76 22.17 9.17004ZM4.5 11C5.33 11 6 10.33 6 9.50004C6 8.67004 5.33 8.00004 4.5 8.00004C3.67 8.00004 3 8.67004 3 9.50004C3 10.33 3.67 11 4.5 11Z" fill="#323232"/>
</g>
<defs>
<clipPath id="clip0_186_3782">
<rect width="24" height="24" fill="white"/>
</clipPath>
</defs>
</svg>
