<svg width="24" height="24" viewBox="0 0 24 24" fill="none" xmlns="http://www.w3.org/2000/svg">
<g clip-path="url(#clip0_5474_39452)">
<path d="M21.9401 4.88C21.7601 4.35 21.2501 4 20.6801 4C20.6501 4 20.6201 4 20.5901 4H19.6001L19.2901 3.03C19.1501 2.43 18.6101 2 18.0001 2C17.3901 2 16.8501 2.43 16.7101 3.04L16.4001 4H15.4201C15.3901 4 15.3601 4 15.3301 4C14.7601 4 14.2501 4.35 14.0701 4.88C13.8801 5.44 14.1101 6.05 14.6301 6.36L15.5001 6.88L15.1001 8.12C14.8701 8.7 15.0601 9.37 15.5501 9.74C15.7801 9.91 16.0601 10 16.3301 10C16.6401 10 16.9401 9.89 17.1901 9.68L18.0001 8.98L18.8101 9.68C19.0601 9.89 19.3601 10 19.6701 10C19.9401 10 20.2201 9.91 20.4501 9.74C20.9501 9.37 21.1301 8.7 20.9001 8.12L20.5101 6.88L21.3801 6.36C21.8901 6.05 22.1201 5.44 21.9401 4.88ZM18.0001 7C17.4501 7 17.0001 6.55 17.0001 6C17.0001 5.45 17.4501 5 18.0001 5C18.5501 5 19.0001 5.45 19.0001 6C19.0001 6.55 18.5501 7 18.0001 7Z" fill="#323232"/>
<path d="M13.49 10.51C13.06 10.08 12.55 9.78 12 9.58V8H11V9.38C10.89 9.37 10.77 9.35 10.66 9.35C9.64002 9.35 8.61002 9.74 7.83002 10.52C7.67002 10.68 7.53002 10.86 7.40002 11.05L6.00002 10.52C4.44002 9.97 2.72002 10.79 2.17002 12.34C1.90002 13.09 1.94002 13.91 2.29002 14.63C2.52002 15.11 2.87002 15.5 3.29002 15.79C2.91002 17.14 3.23002 18.64 4.29002 19.7C5.35002 20.76 6.86002 21.08 8.20002 20.7C8.49002 21.12 8.88002 21.47 9.36002 21.7C9.78002 21.9 10.21 22 10.65 22C10.99 22 11.33 21.94 11.66 21.83C13.22 21.28 14.04 19.56 13.48 17.98L12.96 16.61C13.14 16.48 13.32 16.34 13.49 16.18C14.36 15.31 14.73 14.14 14.63 13.01H16V12.01H14.41C14.22 11.46 13.92 10.95 13.49 10.51ZM4.67002 14.29C4.42002 14.2 4.22002 14.02 4.10002 13.78C3.98002 13.54 3.97002 13.27 4.06002 13.02C4.25002 12.5 4.82002 12.23 5.32002 12.41L8.48002 13.6C7.33002 14.2 5.85002 14.71 4.67002 14.29ZM10.99 19.94C10.74 20.03 10.47 20.02 10.23 19.9C9.99002 19.79 9.81002 19.58 9.72002 19.33C9.30002 18.15 9.81002 16.68 10.42 15.53L11.6 18.66C11.78 19.18 11.51 19.76 10.99 19.94ZM12.2 14.6L11.59 12.99C11.59 12.98 11.58 12.97 11.57 12.96C11.55 12.92 11.53 12.88 11.51 12.84C11.49 12.8 11.47 12.77 11.44 12.73C11.41 12.7 11.38 12.67 11.35 12.64C11.32 12.61 11.29 12.58 11.26 12.55C11.23 12.52 11.19 12.5 11.15 12.48C11.11 12.46 11.08 12.43 11.03 12.42C11.02 12.42 11.01 12.41 11 12.4L9.40002 11.8C9.76002 11.51 10.19 11.34 10.66 11.34C11.19 11.34 11.7 11.55 12.07 11.93C12.8 12.66 12.84 13.81 12.2 14.6Z" fill="#323232"/>
</g>
<defs>
<clipPath id="clip0_5474_39452">
<rect width="24" height="24" fill="white"/>
</clipPath>
</defs>
</svg>
