<svg width="24" height="24" viewBox="0 0 24 24" fill="none" xmlns="http://www.w3.org/2000/svg">
<g clip-path="url(#clip0_5474_39407)">
<path d="M21.19 21.19L2.81001 2.81L1.39001 4.22L4.15001 6.98C4.06001 7.31 4.00001 7.64 4.00001 8V20C4.00001 21.1 4.90001 22 6.00001 22H18C18.34 22 18.65 21.91 18.93 21.76L19.78 22.61L21.19 21.19ZM6.00001 14V12H9.17001L11.17 14H6.00001ZM14.83 12L6.98001 4.15C6.99002 4.15 6.99001 4.14 7.00001 4.14V2H10V4H14V2H17V4.14C18.72 4.59 20 6.14 20 8V17.17L18 15.17V12H14.83Z" fill="#323232"/>
</g>
<defs>
<clipPath id="clip0_5474_39407">
<rect width="24" height="24" fill="white"/>
</clipPath>
</defs>
</svg>
