<svg width="8" height="7" viewBox="0 0 8 7" fill="none" xmlns="http://www.w3.org/2000/svg">
<path d="M6.51046 1.85349C4.14139 0.565831 1.00077 0.0319248 0.868111 0.00989351C0.695515 -0.0184196 0.518451 0.0144796 0.367544 0.102901C0.216638 0.191322 0.10138 0.329704 0.0417054 0.494112C-0.00460964 0.629244 -0.012525 0.774575 0.0188397 0.913937C0.0502045 1.0533 0.11962 1.18123 0.219362 1.28349C1.71186 2.86692 1.75967 4.50802 1.56233 6.18802C1.55719 6.23129 1.56573 6.27508 1.58675 6.31325C1.60776 6.35141 1.64021 6.38204 1.67952 6.40083C1.71866 6.41948 1.76265 6.42544 1.80534 6.41787C1.84803 6.41031 1.88729 6.3896 1.91764 6.35864C2.68592 5.58474 3.62249 4.88114 4.74889 4.23099L4.95889 4.10911C5.99483 3.50583 6.38061 3.28083 7.30733 2.8313L7.43342 2.77036C7.46262 2.75637 7.4877 2.73505 7.50621 2.70848C7.52472 2.68192 7.53604 2.65101 7.53906 2.61878C7.54208 2.58654 7.5367 2.55407 7.52345 2.52453C7.51019 2.49499 7.48951 2.46938 7.46342 2.45021C7.1595 2.23017 6.84113 2.03081 6.51046 1.85349Z" fill="black"/>
</svg>
