<svg width="16" height="18" viewBox="0 0 16 18" fill="none" xmlns="http://www.w3.org/2000/svg">
<path d="M15.6352 0.351091C15.5526 0.219726 15.4314 0.117178 15.2882 0.0575727C15.145 -0.00203225 14.9868 -0.0157606 14.8355 0.018279C13.9617 0.214685 13.0983 0.440154 12.27 0.684842C10.6266 1.17187 9.02016 1.80609 7.21453 2.68125C6.34172 3.10547 5.99578 3.30703 4.96453 3.90609L4.75359 4.03125C3.20906 4.92187 2.0775 5.90625 1.29469 7.04484C0.435469 8.29172 0 9.75 0 11.3737C0 13.2834 0.736406 14.9878 2.07375 16.1723C3.42188 17.3681 5.29969 18 7.5 18C9.69187 18 11.573 17.3283 12.9375 16.058C14.2664 14.8228 15 13.0866 15 11.1694C15 9.9975 14.7098 8.96625 14.4295 7.97156C13.8394 5.87672 13.3298 4.06734 15.5878 1.21547C15.6841 1.09395 15.7403 0.945588 15.7488 0.790799C15.7573 0.636009 15.7176 0.482395 15.6352 0.351091Z" fill="black"/>
</svg>
