<svg width="24" height="24" viewBox="0 0 24 24" fill="none" xmlns="http://www.w3.org/2000/svg">
<g clip-path="url(#clip0_5474_38503)">
<path d="M12 16.5C13.2923 16.498 14.5311 15.9838 15.445 15.07C16.3588 14.1561 16.873 12.9173 16.875 11.625V7.875C16.875 6.58207 16.3614 5.34209 15.4471 4.42785C14.5329 3.51361 13.2929 3 12 3C10.7071 3 9.46709 3.51361 8.55285 4.42785C7.63861 5.34209 7.125 6.58207 7.125 7.875V11.625C7.12698 12.9173 7.64123 14.1561 8.55505 15.07C9.46886 15.9838 10.7077 16.498 12 16.5ZM8.625 7.875C8.625 6.97989 8.98058 6.12145 9.61351 5.48851C10.2465 4.85558 11.1049 4.5 12 4.5C12.8951 4.5 13.7536 4.85558 14.3865 5.48851C15.0194 6.12145 15.375 6.97989 15.375 7.875V11.625C15.375 12.5201 15.0194 13.3785 14.3865 14.0115C13.7536 14.6444 12.8951 15 12 15C11.1049 15 10.2465 14.6444 9.61351 14.0115C8.98058 13.3785 8.625 12.5201 8.625 11.625V7.875Z" fill="black"/>
<path d="M22.5 19.5H21.75V11.625C21.75 10.9288 21.4734 10.2611 20.9812 9.76884C20.4889 9.27656 19.8212 9 19.125 9V7.875C19.125 5.98533 18.3743 4.17306 17.0381 2.83686C15.7019 1.50067 13.8897 0.75 12 0.75C10.1103 0.75 8.29806 1.50067 6.96186 2.83686C5.62567 4.17306 4.875 5.98533 4.875 7.875V9C4.17881 9 3.51113 9.27656 3.01884 9.76884C2.52656 10.2611 2.25 10.9288 2.25 11.625V19.5H1.5C1.30109 19.5 1.11032 19.579 0.96967 19.7197C0.829018 19.8603 0.75 20.0511 0.75 20.25V22.5C0.75 22.6989 0.829018 22.8897 0.96967 23.0303C1.11032 23.171 1.30109 23.25 1.5 23.25H22.5C22.6989 23.25 22.8897 23.171 23.0303 23.0303C23.171 22.8897 23.25 22.6989 23.25 22.5V20.25C23.25 20.0511 23.171 19.8603 23.0303 19.7197C22.8897 19.579 22.6989 19.5 22.5 19.5ZM6.375 7.875C6.375 6.38316 6.96763 4.95242 8.02252 3.89752C9.07742 2.84263 10.5082 2.25 12 2.25C13.4918 2.25 14.9226 2.84263 15.9775 3.89752C17.0324 4.95242 17.625 6.38316 17.625 7.875V11.625C17.625 13.1168 17.0324 14.5476 15.9775 15.6025C14.9226 16.6574 13.4918 17.25 12 17.25C10.5082 17.25 9.07742 16.6574 8.02252 15.6025C6.96763 14.5476 6.375 13.1168 6.375 11.625V7.875ZM3.75 11.625C3.75 11.3266 3.86853 11.0405 4.0795 10.8295C4.29048 10.6185 4.57663 10.5 4.875 10.5V11.625C4.875 13.5147 5.62567 15.3269 6.96186 16.6631C8.29806 17.9993 10.1103 18.75 12 18.75C13.8897 18.75 15.7019 17.9993 17.0381 16.6631C18.3743 15.3269 19.125 13.5147 19.125 11.625V10.5C19.4234 10.5 19.7095 10.6185 19.9205 10.8295C20.1315 11.0405 20.25 11.3266 20.25 11.625V19.5H3.75V11.625ZM21.75 21.75H2.25V21H21.75V21.75Z" fill="black"/>
</g>
<defs>
<clipPath id="clip0_5474_38503">
<rect width="24" height="24" fill="white"/>
</clipPath>
</defs>
</svg>
