<svg width="24" height="24" viewBox="0 0 24 24" fill="none" xmlns="http://www.w3.org/2000/svg">
<g clip-path="url(#clip0_5474_39394)">
<path d="M21.2771 15.5671C20.8866 15.1766 20.8866 14.5434 21.2771 14.1529L21.2929 14.1371C21.6834 13.7466 21.6834 13.1134 21.2929 12.7229L21.2771 12.7071C20.8866 12.3166 20.2534 12.3166 19.8629 12.7071L17.7071 14.8629C17.3166 15.2534 16.6834 15.2534 16.2929 14.8629L9.13711 7.70711C8.74658 7.31658 8.74658 6.68342 9.13711 6.29289L11.2929 4.13711C11.6834 3.74658 11.6834 3.11342 11.2929 2.72289L11.2771 2.70711C10.8866 2.31658 10.2534 2.31658 9.86289 2.70711L9.84711 2.72289C9.45658 3.11342 8.82342 3.11342 8.43289 2.72289L8.41711 2.70711C8.02658 2.31658 7.39342 2.31658 7.00289 2.70711L6.27711 3.43289C5.88658 3.82342 5.25342 3.82342 4.86289 3.43289L4.84711 3.41711C4.45658 3.02658 3.82342 3.02658 3.43289 3.41711L3.41711 3.43289C3.02658 3.82342 3.02658 4.45658 3.41711 4.84711L3.43289 4.86289C3.82342 5.25342 3.82342 5.88658 3.43289 6.27711L2.70711 7.00289C2.31658 7.39342 2.31658 8.02658 2.70711 8.41711L2.72289 8.43289C3.11342 8.82342 3.11342 9.45658 2.72289 9.84711L2.70711 9.86289C2.31658 10.2534 2.31658 10.8866 2.70711 11.2771L2.72289 11.2929C3.11342 11.6834 3.74658 11.6834 4.13711 11.2929L6.29289 9.13711C6.68342 8.74658 7.31658 8.74658 7.70711 9.13711L14.8629 16.2929C15.2534 16.6834 15.2534 17.3166 14.8629 17.7071L12.7071 19.8629C12.3166 20.2534 12.3166 20.8866 12.7071 21.2771L12.7229 21.2929C13.1134 21.6834 13.7466 21.6834 14.1371 21.2929L14.1529 21.2771C14.5434 20.8866 15.1766 20.8866 15.5671 21.2771L15.5829 21.2929C15.9734 21.6834 16.6066 21.6834 16.9971 21.2929L17.7229 20.5671C18.1134 20.1766 18.7466 20.1766 19.1371 20.5671L19.1529 20.5829C19.5434 20.9734 20.1766 20.9734 20.5671 20.5829L20.5829 20.5671C20.9734 20.1766 20.9734 19.5434 20.5829 19.1529L20.5671 19.1371C20.1766 18.7466 20.1766 18.1134 20.5671 17.7229L21.2929 16.9971C21.6834 16.6066 21.6834 15.9734 21.2929 15.5829L21.2771 15.5671Z" fill="#323232"/>
</g>
<defs>
<clipPath id="clip0_5474_39394">
<rect width="24" height="24" fill="white"/>
</clipPath>
</defs>
</svg>
