<svg width="24" height="24" viewBox="0 0 24 24" fill="none" xmlns="http://www.w3.org/2000/svg">
<g clip-path="url(#clip0_5474_38888)">
<path d="M15.1 19.37L16.1 21.11C15.14 21.55 14.09 21.84 13 21.95V19.93C13.74 19.84 14.44 19.65 15.1 19.37ZM4.07005 13H2.05005C2.16005 14.1 2.45005 15.14 2.89005 16.1L4.63005 15.1C4.35005 14.44 4.16005 13.74 4.07005 13ZM15.1 4.62999L16.1 2.88999C15.14 2.44999 14.1 2.15999 13 2.04999V4.06999C13.74 4.15999 14.44 4.34999 15.1 4.62999ZM19.93 11H21.9501C21.84 9.89999 21.5501 8.85999 21.1101 7.89999L19.3701 8.89999C19.6501 9.55999 19.84 10.26 19.93 11ZM8.90005 19.37L7.90005 21.11C8.86005 21.55 9.91005 21.84 11 21.95V19.93C10.26 19.84 9.56005 19.65 8.90005 19.37ZM11 4.06999V2.04999C9.90005 2.15999 8.86005 2.44999 7.90005 2.88999L8.90005 4.62999C9.56005 4.34999 10.26 4.15999 11 4.06999ZM18.3601 7.16999L20.1 6.15999C19.4701 5.28999 18.7 4.51999 17.83 3.88999L16.82 5.62999C17.41 6.07999 17.9201 6.58999 18.3601 7.16999ZM4.63005 8.89999L2.89005 7.89999C2.45005 8.85999 2.16005 9.89999 2.05005 11H4.07005C4.16005 10.26 4.35005 9.55999 4.63005 8.89999ZM19.93 13C19.84 13.74 19.6501 14.44 19.3701 15.1L21.1101 16.1C21.5501 15.14 21.84 14.09 21.9501 13H19.93ZM16.83 18.36L17.84 20.1C18.71 19.47 19.4801 18.7 20.1101 17.83L18.3701 16.82C17.9201 17.41 17.41 17.92 16.83 18.36ZM7.17005 5.63999L6.17005 3.88999C5.29005 4.52999 4.53005 5.28999 3.90005 6.16999L5.64005 7.17999C6.08005 6.58999 6.59005 6.07999 7.17005 5.63999ZM5.64005 16.83L3.90005 17.83C4.53005 18.7 5.30005 19.47 6.17005 20.1L7.18005 18.36C6.59005 17.92 6.08005 17.41 5.64005 16.83ZM13 6.99999H11V12.41L15.29 16.7L16.7 15.29L13 11.59V6.99999Z" fill="#323232"/>
</g>
<defs>
<clipPath id="clip0_5474_38888">
<rect width="24" height="24" fill="white"/>
</clipPath>
</defs>
</svg>
