<svg width="24" height="24" viewBox="0 0 24 24" fill="none" xmlns="http://www.w3.org/2000/svg">
<g clip-path="url(#clip0_5474_39516)">
<path d="M15.05 12.8098L6.55997 4.31984C6.16997 3.92984 5.53997 3.92984 5.14997 4.31984L2.31997 7.14984C1.92997 7.53984 1.92997 8.16984 2.31997 8.55984L10.81 17.0498C11.2 17.4398 11.83 17.4398 12.22 17.0498L15.05 14.2198C15.44 13.8298 15.44 13.1998 15.05 12.8098Z" fill="#323232"/>
<path d="M15.7554 16.3417L14.3412 17.7559L18.5838 21.9985L19.998 20.5843L15.7554 16.3417Z" fill="#323232"/>
<path d="M18.4999 9C20.4329 9 21.9999 7.433 21.9999 5.5C21.9999 3.567 20.4329 2 18.4999 2C16.5669 2 14.9999 3.567 14.9999 5.5C14.9999 7.433 16.5669 9 18.4999 9Z" fill="#323232"/>
</g>
<defs>
<clipPath id="clip0_5474_39516">
<rect width="24" height="24" fill="white"/>
</clipPath>
</defs>
</svg>
