<svg width="24" height="24" viewBox="0 0 24 24" fill="none" xmlns="http://www.w3.org/2000/svg">
<g clip-path="url(#clip0_5474_39518)">
<path d="M3.01997 15.6201C2.93997 18.0401 3.33997 19.9601 3.68997 20.3101C4.03997 20.6601 5.96997 21.0701 8.37997 20.9801L3.01997 15.6201Z" fill="#323232"/>
<path d="M13.08 3.27979C10.75 3.69979 8.29003 4.61979 6.46003 6.45979C4.63003 8.29979 3.70003 10.7498 3.28003 13.0798L10.91 20.7098C13.25 20.2998 15.7 19.3698 17.53 17.5298C19.36 15.6898 20.29 13.2398 20.71 10.9098L13.08 3.27979ZM9.90003 15.4998L8.50003 14.0998L14.1 8.49979L15.5 9.89979L9.90003 15.4998Z" fill="#323232"/>
<path d="M20.98 8.37992C21.06 5.95992 20.66 4.03992 20.31 3.68992C19.96 3.33992 18.03 2.92992 15.62 3.01992L20.98 8.37992Z" fill="#323232"/>
</g>
<defs>
<clipPath id="clip0_5474_39518">
<rect width="24" height="24" fill="white"/>
</clipPath>
</defs>
</svg>
