<svg width="24" height="24" viewBox="0 0 24 24" fill="none" xmlns="http://www.w3.org/2000/svg">
<g clip-path="url(#clip0_5474_39522)">
<path d="M16.5 4.37988C17.6046 4.37988 18.5 3.48445 18.5 2.37988C18.5 1.27531 17.6046 0.379883 16.5 0.379883C15.3954 0.379883 14.5 1.27531 14.5 2.37988C14.5 3.48445 15.3954 4.37988 16.5 4.37988Z" fill="#323232"/>
<path d="M24 11.8799V7.17989L18.95 5.03989C17.98 4.62989 16.86 4.97989 16.3 5.87989L15.3 7.47989C14.63 8.65989 13.39 9.53989 11.89 9.79989L11.95 9.85989C12.64 10.5499 13.47 10.9299 14.41 11.0299C15.21 10.6099 15.93 10.0499 16.5 9.38989L17.1 12.3899L15.94 13.4899L15 14.3799V15.1399V21.8799H17V15.8799L19.1 13.8799L20.9 21.8799H23L20.82 10.8799L20.2 7.77989L22 8.47989V11.8799H24Z" fill="#323232"/>
<path d="M10.2901 8.08967C10.5101 8.23967 10.7601 8.32967 11.0101 8.37967C11.1401 8.39967 11.2601 8.41967 11.3901 8.41967C11.5201 8.41967 11.6501 8.40967 11.7701 8.37967C11.9001 8.35967 12.0201 8.31967 12.1401 8.26967C12.3801 8.16967 12.6101 8.02967 12.8001 7.82967C13.2901 7.33967 13.4701 6.65967 13.3501 6.02967C13.2801 5.65967 13.1001 5.28967 12.8001 4.99967C12.6101 4.80967 12.3801 4.65967 12.1401 4.55967C12.0201 4.50967 11.9001 4.46967 11.7701 4.44967C11.6401 4.42967 11.5201 4.40967 11.3901 4.40967C11.2701 4.40967 11.1601 4.41967 11.0401 4.43967C10.9001 4.45967 10.7601 4.49967 10.6301 4.54967C10.4001 4.65967 10.1701 4.80967 9.98008 4.99967C9.68008 5.28967 9.50009 5.65967 9.43009 6.02967C9.31009 6.65967 9.49008 7.33967 9.98008 7.82967C10.0701 7.92967 10.1801 8.00967 10.2901 8.08967Z" fill="#323232"/>
<path d="M11.24 10.56L9.24005 8.55998C9.14005 8.45998 9.04005 8.37998 8.93005 8.29998C8.71005 8.15998 8.46005 8.05998 8.21005 8.01998C8.08005 7.98998 7.96005 7.97998 7.83005 7.97998C7.32005 7.97998 6.81005 8.17998 6.42005 8.56998L3.08005 11.91C2.67005 12.32 2.46005 12.89 2.50005 13.45C2.50005 13.63 2.54005 13.82 2.61005 14L3.68005 16.95L0.0500488 20.58L1.46005 22L5.70005 17.76V15.54L7.00005 16.75V21.88H9.00005V15.88L6.88005 13.76L9.24005 11.4L9.95005 12.11C11.24 13.37 12.92 14.15 14.98 14.15L14.84 12.08C13.34 12.06 12.14 11.46 11.24 10.56Z" fill="#323232"/>
</g>
<defs>
<clipPath id="clip0_5474_39522">
<rect width="24" height="24" fill="white"/>
</clipPath>
</defs>
</svg>
