<svg width="19" height="19" viewBox="0 0 19 19" fill="none" xmlns="http://www.w3.org/2000/svg">
<path d="M16.5529 1.49923C15.5928 0.539277 14.2906 0 12.9329 0C11.5752 0 10.2731 0.539277 9.31291 1.49923L1.55291 9.25923C1.06606 9.73205 0.678071 10.2969 0.411499 10.9211C0.144928 11.5452 0.00509651 12.2161 0.00013674 12.8947C-0.00482303 13.5734 0.125188 14.2462 0.382609 14.8742C0.64003 15.5021 1.01972 16.0726 1.49961 16.5525C1.9795 17.0324 2.55001 17.4121 3.17796 17.6695C3.80591 17.927 4.47877 18.057 5.15742 18.052C5.83606 18.047 6.50696 17.9072 7.13108 17.6406C7.7552 17.3741 8.32009 16.9861 8.79291 16.4992L16.5529 8.73923C17.5129 7.77907 18.0521 6.47695 18.0521 5.11923C18.0521 3.76151 17.5129 2.45938 16.5529 1.49923ZM7.37291 15.0892C6.77694 15.6525 5.98798 15.9664 5.16791 15.9664C4.34785 15.9664 3.55889 15.6525 2.96291 15.0892C2.38095 14.5029 2.05437 13.7103 2.05437 12.8842C2.05437 12.0581 2.38095 11.2655 2.96291 10.6792L6.14292 7.49923L10.5529 11.9092L7.37291 15.0892ZM15.1429 7.31923L11.9629 10.4992L7.55292 6.08923L10.7329 2.90923C11.3239 2.35555 12.1071 2.05337 12.9169 2.06658C13.7266 2.07978 14.4995 2.40733 15.0722 2.97999C15.6448 3.55265 15.9724 4.32554 15.9856 5.13529C15.9988 5.94504 15.6966 6.7282 15.1429 7.31923Z" fill="black"/>
</svg>
