<svg width="16" height="24" viewBox="0 0 16 24" fill="none" xmlns="http://www.w3.org/2000/svg">
<path d="M4.04265 4.27439C4.24635 4.29915 4.44163 4.27439 4.6186 4.21117C4.95995 4.62808 5.47853 4.89422 6.05934 4.89422C7.0873 4.89422 7.9206 4.06092 7.9206 3.03296C7.9206 2.89046 7.90406 2.75188 7.87372 2.61858C8.14373 2.06651 8.47913 1.0782 7.87909 0.378762C7.79345 0.278953 7.63001 0.321802 7.60096 0.45009C7.53961 0.720674 7.38217 1.12254 6.97787 1.41437C6.70677 1.26019 6.3935 1.1717 6.05939 1.1717C5.47853 1.1717 4.96 1.43784 4.61865 1.85475C4.48721 1.80781 4.34569 1.78207 4.19813 1.78207C3.48272 1.78207 2.9076 2.38263 2.94941 3.10708C2.98378 3.70407 3.44907 4.20223 4.04265 4.27439Z" fill="black"/>
<path d="M15.3932 2.70558C15.3932 1.18845 14.5305 0 13.4291 0C12.3277 0 11.465 1.18845 11.465 2.70558C11.465 3.97533 12.0695 5.0143 12.9122 5.31951V6.38815L10.624 7.1218L8.02866 5.7878C7.90074 5.72205 7.75896 5.68773 7.61517 5.68773C6.26432 5.68773 5.8519 5.68773 4.50359 5.68773C3.55869 5.68773 3.04218 6.15493 2.58655 6.56714C2.58655 6.56714 1.5543 7.48257 0.300626 8.60357C-0.074728 8.94016 -0.102277 9.51885 0.238756 9.8895L2.28041 12.1086C2.49517 12.3421 2.82566 12.4559 3.16101 12.3741L2.49636 15.8058C2.4365 16.1147 2.67463 16.4001 2.98615 16.4001C3.17739 16.4001 3.4074 16.4001 3.66367 16.4001V22.9145C3.66367 23.514 4.14963 23.9999 4.7491 23.9999C5.34857 23.9999 5.83454 23.514 5.83454 22.9145V16.4002C5.98433 16.4002 6.13458 16.4002 6.28432 16.4002V22.9146C6.28432 23.514 6.77028 24 7.36975 24C7.96922 24 8.45519 23.514 8.45519 22.9146V16.4002C8.71151 16.4002 8.94151 16.4002 9.13271 16.4002C9.44588 16.4002 9.68225 16.1144 9.6225 15.8059C8.19215 8.4208 8.43426 9.83197 8.19908 7.90941L10.1301 8.90196C10.3432 9.01154 10.5913 9.03206 10.8198 8.95882L12.9122 8.28792V8.73517C12.9122 9.02064 13.1436 9.25204 13.4291 9.25204C13.7145 9.25204 13.946 9.02064 13.946 8.73517V7.94611C14.3456 7.75311 14.5529 7.29138 14.4136 6.85669C14.3349 6.61128 14.161 6.4235 13.946 6.3194V5.31951C14.7887 5.01424 15.3932 3.97528 15.3932 2.70558ZM3.47785 10.7383L2.1913 9.33996C2.32724 9.2186 3.93461 7.78831 3.93461 7.78831C3.69333 9.7609 3.79754 9.08773 3.47785 10.7383ZM13.4291 4.37735C12.9891 4.37735 12.4987 3.69079 12.4987 2.70558C12.4987 1.72036 12.9891 1.03375 13.4291 1.03375C13.8692 1.03375 14.3595 1.72036 14.3595 2.70558C14.3595 3.69079 13.8692 4.37735 13.4291 4.37735Z" fill="black"/>
</svg>
