<svg width="32" height="30" viewBox="0 0 32 30" fill="none" xmlns="http://www.w3.org/2000/svg">
<path d="M20.4251 0L21.9929 6.35079C22.438 8.15381 23.8458 9.56157 25.6489 10.0067L32 11.5745L25.6489 13.1423C23.8458 13.5874 22.438 14.9952 21.9929 16.7982L20.4251 23.149L18.8572 16.7982C18.4121 14.9952 17.0043 13.5874 15.2012 13.1423L8.8501 11.5745L15.2012 10.0067C17.0043 9.56157 18.4121 8.15381 18.8572 6.35079L20.4251 0Z" fill="#B7B7B7"/>
<path d="M6.8088 16.3404L7.72256 20.0417C7.98963 21.1235 8.83431 21.9681 9.91612 22.2352L13.6176 23.1489L9.91612 24.0627C8.83431 24.3297 7.98963 25.1744 7.72256 26.2562L6.8088 29.9574L5.89504 26.2562C5.62797 25.1744 4.78329 24.3297 3.70148 24.0627L0 23.1489L3.70148 22.2352C4.78329 21.9681 5.62797 21.1235 5.89504 20.0417L6.8088 16.3404Z" fill="#B7B7B7"/>
</svg>
