<svg width="12" height="14" viewBox="0 0 12 14" fill="none" xmlns="http://www.w3.org/2000/svg">
<path d="M1.74266 8.02336V12.4779C1.74266 12.6883 1.67139 12.8647 1.52884 13.0073C1.3863 13.1498 1.2101 13.2208 1.00024 13.2203C0.790378 13.2198 0.614176 13.1486 0.471631 13.0065C0.329085 12.8645 0.257812 12.6883 0.257812 12.4779V1.34155C0.257812 1.13119 0.329085 0.95499 0.471631 0.812939C0.614176 0.670889 0.790378 0.599616 1.00024 0.599121H6.32713C6.50036 0.599121 6.65503 0.654803 6.79115 0.766166C6.92726 0.87753 7.01387 1.01983 7.05099 1.19306L7.2366 2.08397H10.6518C10.8621 2.08397 11.0386 2.15524 11.1811 2.29779C11.3236 2.44033 11.3947 2.61654 11.3942 2.82639V8.76579C11.3942 8.97614 11.3229 9.15259 11.1804 9.29514C11.0378 9.43768 10.8616 9.50871 10.6518 9.50821H6.80971C6.63647 9.50821 6.4818 9.45253 6.34569 9.34117C6.20958 9.2298 6.12296 9.08751 6.08584 8.91427L5.90024 8.02336H1.74266Z" fill="white"/>
</svg>
