<svg width="28" height="28" viewBox="0 0 28 28" fill="none" xmlns="http://www.w3.org/2000/svg">
<path d="M10.0142 4.18311C11.9448 3.39987 14.0641 3.20274 16.106 3.6167C18.0201 4.00482 19.7872 4.91378 21.2144 6.23975L21.4956 6.51025V6.51123C22.2278 7.25249 22.8846 7.96774 23.5249 8.70264V7.00049C23.5249 6.74193 23.6282 6.49388 23.811 6.31104C23.9939 6.12819 24.2419 6.0249 24.5005 6.0249C24.759 6.02499 25.0072 6.12826 25.1899 6.31104C25.3726 6.49385 25.4751 6.74208 25.4751 7.00049V11.3755C25.475 11.6339 25.3727 11.8822 25.1899 12.0649C25.0072 12.2477 24.7589 12.35 24.5005 12.3501H20.1255C19.8671 12.3501 19.6188 12.2476 19.436 12.0649C19.2533 11.8822 19.15 11.6339 19.1499 11.3755C19.1499 11.1169 19.2532 10.8689 19.436 10.686C19.6189 10.5032 19.8669 10.3999 20.1255 10.3999H22.4224C21.685 9.54158 20.9482 8.72507 20.1138 7.88037L19.8843 7.65967C18.7192 6.57883 17.2771 5.83864 15.7153 5.52295C14.0495 5.18628 12.3212 5.34731 10.7466 5.98682C9.17199 6.62641 7.8201 7.71572 6.86084 9.11865C5.90157 10.5217 5.37662 12.177 5.35205 13.8765C5.32756 15.5757 5.80497 17.2443 6.72314 18.6743C7.64146 20.1045 8.96059 21.2326 10.5161 21.9175C12.0716 22.6023 13.7943 22.8142 15.4692 22.5259C17.1442 22.2375 18.6972 21.462 19.9341 20.2964L20.0063 20.2339C20.0821 20.1752 20.1665 20.1285 20.2563 20.0942C20.3759 20.0486 20.5034 20.0262 20.6313 20.0298C20.7594 20.0334 20.8865 20.0624 21.0034 20.1147C21.1202 20.1671 21.2251 20.2425 21.313 20.3354C21.401 20.4286 21.4704 20.538 21.5161 20.6577C21.5617 20.7773 21.5832 20.9048 21.5796 21.0327C21.576 21.1607 21.5469 21.2869 21.4946 21.4038C21.4423 21.5206 21.3678 21.6264 21.2749 21.7144C19.7597 23.1442 17.8562 24.0962 15.8032 24.4507C13.7502 24.8052 11.638 24.5465 9.73096 23.7075C7.82408 22.8686 6.2064 21.4867 5.08057 19.7339C3.95469 17.9809 3.37062 15.9343 3.40088 13.8511C3.4312 11.7682 4.07441 9.74039 5.25049 8.021C6.42672 6.30154 8.08374 4.96637 10.0142 4.18311ZM14.0005 7.7749C14.259 7.77499 14.5072 7.87826 14.6899 8.06104C14.8726 8.24385 14.9751 8.49208 14.9751 8.75049V13.4468L18.8774 15.7886C19.0992 15.9217 19.2592 16.1382 19.3218 16.3892C19.3843 16.64 19.3445 16.9058 19.2114 17.1274C19.0783 17.3491 18.8618 17.5082 18.6108 17.5708C18.3602 17.6333 18.0951 17.5943 17.8735 17.4614L13.4985 14.8364H13.4976C13.3534 14.7497 13.2347 14.6264 13.1519 14.48C13.0691 14.3336 13.0249 14.1686 13.0249 14.0005V8.75049C13.0249 8.49193 13.1282 8.24388 13.311 8.06104C13.4939 7.87819 13.7419 7.7749 14.0005 7.7749Z" fill="#5C4688" stroke="#5C4688" stroke-width="0.2"/>
</svg>
