<svg width="24" height="24" viewBox="0 0 24 24" fill="none" xmlns="http://www.w3.org/2000/svg">
<path d="M12 1C9.82441 1 7.69767 1.64514 5.88873 2.85383C4.07979 4.06253 2.66989 5.78049 1.83733 7.79048C1.00477 9.80047 0.786929 12.0122 1.21137 14.146C1.6358 16.2798 2.68345 18.2398 4.22183 19.7782C5.76021 21.3165 7.72022 22.3642 9.85401 22.7886C11.9878 23.2131 14.1995 22.9952 16.2095 22.1627C18.2195 21.3301 19.9375 19.9202 21.1462 18.1113C22.3549 16.3023 23 14.1756 23 12C22.9969 9.08356 21.837 6.28746 19.7748 4.22523C17.7125 2.16299 14.9164 1.00308 12 1ZM12 21.3077C10.1591 21.3077 8.35957 20.7618 6.82893 19.7391C5.29829 18.7163 4.10529 17.2627 3.40082 15.5619C2.69634 13.8611 2.51202 11.9897 2.87116 10.1842C3.2303 8.37864 4.11677 6.72017 5.41847 5.41847C6.72018 4.11676 8.37865 3.23029 10.1842 2.87115C11.9897 2.51201 13.8611 2.69634 15.5619 3.40081C17.2627 4.10529 18.7163 5.29828 19.7391 6.82892C20.7618 8.35956 21.3077 10.1591 21.3077 12C21.3049 14.4677 20.3234 16.8335 18.5784 18.5784C16.8335 20.3234 14.4677 21.3049 12 21.3077ZM6.92308 9.88461C6.92308 9.63358 6.99752 9.38819 7.13698 9.17947C7.27645 8.97074 7.47468 8.80806 7.7066 8.712C7.93852 8.61593 8.19372 8.5908 8.43993 8.63977C8.68613 8.68874 8.91229 8.80963 9.08979 8.98713C9.2673 9.16464 9.38818 9.39079 9.43715 9.637C9.48613 9.88321 9.46099 10.1384 9.36493 10.3703C9.26886 10.6022 9.10618 10.8005 8.89746 10.9399C8.68873 11.0794 8.44334 11.1538 8.19231 11.1538C7.85569 11.1538 7.53286 11.0201 7.29483 10.7821C7.0568 10.5441 6.92308 10.2212 6.92308 9.88461ZM17.0769 9.88461C17.0769 10.1356 17.0025 10.381 16.863 10.5898C16.7236 10.7985 16.5253 10.9612 16.2934 11.0572C16.0615 11.1533 15.8063 11.1784 15.5601 11.1295C15.3139 11.0805 15.0877 10.9596 14.9102 10.7821C14.7327 10.6046 14.6118 10.3784 14.5629 10.1322C14.5139 9.88602 14.539 9.63082 14.6351 9.3989C14.7311 9.16698 14.8938 8.96875 15.1025 8.82929C15.3113 8.68982 15.5567 8.61538 15.8077 8.61538C16.1443 8.61538 16.4671 8.7491 16.7052 8.98713C16.9432 9.22516 17.0769 9.54799 17.0769 9.88461ZM16.9638 14.9615C15.8754 16.8432 14.0657 17.9231 12 17.9231C9.93433 17.9231 8.12568 16.8442 7.03731 14.9615C6.97609 14.8652 6.93498 14.7575 6.91646 14.6449C6.89794 14.5323 6.90239 14.4171 6.92954 14.3063C6.95669 14.1954 7.00598 14.0912 7.07444 13.9999C7.14291 13.9086 7.22914 13.8321 7.32794 13.775C7.42674 13.7179 7.53607 13.6814 7.64936 13.6676C7.76265 13.6539 7.87755 13.6632 7.98715 13.6949C8.09675 13.7267 8.19879 13.7804 8.28712 13.8526C8.37545 13.9249 8.44826 14.0143 8.50116 14.1154C9.29125 15.4809 10.533 16.2308 12 16.2308C13.467 16.2308 14.7088 15.4798 15.4978 14.1154C15.61 13.921 15.7948 13.7791 16.0116 13.721C16.2284 13.6629 16.4594 13.6933 16.6538 13.8055C16.8482 13.9177 16.9901 14.1025 17.0482 14.3193C17.1063 14.5361 17.076 14.7671 16.9638 14.9615Z" fill="#969AB7"/>
</svg>
