<svg width="24" height="24" viewBox="0 0 24 24" fill="none" xmlns="http://www.w3.org/2000/svg">
<path fill-rule="evenodd" clip-rule="evenodd" d="M11.8889 12.6187H11.9209C14.8489 12.6187 17.2299 10.2377 17.2299 7.30973C17.2299 4.38173 14.8489 1.99973 11.9209 1.99973C8.99189 1.99973 6.60989 4.38173 6.60989 7.30673C6.59989 10.2267 8.9669 12.6097 11.8889 12.6187ZM8.03789 7.30973C8.03789 5.16873 9.77989 3.42773 11.9209 3.42773C14.0609 3.42773 15.8019 5.16873 15.8019 7.30973C15.8019 9.44973 14.0609 11.1917 11.9209 11.1917H11.8919C9.75989 11.1837 8.03089 9.44373 8.03789 7.30973Z" fill="#969AB7"/>
<path fill-rule="evenodd" clip-rule="evenodd" d="M3.99988 18.1731C3.99988 21.8701 9.96188 21.8701 11.9209 21.8701C15.3199 21.8701 19.8399 21.4891 19.8399 18.1931C19.8399 14.4961 13.8799 14.4961 11.9209 14.4961C8.52088 14.4961 3.99988 14.8771 3.99988 18.1731ZM5.49988 18.1731C5.49988 16.7281 7.65988 15.9961 11.9209 15.9961C16.1809 15.9961 18.3399 16.7351 18.3399 18.1931C18.3399 19.6381 16.1809 20.3701 11.9209 20.3701C7.65988 20.3701 5.49988 19.6311 5.49988 18.1731Z" fill="#969AB7"/>
</svg>
