<svg width="24" height="24" viewBox="0 0 24 24" fill="none" xmlns="http://www.w3.org/2000/svg">
<g clip-path="url(#clip0_186_5313)">
<path d="M2 22L16 17L7 8L2 22Z" fill="#323232"/>
<path d="M14.5302 12.53L20.1202 6.94C20.6102 6.45 21.4002 6.45 21.8902 6.94L22.4802 7.53L23.5402 6.47L22.9502 5.88C21.8802 4.81 20.1302 4.81 19.0602 5.88L13.4702 11.47L14.5302 12.53Z" fill="#323232"/>
<path d="M10.0602 6.88001L9.47021 7.47001L10.5302 8.53001L11.1202 7.94001C12.1902 6.87001 12.1902 5.12001 11.1202 4.05001L10.5302 3.46001L9.47021 4.53001L10.0602 5.12001C10.5402 5.60001 10.5402 6.40001 10.0602 6.88001Z" fill="#323232"/>
<path d="M17.0602 11.88L15.4702 13.47L16.5302 14.53L18.1202 12.94C18.6102 12.45 19.4002 12.45 19.8902 12.94L21.5002 14.55L22.5602 13.49L20.9502 11.88C19.8702 10.81 18.1302 10.81 17.0602 11.88Z" fill="#323232"/>
<path d="M15.0602 5.88001L11.4702 9.47001L12.5302 10.53L16.1202 6.94001C17.1902 5.87001 17.1902 4.12001 16.1202 3.05001L14.5302 1.46001L13.4702 2.52001L15.0602 4.11001C15.5402 4.60001 15.5402 5.40001 15.0602 5.88001Z" fill="#323232"/>
</g>
<defs>
<clipPath id="clip0_186_5313">
<rect width="24" height="24" fill="white"/>
</clipPath>
</defs>
</svg>
