<svg width="24" height="24" viewBox="0 0 24 24" fill="none" xmlns="http://www.w3.org/2000/svg">
<g clip-path="url(#clip0_186_1942)">
<path d="M18.0001 9.98L6.00005 22H18.0001H22.0001V5.97L18.0001 9.98ZM20.0001 20H18.0001V12.78L20.0001 10.78V20ZM5.22005 7.22L3.93005 5.93C7.83005 2.02 14.1701 2.02 18.0801 5.93L16.7901 7.22C13.6001 4.03 8.41005 4.03 5.22005 7.22ZM12.9301 11.07L11.0001 13L9.07005 11.07C10.1401 10.01 11.8601 10.01 12.9301 11.07ZM14.2201 9.79C12.4401 8.02 9.56005 8.02 7.79005 9.79L6.50005 8.5C8.98005 6.02 13.0201 6.02 15.5001 8.5L14.2201 9.79Z" fill="#323232"/>
</g>
<defs>
<clipPath id="clip0_186_1942">
<rect width="24" height="24" fill="white"/>
</clipPath>
</defs>
</svg>
