<svg width="24" height="24" viewBox="0 0 24 24" fill="none" xmlns="http://www.w3.org/2000/svg">
<g clip-path="url(#clip0_186_1623)">
<path d="M18 13C18 16.31 15.31 19 12 19C8.69 19 6 16.31 6 13C6 9.69 8.69 7 12 7V11L17 6L12 1V5C7.58 5 4 8.58 4 13C4 17.42 7.58 21 12 21C16.42 21 20 17.42 20 13H18Z" fill="#323232"/>
<path d="M10.06 15.38C9.76997 15.38 9.43997 15.21 9.43997 14.84H8.58997C8.58997 15.81 9.48997 16.07 10.04 16.07C10.91 16.07 11.55 15.61 11.55 14.82C11.55 14.16 11.1 13.92 10.84 13.82C10.95 13.77 11.49 13.5 11.49 12.9C11.49 12.69 11.44 11.68 10.05 11.68C9.42997 11.68 8.64997 12.03 8.64997 12.84H9.49997C9.49997 12.5 9.80997 12.36 10.07 12.36C10.66 12.36 10.65 12.86 10.65 12.9C10.65 13.42 10.24 13.49 10.02 13.49H9.55997V14.15H10.01C10.66 14.15 10.71 14.57 10.71 14.79C10.71 15.11 10.5 15.38 10.06 15.38Z" fill="#323232"/>
<path d="M13.85 11.68C13.71 11.68 12.41 11.6 12.41 13.5V14.24C12.41 16.14 13.72 16.06 13.85 16.06C13.99 16.06 15.29 16.15 15.29 14.24V13.5C15.3 11.59 13.99 11.68 13.85 11.68ZM14.45 14.35C14.45 15.12 14.24 15.38 13.86 15.38C13.48 15.38 13.26 15.12 13.26 14.35V13.38C13.26 12.63 13.48 12.37 13.85 12.37C14.23 12.37 14.45 12.63 14.45 13.38V14.35Z" fill="#323232"/>
</g>
<defs>
<clipPath id="clip0_186_1623">
<rect width="24" height="24" fill="white"/>
</clipPath>
</defs>
</svg>
