<svg width="24" height="24" viewBox="0 0 24 24" fill="none" xmlns="http://www.w3.org/2000/svg">
<g clip-path="url(#clip0_186_1780)">
<path d="M12 5V1L7 6L12 11V7C15.31 7 18 9.69 18 13C18 16.31 15.31 19 12 19C8.69 19 6 16.31 6 13H4C4 17.42 7.58 21 12 21C16.42 21 20 17.42 20 13C20 8.58 16.42 5 12 5Z" fill="#323232"/>
<path d="M9.55999 13.4901H10.01C10.22 13.4901 10.38 13.4401 10.49 13.3301C10.6 13.2201 10.65 13.0801 10.65 12.9001C10.65 12.8201 10.64 12.7501 10.61 12.6801C10.58 12.6101 10.55 12.5601 10.5 12.5101C10.45 12.4601 10.39 12.4201 10.32 12.4001C10.25 12.3801 10.16 12.3601 10.07 12.3601C9.98999 12.3601 9.91999 12.3701 9.84999 12.3901C9.77999 12.4101 9.71999 12.4401 9.66999 12.4901C9.61999 12.5401 9.57999 12.5801 9.54999 12.6401C9.51999 12.7001 9.49999 12.7701 9.49999 12.8401H8.64999C8.64999 12.6601 8.68999 12.5001 8.75999 12.3601C8.82999 12.2201 8.92999 12.0901 9.05999 11.9901C9.18999 11.8901 9.32999 11.8101 9.49999 11.7601C9.66999 11.7101 9.84999 11.6801 10.04 11.6801C10.25 11.6801 10.45 11.7101 10.63 11.7601C10.81 11.8101 10.96 11.8901 11.09 11.9901C11.22 12.0901 11.32 12.2201 11.39 12.3701C11.46 12.5201 11.5 12.7001 11.5 12.9001C11.5 12.9901 11.49 13.0801 11.46 13.1701C11.43 13.2601 11.39 13.3401 11.33 13.4201C11.27 13.5001 11.21 13.5701 11.13 13.6401C11.05 13.7101 10.96 13.7601 10.85 13.8101C11.09 13.9001 11.27 14.0201 11.39 14.2001C11.51 14.3801 11.57 14.5801 11.57 14.8101C11.57 15.0101 11.53 15.1901 11.45 15.3401C11.37 15.4901 11.27 15.6301 11.13 15.7301C10.99 15.8301 10.84 15.9201 10.65 15.9701C10.46 16.0201 10.27 16.0501 10.05 16.0501C9.86999 16.0501 9.68999 16.0301 9.51999 15.9801C9.34999 15.9301 9.18999 15.8601 9.05999 15.7501C8.92999 15.6401 8.80999 15.5201 8.72999 15.3701C8.64999 15.2201 8.60999 15.0301 8.60999 14.8201H9.45999C9.45999 14.9001 9.47999 14.9701 9.50999 15.0401C9.53999 15.1101 9.57999 15.1601 9.63999 15.2101C9.69999 15.2601 9.75999 15.3001 9.83999 15.3201C9.91999 15.3401 9.99999 15.3601 10.09 15.3601C10.19 15.3601 10.28 15.3501 10.36 15.3201C10.44 15.2901 10.51 15.2501 10.56 15.2001C10.61 15.1501 10.66 15.0901 10.69 15.0201C10.72 14.9501 10.73 14.8701 10.73 14.7801C10.73 14.6701 10.71 14.5701 10.68 14.4901C10.65 14.4101 10.6 14.3401 10.54 14.2901C10.48 14.2401 10.41 14.2001 10.32 14.1801C10.23 14.1601 10.14 14.1401 10.03 14.1401H9.55999V13.4901Z" fill="#323232"/>
<path d="M15.3 14.2401C15.3 14.5601 15.27 14.8401 15.2 15.0601C15.13 15.2801 15.03 15.4801 14.91 15.6301C14.79 15.7801 14.63 15.8901 14.46 15.9601C14.29 16.0301 14.09 16.0601 13.87 16.0601C13.65 16.0601 13.46 16.0301 13.28 15.9601C13.1 15.8901 12.95 15.7801 12.82 15.6301C12.69 15.4801 12.59 15.2901 12.52 15.0601C12.45 14.8301 12.41 14.5601 12.41 14.2401V13.5001C12.41 13.1801 12.44 12.9001 12.51 12.6801C12.58 12.4601 12.68 12.2601 12.8 12.1101C12.92 11.9601 13.08 11.8501 13.25 11.7801C13.42 11.7101 13.62 11.6801 13.84 11.6801C14.06 11.6801 14.25 11.7101 14.43 11.7801C14.61 11.8501 14.76 11.9601 14.89 12.1101C15.02 12.2601 15.12 12.4501 15.19 12.6801C15.26 12.9101 15.3 13.1801 15.3 13.5001V14.2401ZM14.45 13.3801C14.45 13.1901 14.44 13.0301 14.41 12.9001C14.38 12.7701 14.34 12.6701 14.29 12.5901C14.24 12.5101 14.18 12.4501 14.1 12.4201C14.02 12.3901 13.94 12.3701 13.85 12.3701C13.76 12.3701 13.67 12.3901 13.6 12.4201C13.53 12.4501 13.46 12.5101 13.41 12.5901C13.36 12.6701 13.32 12.7701 13.29 12.9001C13.26 13.0301 13.25 13.1901 13.25 13.3801V14.3501C13.25 14.5401 13.26 14.7001 13.29 14.8301C13.32 14.9601 13.36 15.0701 13.41 15.1501C13.46 15.2301 13.52 15.2901 13.6 15.3201C13.68 15.3501 13.76 15.3701 13.85 15.3701C13.94 15.3701 14.03 15.3501 14.1 15.3201C14.17 15.2901 14.24 15.2301 14.29 15.1501C14.34 15.0701 14.38 14.9601 14.4 14.8301C14.43 14.7001 14.44 14.5401 14.44 14.3501V13.3801H14.45Z" fill="#323232"/>
</g>
<defs>
<clipPath id="clip0_186_1780">
<rect width="24" height="24" fill="white"/>
</clipPath>
</defs>
</svg>
