<svg width="24" height="21" viewBox="0 0 24 21" fill="none" xmlns="http://www.w3.org/2000/svg">
<path d="M21.9587 2.13684C19.1356 -0.712281 14.7548 -0.712281 12.029 2.13684C9.30322 -0.614035 4.82513 -0.614035 2.09934 2.13684C-0.52911 4.78947 -0.72381 8.91579 1.70994 11.7649C2.97548 13.2386 4.24103 14.5158 5.60393 15.793C6.18803 15.4982 6.96683 15.2035 7.64828 14.8105C7.64828 14.8105 10.5688 13.5333 12.4184 10.7825C10.082 12.4526 7.84298 13.1404 6.86948 13.3368C6.48008 11.8632 6.77213 10.2912 7.84298 9.21053C9.30322 7.73684 13.4893 7.34386 14.9495 4.98596C15.1442 4.69123 15.5336 4.69123 15.7283 4.98596C16.4098 6.55789 17.578 10.2912 15.0469 14.1228C13.7813 16.0877 10.9582 16.9719 8.91382 15.8912C8.23238 16.3825 7.55093 16.8737 7.06418 17.1684C8.62177 18.5439 10.2767 19.8211 12.029 21C16.0204 18.4456 19.4276 15.3018 22.4454 11.7649C24.6845 8.91579 24.4898 4.78947 21.9587 2.13684Z" fill="#323232"/>
</svg>
