<svg width="24" height="25" viewBox="0 0 24 25" fill="none" xmlns="http://www.w3.org/2000/svg">
<mask id="path-1-outside-1_554_15306" maskUnits="userSpaceOnUse" x="7.74072" y="8.28369" width="8" height="8" fill="black">
<rect fill="white" x="7.74072" y="8.28369" width="8" height="8"/>
<path fill-rule="evenodd" clip-rule="evenodd" d="M11.9999 10.5337C10.8916 10.5337 9.99072 11.4354 9.99072 12.5437C9.99072 13.6512 10.8916 14.552 11.9999 14.552C13.1082 14.552 14.0099 13.6512 14.0099 12.5437C14.0099 11.4354 13.1082 10.5337 11.9999 10.5337ZM11.9999 15.802C10.2024 15.802 8.74072 14.3404 8.74072 12.5437C8.74072 10.7462 10.2024 9.28369 11.9999 9.28369C13.7974 9.28369 15.2599 10.7462 15.2599 12.5437C15.2599 14.3404 13.7974 15.802 11.9999 15.802Z"/>
</mask>
<path fill-rule="evenodd" clip-rule="evenodd" d="M11.9999 10.5337C10.8916 10.5337 9.99072 11.4354 9.99072 12.5437C9.99072 13.6512 10.8916 14.552 11.9999 14.552C13.1082 14.552 14.0099 13.6512 14.0099 12.5437C14.0099 11.4354 13.1082 10.5337 11.9999 10.5337ZM11.9999 15.802C10.2024 15.802 8.74072 14.3404 8.74072 12.5437C8.74072 10.7462 10.2024 9.28369 11.9999 9.28369C13.7974 9.28369 15.2599 10.7462 15.2599 12.5437C15.2599 14.3404 13.7974 15.802 11.9999 15.802Z" fill="#907FB1"/>
<path d="M11.9999 10.367C10.7994 10.367 9.82406 11.3434 9.82406 12.5437H10.1574C10.1574 11.5273 10.9837 10.7004 11.9999 10.7004V10.367ZM9.82406 12.5437C9.82406 13.7433 10.7996 14.7187 11.9999 14.7187V14.3854C10.9836 14.3854 10.1574 13.5591 10.1574 12.5437H9.82406ZM11.9999 14.7187C13.2001 14.7187 14.1766 13.7434 14.1766 12.5437H13.8432C13.8432 13.559 13.0163 14.3854 11.9999 14.3854V14.7187ZM14.1766 12.5437C14.1766 11.3433 13.2003 10.367 11.9999 10.367V10.7004C13.0162 10.7004 13.8432 11.5274 13.8432 12.5437H14.1766ZM11.9999 15.6354C10.2944 15.6354 8.90739 14.2483 8.90739 12.5437H8.57406C8.57406 14.4324 10.1104 15.9687 11.9999 15.9687V15.6354ZM8.90739 12.5437C8.90739 10.8382 10.2945 9.45036 11.9999 9.45036V9.11702C10.1103 9.11702 8.57406 10.6542 8.57406 12.5437H8.90739ZM11.9999 9.45036C13.7053 9.45036 15.0932 10.8382 15.0932 12.5437H15.4266C15.4266 10.6541 13.8894 9.11702 11.9999 9.11702V9.45036ZM15.0932 12.5437C15.0932 14.2482 13.7054 15.6354 11.9999 15.6354V15.9687C13.8894 15.9687 15.4266 14.4325 15.4266 12.5437H15.0932Z" fill="#907FB1" mask="url(#path-1-outside-1_554_15306)"/>
<mask id="mask0_554_15306" style="mask-type:luminance" maskUnits="userSpaceOnUse" x="3" y="5" width="18" height="15">
<path d="M20.416 5.75098V19.3379H3.58301V5.75098H20.416Z" fill="white" stroke="white" stroke-width="0.166667"/>
</mask>
<g mask="url(#mask0_554_15306)">
<mask id="path-4-outside-2_554_15306" maskUnits="userSpaceOnUse" x="2.66553" y="4.83447" width="18" height="15" fill="black">
<rect fill="white" x="2.66553" y="4.83447" width="18" height="15"/>
<path fill-rule="evenodd" clip-rule="evenodd" d="M4.97331 12.5453C6.52331 15.9695 9.13414 18.0053 11.9983 18.0061C14.8625 18.0053 17.4733 15.9695 19.0233 12.5453C17.4733 9.12195 14.8625 7.08612 11.9983 7.08529C9.13497 7.08612 6.52331 9.12195 4.97331 12.5453ZM12.0003 19.2559H11.997H11.9962C8.54949 19.2534 5.45449 16.8376 3.71615 12.7918C3.64865 12.6343 3.64865 12.4559 3.71615 12.2984C5.45449 8.25343 8.55032 5.8376 11.9962 5.8351C11.9978 5.83426 11.9978 5.83426 11.9987 5.8351C12.0003 5.83426 12.0003 5.83426 12.0012 5.8351C15.4478 5.8376 18.5428 8.25343 20.2812 12.2984C20.3495 12.4559 20.3495 12.6343 20.2812 12.7918C18.5437 16.8376 15.4478 19.2534 12.0012 19.2559H12.0003Z"/>
</mask>
<path fill-rule="evenodd" clip-rule="evenodd" d="M4.97331 12.5453C6.52331 15.9695 9.13414 18.0053 11.9983 18.0061C14.8625 18.0053 17.4733 15.9695 19.0233 12.5453C17.4733 9.12195 14.8625 7.08612 11.9983 7.08529C9.13497 7.08612 6.52331 9.12195 4.97331 12.5453ZM12.0003 19.2559H11.997H11.9962C8.54949 19.2534 5.45449 16.8376 3.71615 12.7918C3.64865 12.6343 3.64865 12.4559 3.71615 12.2984C5.45449 8.25343 8.55032 5.8376 11.9962 5.8351C11.9978 5.83426 11.9978 5.83426 11.9987 5.8351C12.0003 5.83426 12.0003 5.83426 12.0012 5.8351C15.4478 5.8376 18.5428 8.25343 20.2812 12.2984C20.3495 12.4559 20.3495 12.6343 20.2812 12.7918C18.5437 16.8376 15.4478 19.2534 12.0012 19.2559H12.0003Z" fill="#907FB1"/>
<path d="M11.9983 18.0061L11.9983 18.1728H11.9984L11.9983 18.0061ZM19.0233 12.5453L19.1751 12.614L19.2063 12.5453L19.1751 12.4765L19.0233 12.5453ZM11.9983 7.08529L11.9984 6.91862H11.9983L11.9983 7.08529ZM11.9962 19.2559L11.996 19.4226H11.9962V19.2559ZM3.71615 12.7918L3.56296 12.8574L3.56302 12.8576L3.71615 12.7918ZM3.71615 12.2984L3.56303 12.2326L3.56296 12.2328L3.71615 12.2984ZM11.9962 5.8351L11.9963 6.00176L12.0356 6.00174L12.0707 5.98417L11.9962 5.8351ZM11.9987 5.8351L11.8808 5.95295L11.9657 6.03789L12.0732 5.98417L11.9987 5.8351ZM12.0012 5.8351L11.8833 5.95295L11.9321 6.00171L12.001 6.00176L12.0012 5.8351ZM20.2812 12.2984L20.128 12.3642L20.1283 12.3648L20.2812 12.2984ZM20.2812 12.7918L20.1283 12.7254L20.128 12.726L20.2812 12.7918ZM12.0012 19.2559V19.4226H12.0013L12.0012 19.2559ZM4.82147 12.614C6.3882 16.0751 9.04697 18.1719 11.9983 18.1728L11.9984 17.8395C9.22131 17.8386 6.65842 15.8638 5.12514 12.4766L4.82147 12.614ZM11.9984 18.1728C14.9496 18.1719 17.6084 16.0751 19.1751 12.614L18.8715 12.4766C17.3382 15.8638 14.7753 17.8386 11.9983 17.8395L11.9984 18.1728ZM19.1751 12.4765C17.6084 9.01626 14.9496 6.91948 11.9984 6.91862L11.9983 7.25195C14.7753 7.25276 17.3382 9.22764 18.8715 12.614L19.1751 12.4765ZM11.9983 6.91862C9.04782 6.91948 6.38821 9.01625 4.82148 12.4765L5.12514 12.614C6.6584 9.22765 9.22213 7.25276 11.9984 7.25195L11.9983 6.91862ZM12.0003 19.0893H11.997V19.4226H12.0003V19.0893ZM11.997 19.0893H11.9962V19.4226H11.997V19.0893ZM11.9963 19.0893C8.63614 19.0868 5.59024 16.7314 3.86928 12.726L3.56302 12.8576C5.31873 16.9438 8.46283 19.42 11.996 19.4226L11.9963 19.0893ZM3.86934 12.7261C3.81981 12.6105 3.81981 12.4797 3.86934 12.3641L3.56296 12.2328C3.47749 12.4322 3.47749 12.658 3.56296 12.8574L3.86934 12.7261ZM3.86928 12.3642C5.59023 8.35969 8.63696 6.0042 11.9963 6.00176L11.996 5.66843C8.46368 5.67099 5.31875 8.14717 3.56303 12.2326L3.86928 12.3642ZM12.0707 5.98417C12.0732 5.98292 12.0678 5.98573 12.0618 5.98824C12.0575 5.99006 12.0322 6.00114 11.9977 6.00114C11.9535 6.00114 11.9201 5.98392 11.9001 5.96942C11.8872 5.96004 11.8769 5.94902 11.8808 5.95295L12.1165 5.71725C12.1165 5.71724 12.1164 5.71712 12.1162 5.71699C12.1161 5.71684 12.1159 5.71661 12.1156 5.71632C12.115 5.71578 12.114 5.71473 12.1126 5.71345C12.1103 5.71127 12.1044 5.70582 12.0962 5.69983C12.0759 5.68513 12.0422 5.66781 11.9977 5.66781C11.9629 5.66781 11.9373 5.67899 11.9325 5.68102C11.9284 5.68274 11.9252 5.68427 11.924 5.68485C11.9233 5.68521 11.9226 5.68551 11.9223 5.68568C11.922 5.68584 11.9217 5.686 11.9216 5.68603L12.0707 5.98417ZM12.0732 5.98417C12.0757 5.98292 12.0703 5.98573 12.0643 5.98824C12.06 5.99006 12.0347 6.00114 12.0002 6.00114C11.956 6.00114 11.9226 5.98392 11.9026 5.96942C11.8897 5.96004 11.8794 5.94902 11.8833 5.95295L12.119 5.71725C12.119 5.71724 12.1189 5.71712 12.1187 5.71699C12.1186 5.71684 12.1184 5.71661 12.1181 5.71632C12.1175 5.71578 12.1165 5.71473 12.1151 5.71345C12.1128 5.71127 12.1069 5.70582 12.0987 5.69983C12.0784 5.68513 12.0447 5.66781 12.0002 5.66781C11.9654 5.66781 11.9398 5.67899 11.935 5.68102C11.9309 5.68274 11.9277 5.68427 11.9265 5.68485C11.9258 5.68521 11.9251 5.68551 11.9248 5.68568C11.9245 5.68584 11.9242 5.686 11.9241 5.68603L12.0732 5.98417ZM12.001 6.00176C15.3612 6.0042 18.4071 8.35968 20.128 12.3642L20.4343 12.2326C18.6786 8.14718 15.5345 5.67099 12.0013 5.66843L12.001 6.00176ZM20.1283 12.3648C20.1782 12.4799 20.1782 12.6102 20.1283 12.7254L20.434 12.8581C20.5207 12.6583 20.5207 12.4319 20.434 12.2321L20.1283 12.3648ZM20.128 12.726C18.4079 16.7313 15.3612 19.0868 12.001 19.0893L12.0013 19.4226C15.5345 19.42 18.6794 16.9439 20.4343 12.8575L20.128 12.726ZM12.0012 19.0893H12.0003V19.4226H12.0012V19.0893Z" fill="#907FB1" mask="url(#path-4-outside-2_554_15306)"/>
</g>
</svg>
