<svg width="24" height="25" viewBox="0 0 24 25" fill="none" xmlns="http://www.w3.org/2000/svg">
<path d="M16.291 18.6221C16.291 18.988 15.9948 19.2852 15.6289 19.2852C15.2934 19.2852 15.0165 19.0354 14.9727 18.7119L14.9717 18.7061L15.0713 18.6992L14.9717 18.7051L14.9668 18.6289L14.9658 18.6221H14.9668V8.40918C14.9668 8.04329 15.263 7.74707 15.6289 7.74707C15.9644 7.74707 16.2412 7.99592 16.2852 8.31934L16.2861 8.32617L16.291 8.40234L16.292 8.40918H16.291V18.6221Z" fill="#907FB1" stroke="#907FB1" stroke-width="0.2"/>
<path d="M18.2178 15.083C18.4759 14.8241 18.8951 14.8232 19.1543 15.0811C19.39 15.3156 19.4123 15.6835 19.2207 15.9434L19.2158 15.9502L19.2148 15.9492L19.1611 16.0127L19.1562 16.0186L16.0986 19.0908C15.8632 19.3274 15.4933 19.3488 15.2334 19.1553L15.2275 19.1504L15.1641 19.0957L15.1592 19.0908L12.1006 16.0186C11.8425 15.7593 11.8433 15.3392 12.1025 15.0811C12.309 14.8756 12.617 14.8346 12.8643 14.957L12.9658 15.0195L12.9717 15.0234L13.0342 15.0781L13.04 15.083L15.6279 17.6836L18.2178 15.083Z" fill="#907FB1" stroke="#907FB1" stroke-width="0.2"/>
<path d="M8.84521 16.5879C8.84521 16.9538 8.54899 17.251 8.18311 17.251C7.84763 17.251 7.57074 17.0012 7.52686 16.6777L7.52588 16.6719L7.62549 16.665L7.52588 16.6709L7.521 16.5947L7.52002 16.5879H7.521V6.375C7.521 6.00911 7.81722 5.71289 8.18311 5.71289C8.51855 5.71289 8.79543 5.96174 8.83936 6.28516L8.84033 6.29199L8.84521 6.36816L8.84619 6.375H8.84521V16.5879Z" fill="#907FB1" stroke="#907FB1" stroke-width="0.2"/>
<path d="M7.71338 5.90625C7.94873 5.67004 8.31788 5.64868 8.57764 5.8418L8.58447 5.84668H8.5835L8.64697 5.90137L8.65283 5.90625L11.7104 8.97949C11.9685 9.23881 11.9678 9.6579 11.7085 9.91602C11.4727 10.1507 11.1042 10.1716 10.8452 9.97852L10.8394 9.97363V9.97266L10.7769 9.91895L10.771 9.91406V9.91309L8.18213 7.31152L5.59424 9.91406C5.35954 10.1499 4.9918 10.1713 4.73193 9.97949L4.7251 9.97559V9.97461L4.6626 9.9209L4.65674 9.91602C4.42115 9.68129 4.3995 9.3135 4.59131 9.05371L4.59521 9.04785L4.6499 8.98438L4.65479 8.97852L7.71338 5.90625Z" fill="#907FB1" stroke="#907FB1" stroke-width="0.2"/>
</svg>
