<svg width="24" height="25" viewBox="0 0 24 25" fill="none" xmlns="http://www.w3.org/2000/svg">
<mask id="path-1-outside-1_3334_23328" maskUnits="userSpaceOnUse" x="3.5" y="4.75" width="16" height="16" fill="black">
<rect fill="white" x="3.5" y="4.75" width="16" height="16"/>
<path fill-rule="evenodd" clip-rule="evenodd" d="M11.8123 6.875C11.7441 6.875 11.5761 6.89375 11.4868 7.07225L10.1173 9.8105C9.9006 10.2432 9.48285 10.544 8.99985 10.613L5.93385 11.0547C5.73135 11.084 5.66235 11.234 5.64135 11.297C5.6226 11.3577 5.5926 11.5122 5.7321 11.6458L7.9491 13.7758C8.30235 14.1155 8.46285 14.6053 8.37885 15.0845L7.85685 18.092C7.8246 18.2803 7.94235 18.3897 7.99485 18.4272C8.05035 18.4692 8.19885 18.5525 8.3826 18.4565L11.1238 17.0352C11.5558 16.8125 12.0703 16.8125 12.5008 17.0352L15.2413 18.4557C15.4258 18.551 15.5743 18.4677 15.6306 18.4272C15.6831 18.3897 15.8008 18.2803 15.7686 18.092L15.2451 15.0845C15.1611 14.6053 15.3216 14.1155 15.6748 13.7758L17.8918 11.6458C18.0321 11.5122 18.0021 11.357 17.9826 11.297C17.9623 11.234 17.8933 11.084 17.6908 11.0547L14.6248 10.613C14.1426 10.544 13.7248 10.2432 13.5081 9.80975L12.1371 7.07225C12.0486 6.89375 11.8806 6.875 11.8123 6.875ZM8.21019 19.625C7.90044 19.625 7.59294 19.5275 7.32969 19.3355C6.87519 19.0025 6.65244 18.4527 6.74919 17.8993L7.27119 14.8918C7.29069 14.78 7.25244 14.6667 7.16994 14.5872L4.95294 12.4572C4.54494 12.0665 4.39869 11.489 4.57119 10.9527C4.74519 10.4105 5.20569 10.0228 5.77344 9.94175L8.83944 9.5C8.95794 9.4835 9.05994 9.41075 9.11094 9.30725L10.4812 6.56825C10.7339 6.0635 11.2439 5.75 11.8124 5.75C12.3809 5.75 12.8909 6.0635 13.1437 6.56825L14.5147 9.3065C14.5664 9.41075 14.6677 9.4835 14.7854 9.5L17.8514 9.94175C18.4192 10.0228 18.8797 10.4105 19.0537 10.9527C19.2262 11.489 19.0792 12.0665 18.6712 12.4572L16.4542 14.5872C16.3717 14.6667 16.3342 14.78 16.3537 14.891L16.8764 17.8993C16.9724 18.4535 16.7497 19.0033 16.2944 19.3355C15.8332 19.6737 15.2324 19.7195 14.7232 19.454L11.9834 18.0343C11.8762 17.9788 11.7479 17.9788 11.6407 18.0343L8.90094 19.4548C8.68194 19.5688 8.44569 19.625 8.21019 19.625Z"/>
</mask>
<path fill-rule="evenodd" clip-rule="evenodd" d="M11.8123 6.875C11.7441 6.875 11.5761 6.89375 11.4868 7.07225L10.1173 9.8105C9.9006 10.2432 9.48285 10.544 8.99985 10.613L5.93385 11.0547C5.73135 11.084 5.66235 11.234 5.64135 11.297C5.6226 11.3577 5.5926 11.5122 5.7321 11.6458L7.9491 13.7758C8.30235 14.1155 8.46285 14.6053 8.37885 15.0845L7.85685 18.092C7.8246 18.2803 7.94235 18.3897 7.99485 18.4272C8.05035 18.4692 8.19885 18.5525 8.3826 18.4565L11.1238 17.0352C11.5558 16.8125 12.0703 16.8125 12.5008 17.0352L15.2413 18.4557C15.4258 18.551 15.5743 18.4677 15.6306 18.4272C15.6831 18.3897 15.8008 18.2803 15.7686 18.092L15.2451 15.0845C15.1611 14.6053 15.3216 14.1155 15.6748 13.7758L17.8918 11.6458C18.0321 11.5122 18.0021 11.357 17.9826 11.297C17.9623 11.234 17.8933 11.084 17.6908 11.0547L14.6248 10.613C14.1426 10.544 13.7248 10.2432 13.5081 9.80975L12.1371 7.07225C12.0486 6.89375 11.8806 6.875 11.8123 6.875ZM8.21019 19.625C7.90044 19.625 7.59294 19.5275 7.32969 19.3355C6.87519 19.0025 6.65244 18.4527 6.74919 17.8993L7.27119 14.8918C7.29069 14.78 7.25244 14.6667 7.16994 14.5872L4.95294 12.4572C4.54494 12.0665 4.39869 11.489 4.57119 10.9527C4.74519 10.4105 5.20569 10.0228 5.77344 9.94175L8.83944 9.5C8.95794 9.4835 9.05994 9.41075 9.11094 9.30725L10.4812 6.56825C10.7339 6.0635 11.2439 5.75 11.8124 5.75C12.3809 5.75 12.8909 6.0635 13.1437 6.56825L14.5147 9.3065C14.5664 9.41075 14.6677 9.4835 14.7854 9.5L17.8514 9.94175C18.4192 10.0228 18.8797 10.4105 19.0537 10.9527C19.2262 11.489 19.0792 12.0665 18.6712 12.4572L16.4542 14.5872C16.3717 14.6667 16.3342 14.78 16.3537 14.891L16.8764 17.8993C16.9724 18.4535 16.7497 19.0033 16.2944 19.3355C15.8332 19.6737 15.2324 19.7195 14.7232 19.454L11.9834 18.0343C11.8762 17.9788 11.7479 17.9788 11.6407 18.0343L8.90094 19.4548C8.68194 19.5688 8.44569 19.625 8.21019 19.625Z" fill="#907FB1"/>
<path d="M11.4868 7.07225L11.7552 7.20644L11.7552 7.20641L11.4868 7.07225ZM10.1173 9.8105L10.3856 9.94485L10.3857 9.94469L10.1173 9.8105ZM8.99985 10.613L8.95742 10.316L8.95707 10.3161L8.99985 10.613ZM5.93385 11.0547L5.89107 10.7578L5.89096 10.7578L5.93385 11.0547ZM5.64135 11.297L5.35667 11.2021L5.35469 11.2085L5.64135 11.297ZM5.7321 11.6458L5.93994 11.4294L5.93952 11.429L5.7321 11.6458ZM7.9491 13.7758L8.15706 13.5595L8.15694 13.5594L7.9491 13.7758ZM8.37885 15.0845L8.08335 15.0327L8.08327 15.0332L8.37885 15.0845ZM7.85685 18.092L7.56127 18.0407L7.56116 18.0413L7.85685 18.092ZM7.99485 18.4272L8.17595 18.1879L8.16922 18.1831L7.99485 18.4272ZM8.3826 18.4565L8.24451 18.1902L8.24368 18.1906L8.3826 18.4565ZM11.1238 17.0352L10.9864 16.7686L10.9858 16.7689L11.1238 17.0352ZM12.5008 17.0352L12.6389 16.7689L12.6387 16.7688L12.5008 17.0352ZM15.2413 18.4557L15.1033 18.7221L15.1037 18.7223L15.2413 18.4557ZM15.6306 18.4272L15.4562 18.1831L15.4553 18.1838L15.6306 18.4272ZM15.7686 18.092L16.0643 18.0413L16.0642 18.0406L15.7686 18.092ZM15.2451 15.0845L15.5407 15.0331L15.5406 15.0327L15.2451 15.0845ZM15.6748 13.7758L15.467 13.5594L15.4669 13.5595L15.6748 13.7758ZM17.8918 11.6458L17.685 11.4285L17.684 11.4294L17.8918 11.6458ZM17.9826 11.297L17.697 11.3888L17.6973 11.3897L17.9826 11.297ZM17.6908 11.0547L17.7337 10.7578L17.7336 10.7578L17.6908 11.0547ZM14.6248 10.613L14.6676 10.3161L14.6673 10.316L14.6248 10.613ZM13.5081 9.80975L13.7764 9.67559L13.7763 9.67541L13.5081 9.80975ZM12.1371 7.07225L11.8683 7.20551L11.8689 7.20659L12.1371 7.07225ZM7.32969 19.3355L7.15238 19.5775L7.15291 19.5779L7.32969 19.3355ZM6.74919 17.8993L7.04471 17.9509L7.04477 17.9506L6.74919 17.8993ZM7.27119 14.8918L6.97565 14.8402L6.97561 14.8404L7.27119 14.8918ZM7.16994 14.5872L7.37811 14.3712L7.37778 14.3709L7.16994 14.5872ZM4.95294 12.4572L5.16078 12.2409L5.16044 12.2406L4.95294 12.4572ZM4.57119 10.9527L4.85677 11.0446L4.85684 11.0444L4.57119 10.9527ZM5.77344 9.94175L5.81581 10.2387L5.81622 10.2387L5.77344 9.94175ZM8.83944 9.5L8.79806 9.20286L8.79666 9.20307L8.83944 9.5ZM9.11094 9.30725L8.84263 9.17302L8.84183 9.17465L9.11094 9.30725ZM10.4812 6.56825L10.2129 6.43393L10.2129 6.43403L10.4812 6.56825ZM13.1437 6.56825L13.4119 6.43394L13.4119 6.43393L13.1437 6.56825ZM14.5147 9.3065L14.7834 9.17311L14.7829 9.17219L14.5147 9.3065ZM14.7854 9.5L14.8282 9.20306L14.8271 9.2029L14.7854 9.5ZM17.8514 9.94175L17.8087 10.2387L17.8091 10.2387L17.8514 9.94175ZM19.0537 10.9527L18.768 11.0444L18.7681 11.0446L19.0537 10.9527ZM18.6712 12.4572L18.4637 12.2406L18.4633 12.2409L18.6712 12.4572ZM16.4542 14.5872L16.2463 14.3709L16.246 14.3712L16.4542 14.5872ZM16.3537 14.891L16.6493 14.8396L16.6492 14.8391L16.3537 14.891ZM16.8764 17.8993L17.172 17.8481L17.172 17.8479L16.8764 17.8993ZM16.2944 19.3355L16.1176 19.0932L16.117 19.0936L16.2944 19.3355ZM14.7232 19.454L14.8619 19.188L14.8612 19.1876L14.7232 19.454ZM11.9834 18.0343L12.1215 17.7679L12.1213 17.7678L11.9834 18.0343ZM11.6407 18.0343L11.5028 17.7678L11.5026 17.7679L11.6407 18.0343ZM8.90094 19.4548L8.76285 19.1884L8.76242 19.1886L8.90094 19.4548ZM11.8123 6.875V6.575C11.7041 6.575 11.3848 6.6056 11.2185 6.93809L11.4868 7.07225L11.7552 7.20641C11.7612 7.19439 11.7662 7.18937 11.7682 7.1875C11.7706 7.18533 11.7735 7.18339 11.7778 7.18152C11.7824 7.17947 11.7884 7.17768 11.7955 7.17647C11.8026 7.17527 11.8087 7.175 11.8123 7.175V6.875ZM11.4868 7.07225L11.2185 6.93806L9.84904 9.67631L10.1173 9.8105L10.3857 9.94469L11.7552 7.20644L11.4868 7.07225ZM10.1173 9.8105L9.84911 9.67615C9.67663 10.0205 9.34352 10.2609 8.95742 10.316L8.99985 10.613L9.04228 10.91C9.62218 10.8271 10.1246 10.466 10.3856 9.94485L10.1173 9.8105ZM8.99985 10.613L8.95707 10.3161L5.89107 10.7578L5.93385 11.0547L5.97663 11.3517L9.04263 10.9099L8.99985 10.613ZM5.93385 11.0547L5.89096 10.7578C5.52225 10.8111 5.39234 11.0953 5.35674 11.2021L5.64135 11.297L5.92595 11.3919C5.92859 11.384 5.93362 11.3736 5.94014 11.3665C5.94265 11.3638 5.94529 11.3616 5.94886 11.3597C5.95219 11.3579 5.96041 11.354 5.97674 11.3517L5.93385 11.0547ZM5.64135 11.297L5.35469 11.2085C5.32296 11.3113 5.2627 11.6118 5.52468 11.8625L5.7321 11.6458L5.93952 11.429C5.92999 11.4199 5.92719 11.4143 5.9266 11.4131C5.92587 11.4116 5.92547 11.4102 5.92522 11.4081C5.92491 11.4056 5.92487 11.4019 5.92549 11.3971C5.92611 11.3923 5.92718 11.3881 5.92801 11.3855L5.64135 11.297ZM5.7321 11.6458L5.52425 11.8621L7.74125 13.9921L7.9491 13.7758L8.15694 13.5594L5.93994 11.4294L5.7321 11.6458ZM7.9491 13.7758L7.74114 13.992C8.0229 14.263 8.15001 14.6524 8.08335 15.0327L8.37885 15.0845L8.67434 15.1363C8.77569 14.5581 8.5818 13.968 8.15706 13.5595L7.9491 13.7758ZM8.37885 15.0845L8.08327 15.0332L7.56127 18.0407L7.85685 18.092L8.15243 18.1433L8.67443 15.1358L8.37885 15.0845ZM7.85685 18.092L7.56116 18.0413C7.50013 18.3976 7.72999 18.6067 7.82048 18.6714L7.99485 18.4272L8.16922 18.1831C8.16867 18.1827 8.16563 18.1804 8.16199 18.1767C8.1584 18.173 8.15578 18.1695 8.15413 18.1666C8.1527 18.1641 8.15213 18.1624 8.15181 18.1608C8.15157 18.1595 8.15057 18.1541 8.15254 18.1427L7.85685 18.092ZM7.99485 18.4272L7.81382 18.6665C7.91073 18.7398 8.18824 18.8965 8.52152 18.7224L8.3826 18.4565L8.24368 18.1906C8.22893 18.1983 8.21967 18.2001 8.21537 18.2006C8.21075 18.2012 8.20663 18.2009 8.20223 18.2C8.19739 18.199 8.19197 18.1971 8.1864 18.1943C8.18075 18.1915 8.17691 18.1888 8.17588 18.188L7.99485 18.4272ZM8.3826 18.4565L8.52068 18.7228L11.2619 17.3016L11.1238 17.0352L10.9858 16.7689L8.24451 18.1902L8.3826 18.4565ZM11.1238 17.0352L11.2613 17.3019C11.6072 17.1235 12.0191 17.1238 12.363 17.3017L12.5008 17.0352L12.6387 16.7688C12.1216 16.5012 11.5045 16.5015 10.9864 16.7686L11.1238 17.0352ZM12.5008 17.0352L12.3628 17.3016L15.1033 18.7221L15.2413 18.4557L15.3794 18.1894L12.6389 16.7689L12.5008 17.0352ZM15.2413 18.4557L15.1037 18.7223C15.4373 18.8945 15.7131 18.7375 15.8059 18.6707L15.6306 18.4272L15.4553 18.1838C15.4476 18.1893 15.4352 18.1961 15.423 18.1987C15.418 18.1997 15.4134 18.2 15.4083 18.1994C15.4036 18.1988 15.394 18.1969 15.379 18.1892L15.2413 18.4557ZM15.6306 18.4272L15.805 18.6714C15.8955 18.6067 16.1253 18.3976 16.0643 18.0413L15.7686 18.092L15.4729 18.1427C15.4749 18.1541 15.4739 18.1595 15.4736 18.1608C15.4733 18.1624 15.4727 18.1641 15.4713 18.1666C15.4697 18.1695 15.4671 18.173 15.4635 18.1767C15.4598 18.1804 15.4568 18.1827 15.4562 18.1831L15.6306 18.4272ZM15.7686 18.092L16.0642 18.0406L15.5407 15.0331L15.2451 15.0845L14.9495 15.1359L15.473 18.1434L15.7686 18.092ZM15.2451 15.0845L15.5406 15.0327C15.4739 14.6524 15.601 14.263 15.8828 13.992L15.6748 13.7758L15.4669 13.5595C15.0421 13.968 14.8483 14.5581 14.9496 15.1363L15.2451 15.0845ZM15.6748 13.7758L15.8827 13.9921L18.0997 11.8621L17.8918 11.6458L17.684 11.4294L15.467 13.5594L15.6748 13.7758ZM17.8918 11.6458L18.0987 11.863C18.3618 11.6126 18.3026 11.3109 18.2679 11.2043L17.9826 11.297L17.6973 11.3897C17.6975 11.3905 17.6985 11.3936 17.699 11.3979C17.6996 11.4021 17.6996 11.4056 17.6993 11.4079C17.6991 11.4098 17.6987 11.4111 17.698 11.4125C17.6974 11.4137 17.6946 11.4193 17.685 11.4285L17.8918 11.6458ZM17.9826 11.297L18.2682 11.2052C18.2328 11.095 18.1023 10.8111 17.7337 10.7578L17.6908 11.0547L17.648 11.3517C17.6643 11.354 17.6725 11.3579 17.6758 11.3597C17.6793 11.3616 17.6819 11.3637 17.6843 11.3663C17.6906 11.3732 17.6951 11.383 17.697 11.3888L17.9826 11.297ZM17.6908 11.0547L17.7336 10.7578L14.6676 10.3161L14.6248 10.613L14.5821 10.9099L17.6481 11.3517L17.6908 11.0547ZM14.6248 10.613L14.6673 10.316C14.2821 10.2609 13.949 10.0207 13.7764 9.67559L13.5081 9.80975L13.2398 9.94391C13.5007 10.4658 14.0031 10.8271 14.5824 10.91L14.6248 10.613ZM13.5081 9.80975L13.7763 9.67541L12.4053 6.93791L12.1371 7.07225L11.8689 7.20659L13.2399 9.94409L13.5081 9.80975ZM12.1371 7.07225L12.4059 6.93899C12.2405 6.60547 11.9203 6.575 11.8123 6.575V6.875V7.175C11.816 7.175 11.8221 7.17527 11.8291 7.17647C11.8362 7.17767 11.8421 7.17945 11.8467 7.18145C11.8508 7.18327 11.8536 7.18512 11.8558 7.18714C11.8576 7.18885 11.8625 7.19367 11.8683 7.20551L12.1371 7.07225ZM8.21019 19.625V19.325C7.96391 19.325 7.71833 19.2476 7.50647 19.0931L7.32969 19.3355L7.15291 19.5779C7.46755 19.8074 7.83696 19.925 8.21019 19.925V19.625ZM7.32969 19.3355L7.50699 19.0935C7.14392 18.8275 6.96774 18.3913 7.04471 17.9509L6.74919 17.8993L6.45367 17.8476C6.33714 18.5142 6.60646 19.1775 7.15238 19.5775L7.32969 19.3355ZM6.74919 17.8993L7.04477 17.9506L7.56677 14.9431L7.27119 14.8918L6.97561 14.8404L6.45361 17.8479L6.74919 17.8993ZM7.27119 14.8918L7.56672 14.9433C7.60387 14.7304 7.53016 14.5178 7.3781 14.3712L7.16994 14.5872L6.96177 14.8033C6.97471 14.8157 6.9775 14.8296 6.97565 14.8402L7.27119 14.8918ZM7.16994 14.5872L7.37778 14.3709L5.16078 12.2409L4.95294 12.4572L4.74509 12.6736L6.96209 14.8036L7.16994 14.5872ZM4.95294 12.4572L5.16044 12.2406C4.83521 11.9291 4.71951 11.4713 4.85677 11.0446L4.57119 10.9527L4.2856 10.8609C4.07787 11.5067 4.25467 12.2039 4.74543 12.6739L4.95294 12.4572ZM4.57119 10.9527L4.85684 11.0444C4.99551 10.6123 5.36102 10.3036 5.81581 10.2387L5.77344 9.94175L5.73107 9.64476C5.05036 9.74187 4.49486 10.2087 4.28553 10.8611L4.57119 10.9527ZM5.77344 9.94175L5.81622 10.2387L8.88222 9.79693L8.83944 9.5L8.79666 9.20307L5.73065 9.64482L5.77344 9.94175ZM8.83944 9.5L8.88081 9.79713C9.09432 9.7674 9.28356 9.63565 9.38004 9.43985L9.11094 9.30725L8.84183 9.17465C8.83631 9.18585 8.82155 9.1996 8.79806 9.20287L8.83944 9.5ZM9.11094 9.30725L9.37924 9.44147L10.7495 6.70247L10.4812 6.56825L10.2129 6.43403L8.84264 9.17303L9.11094 9.30725ZM10.4812 6.56825L10.7494 6.70257C10.9509 6.30027 11.3565 6.05 11.8124 6.05V5.75V5.45C11.1314 5.45 10.517 5.82673 10.2129 6.43393L10.4812 6.56825ZM11.8124 5.75V6.05C12.2684 6.05 12.674 6.30027 12.8754 6.70257L13.1437 6.56825L13.4119 6.43393C13.1079 5.82673 12.4935 5.45 11.8124 5.45V5.75ZM13.1437 6.56825L12.8754 6.70256L14.2464 9.44081L14.5147 9.3065L14.7829 9.17219L13.4119 6.43394L13.1437 6.56825ZM14.5147 9.3065L14.246 9.43989C14.3424 9.63423 14.5295 9.76707 14.7438 9.7971L14.7854 9.5L14.8271 9.2029C14.8059 9.19993 14.7904 9.18727 14.7834 9.17311L14.5147 9.3065ZM14.7854 9.5L14.7427 9.79693L17.8087 10.2387L17.8514 9.94175L17.8942 9.64482L14.8282 9.20307L14.7854 9.5ZM17.8514 9.94175L17.8091 10.2387C18.2639 10.3036 18.6294 10.6123 18.768 11.0444L19.0537 10.9527L19.3393 10.8611C19.13 10.2087 18.5745 9.74187 17.8938 9.64476L17.8514 9.94175ZM19.0537 10.9527L18.7681 11.0446C18.9053 11.471 18.7892 11.9289 18.4637 12.2406L18.6712 12.4572L18.8787 12.6739C19.3692 12.2041 19.5471 11.507 19.3393 10.8609L19.0537 10.9527ZM18.6712 12.4572L18.4633 12.2409L16.2463 14.3709L16.4542 14.5872L16.662 14.8036L18.879 12.6736L18.6712 12.4572ZM16.4542 14.5872L16.246 14.3712C16.0932 14.5185 16.0211 14.7316 16.0582 14.9429L16.3537 14.891L16.6492 14.8391C16.6473 14.8284 16.6502 14.815 16.6624 14.8033L16.4542 14.5872ZM16.3537 14.891L16.0581 14.9424L16.5809 17.9506L16.8764 17.8993L17.172 17.8479L16.6493 14.8396L16.3537 14.891ZM16.8764 17.8993L16.5808 17.9504C16.6573 18.392 16.4809 18.828 16.1176 19.0932L16.2944 19.3355L16.4713 19.5778C17.0185 19.1785 17.2876 18.515 17.172 17.8481L16.8764 17.8993ZM16.2944 19.3355L16.117 19.0936C15.7482 19.3641 15.27 19.4008 14.8619 19.188L14.7232 19.454L14.5845 19.72C15.1948 20.0382 15.9182 19.9834 16.4718 19.5774L16.2944 19.3355ZM14.7232 19.454L14.8612 19.1876L12.1215 17.7679L11.9834 18.0343L11.8454 18.3006L14.5852 19.7204L14.7232 19.454ZM11.9834 18.0343L12.1213 17.7678C11.9276 17.6676 11.6965 17.6676 11.5028 17.7678L11.6407 18.0343L11.7786 18.3007C11.7993 18.2899 11.8248 18.2899 11.8456 18.3007L11.9834 18.0343ZM11.6407 18.0343L11.5026 17.7679L8.76285 19.1884L8.90094 19.4548L9.03902 19.7211L11.7788 18.3006L11.6407 18.0343ZM8.90094 19.4548L8.76242 19.1886C8.58632 19.2803 8.3976 19.325 8.21019 19.325V19.625V19.925C8.49378 19.925 8.77756 19.8572 9.03946 19.7209L8.90094 19.4548Z" fill="#907FB1" mask="url(#path-1-outside-1_3334_23328)"/>
</svg>
