<svg width="24" height="25" viewBox="0 0 24 25" fill="none" xmlns="http://www.w3.org/2000/svg">
<path fill-rule="evenodd" clip-rule="evenodd" d="M11.9168 13.4638H11.9408C14.1368 13.4638 15.9225 11.678 15.9225 9.48201C15.9225 7.28601 14.1368 5.49951 11.9408 5.49951C9.74401 5.49951 7.95751 7.28601 7.95751 9.47976C7.95001 11.6698 9.72526 13.457 11.9168 13.4638ZM9.02851 9.48201C9.02851 7.87626 10.335 6.57051 11.9408 6.57051C13.5458 6.57051 14.8515 7.87626 14.8515 9.48201C14.8515 11.087 13.5458 12.3935 11.9408 12.3935H11.919C10.32 12.3875 9.02326 11.0825 9.02851 9.48201Z" fill="#907FB1"/>
<path fill-rule="evenodd" clip-rule="evenodd" d="M6 17.6295C6 20.4023 10.4715 20.4023 11.9408 20.4023C14.49 20.4023 17.88 20.1165 17.88 17.6445C17.88 14.8718 13.41 14.8718 11.9408 14.8718C9.39075 14.8718 6 15.1575 6 17.6295ZM7.125 17.6295C7.125 16.5458 8.745 15.9968 11.9408 15.9968C15.1357 15.9968 16.755 16.551 16.755 17.6445C16.755 18.7283 15.1357 19.2773 11.9408 19.2773C8.745 19.2773 7.125 18.723 7.125 17.6295Z" fill="#907FB1"/>
<path fill-rule="evenodd" clip-rule="evenodd" d="M11.9168 13.4638H11.9408C14.1368 13.4638 15.9225 11.678 15.9225 9.48201C15.9225 7.28601 14.1368 5.49951 11.9408 5.49951C9.74401 5.49951 7.95751 7.28601 7.95751 9.47976C7.95001 11.6698 9.72526 13.457 11.9168 13.4638ZM9.02851 9.48201C9.02851 7.87626 10.335 6.57051 11.9408 6.57051C13.5458 6.57051 14.8515 7.87626 14.8515 9.48201C14.8515 11.087 13.5458 12.3935 11.9408 12.3935H11.919C10.32 12.3875 9.02326 11.0825 9.02851 9.48201Z" stroke="#907FB1" stroke-width="0.375"/>
<path fill-rule="evenodd" clip-rule="evenodd" d="M6 17.6295C6 20.4023 10.4715 20.4023 11.9408 20.4023C14.49 20.4023 17.88 20.1165 17.88 17.6445C17.88 14.8718 13.41 14.8718 11.9408 14.8718C9.39075 14.8718 6 15.1575 6 17.6295ZM7.125 17.6295C7.125 16.5458 8.745 15.9968 11.9408 15.9968C15.1357 15.9968 16.755 16.551 16.755 17.6445C16.755 18.7283 15.1357 19.2773 11.9408 19.2773C8.745 19.2773 7.125 18.723 7.125 17.6295Z" stroke="#907FB1" stroke-width="0.375"/>
</svg>
