<svg width="24" height="25" viewBox="0 0 24 25" fill="none" xmlns="http://www.w3.org/2000/svg">
<mask id="path-1-outside-1_3334_23383" maskUnits="userSpaceOnUse" x="3.50049" y="4" width="12" height="17" fill="black">
<rect fill="white" x="3.50049" y="4" width="12" height="17"/>
<path fill-rule="evenodd" clip-rule="evenodd" d="M11.4897 20H7.82524C5.99224 20 4.50049 18.5082 4.50049 16.6737V8.327C4.50049 6.4925 5.99224 5 7.82524 5H11.4815C13.316 5 14.8085 6.4925 14.8085 8.327V9.026C14.8085 9.3365 14.5565 9.5885 14.246 9.5885C13.9355 9.5885 13.6835 9.3365 13.6835 9.026V8.327C13.6835 7.112 12.6957 6.125 11.4815 6.125H7.82524C6.61249 6.125 5.62549 7.112 5.62549 8.327V16.6737C5.62549 17.888 6.61249 18.875 7.82524 18.875H11.4897C12.6987 18.875 13.6835 17.891 13.6835 16.682V15.9748C13.6835 15.6643 13.9355 15.4123 14.246 15.4123C14.5565 15.4123 14.8085 15.6643 14.8085 15.9748V16.682C14.8085 18.512 13.319 20 11.4897 20Z"/>
</mask>
<path fill-rule="evenodd" clip-rule="evenodd" d="M11.4897 20H7.82524C5.99224 20 4.50049 18.5082 4.50049 16.6737V8.327C4.50049 6.4925 5.99224 5 7.82524 5H11.4815C13.316 5 14.8085 6.4925 14.8085 8.327V9.026C14.8085 9.3365 14.5565 9.5885 14.246 9.5885C13.9355 9.5885 13.6835 9.3365 13.6835 9.026V8.327C13.6835 7.112 12.6957 6.125 11.4815 6.125H7.82524C6.61249 6.125 5.62549 7.112 5.62549 8.327V16.6737C5.62549 17.888 6.61249 18.875 7.82524 18.875H11.4897C12.6987 18.875 13.6835 17.891 13.6835 16.682V15.9748C13.6835 15.6643 13.9355 15.4123 14.246 15.4123C14.5565 15.4123 14.8085 15.6643 14.8085 15.9748V16.682C14.8085 18.512 13.319 20 11.4897 20Z" fill="#F75555"/>
<path d="M11.4897 20V19.8H7.82524V20V20.2H11.4897V20ZM7.82524 20V19.8C6.10275 19.8 4.70049 18.3979 4.70049 16.6737H4.50049H4.30049C4.30049 18.6186 5.88172 20.2 7.82524 20.2V20ZM4.50049 16.6737H4.70049V8.327H4.50049H4.30049V16.6737H4.50049ZM4.50049 8.327H4.70049C4.70049 6.60284 6.10281 5.2 7.82524 5.2V5V4.8C5.88166 4.8 4.30049 6.38216 4.30049 8.327H4.50049ZM7.82524 5V5.2H11.4815V5V4.8H7.82524V5ZM11.4815 5V5.2C13.2055 5.2 14.6085 6.60296 14.6085 8.327H14.8085H15.0085C15.0085 6.38204 13.4264 4.8 11.4815 4.8V5ZM14.8085 8.327H14.6085V9.026H14.8085H15.0085V8.327H14.8085ZM14.8085 9.026H14.6085C14.6085 9.22604 14.446 9.3885 14.246 9.3885V9.5885V9.7885C14.6669 9.7885 15.0085 9.44696 15.0085 9.026H14.8085ZM14.246 9.5885V9.3885C14.0459 9.3885 13.8835 9.22604 13.8835 9.026H13.6835H13.4835C13.4835 9.44696 13.825 9.7885 14.246 9.7885V9.5885ZM13.6835 9.026H13.8835V8.327H13.6835H13.4835V9.026H13.6835ZM13.6835 8.327H13.8835C13.8835 7.0015 12.8062 5.925 11.4815 5.925V6.125V6.325C12.5853 6.325 13.4835 7.2225 13.4835 8.327H13.6835ZM11.4815 6.125V5.925H7.82524V6.125V6.325H11.4815V6.125ZM7.82524 6.125V5.925C6.5019 5.925 5.42549 7.00168 5.42549 8.327H5.62549H5.82549C5.82549 7.22232 6.72308 6.325 7.82524 6.325V6.125ZM5.62549 8.327H5.42549V16.6737H5.62549H5.82549V8.327H5.62549ZM5.62549 16.6737H5.42549C5.42549 17.9984 6.50194 19.075 7.82524 19.075V18.875V18.675C6.72303 18.675 5.82549 17.7776 5.82549 16.6737H5.62549ZM7.82524 18.875V19.075H11.4897V18.875V18.675H7.82524V18.875ZM11.4897 18.875V19.075C12.8091 19.075 13.8835 18.0015 13.8835 16.682H13.6835H13.4835C13.4835 17.7805 12.5884 18.675 11.4897 18.675V18.875ZM13.6835 16.682H13.8835V15.9748H13.6835H13.4835V16.682H13.6835ZM13.6835 15.9748H13.8835C13.8835 15.7747 14.0459 15.6123 14.246 15.6123V15.4123V15.2123C13.825 15.2123 13.4835 15.5538 13.4835 15.9748H13.6835ZM14.246 15.4123V15.6123C14.446 15.6123 14.6085 15.7747 14.6085 15.9748H14.8085H15.0085C15.0085 15.5538 14.6669 15.2123 14.246 15.2123V15.4123ZM14.8085 15.9748H14.6085V16.682H14.8085H15.0085V15.9748H14.8085ZM14.8085 16.682H14.6085C14.6085 18.4015 13.2086 19.8 11.4897 19.8V20V20.2C13.4294 20.2 15.0085 18.6225 15.0085 16.682H14.8085Z" fill="#F75555" mask="url(#path-1-outside-1_3334_23383)"/>
<mask id="mask0_3334_23383" style="mask-type:luminance" maskUnits="userSpaceOnUse" x="9" y="11" width="12" height="3">
<path d="M20.0029 11.8379V13.1621H9.64746V11.8379H20.0029Z" fill="white" stroke="white" stroke-width="0.2"/>
</mask>
<g mask="url(#mask0_3334_23383)">
<mask id="path-4-outside-2_3334_23383" maskUnits="userSpaceOnUse" x="8.74707" y="10.9375" width="12" height="3" fill="black">
<rect fill="white" x="8.74707" y="10.9375" width="12" height="3"/>
<path fill-rule="evenodd" clip-rule="evenodd" d="M19.3403 13.0625H10.3096C9.99907 13.0625 9.74707 12.8105 9.74707 12.5C9.74707 12.1895 9.99907 11.9375 10.3096 11.9375H19.3403C19.6508 11.9375 19.9028 12.1895 19.9028 12.5C19.9028 12.8105 19.6508 13.0625 19.3403 13.0625Z"/>
</mask>
<path fill-rule="evenodd" clip-rule="evenodd" d="M19.3403 13.0625H10.3096C9.99907 13.0625 9.74707 12.8105 9.74707 12.5C9.74707 12.1895 9.99907 11.9375 10.3096 11.9375H19.3403C19.6508 11.9375 19.9028 12.1895 19.9028 12.5C19.9028 12.8105 19.6508 13.0625 19.3403 13.0625Z" fill="#F75555"/>
<path d="M19.3403 13.0625V12.8625H10.3096V13.0625V13.2625H19.3403V13.0625ZM10.3096 13.0625V12.8625C10.1095 12.8625 9.94707 12.7 9.94707 12.5H9.74707H9.54707C9.54707 12.921 9.88861 13.2625 10.3096 13.2625V13.0625ZM9.74707 12.5H9.94707C9.94707 12.3 10.1095 12.1375 10.3096 12.1375V11.9375V11.7375C9.88861 11.7375 9.54707 12.079 9.54707 12.5H9.74707ZM10.3096 11.9375V12.1375H19.3403V11.9375V11.7375H10.3096V11.9375ZM19.3403 11.9375V12.1375C19.5404 12.1375 19.7028 12.3 19.7028 12.5H19.9028H20.1028C20.1028 12.079 19.7613 11.7375 19.3403 11.7375V11.9375ZM19.9028 12.5H19.7028C19.7028 12.7 19.5404 12.8625 19.3403 12.8625V13.0625V13.2625C19.7613 13.2625 20.1028 12.921 20.1028 12.5H19.9028Z" fill="#F75555" mask="url(#path-4-outside-2_3334_23383)"/>
</g>
<mask id="mask1_3334_23383" style="mask-type:luminance" maskUnits="userSpaceOnUse" x="16" y="9" width="5" height="7">
<path d="M20.0034 9.65186V15.3491H16.4829V9.65186H20.0034Z" fill="white" stroke="white" stroke-width="0.2"/>
</mask>
<g mask="url(#mask1_3334_23383)">
<mask id="path-7-outside-3_3334_23383" maskUnits="userSpaceOnUse" x="15.5825" y="8.75146" width="5" height="7" fill="black">
<rect fill="white" x="15.5825" y="8.75146" width="5" height="7"/>
<path fill-rule="evenodd" clip-rule="evenodd" d="M17.1448 15.2495C17.0008 15.2495 16.8561 15.1948 16.7466 15.0838C16.5276 14.8633 16.5283 14.5078 16.7481 14.2888L18.5436 12.5L16.7481 10.712C16.5283 10.493 16.5268 10.1375 16.7466 9.91703C16.9656 9.69653 17.3211 9.69653 17.5416 9.91553L19.7376 12.1018C19.8441 12.2068 19.9033 12.3508 19.9033 12.5C19.9033 12.6493 19.8441 12.7933 19.7376 12.8983L17.5416 15.0853C17.4321 15.1948 17.2881 15.2495 17.1448 15.2495Z"/>
</mask>
<path fill-rule="evenodd" clip-rule="evenodd" d="M17.1448 15.2495C17.0008 15.2495 16.8561 15.1948 16.7466 15.0838C16.5276 14.8633 16.5283 14.5078 16.7481 14.2888L18.5436 12.5L16.7481 10.712C16.5283 10.493 16.5268 10.1375 16.7466 9.91703C16.9656 9.69653 17.3211 9.69653 17.5416 9.91553L19.7376 12.1018C19.8441 12.2068 19.9033 12.3508 19.9033 12.5C19.9033 12.6493 19.8441 12.7933 19.7376 12.8983L17.5416 15.0853C17.4321 15.1948 17.2881 15.2495 17.1448 15.2495Z" fill="#F75555"/>
<path d="M16.7466 15.0838L16.889 14.9433L16.8885 14.9428L16.7466 15.0838ZM16.7481 14.2888L16.6069 14.1471L16.6069 14.1471L16.7481 14.2888ZM18.5436 12.5L18.6847 12.6417L18.827 12.5L18.6847 12.3583L18.5436 12.5ZM16.7481 10.712L16.6069 10.8537L16.607 10.8537L16.7481 10.712ZM16.7466 9.91703L16.8882 10.0582L16.8885 10.058L16.7466 9.91703ZM17.5416 9.91553L17.6827 9.77379L17.6825 9.77362L17.5416 9.91553ZM19.7376 12.1018L19.5965 12.2435L19.5972 12.2442L19.7376 12.1018ZM19.7376 12.8983L19.5972 12.7559L19.5965 12.7566L19.7376 12.8983ZM17.5416 15.0853L17.4005 14.9436L17.4002 14.9439L17.5416 15.0853ZM17.1448 15.2495V15.0495C17.0513 15.0495 16.9588 15.0141 16.889 14.9433L16.7466 15.0838L16.6042 15.2242C16.7534 15.3754 16.9504 15.4495 17.1448 15.4495V15.2495ZM16.7466 15.0838L16.8885 14.9428C16.7471 14.8005 16.7478 14.5714 16.8893 14.4304L16.7481 14.2888L16.6069 14.1471C16.3088 14.4442 16.3081 14.9261 16.6047 15.2247L16.7466 15.0838ZM16.7481 14.2888L16.8892 14.4305L18.6847 12.6417L18.5436 12.5L18.4024 12.3583L16.6069 14.1471L16.7481 14.2888ZM18.5436 12.5L18.6847 12.3583L16.8892 10.5703L16.7481 10.712L16.607 10.8537L18.4025 12.6417L18.5436 12.5ZM16.7481 10.712L16.8893 10.5704C16.7475 10.4291 16.7467 10.2002 16.8882 10.0582L16.7466 9.91703L16.6049 9.77585C16.307 10.0748 16.3092 10.557 16.6069 10.8537L16.7481 10.712ZM16.7466 9.91703L16.8885 10.058C17.0291 9.9164 17.258 9.91571 17.4006 10.0574L17.5416 9.91553L17.6825 9.77362C17.3842 9.47735 16.9021 9.47666 16.6047 9.77609L16.7466 9.91703ZM17.5416 9.91553L17.4005 10.0573L19.5965 12.2435L19.7376 12.1018L19.8787 11.96L17.6827 9.77379L17.5416 9.91553ZM19.7376 12.1018L19.5972 12.2442C19.6649 12.311 19.7033 12.4035 19.7033 12.5H19.9033H20.1033C20.1033 12.2981 20.0232 12.1025 19.878 11.9594L19.7376 12.1018ZM19.9033 12.5H19.7033C19.7033 12.5966 19.6649 12.689 19.5972 12.7559L19.7376 12.8983L19.878 13.0407C20.0232 12.8975 20.1033 12.702 20.1033 12.5H19.9033ZM19.7376 12.8983L19.5965 12.7566L17.4005 14.9436L17.5416 15.0853L17.6827 15.227L19.8787 13.04L19.7376 12.8983ZM17.5416 15.0853L17.4002 14.9439C17.3298 15.0143 17.2373 15.0495 17.1448 15.0495V15.2495V15.4495C17.3388 15.4495 17.5344 15.3753 17.683 15.2267L17.5416 15.0853Z" fill="#F75555" mask="url(#path-7-outside-3_3334_23383)"/>
</g>
</svg>
